<svg xmlns="http://www.w3.org/2000/svg" width="326" height="52" viewBox="0 0 326 52">
  <g id="Group_1071" data-name="Group 1071" transform="translate(-500 79)">
    <g id="Group_1070" data-name="Group 1070">
      <circle id="Ellipse_1" data-name="Ellipse 1" cx="6" cy="6" r="6" transform="translate(519 -60)" fill="#f2203f"/>
      <g id="Group_1069" data-name="Group 1069">
        <g id="crosshair" transform="translate(503 -76)">
          <circle id="Ellipse_4" data-name="Ellipse 4" cx="22.5" cy="22.5" r="22.5" transform="translate(0 0)" fill="none" stroke="#1e3c5c" stroke-linecap="round" stroke-linejoin="round" stroke-width="2"/>
          <line id="Line_12" data-name="Line 12" x1="11" transform="translate(34 24)" fill="none" stroke="#1e3c5c" stroke-linecap="round" stroke-linejoin="round" stroke-width="2"/>
          <line id="Line_13" data-name="Line 13" x1="9" transform="translate(0 24)" fill="none" stroke="#1e3c5c" stroke-linecap="round" stroke-linejoin="round" stroke-width="2"/>
          <line id="Line_14" data-name="Line 14" y1="10" transform="translate(23 0)" fill="none" stroke="#1e3c5c" stroke-linecap="round" stroke-linejoin="round" stroke-width="2"/>
          <line id="Line_15" data-name="Line 15" y1="9" transform="translate(23 36)" fill="none" stroke="#1e3c5c" stroke-linecap="round" stroke-linejoin="round" stroke-width="2"/>
        </g>
        <path id="Path_87" data-name="Path 87" d="M18.088-5.124a4.659,4.659,0,0,1-.5,2.212,4.645,4.645,0,0,1-1.386,1.6,6.488,6.488,0,0,1-2.044.98A8.881,8.881,0,0,1,11.676,0h-9.6V-19.88h10.64a3.923,3.923,0,0,1,1.876.448,4.684,4.684,0,0,1,1.428,1.162,5.325,5.325,0,0,1,.91,1.624,5.464,5.464,0,0,1,.322,1.834,5.413,5.413,0,0,1-.728,2.73,4.434,4.434,0,0,1-2.128,1.89,5.111,5.111,0,0,1,2.7,1.806A5.219,5.219,0,0,1,18.088-5.124ZM14.2-5.852a2.912,2.912,0,0,0-.182-1.022,2.838,2.838,0,0,0-.49-.854A2.282,2.282,0,0,0,12.8-8.3a2.037,2.037,0,0,0-.924-.21H5.936v5.236h5.74a2.518,2.518,0,0,0,.994-.2,2.383,2.383,0,0,0,.8-.546A2.619,2.619,0,0,0,14-4.844,2.621,2.621,0,0,0,14.2-5.852ZM5.936-16.576v5.012h5.152a2.292,2.292,0,0,0,1.666-.672,2.468,2.468,0,0,0,.686-1.848,2.554,2.554,0,0,0-.63-1.82,2.046,2.046,0,0,0-1.554-.672ZM29.6.14a9.033,9.033,0,0,1-3.962-.854,9.731,9.731,0,0,1-3.052-2.268,10.32,10.32,0,0,1-1.974-3.234,10.293,10.293,0,0,1-.7-3.724,9.992,9.992,0,0,1,.742-3.808,10.509,10.509,0,0,1,2.044-3.22,9.752,9.752,0,0,1,3.094-2.226,9.184,9.184,0,0,1,3.892-.826,8.729,8.729,0,0,1,3.934.882,9.827,9.827,0,0,1,3.038,2.31,10.636,10.636,0,0,1,1.96,3.248,10.22,10.22,0,0,1,.7,3.7,10.053,10.053,0,0,1-.728,3.794A10.3,10.3,0,0,1,36.568-2.9a9.693,9.693,0,0,1-3.08,2.212A9.184,9.184,0,0,1,29.6.14ZM23.828-9.94a8,8,0,0,0,.392,2.492A6.652,6.652,0,0,0,25.354-5.32a5.638,5.638,0,0,0,1.82,1.484,5.236,5.236,0,0,0,2.45.56A5.192,5.192,0,0,0,32.1-3.85a5.642,5.642,0,0,0,1.82-1.526,6.8,6.8,0,0,0,1.12-2.142A7.955,7.955,0,0,0,35.42-9.94a7.747,7.747,0,0,0-.406-2.492,6.871,6.871,0,0,0-1.148-2.128,5.48,5.48,0,0,0-1.82-1.47,5.284,5.284,0,0,0-2.422-.546A5.276,5.276,0,0,0,27.132-16a5.525,5.525,0,0,0-1.82,1.512,6.791,6.791,0,0,0-1.106,2.128A7.955,7.955,0,0,0,23.828-9.94Zm30.3-4.732a4.776,4.776,0,0,0-.714-.532,8.677,8.677,0,0,0-1.26-.658,10.853,10.853,0,0,0-1.61-.546,7.032,7.032,0,0,0-1.764-.224,3.956,3.956,0,0,0-2.38.588,1.945,1.945,0,0,0-.784,1.652,1.7,1.7,0,0,0,.294,1.022,2.541,2.541,0,0,0,.854.714,7.184,7.184,0,0,0,1.414.56q.854.252,1.974.532,1.456.392,2.646.84A7.17,7.17,0,0,1,54.81-9.6a4.624,4.624,0,0,1,1.274,1.61,5.337,5.337,0,0,1,.448,2.31,5.753,5.753,0,0,1-.6,2.73A5.058,5.058,0,0,1,54.306-1.12,7.059,7.059,0,0,1,51.954-.1a11.8,11.8,0,0,1-2.786.322,14.965,14.965,0,0,1-4.424-.672,13.659,13.659,0,0,1-3.92-1.9l1.708-3.332a5.4,5.4,0,0,0,.91.658A13.909,13.909,0,0,0,45-4.214a12.09,12.09,0,0,0,1.988.686,8.983,8.983,0,0,0,2.24.28q3.192,0,3.192-2.044a1.676,1.676,0,0,0-.364-1.092,3.087,3.087,0,0,0-1.036-.784,9.917,9.917,0,0,0-1.624-.616q-.952-.28-2.128-.616a18.091,18.091,0,0,1-2.478-.854,6.515,6.515,0,0,1-1.75-1.092,4.092,4.092,0,0,1-1.05-1.456,5.044,5.044,0,0,1-.35-1.974,6.18,6.18,0,0,1,.56-2.688,5.433,5.433,0,0,1,1.554-1.96,7.04,7.04,0,0,1,2.31-1.19,9.545,9.545,0,0,1,2.828-.406,10.975,10.975,0,0,1,3.864.658,14.39,14.39,0,0,1,3.08,1.554Zm20.048-1.82H67.816V0H63.98V-16.492H57.624V-19.88H74.172ZM84.2.14a9.033,9.033,0,0,1-3.962-.854,9.731,9.731,0,0,1-3.052-2.268,10.32,10.32,0,0,1-1.974-3.234,10.293,10.293,0,0,1-.7-3.724,9.992,9.992,0,0,1,.742-3.808,10.509,10.509,0,0,1,2.044-3.22,9.752,9.752,0,0,1,3.094-2.226,9.184,9.184,0,0,1,3.892-.826,8.729,8.729,0,0,1,3.934.882,9.827,9.827,0,0,1,3.038,2.31,10.636,10.636,0,0,1,1.96,3.248,10.22,10.22,0,0,1,.7,3.7,10.053,10.053,0,0,1-.728,3.794A10.3,10.3,0,0,1,91.168-2.9a9.693,9.693,0,0,1-3.08,2.212A9.184,9.184,0,0,1,84.2.14ZM78.428-9.94a8,8,0,0,0,.392,2.492A6.652,6.652,0,0,0,79.954-5.32a5.638,5.638,0,0,0,1.82,1.484,5.236,5.236,0,0,0,2.45.56A5.192,5.192,0,0,0,86.7-3.85a5.642,5.642,0,0,0,1.82-1.526,6.8,6.8,0,0,0,1.12-2.142A7.955,7.955,0,0,0,90.02-9.94a7.747,7.747,0,0,0-.406-2.492,6.871,6.871,0,0,0-1.148-2.128,5.48,5.48,0,0,0-1.82-1.47,5.284,5.284,0,0,0-2.422-.546A5.275,5.275,0,0,0,81.732-16a5.525,5.525,0,0,0-1.82,1.512,6.791,6.791,0,0,0-1.106,2.128A7.955,7.955,0,0,0,78.428-9.94Zm22.316-2.8V0H96.88V-19.88h3l10.36,13.048v-13.02H114.1V0h-3.136ZM125.8,0V-19.88h13.048v1.736H127.764v7.308h9.352v1.624h-9.352V0ZM142.3,0V-19.88h1.96V0Zm6.944,0V-19.88h8.4a5.16,5.16,0,0,1,2.366.546,6.235,6.235,0,0,1,1.862,1.428,6.548,6.548,0,0,1,1.218,2,6.231,6.231,0,0,1,.434,2.268,6.726,6.726,0,0,1-.322,2.086,6.448,6.448,0,0,1-.9,1.792,5.421,5.421,0,0,1-1.386,1.344,4.9,4.9,0,0,1-1.82.742L163.968,0h-2.212L157.08-7.336H151.2V0Zm1.96-9.072h6.5a3.328,3.328,0,0,0,1.582-.378,3.774,3.774,0,0,0,1.218-1.022,4.972,4.972,0,0,0,.784-1.456,5.2,5.2,0,0,0,.28-1.708,4.7,4.7,0,0,0-.322-1.722,4.754,4.754,0,0,0-.868-1.442,4.142,4.142,0,0,0-1.288-.98,3.485,3.485,0,0,0-1.554-.364H151.2Zm29.68,7.336V0H167.524V-19.88h13.1v1.736H169.484v7.168H179.2v1.652h-9.716v7.588Zm9.856-18.144h1.652L200.648,0h-2.072L196-6.216h-8.932L184.52,0h-2.1Zm4.816,12.124-4-9.828-4.06,9.828ZM203.5,0V-19.88h8.4a5.161,5.161,0,0,1,2.366.546,6.235,6.235,0,0,1,1.862,1.428,6.548,6.548,0,0,1,1.218,2,6.231,6.231,0,0,1,.434,2.268,6.726,6.726,0,0,1-.322,2.086,6.448,6.448,0,0,1-.9,1.792,5.421,5.421,0,0,1-1.386,1.344,4.9,4.9,0,0,1-1.82.742L218.232,0H216.02l-4.676-7.336h-5.88V0Zm1.96-9.072h6.5a3.328,3.328,0,0,0,1.582-.378,3.774,3.774,0,0,0,1.218-1.022,4.972,4.972,0,0,0,.784-1.456,5.2,5.2,0,0,0,.28-1.708,4.7,4.7,0,0,0-.322-1.722,4.754,4.754,0,0,0-.868-1.442,4.142,4.142,0,0,0-1.288-.98,3.485,3.485,0,0,0-1.554-.364h-6.328ZM239.4,0V-16.324L232.148-3.7H231l-7.252-12.628V0h-1.96V-19.88H223.8L231.56-6.272l7.812-13.608h1.988V0Zm18.564-16.156a6.05,6.05,0,0,0-2.24-1.54,8.179,8.179,0,0,0-3.192-.588,6,6,0,0,0-3.836.994,3.318,3.318,0,0,0-1.2,2.7,2.982,2.982,0,0,0,.322,1.47,2.81,2.81,0,0,0,.994.994,6.966,6.966,0,0,0,1.722.728q1.05.308,2.478.616a26.935,26.935,0,0,1,2.87.756,8.239,8.239,0,0,1,2.17,1.05,4.355,4.355,0,0,1,1.372,1.526,4.738,4.738,0,0,1,.476,2.24,5.031,5.031,0,0,1-.532,2.38,4.743,4.743,0,0,1-1.484,1.68,6.618,6.618,0,0,1-2.268.994,12.127,12.127,0,0,1-2.884.322,11.854,11.854,0,0,1-7.98-2.884l.98-1.6A7.768,7.768,0,0,0,247-3.248a9.234,9.234,0,0,0,1.652.882,10.5,10.5,0,0,0,1.946.588,10.976,10.976,0,0,0,2.184.21,6.842,6.842,0,0,0,3.71-.854,2.869,2.869,0,0,0,1.33-2.59,2.972,2.972,0,0,0-.378-1.554,3.274,3.274,0,0,0-1.134-1.092,8.035,8.035,0,0,0-1.876-.8q-1.12-.336-2.6-.672-1.568-.364-2.744-.756a7.315,7.315,0,0,1-1.988-.98,3.818,3.818,0,0,1-1.218-1.414,4.575,4.575,0,0,1-.406-2.03,5.588,5.588,0,0,1,.518-2.45,4.813,4.813,0,0,1,1.47-1.792,6.961,6.961,0,0,1,2.24-1.092,10.121,10.121,0,0,1,2.856-.378,9.751,9.751,0,0,1,3.542.6,9.511,9.511,0,0,1,2.814,1.694Z" transform="translate(562 -45)" fill="#1e3c5c"/>
      </g>
    </g>
    <rect id="Rectangle_101" data-name="Rectangle 101" width="326" height="52" transform="translate(500 -79)" fill="none"/>
  </g>
</svg>
