<svg xmlns="http://www.w3.org/2000/svg" width="484" height="74" viewBox="0 0 484 74">
  <g id="Group_1073" data-name="Group 1073" transform="translate(-548 -8067)">
    <g id="Group_1072" data-name="Group 1072">
      <ellipse id="Ellipse_1" data-name="Ellipse 1" cx="9" cy="9.5" rx="9" ry="9.5" transform="translate(575 8095)" fill="#fa311f"/>
      <g id="crosshair" transform="translate(552 8071)">
        <circle id="Ellipse_4" data-name="Ellipse 4" cx="33" cy="33" r="33" transform="translate(0 0)" fill="none" stroke="#fff" stroke-linecap="round" stroke-linejoin="round" stroke-width="2"/>
        <line id="Line_12" data-name="Line 12" x1="15" transform="translate(51 35)" fill="none" stroke="#fff" stroke-linecap="round" stroke-linejoin="round" stroke-width="2"/>
        <line id="Line_13" data-name="Line 13" x1="13" transform="translate(0 35)" fill="none" stroke="#fff" stroke-linecap="round" stroke-linejoin="round" stroke-width="2"/>
        <line id="Line_14" data-name="Line 14" y1="15" transform="translate(34 0)" fill="none" stroke="#fff" stroke-linecap="round" stroke-linejoin="round" stroke-width="2"/>
        <line id="Line_15" data-name="Line 15" y1="13" transform="translate(34 53)" fill="none" stroke="#fff" stroke-linecap="round" stroke-linejoin="round" stroke-width="2"/>
      </g>
      <path id="Path_88" data-name="Path 88" d="M27.132-7.686a6.989,6.989,0,0,1-.756,3.318A6.968,6.968,0,0,1,24.3-1.974,9.732,9.732,0,0,1,21.231-.5a13.322,13.322,0,0,1-3.717.5H3.108V-29.82h15.96a5.885,5.885,0,0,1,2.814.672,7.026,7.026,0,0,1,2.142,1.743,7.988,7.988,0,0,1,1.365,2.436,8.2,8.2,0,0,1,.483,2.751,8.12,8.12,0,0,1-1.092,4.1,6.651,6.651,0,0,1-3.192,2.835,7.667,7.667,0,0,1,4.053,2.709A7.829,7.829,0,0,1,27.132-7.686ZM21.294-8.778a4.367,4.367,0,0,0-.273-1.533,4.257,4.257,0,0,0-.735-1.281,3.423,3.423,0,0,0-1.092-.861,3.055,3.055,0,0,0-1.386-.315H8.9v7.854h8.61a3.778,3.778,0,0,0,1.491-.294,3.574,3.574,0,0,0,1.2-.819A3.928,3.928,0,0,0,21-7.266,3.932,3.932,0,0,0,21.294-8.778ZM8.9-24.864v7.518h7.728a3.438,3.438,0,0,0,2.5-1.008,3.7,3.7,0,0,0,1.029-2.772,3.831,3.831,0,0,0-.945-2.73,3.069,3.069,0,0,0-2.331-1.008ZM44.394.21a13.549,13.549,0,0,1-5.943-1.281,14.6,14.6,0,0,1-4.578-3.4,15.48,15.48,0,0,1-2.961-4.851,15.439,15.439,0,0,1-1.05-5.586,14.987,14.987,0,0,1,1.113-5.712,15.763,15.763,0,0,1,3.066-4.83,14.627,14.627,0,0,1,4.641-3.339A13.776,13.776,0,0,1,44.52-30.03a13.094,13.094,0,0,1,5.9,1.323,14.74,14.74,0,0,1,4.557,3.465,15.953,15.953,0,0,1,2.94,4.872,15.33,15.33,0,0,1,1.05,5.544,15.079,15.079,0,0,1-1.092,5.691,15.45,15.45,0,0,1-3.024,4.788,14.54,14.54,0,0,1-4.62,3.318A13.776,13.776,0,0,1,44.394.21ZM35.742-14.91a12,12,0,0,0,.588,3.738,9.978,9.978,0,0,0,1.7,3.192,8.457,8.457,0,0,0,2.73,2.226,7.854,7.854,0,0,0,3.675.84,7.788,7.788,0,0,0,3.717-.861,8.464,8.464,0,0,0,2.73-2.289,10.2,10.2,0,0,0,1.68-3.213,11.932,11.932,0,0,0,.567-3.633,11.62,11.62,0,0,0-.609-3.738A10.306,10.306,0,0,0,50.8-21.84a8.22,8.22,0,0,0-2.73-2.2,7.926,7.926,0,0,0-3.633-.819A7.913,7.913,0,0,0,40.7-24a8.287,8.287,0,0,0-2.73,2.268,10.186,10.186,0,0,0-1.659,3.192A11.932,11.932,0,0,0,35.742-14.91Zm45.444-7.1a7.164,7.164,0,0,0-1.071-.8,13.016,13.016,0,0,0-1.89-.987,16.279,16.279,0,0,0-2.415-.819,10.547,10.547,0,0,0-2.646-.336,5.934,5.934,0,0,0-3.57.882,2.918,2.918,0,0,0-1.176,2.478,2.547,2.547,0,0,0,.441,1.533,3.812,3.812,0,0,0,1.281,1.071,10.776,10.776,0,0,0,2.121.84q1.281.378,2.961.8,2.184.588,3.969,1.26a10.754,10.754,0,0,1,3.024,1.68,6.937,6.937,0,0,1,1.911,2.415A8.006,8.006,0,0,1,84.8-8.526a8.629,8.629,0,0,1-.9,4.095A7.587,7.587,0,0,1,81.459-1.68,10.588,10.588,0,0,1,77.931-.147a17.7,17.7,0,0,1-4.179.483A22.447,22.447,0,0,1,67.116-.672a20.488,20.488,0,0,1-5.88-2.856l2.562-5a8.094,8.094,0,0,0,1.365.987,20.863,20.863,0,0,0,2.331,1.218,18.135,18.135,0,0,0,2.982,1.029,13.474,13.474,0,0,0,3.36.42q4.788,0,4.788-3.066a2.514,2.514,0,0,0-.546-1.638,4.631,4.631,0,0,0-1.554-1.176,14.875,14.875,0,0,0-2.436-.924Q72.66-12.1,70.9-12.6a27.136,27.136,0,0,1-3.717-1.281,9.772,9.772,0,0,1-2.625-1.638A6.138,6.138,0,0,1,62.979-17.7a7.565,7.565,0,0,1-.525-2.961,9.27,9.27,0,0,1,.84-4.032,8.149,8.149,0,0,1,2.331-2.94,10.56,10.56,0,0,1,3.465-1.785,14.318,14.318,0,0,1,4.242-.609,16.462,16.462,0,0,1,5.8.987,21.585,21.585,0,0,1,4.62,2.331Zm30.072-2.73h-9.534V0H95.97V-24.738H86.436V-29.82h24.822ZM126.294.21a13.549,13.549,0,0,1-5.943-1.281,14.6,14.6,0,0,1-4.578-3.4,15.48,15.48,0,0,1-2.961-4.851,15.439,15.439,0,0,1-1.05-5.586,14.987,14.987,0,0,1,1.113-5.712,15.763,15.763,0,0,1,3.066-4.83,14.627,14.627,0,0,1,4.641-3.339,13.776,13.776,0,0,1,5.838-1.239,13.094,13.094,0,0,1,5.9,1.323,14.74,14.74,0,0,1,4.557,3.465,15.953,15.953,0,0,1,2.94,4.872,15.33,15.33,0,0,1,1.05,5.544,15.079,15.079,0,0,1-1.092,5.691,15.45,15.45,0,0,1-3.024,4.788,14.54,14.54,0,0,1-4.62,3.318A13.776,13.776,0,0,1,126.294.21Zm-8.652-15.12a12,12,0,0,0,.588,3.738,9.978,9.978,0,0,0,1.7,3.192,8.457,8.457,0,0,0,2.73,2.226,7.854,7.854,0,0,0,3.675.84,7.788,7.788,0,0,0,3.717-.861,8.464,8.464,0,0,0,2.73-2.289,10.2,10.2,0,0,0,1.68-3.213,11.932,11.932,0,0,0,.567-3.633,11.62,11.62,0,0,0-.609-3.738A10.306,10.306,0,0,0,132.7-21.84a8.22,8.22,0,0,0-2.73-2.2,7.926,7.926,0,0,0-3.633-.819A7.913,7.913,0,0,0,122.6-24a8.287,8.287,0,0,0-2.73,2.268,10.186,10.186,0,0,0-1.659,3.192A11.932,11.932,0,0,0,117.642-14.91Zm33.474-4.2V0h-5.8V-29.82h4.494l15.54,19.572v-19.53h5.8V0h-4.7ZM188.706,0V-29.82h19.572v2.6H191.646v10.962h14.028v2.436H191.646V0Zm24.738,0V-29.82h2.94V0ZM223.86,0V-29.82h12.6a7.741,7.741,0,0,1,3.549.819,9.353,9.353,0,0,1,2.793,2.142,9.823,9.823,0,0,1,1.827,3,9.347,9.347,0,0,1,.651,3.4,10.09,10.09,0,0,1-.483,3.129,9.674,9.674,0,0,1-1.344,2.688,8.131,8.131,0,0,1-2.079,2.016,7.351,7.351,0,0,1-2.73,1.113L245.952,0h-3.318L235.62-11H226.8V0Zm2.94-13.608h9.744a4.992,4.992,0,0,0,2.373-.567,5.66,5.66,0,0,0,1.827-1.533,7.458,7.458,0,0,0,1.176-2.184,7.8,7.8,0,0,0,.42-2.562,7.05,7.05,0,0,0-.483-2.583,7.131,7.131,0,0,0-1.3-2.163,6.214,6.214,0,0,0-1.932-1.47,5.228,5.228,0,0,0-2.331-.546H226.8Zm44.52,11V0H251.286V-29.82h19.656v2.6H254.226v10.752H268.8v2.478H254.226V-2.6ZM286.1-29.82h2.478L300.972,0h-3.108L294-9.324H280.6L276.78,0h-3.15Zm7.224,18.186-6.006-14.742-6.09,14.742ZM305.256,0V-29.82h12.6A7.741,7.741,0,0,1,321.4-29a9.352,9.352,0,0,1,2.793,2.142,9.822,9.822,0,0,1,1.827,3,9.347,9.347,0,0,1,.651,3.4,10.09,10.09,0,0,1-.483,3.129,9.673,9.673,0,0,1-1.344,2.688,8.131,8.131,0,0,1-2.079,2.016,7.351,7.351,0,0,1-2.73,1.113L327.348,0H324.03l-7.014-11H308.2V0Zm2.94-13.608h9.744a4.992,4.992,0,0,0,2.373-.567,5.661,5.661,0,0,0,1.827-1.533,7.458,7.458,0,0,0,1.176-2.184,7.8,7.8,0,0,0,.42-2.562,7.05,7.05,0,0,0-.483-2.583,7.131,7.131,0,0,0-1.3-2.163,6.214,6.214,0,0,0-1.932-1.47,5.228,5.228,0,0,0-2.331-.546H308.2ZM359.1,0V-24.486L348.222-5.544H346.5L335.622-24.486V0h-2.94V-29.82h3.024L347.34-9.408,359.058-29.82h2.982V0Zm27.846-24.234a9.075,9.075,0,0,0-3.36-2.31,12.268,12.268,0,0,0-4.788-.882q-3.948,0-5.754,1.491a4.978,4.978,0,0,0-1.806,4.053,4.473,4.473,0,0,0,.483,2.205,4.216,4.216,0,0,0,1.491,1.491,10.449,10.449,0,0,0,2.583,1.092q1.575.462,3.717.924a40.4,40.4,0,0,1,4.3,1.134,12.357,12.357,0,0,1,3.255,1.575,6.532,6.532,0,0,1,2.058,2.289,7.107,7.107,0,0,1,.714,3.36,7.546,7.546,0,0,1-.8,3.57,7.115,7.115,0,0,1-2.226,2.52,9.927,9.927,0,0,1-3.4,1.491,18.191,18.191,0,0,1-4.326.483,17.78,17.78,0,0,1-11.97-4.326l1.47-2.394a11.653,11.653,0,0,0,1.911,1.6,13.851,13.851,0,0,0,2.478,1.323,15.744,15.744,0,0,0,2.919.882,16.463,16.463,0,0,0,3.276.315,10.264,10.264,0,0,0,5.565-1.281,4.3,4.3,0,0,0,1.995-3.885,4.458,4.458,0,0,0-.567-2.331,4.911,4.911,0,0,0-1.7-1.638,12.052,12.052,0,0,0-2.814-1.2q-1.68-.5-3.906-1.008-2.352-.546-4.116-1.134a10.973,10.973,0,0,1-2.982-1.47,5.726,5.726,0,0,1-1.827-2.121,6.862,6.862,0,0,1-.609-3.045,8.382,8.382,0,0,1,.777-3.675,7.22,7.22,0,0,1,2.2-2.688,10.442,10.442,0,0,1,3.36-1.638,15.182,15.182,0,0,1,4.284-.567,14.627,14.627,0,0,1,5.313.9,14.267,14.267,0,0,1,4.221,2.541Z" transform="translate(639 8118)" fill="#fff"/>
    </g>
    <rect id="Rectangle_102" data-name="Rectangle 102" width="484" height="74" transform="translate(548 8067)" fill="none"/>
  </g>
</svg>
