<svg xmlns="http://www.w3.org/2000/svg" width="383.682" height="60" viewBox="0 0 383.682 60">
  <g id="Сгруппировать_11145" data-name="Сгруппировать 11145" transform="translate(-13010 -13075)">
    <circle id="Эллипс_1" data-name="Эллипс 1" cx="8" cy="8" r="8" transform="translate(13032 13097)" fill="#fa311f"/>
    <g id="crosshair" transform="translate(13011 13076)">
      <circle id="Эллипс_4" data-name="Эллипс 4" cx="29" cy="29" r="29" fill="none" stroke="#000" stroke-linecap="round" stroke-linejoin="round" stroke-width="2"/>
      <line id="Линия_12" data-name="Линия 12" x1="11" transform="translate(47 30)" fill="none" stroke="#000" stroke-linecap="round" stroke-linejoin="round" stroke-width="2"/>
      <line id="Линия_13" data-name="Линия 13" x1="11" transform="translate(0 30)" fill="none" stroke="#000" stroke-linecap="round" stroke-linejoin="round" stroke-width="2"/>
      <line id="Линия_14" data-name="Линия 14" y1="11" transform="translate(30)" fill="none" stroke="#000" stroke-linecap="round" stroke-linejoin="round" stroke-width="2"/>
      <line id="Линия_15" data-name="Линия 15" y1="11" transform="translate(30 47)" fill="none" stroke="#000" stroke-linecap="round" stroke-linejoin="round" stroke-width="2"/>
    </g>
    <path id="Контур_12265" data-name="Контур 12265" d="M20.979-6.085a5.236,5.236,0,0,1-2.18,4.5A10.111,10.111,0,0,1,12.745,0H2.074V-21.328h9.763a10.591,10.591,0,0,1,5.911,1.355,4.519,4.519,0,0,1,2.006,4A4.728,4.728,0,0,1,18.747-12.9a5.156,5.156,0,0,1-3.065,1.688,6.559,6.559,0,0,1,3.943,1.627A4.679,4.679,0,0,1,20.979-6.085Zm-5.722-9.279a2.265,2.265,0,0,0-.916-2.043,4.96,4.96,0,0,0-2.717-.605H6.539v5.283h5.116a4.536,4.536,0,0,0,2.747-.658A2.337,2.337,0,0,0,15.258-15.364ZM16.5-6.433q0-3-4.3-3H6.539v6.115h5.828a5.086,5.086,0,0,0,3.141-.78A2.793,2.793,0,0,0,16.5-6.433Zm29.009-4.329A12.5,12.5,0,0,1,44.191-4.9a9.083,9.083,0,0,1-3.769,3.867A11.75,11.75,0,0,1,34.7.3a10.431,10.431,0,0,1-7.879-2.959,11.188,11.188,0,0,1-2.853-8.106q0-5.131,2.846-8.007t7.917-2.876q5.071,0,7.924,2.906A10.9,10.9,0,0,1,45.508-10.762Zm-4.556,0a8.2,8.2,0,0,0-1.635-5.411,5.642,5.642,0,0,0-4.586-1.96A5.715,5.715,0,0,0,30.1-16.189a8.189,8.189,0,0,0-1.635,5.427A8.421,8.421,0,0,0,30.137-5.23,5.609,5.609,0,0,0,34.7-3.209a5.662,5.662,0,0,0,4.624-1.968A8.541,8.541,0,0,0,40.952-10.762ZM66.586-6.146a5.521,5.521,0,0,1-2.323,4.791Q61.939.3,57.443.3A12.126,12.126,0,0,1,51.01-1.15a6.667,6.667,0,0,1-3-4.4l4.314-.711a3.838,3.838,0,0,0,1.71,2.46,6.854,6.854,0,0,0,3.527.764q4.677,0,4.677-2.846a2.141,2.141,0,0,0-.537-1.5,4.062,4.062,0,0,0-1.514-.984,25.212,25.212,0,0,0-3.746-.954,33.955,33.955,0,0,1-3.33-.9,9.413,9.413,0,0,1-1.7-.8,5,5,0,0,1-1.287-1.113,4.837,4.837,0,0,1-.825-1.529,6.309,6.309,0,0,1-.3-2.013,5.09,5.09,0,0,1,2.172-4.427,10.89,10.89,0,0,1,6.32-1.536A11.431,11.431,0,0,1,63.46-20.4a5.921,5.921,0,0,1,2.566,4.1l-4.329.59a3.346,3.346,0,0,0-1.355-2.074,5.181,5.181,0,0,0-2.929-.7q-4.057,0-4.057,2.543a2.088,2.088,0,0,0,.431,1.362,3.336,3.336,0,0,0,1.279.9,21.913,21.913,0,0,0,3.436.931,27.4,27.4,0,0,1,4.4,1.2A6.833,6.833,0,0,1,65-10.255,4.9,4.9,0,0,1,66.177-8.5,6.3,6.3,0,0,1,66.586-6.146ZM79.807-17.876V0H75.342V-17.876H68.455v-3.451H86.71v3.451Zm29.8,7.114A12.5,12.5,0,0,1,108.287-4.9a9.083,9.083,0,0,1-3.769,3.867A11.75,11.75,0,0,1,98.8.3a10.431,10.431,0,0,1-7.879-2.959,11.188,11.188,0,0,1-2.853-8.106q0-5.131,2.846-8.007t7.917-2.876q5.071,0,7.924,2.906A10.9,10.9,0,0,1,109.6-10.762Zm-4.556,0a8.2,8.2,0,0,0-1.635-5.411,5.642,5.642,0,0,0-4.586-1.96,5.715,5.715,0,0,0-4.632,1.945,8.189,8.189,0,0,0-1.635,5.427A8.421,8.421,0,0,0,94.232-5.23,5.609,5.609,0,0,0,98.8-3.209a5.662,5.662,0,0,0,4.624-1.968A8.541,8.541,0,0,0,105.048-10.762ZM126.277,0l-9.294-16.423a35.628,35.628,0,0,1,.272,3.845V0h-3.966V-21.328h5.1l9.43,16.56a35.425,35.425,0,0,1-.272-4.163v-12.4h3.966V0Zm23.1-17.876v6.6h10.914v3.451H149.375V0h-4.465V-21.328h15.727v3.451ZM164.155,0V-21.328h4.465V0ZM187.73,0l-4.95-8.1h-5.237V0h-4.465V-21.328h10.656a9.284,9.284,0,0,1,5.888,1.642A5.661,5.661,0,0,1,191.7-14.97a6.094,6.094,0,0,1-1.271,3.867,5.961,5.961,0,0,1-3.436,2.142L192.756,0Zm-.53-14.789q0-3.073-3.936-3.073h-5.722v6.3h5.843a4.2,4.2,0,0,0,2.846-.848A2.99,2.99,0,0,0,187.2-14.789ZM195.775,0V-21.328h16.771v3.451H200.241v5.358h11.383v3.451H200.241v5.616h12.927V0Zm36.063,0-1.892-5.449h-8.128L219.926,0H215.46l7.78-21.328h5.268L236.258,0Zm-5.964-18.043-.091.333q-.151.545-.363,1.241t-2.6,7.659h6.13l-2.1-6.13L226.192-17ZM254.112,0l-4.95-8.1h-5.237V0h-4.465V-21.328h10.656A9.284,9.284,0,0,1,256-19.685a5.661,5.661,0,0,1,2.074,4.715,6.094,6.094,0,0,1-1.271,3.867,5.961,5.961,0,0,1-3.436,2.142L259.137,0Zm-.53-14.789q0-3.073-3.936-3.073h-5.722v6.3h5.843a4.2,4.2,0,0,0,2.846-.848A2.99,2.99,0,0,0,253.582-14.789ZM279.866,0V-12.927q0-.439.008-.878t.144-3.769q-1.075,4.072-1.589,5.676L274.584,0H271.4L267.56-11.9l-1.62-5.676q.182,3.512.182,4.647V0h-3.966V-21.328h5.979L271.95-9.4l.333,1.15.727,2.861.954-3.421,3.92-12.518h5.949V0Zm25.815-6.146a5.521,5.521,0,0,1-2.323,4.791Q301.035.3,296.539.3a12.126,12.126,0,0,1-6.433-1.453,6.667,6.667,0,0,1-3-4.4l4.314-.711a3.838,3.838,0,0,0,1.71,2.46,6.854,6.854,0,0,0,3.527.764q4.677,0,4.677-2.846a2.141,2.141,0,0,0-.537-1.5,4.062,4.062,0,0,0-1.514-.984,25.212,25.212,0,0,0-3.746-.954,33.955,33.955,0,0,1-3.33-.9,9.413,9.413,0,0,1-1.7-.8,5,5,0,0,1-1.287-1.113,4.837,4.837,0,0,1-.825-1.529,6.309,6.309,0,0,1-.3-2.013,5.09,5.09,0,0,1,2.172-4.427,10.89,10.89,0,0,1,6.32-1.536,11.431,11.431,0,0,1,5.956,1.241,5.921,5.921,0,0,1,2.566,4.1l-4.329.59a3.346,3.346,0,0,0-1.355-2.074,5.181,5.181,0,0,0-2.929-.7q-4.057,0-4.057,2.543a2.088,2.088,0,0,0,.431,1.362,3.336,3.336,0,0,0,1.279.9,21.913,21.913,0,0,0,3.436.931,27.4,27.4,0,0,1,4.4,1.2,6.833,6.833,0,0,1,2.1,1.287A4.9,4.9,0,0,1,305.273-8.5,6.3,6.3,0,0,1,305.682-6.146Z" transform="translate(13088 13115)"/>
  </g>
</svg>
