<svg xmlns="http://www.w3.org/2000/svg" width="177.603" height="64.138" viewBox="0 0 177.603 64.138">
  <g id="Сгруппировать_81" data-name="Сгруппировать 81" transform="translate(-211.143 -498.01)">
    <g id="Сгруппировать_1" data-name="Сгруппировать 1" transform="translate(211.143 537.876)">
      <path id="Контур_4" data-name="Контур 4" d="M985.7,706.257v5.134h10.3v5.1H985.7v8h-6.6V701.155h18.3v5.1Z" transform="translate(-979.104 -700.688)" fill="#1e3c5c"/>
      <path id="Контур_5" data-name="Контур 5" d="M1003.46,701.155h6.6v23.337h-6.6Z" transform="translate(-982.798 -700.688)" fill="#1e3c5c"/>
      <path id="Контур_6" data-name="Контур 6" d="M1024.222,718.292h-3.6v6.2h-6.6V701.155h10.668a13.33,13.33,0,0,1,5.5,1.05,8.49,8.49,0,0,1,3.684,12,8.014,8.014,0,0,1-3.385,2.951l5.035,7.334h-7.068Zm3.135-11.035a4.549,4.549,0,0,0-3.068-.9h-3.667v6.833h3.667a4.613,4.613,0,0,0,3.068-.883,3.128,3.128,0,0,0,1.033-2.517A3.18,3.18,0,0,0,1027.357,707.257Z" transform="translate(-984.4 -700.688)" fill="#1e3c5c"/>
      <path id="Контур_7" data-name="Контур 7" d="M1060.886,719.391v5.1H1042.15V701.155h18.3v5.1h-11.769v3.934h10.368v4.934h-10.368v4.267Z" transform="translate(-988.667 -700.688)" fill="#1e3c5c"/>
      <path id="Контур_8" data-name="Контур 8" d="M1085.453,719.959h-9.868l-1.834,4.533h-6.734l10.3-23.337h6.5l10.335,23.337h-6.868Zm-1.933-4.868-3-7.468-3,7.468Z" transform="translate(-992.438 -700.688)" fill="#1e3c5c"/>
      <path id="Контур_9" data-name="Контур 9" d="M1111.988,718.292h-3.6v6.2h-6.6V701.155h10.668a13.33,13.33,0,0,1,5.5,1.05,8.49,8.49,0,0,1,3.684,12,8.014,8.014,0,0,1-3.385,2.951l5.035,7.334h-7.068Zm3.135-11.035a4.549,4.549,0,0,0-3.068-.9h-3.667v6.833h3.667a4.613,4.613,0,0,0,3.068-.883,3.128,3.128,0,0,0,1.033-2.517A3.18,3.18,0,0,0,1115.123,707.257Z" transform="translate(-997.712 -700.688)" fill="#1e3c5c"/>
      <path id="Контур_10" data-name="Контур 10" d="M1150.985,724.492l-.066-12.369-6,10.068h-2.934l-5.968-9.734v12.035h-6.1V701.155h5.434l8.2,13.469,8-13.469h5.434l.067,23.337Z" transform="translate(-1001.978 -700.688)" fill="#1e3c5c"/>
      <path id="Контур_11" data-name="Контур 11" d="M1169.019,724.176a13.535,13.535,0,0,1-4.333-1.866l2.167-4.868a14.768,14.768,0,0,0,7.7,2.3q3.8,0,3.8-1.9a1.574,1.574,0,0,0-1.084-1.485,19.965,19.965,0,0,0-3.484-1.016,33.273,33.273,0,0,1-4.4-1.216,7.388,7.388,0,0,1-3.034-2.084,5.624,5.624,0,0,1-1.268-3.868,6.7,6.7,0,0,1,1.167-3.851,7.806,7.806,0,0,1,3.484-2.717,14.337,14.337,0,0,1,5.685-1,20.051,20.051,0,0,1,4.533.517,13.868,13.868,0,0,1,3.935,1.517l-2.034,4.9a13.582,13.582,0,0,0-6.468-1.8,5.432,5.432,0,0,0-2.867.583,1.751,1.751,0,0,0-.9,1.518,1.5,1.5,0,0,0,1.067,1.4,19.28,19.28,0,0,0,3.433.967,32.05,32.05,0,0,1,4.418,1.217,7.627,7.627,0,0,1,3.034,2.066,5.523,5.523,0,0,1,1.284,3.851,6.566,6.566,0,0,1-1.167,3.8,7.95,7.95,0,0,1-3.5,2.717,14.18,14.18,0,0,1-5.668,1.017A21.588,21.588,0,0,1,1169.019,724.176Z" transform="translate(-1007.252 -700.605)" fill="#1e3c5c"/>
    </g>
    <g id="Сгруппировать_3" data-name="Сгруппировать 3" transform="translate(224.79 498.01)">
      <path id="Контур_12" data-name="Контур 12" d="M801.721,714.508a5.728,5.728,0,0,1,1.133,3.583,5.38,5.38,0,0,1-2.466,4.734q-2.469,1.667-7.135,1.667h-12.6V701.155h11.936q4.466,0,6.8,1.652a5.178,5.178,0,0,1,2.333,4.45,5.541,5.541,0,0,1-.816,2.984,5.72,5.72,0,0,1-2.318,2.083A6.553,6.553,0,0,1,801.721,714.508Zm-14.535-8.585v4.5h4.533q3.334,0,3.334-2.267,0-2.234-3.334-2.234Zm9,11.435q0-2.367-3.466-2.368h-5.534v4.735h5.534Q796.186,719.725,796.186,717.358Z" transform="translate(-780.651 -697.822)" fill="#1e3c5c"/>
      <path id="Контур_13" data-name="Контур 13" d="M848.888,724.176a13.533,13.533,0,0,1-4.333-1.866l2.167-4.868a14.769,14.769,0,0,0,7.7,2.3q3.8,0,3.8-1.9a1.574,1.574,0,0,0-1.084-1.485,19.965,19.965,0,0,0-3.484-1.016,33.268,33.268,0,0,1-4.4-1.216,7.388,7.388,0,0,1-3.034-2.084,5.624,5.624,0,0,1-1.268-3.868,6.7,6.7,0,0,1,1.167-3.851,7.806,7.806,0,0,1,3.484-2.717,14.338,14.338,0,0,1,5.685-1,20.053,20.053,0,0,1,4.533.517,13.868,13.868,0,0,1,3.935,1.517l-2.034,4.9a13.582,13.582,0,0,0-6.468-1.8,5.431,5.431,0,0,0-2.867.583,1.751,1.751,0,0,0-.9,1.518,1.5,1.5,0,0,0,1.067,1.4,19.28,19.28,0,0,0,3.433.967,32.045,32.045,0,0,1,4.418,1.217,7.627,7.627,0,0,1,3.034,2.066,5.523,5.523,0,0,1,1.283,3.851,6.565,6.565,0,0,1-1.167,3.8,7.949,7.949,0,0,1-3.5,2.717,14.18,14.18,0,0,1-5.668,1.017A21.584,21.584,0,0,1,848.888,724.176Z" transform="translate(-790.344 -697.739)" fill="#1e3c5c"/>
      <path id="Контур_14" data-name="Контур 14" d="M878.484,706.39h-7.168v-5.235h20.9v5.235h-7.135v18.1h-6.6Z" transform="translate(-794.403 -697.822)" fill="#1e3c5c"/>
      <path id="Контур_15" data-name="Контур 15" d="M905.26,723.309a11.931,11.931,0,0,1,0-21.136,14.892,14.892,0,0,1,13.3,0,11.931,11.931,0,0,1,0,21.136,14.891,14.891,0,0,1-13.3,0Zm9.852-4.734a5.993,5.993,0,0,0,2.267-2.351,7.693,7.693,0,0,0,0-6.967,5.992,5.992,0,0,0-2.267-2.351,6.559,6.559,0,0,0-6.4,0,5.993,5.993,0,0,0-2.267,2.351,7.694,7.694,0,0,0,0,6.967,5.994,5.994,0,0,0,2.267,2.351,6.565,6.565,0,0,0,6.4,0Z" transform="translate(-798.593 -697.739)" fill="#1e3c5c"/>
      <path id="Контур_16" data-name="Контур 16" d="M954.706,701.156v23.337h-5.434l-10.3-12.435v12.435H932.5V701.156h5.434l10.3,12.435V701.156Z" transform="translate(-803.683 -697.822)" fill="#1e3c5c"/>
      <g id="Сгруппировать_2" data-name="Сгруппировать 2" transform="translate(23.519)">
        <path id="Контур_17" data-name="Контур 17" d="M823.641,699.419a13.053,13.053,0,1,0,13.053,13.053A13.054,13.054,0,0,0,823.641,699.419Z" transform="translate(-808.711 -697.559)" fill="#c03"/>
        <ellipse id="Эллипс_4" data-name="Эллипс 4" cx="9.294" cy="9.294" rx="9.294" ry="9.294" transform="translate(5.636 5.619)" fill="#fff"/>
        <ellipse id="Эллипс_5" data-name="Эллипс 5" cx="5.086" cy="5.086" rx="5.086" ry="5.086" transform="translate(9.844 9.828)" fill="#c03"/>
        <ellipse id="Эллипс_6" data-name="Эллипс 6" cx="2.46" cy="2.46" rx="2.46" ry="2.46" transform="translate(12.47 12.454)" fill="#fff"/>
        <rect id="Прямоугольник_7" data-name="Прямоугольник 7" width="2.558" height="6.823" transform="translate(13.651)" fill="#c03"/>
        <rect id="Прямоугольник_8" data-name="Прямоугольник 8" width="2.558" height="6.823" transform="translate(13.651 23.005)" fill="#c03"/>
        <rect id="Прямоугольник_9" data-name="Прямоугольник 9" width="2.558" height="6.823" transform="translate(23.021 16.193) rotate(-90)" fill="#c03"/>
        <rect id="Прямоугольник_10" data-name="Прямоугольник 10" width="2.558" height="6.823" transform="translate(0 16.193) rotate(-90)" fill="#c03"/>
      </g>
    </g>
  </g>
</svg>
