<svg xmlns="http://www.w3.org/2000/svg" width="1152.326" height="770.359" viewBox="0 0 1152.326 770.359">
  <g id="Group_57" data-name="Group 57" transform="translate(0.999 1.168)" opacity="0.63">
    <path id="Path_19" data-name="Path 19" d="M717.393-222.975c3.626.6,10.273,2.87,12.918,5.213s5.288,3.7,7.1,7.328,2.341,4.306,4,5.136,2.568,1.436,2.342,2.72a9.747,9.747,0,0,1-6.271,6.27c-3.928,1.133-5.893.453-7.252,1.133s-5.364,6.195-6.5,7.252a3.711,3.711,0,0,1-5.516-.076,9.1,9.1,0,0,1-2.04-6.044c0-.982.378-5.062-.83-7.328s-2.871-5.665-2.871-7.252.376-2.034,1.661-3.248c1.36-1.284,3.778-3.55,3.249-5.816-.208-.889-1.057-2.871-.982-3.928S717.006-223.04,717.393-222.975Z" transform="translate(-349.389 954.905)" fill="#d8374f" stroke="#fff" stroke-miterlimit="10" stroke-width="2"/>
    <path id="Path_20" data-name="Path 20" d="M693.205-246.461c.982-1.209,2.191-1.511,5.515.227s9.189,4.018,9.972,4.683c1.226,1.041,2,3.035-.151,4.306-2,1.184-5.508,2.548-7.253,1.813-2.871-1.208-8.31-7.781-8.31-8.99A8.543,8.543,0,0,1,693.205-246.461Z" transform="translate(-346.807 958.145)" fill="#d8374f" stroke="#fff" stroke-miterlimit="10" stroke-width="2"/>
    <path id="Path_21" data-name="Path 21" d="M681.224-244.307s2.946-.076,4.306.831,2.418,2.568,1.436,4.23-3.4-.453-4.533-2.04S681.829-244.005,681.224-244.307Z" transform="translate(-345.25 957.729)" fill="#d8374f" stroke="#fff" stroke-miterlimit="10" stroke-width="2"/>
    <path id="Path_22" data-name="Path 22" d="M675.652-250.65a74.909,74.909,0,0,0,7.932,1.964c1.813.151,5.364-.151,5.817-2.342C686.757-251.481,678.447-252.463,675.652-250.65Z" transform="translate(-344.513 958.707)" fill="#d8374f" stroke="#fff" stroke-miterlimit="10" stroke-width="2"/>
    <path id="Path_23" data-name="Path 23" d="M652.227-268.545s2.459,5.206,4.049,6.8,4.338,2.747,4.193,3.9-2.6,1.3-4.193,1.012A10.851,10.851,0,0,1,652.517-259s-1.447,1.88-2.893,1.012-4.482-4.772-4.338-6.507C648.613-266.665,652.227-268.545,652.227-268.545Z" transform="translate(-340.492 960.937)" fill="#d8374f" stroke="#fff" stroke-miterlimit="10" stroke-width="2"/>
    <path id="Path_24" data-name="Path 24" d="M609.139-285.445c1.459.486,1.59,6.941.723,8.531s-3.325.29-4.626-.289-6.073-1.735-4.338-5.35S606.536-286.313,609.139-285.445Z" transform="translate(-334.565 963.233)" fill="#d8374f" stroke="#fff" stroke-miterlimit="10" stroke-width="2"/>
    <path id="Path_25" data-name="Path 25" d="M588.888-278.545s2.748,1.3.868,3.181-3.47,1.59-3.47,1.59S586-277.388,588.888-278.545Z" transform="translate(-332.679 962.261)" fill="#d8374f" stroke="#fff" stroke-miterlimit="10" stroke-width="2"/>
    <path id="Path_26" data-name="Path 26" d="M697.315-232.747s-.37-.633-1.792,0-2.951,1.053-2.793,1.581,2.371,1.475,3.477,1.422,2.213-1.053,2.056-1.739A2.724,2.724,0,0,0,697.315-232.747Z" transform="translate(-346.772 956.235)" fill="#d8374f" stroke="#fff" stroke-miterlimit="10" stroke-width="2"/>
    <g id="Michigan" transform="translate(695.174 85.391)">
      <path id="Michigan-2" data-name="Michigan" d="M1259.363-791.469a2.579,2.579,0,0,1-.807-2.668c.1-1.023,3.12-5.728,4.909-8.336-2.3-4.091.2-7.67,2.557-9.1,1.228-7.466,6.7-9.716,6.7-9.716s.408-5.778.664-9.614c-1.943-1.483-3.477-9.205-4.6-13.654s-3.272-10.023-7.62-11.1-6.954,1.944-7.927,2.557-1.994,11.507-8.079,9.359-4.552-7.211-4.091-8.234,2.2-1.585,3.888-1.944c.306-6.8,5.419-8.8,5.419-8.8s.051-7.824.051-11.659-2.044-5.37-3.425-6.8a2.672,2.672,0,0,1-.921-2.659s1.484-.869,3.018-1.841c-2.659-.767-3.427-3.887-4.5-6.29-7.875.46-13.3-3.477-14.677-4.245s-1.892-.87-2.915-.665c-5.472.716-7.568-2.71-7.568-2.71s-.307.2-3.99,2.2-3.375,2.813-3.272,3.989,4.3,4.961,4.3,4.961a17.5,17.5,0,0,1-5.83,2.506c-3.221.665-2.2,3.887-1.995,6.086a43.833,43.833,0,0,0,1.841,6.9s-5.012,2.608-6.187,2.506-1.279-1.79-1.33-3.222,1.994-6.853,2.4-8.08c-.665-.715-2.4-.1-2.4-.1s-.92,3.222-1.586,5.166c-3.068.664-5.523,4.244-5.523,4.244a4.706,4.706,0,0,1,.511,3.631c-.511,2.2-3.784,1.893-3.784,1.893a24.48,24.48,0,0,1,.87,5.523c0,2.455-1.125,5.37-2.1,9s.153,8.08.153,9.716-2.915,7.057.767,12.376,7.108,10.432,7.823,15.188-.357,10.279-2.761,16.927a69.482,69.482,0,0,1-7.16,13.5s9.492-.325,15.992-1.067c7.372-.842,24.64-2.738,24.64-2.738C1242.817-789.775,1251.9-790.464,1259.363-791.469Z" transform="translate(-1107.812 959.096)" fill="#1e3c5c" stroke="#fff" stroke-miterlimit="10" stroke-width="2"/>
      <path id="Path_27" data-name="Path 27" d="M1216-917.97c-.564-.79-.846-2.032-1.015-6.038s-.226-2.765-.733-3.667c-1.13.789-5.756,2.37-9.311,3.16s-6.432-.339-7.054-1.185-.282-4.063-.564-5.7-1.354-1.129-2.483-.9-6.772,4.119-7.9,4.684-6.771.338-9.028.564-8.07,4.91-9.989,6.037-3.668,1.694-5.191.4a4.489,4.489,0,0,0-4.628-.96c-1.919.451-4.006.677-5.3-.113s-3.1-4.74-7.223-7.731-6.658-2.482-8.295-2.426-4.119,4.007-5.417,4.289-1.072-1.185-.96-2.145a27.131,27.131,0,0,1,2.821-5.981c1.072-1.749,3.047-3.725,3.611-5.022s2.032-3.273,3.273-3.442,2.031-.847,1.975-1.636-.62-.959-3.16-.846-7.844,4.289-10.609,6.49-5.868,7.11-6.772,8.182a28.445,28.445,0,0,1-6.883,4.74,13.385,13.385,0,0,1-7.505,1.467c-1.861,0-2.483,2.652-4.232,4.514s-4.91,1.637-6.546,2.032a3.2,3.2,0,0,0-1.64,1.6,3.928,3.928,0,0,0,.959-.33,45.407,45.407,0,0,1,4.756,5.727,32.374,32.374,0,0,1,15.9,3.017c7.516,3.426,15.853,4.244,19.074,4.551s5.983,1.432,6.034,4.091c1.075.051,3.733.461,4.449,1.33-.051,1.79-1.279,10.995.869,10.79a3.689,3.689,0,0,0,1.622-.357c-.058.961-.15,5.083,2.419,6.749-.143.36-.4.911-.72,1.565.449-.08.7-.126.7-.126a35.21,35.21,0,0,1,1.606-3.456c1.016-1.918,5.812-14.5,6.433-16.2s1.016-3.723,3.16-3.723a42.379,42.379,0,0,0,6.376-.4c1.524-.283,2.2.056,4.572.677,3.047-7.279,8.633-6.264,11.059-6.207s4.176-2.087,4.74-2.878c.62-.282,13.487.17,15.687.283s13.994-1.637,13.994-2.37S1216.568-917.18,1216-917.97Z" transform="translate(-1095.241 965.33)" fill="#1e3c5c" stroke="#fff" stroke-miterlimit="10" stroke-width="2"/>
      <path id="Path_28" data-name="Path 28" d="M1243.4-912.824s.514,4.589,3.05,4.646a3.312,3.312,0,0,0,3.242-1.812C1250.146-911.152,1248.415-913.052,1243.4-912.824Z" transform="translate(-1114.857 960.852)" fill="#1e3c5c" stroke="#fff" stroke-miterlimit="10" stroke-width="2"/>
      <path id="Path_29" data-name="Path 29" d="M1132.32-968.178s-5.886,4.019-8.328,5.025-5.744,2.3-4.595,4.02,3.015,2.153,5.744-.287S1133.756-967.317,1132.32-968.178Z" transform="translate(-1098.408 968.178)" fill="#1e3c5c" stroke="#fff" stroke-miterlimit="10" stroke-width="2"/>
    </g>
    <g id="Maine" transform="translate(1070.444 38.12)">
      <path id="Maine-2" data-name="Maine" d="M1606.689-967.842c-1.411-2.277-4.916-3.318-4.916-3.318-1.348,2.021-3.2,2.189-5.389.337s-1.852-7.241-2.357-8.42-6.734-.673-7.745-1.516-10.608-34.688-11.619-36.54-8.082-4.21-10.1-5.221-4.714,3.537-6.4,5.052-2.188,1.347-4.546,1.853-3.7-2.358-6.231-4.884c-2.526,3.536-6.9,17.007-8.082,21.554s-.338,8.082-.674,10.1-1.348,1.684-2.021,6.229,2.357,6.4,2.525,8.251,0,2.863-3.367,8.42-2.02,13.639-2.02,13.639a17.256,17.256,0,0,0-4.378-.842,2.106,2.106,0,0,0-1.587,1c1.709,5.251,3.978,12.488,5.431,18.167,2.585,10.107,7.285,28.438,8.461,30.318s4.479,2.5,5.653,3.913c1.134,1.361.205,4.3,4.528,4.18l0,0c.293-.229.613-.428.613-.428s.217-6.507.6-8.242,1.41-5.206,1.952-6.995a10.906,10.906,0,0,0,.488-3.362c.054-.759-1.031-1.9-1.031-1.9a1.093,1.093,0,0,1,.217-.542c.217-.326,3.9-3.687,3.9-3.687a3.536,3.536,0,0,0,2.495,1.3c1.844.272,3.959-1.518,6.237-3.307s2.711-4.989,3.145-5.26,2.548-.867,3.524-2.277.868-7.862.814-9.815a2.757,2.757,0,0,1-1.356-1.626c1.193-1.085,1.3-1.519,3.253-2.224.272,1.464.543,3.471,2.333,3.145,1.7-.31,2.005,3.633,2.06,4.827.543-.109,2.44-1.682,1.953-3.579a17.5,17.5,0,0,1-.542-3.362c-.109-1.518,3.224-3.755,4.825-4.555.325-.163,2.44-1.193,3.091.868s2.06.868,2.765.868,3.308-4.067,5.423-6.237a30.232,30.232,0,0,1,5.422-4.554,8.128,8.128,0,0,0,3.092-4.609A7.787,7.787,0,0,0,1606.689-967.842Z" transform="translate(-1527.779 1022.663)" fill="#167a91" stroke="#fff" stroke-miterlimit="10" stroke-width="2"/>
      <path id="Path_30" data-name="Path 30" d="M1586.336-922.433s3.311,3.074.418,5.063C1584.042-918.184,1584.046-922.179,1586.336-922.433Z" transform="translate(-1535.311 1009.392)" fill="#38b4d6" stroke="#fff" stroke-miterlimit="10" stroke-width="2"/>
      <path id="Path_31" data-name="Path 31" d="M1597.99-932.646s2.894,3.888-.995,4.973c-1.807-.091-2.31-.99-1.585-2.979A2.892,2.892,0,0,1,1597.99-932.646Z" transform="translate(-1536.691 1010.745)" fill="#38b4d6" stroke="#fff" stroke-miterlimit="10" stroke-width="2"/>
    </g>
    <g id="New_Hampshire" data-name="New Hampshire" transform="translate(1058.62 108.637)">
      <g id="Group_18" data-name="Group 18" transform="translate(0 0)">
        <path id="New_Hampshire-2" data-name="New Hampshire" d="M1548.728-878.871c-.024-.06-.053-.122-.075-.18-.759-2.114.759-5.1,1.031-5.422a2.488,2.488,0,0,1,.365-.333c-4.323.119-3.394-2.819-4.528-4.18-1.175-1.411-4.479-2.031-5.654-3.912s-5.876-20.212-8.461-30.318c-1.453-5.679-3.722-12.916-5.431-18.167a9.346,9.346,0,0,0-1.276,2.709,3.413,3.413,0,0,0-2.526-2.526c-2.188,2.694-2.694,9.092-2.694,9.092s-.514,5.077.5,6.939,2.708,3.894.677,7.788a17.258,17.258,0,0,1-5.756,6.263c-.677.508-1.015,0-.507,4.91a178.4,178.4,0,0,1,.168,18.96c-.168,4.232-.676,9.818.339,14.729a46.989,46.989,0,0,0,1.4,5.029l0,0a72.9,72.9,0,0,1,8.4-2.121c3.809-.381,9.142-.381,13.141-2.094,2.127-.911,6.888-4.243,10.884-7.165Z" transform="translate(-1514.151 941.385)" fill="#167a91" stroke="#fff" stroke-miterlimit="10" stroke-width="2"/>
      </g>
    </g>
    <g id="Vermont" transform="translate(1029.529 117.912)">
      <g id="Group_19" data-name="Group 19" transform="translate(0 0)">
        <path id="Vermont-2" data-name="Vermont" d="M1492.307-924.8c-2.284.516-6.731,1.871-11.686,3.231h0c.683,2.877,1.317,5.692,2.071,8.031,1.6,4.966,2.66,11.883,2.482,13.834s-1.242,3.37.178,5.675,1.95,6.384,1.773,9.4a7.81,7.81,0,0,1,5.675,5.321c1.065,3.015,3.37,15.074,3.37,17.912,0,.038,0,.086,0,.127,3.646-1.158,10.244-3.227,15.692-4.808a46.7,46.7,0,0,1-1.4-5.029c-1.017-4.91-.509-10.5-.339-14.729a178.242,178.242,0,0,0-.169-18.96c-.508-4.91-.169-4.4.509-4.91a17.262,17.262,0,0,0,5.755-6.263c2.031-3.894.338-5.926-.678-7.788s-.5-6.939-.5-6.939S1497.528-925.98,1492.307-924.8Z" transform="translate(-1480.621 930.694)" fill="#1e3c5c" stroke="#fff" stroke-miterlimit="10" stroke-width="2"/>
      </g>
    </g>
    <g id="Massachusets" transform="translate(1044.736 171.15)">
      <path id="Massachusets-2" data-name="Massachusets" d="M1552.879-833.343c.108-.759,1.843-5.586,3.849-5.26s1.9,4.771,1.9,4.771,4.825-4.121,7.862-5.422a13.816,13.816,0,0,1,6.02-1.03,12.93,12.93,0,0,0,.108-3.145c-.108-2.224-.705-3.634-2.983-6.073a3.747,3.747,0,0,0-4.609-1.084s3.471,1.952,3.958,3.362-.868,3.091-2.548,4.609-5.965.055-6.832-.487-3.036-5.8-4.23-7.375-3.091-1.356-4.827-1.518-2.712-1.465-3.633-2.82-.38-3.036.054-4.446,3.362-4.772,3.362-4.772a25.289,25.289,0,0,1-3.722-5.3c-4,2.922-8.757,6.254-10.884,7.165-4,1.714-9.331,1.714-13.139,2.095-2.994.3-17.859,4.949-24.091,6.927-.022,2.986-.871,12.869.179,16.72.322,1.178.772,2.728,1.248,4.419-.229-.812-.452-1.6-.658-2.317a121,121,0,0,0,12.657-1.563c5.713-1.142,20.186-4.57,20.186-4.57l9.331-2.475s.763,1.142,2.666,3.428a107.23,107.23,0,0,1,7.217,8.8c.627-.414,1.094-.719,1.233-.8C1553.041-831.771,1552.771-832.584,1552.879-833.343Z" transform="translate(-1498.148 869.332)" fill="#167a91" stroke="#fff" stroke-miterlimit="10" stroke-width="2"/>
      <path id="Path_32" data-name="Path 32" d="M1571.933-825.157s-1.838-.478-2.72.074-1.617,1.617-1.249,1.874A3.529,3.529,0,0,0,1571.933-825.157Z" transform="translate(-1507.379 863.509)" fill="#1e3c5c" stroke="#fff" stroke-miterlimit="10" stroke-width="2"/>
      <path id="Path_33" data-name="Path 33" d="M1579.077-824.413l3.676-3.088s2.242.588,2.206,1.838S1579.077-824.413,1579.077-824.413Z" transform="translate(-1508.863 863.793)" fill="#1e3c5c" stroke="#fff" stroke-miterlimit="10" stroke-width="2"/>
    </g>
    <path id="Delaware" d="M1468.664-747.287c-2.731-1.951-6.5,1.56-6.5,1.56s4.031,13.784,4.811,17.946,3.9,18.727,3.9,18.727,2.99-.391,6.112-.781,5.051-.522,7.142-4.942c0,0-5.531-6.4-7.32-10.194a62.4,62.4,0,0,0-3.742-6.778c-1.356-1.736-4.988-4.176-5.422-5.477s-1.085-4.663.325-5.1A10.418,10.418,0,0,1,1468.664-747.287Z" transform="translate(-448.647 1024.401)" fill="#1e3c5c" stroke="#fff" stroke-miterlimit="10" stroke-width="2"/>
    <g id="Rhode_Island" data-name="Rhode Island" transform="translate(1078.694 197.55)">
      <g id="Group_20" data-name="Group 20" transform="translate(0)">
        <path id="Rhode_Island-2" data-name="Rhode Island" d="M1549.285-835.475c-1.9-2.286-2.666-3.428-2.666-3.428l-9.331,2.475s4.147,5.234,3.843,18.852c3.711-1.62,7.069-3.175,7.387-3.334.651-.325.759-1.138,2.548-2.223,1.277-.774,3.873-2.51,5.436-3.543A107.006,107.006,0,0,0,1549.285-835.475Z" transform="translate(-1537.288 838.903)" fill="#d8374f" stroke="#fff" stroke-miterlimit="10" stroke-width="2"/>
      </g>
    </g>
    <g id="New_York" data-name="New York" transform="translate(918.408 127.036)">
      <g id="Group_21" data-name="Group 21" transform="translate(0 0)">
        <path id="New_York-2" data-name="New York" d="M1505.566-817.139c-1.735.922-9.435,5.8-11.062,6.073a46.533,46.533,0,0,1-6.56-.108s-4.556,5.422-5.64,6.019-.705-3.578-.705-3.578l2.132-2.273c-1.305-.747-1.5-2.888-1.5-2.888,0-1.064,3.192-2.483,3.192-2.483a9.236,9.236,0,0,1-2.127-2.306c-.532-1.063,0-5.143-.178-8.867s-2.659-11.705-3.724-15.607-.177-14.011-.177-16.848-2.3-14.9-3.369-17.912a7.81,7.81,0,0,0-5.674-5.321c.176-3.015-.355-7.093-1.774-9.4s-.355-3.725-.177-5.675-.887-8.868-2.484-13.834c-.752-2.34-1.386-5.154-2.069-8.031-6.369,1.748-13.576,3.505-18.124,3.505-8.082,0-10.285,3.008-10.285,3.008-5.267,2.4-8.131,7.466-10.177,10.688a181.158,181.158,0,0,1-11.4,14.473c-3.324,3.834-1.024,6.034-1.024,6.034a6.016,6.016,0,0,1,3.069,1.177c.665,2.3-.358,5.83-.358,5.83s2.046,2.4,1.636,4.551-1.227,2.3-4.347,3.375c-3.017,4.194-6.751,7.416-8.744,8.438s-5.574.461-7.467.461-4.193,2.761-5.37,2.863-2.71-1.585-10.228-.972-13.654,3.938-17.54,6.137c-.972,3.221,1.688,5.114,2.813,6.034a31.946,31.946,0,0,1,3.478,4.5s-6.752,8.744-12.172,14.575c-1.756,1.889-3.366,3.469-4.884,4.871l.525,7.486s17.642-1.445,30.656-3.76,40.488-9.254,46.85-10.99,8.965-1.445,15.038-1.156,7.2,10.516,8.1,10.7c5.16,1.058,6.651,3.182,6.651,3.182a95.341,95.341,0,0,0,9.829,3.537c3.727.966,8.144,1.795,7.869,5.108s-.531,2.588,1.046,5.435c0,0,3.362.38,5.314.38s11.225-4.067,13.231-4.772,5.2-4.772,5.2-4.772,8.46-5.694,10.3-8.025C1510.5-819.85,1507.3-818.06,1505.566-817.139Z" transform="translate(-1352.542 920.178)" fill="#d8374f" stroke="#fff" stroke-miterlimit="10" stroke-width="2"/>
      </g>
    </g>
    <g id="Connecticut" transform="translate(1045.851 200.026)">
      <g id="Group_22" data-name="Group 22" transform="translate(0 0)">
        <path id="Connecticut-2" data-name="Connecticut" d="M1512.09-831.479a121.116,121.116,0,0,1-12.657,1.562c1.195,4.2,2.985,10.362,3.134,13.506.179,3.724-.354,7.8.179,8.867a9.251,9.251,0,0,0,2.128,2.306s-3.193,1.419-3.193,2.483c0,0,.193,2.141,1.5,2.887l1.122-1.2s8.242-7.321,10.628-9.056,8.351-2.711,11.442-3.307a75.489,75.489,0,0,0,9.748-3.769c.3-13.619-3.842-18.852-3.842-18.852S1517.8-832.622,1512.09-831.479Z" transform="translate(-1499.433 836.05)" fill="#167a91" stroke="#fff" stroke-miterlimit="10" stroke-width="2"/>
      </g>
    </g>
    <g id="New_Jersey" data-name="New Jersey" transform="translate(1018.418 232.046)">
      <g id="Group_23" data-name="Group 23" transform="translate(0 0)">
        <path id="New_Jersey-2" data-name="New Jersey" d="M1489.811-778.664l4.555-6.4c-1.577-2.847-1.321-2.122-1.045-5.436s-4.142-4.142-7.87-5.108a95.448,95.448,0,0,1-9.829-3.537l-4.048,2.314c.868,4.916,0,5.784-2.893,9.833,2.6,4.049-.868,5.784-.868,5.784s.579,2.6.868,4.338,2.6,2.024,4.05,3.759,4.338,3.471,9.833,7.23c-4.048,1.446-13.151,11.81-13.151,11.81a10.425,10.425,0,0,0-.694,4.964c-.055,3.579,4.825,5.639,6.127,6.669a15.01,15.01,0,0,0,6.4,2.278c1.952.163,3.254.271,3.959,1.41-.217,2.82-.38,5.8-.38,5.8a7.365,7.365,0,0,0,2.766-1.085c.6-.651.813-6.181,1.084-7.646s5.151-9.38,5.857-10.411,1.735-5.585,2.222-7.971.217-6.236.325-10.249-.053-5.748-1.463-7.266S1489.811-778.664,1489.811-778.664Z" transform="translate(-1467.814 799.143)" fill="#d8374f" stroke="#fff" stroke-miterlimit="10" stroke-width="2"/>
      </g>
    </g>
    <g id="Pensilvania" transform="translate(905.384 217.946)">
      <g id="Group_24" data-name="Group 24" transform="translate(0 0)">
        <path id="Pensilvania-2" data-name="Pensilvania" d="M1400.276-743.223c6.762-1.3,33.161-6.111,36.022-7.022a52.393,52.393,0,0,0,6.371-2.081,12.328,12.328,0,0,0,2.992-2.341s3.771-3.512,6.5-1.56c0,0,9.1-10.364,13.151-11.811-5.494-3.759-8.386-5.494-9.832-7.229s-3.759-2.024-4.049-3.759-.868-4.338-.868-4.338,3.47-1.735.868-5.784c2.892-4.049,3.76-4.917,2.892-9.832l4.048-2.314s-1.491-2.123-6.651-3.182c-.9-.184-2.025-10.411-8.1-10.7s-8.676-.579-15.038,1.156-33.836,8.676-46.85,10.99-30.655,3.76-30.655,3.76l-.525-7.486c-3.164,2.925-5.919,5.066-8.72,7.555a40.13,40.13,0,0,1-4.306,3.207h0c.982,6.75,2.811,19.017,3.564,22.028,1.053,4.212,2.317,15.163,2.317,15.163l3.309,25.033,21.518-3.807S1393.514-741.923,1400.276-743.223Z" transform="translate(-1337.53 815.395)" fill="#1e3c5c" stroke="#fff" stroke-miterlimit="10" stroke-width="2"/>
      </g>
    </g>
    <g id="Maryland" transform="translate(936.092 278.674)">
      <path id="Path_34" data-name="Path 34" d="M1435.069-711.927l-.058-.037Z" transform="translate(-1381.144 740.972)" fill="#1e3c5c" stroke="#fff" stroke-miterlimit="10" stroke-width="2"/>
      <path id="Path_35" data-name="Path 35" d="M1485.578-691.422h-.007c-.108.381-.21.767-.329,1.133C1485.361-690.659,1485.473-691.037,1485.578-691.422Z" transform="translate(-1387.795 738.252)" fill="#1e3c5c" stroke="#fff" stroke-miterlimit="10" stroke-width="2"/>
      <path id="Path_36" data-name="Path 36" d="M1435.638-711.484c-.071-.061-.144-.121-.218-.181C1435.495-711.6,1435.568-711.545,1435.638-711.484Z" transform="translate(-1381.199 740.933)" fill="#1e3c5c" stroke="#fff" stroke-miterlimit="10" stroke-width="2"/>
      <path id="Path_37" data-name="Path 37" d="M1472.314-714.449c-2.091,4.42-4.022,4.552-7.143,4.942s-6.112.781-6.112.781-3.121-14.565-3.9-18.726-4.811-17.946-4.811-17.946a12.337,12.337,0,0,1-2.991,2.341,52.374,52.374,0,0,1-6.372,2.082c-2.861.91-29.26,5.721-36.022,7.022s-32.037,5.646-32.037,5.646,1.325,7.779,1.821,13.407c1.986-.662,5.462-4.469,8.276-7.614,2.98,0,3.477-2.814,4.3-3.807s7.448-2.649,13.738-3.477a14.382,14.382,0,0,1,10.263,2.318s-.079,1.235-.2,2.769l0-.049c1.786-.243,4.646-.378,5.829.921,1.655,1.821.5,4.3,2.482,4.966,1.286.429,3.936.645,6.217,1.833.267-.207.267-.29.267-.29a8.919,8.919,0,0,1,2.563-2c.664.895,3.372,4.436,3.372,4.436a4.545,4.545,0,0,1-2.848,2.6c0,2.958-2.342,5.61-2.619,6.993-.331,1.656,1.655,5.463,3.807,6.125a22.574,22.574,0,0,0,4.267.831,17.35,17.35,0,0,1,1.628-.7c.759-.271,5.476,1.41,7.211,1.029s1.357-2.222.651-5.1-1.844-4.012-3.85-7.645-.705-4.446-.434-7.971-.976-2.548-.38-7.754,6.886-7.1,8.133-6.724c-4.283,2.548-4.066,8.4-4.066,8.4s2.711,0,3.254,2.278-.217,4.988-1.3,7.646c3.307.271,3.85,3.8,3.85,3.8a3.187,3.187,0,0,1-2.223.163c-.6,2.277,3.036,12.471,9.869,7.429,1.854,3.286,4.139,6.727,5.2,8.192,2-1.965,4.978-3.875,8.693-3.267.5-1.828.863-3.785,1.183-5.413C1472.476-707.021,1472.314-714.449,1472.314-714.449Z" transform="translate(-1372.924 745.399)" fill="#d8374f" stroke="#fff" stroke-miterlimit="10" stroke-width="2"/>
      <path id="Path_38" data-name="Path 38" d="M1436.762-710.2a4,4,0,0,0-.262-.383A4.326,4.326,0,0,1,1436.762-710.2Z" transform="translate(-1381.342 740.789)" fill="#1e3c5c" stroke="#fff" stroke-miterlimit="10" stroke-width="2"/>
      <path id="Path_39" data-name="Path 39" d="M1437.509-708.076c-.012-.094-.025-.188-.041-.282C1437.485-708.264,1437.5-708.17,1437.509-708.076Z" transform="translate(-1381.47 740.495)" fill="#1e3c5c" stroke="#fff" stroke-miterlimit="10" stroke-width="2"/>
      <path id="Path_40" data-name="Path 40" d="M1437.22-709.293a5.153,5.153,0,0,1,.166.576A4.79,4.79,0,0,0,1437.22-709.293Z" transform="translate(-1381.437 740.619)" fill="#1e3c5c" stroke="#fff" stroke-miterlimit="10" stroke-width="2"/>
      <path id="Path_41" data-name="Path 41" d="M1437.179-709.381a4.218,4.218,0,0,0-.266-.574A4.218,4.218,0,0,1,1437.179-709.381Z" transform="translate(-1381.397 740.706)" fill="#1e3c5c" stroke="#fff" stroke-miterlimit="10" stroke-width="2"/>
      <path id="Path_42" data-name="Path 42" d="M1435.932-711.223a4.548,4.548,0,0,1,.384.411A4.788,4.788,0,0,0,1435.932-711.223Z" transform="translate(-1381.266 740.874)" fill="#1e3c5c" stroke="#fff" stroke-miterlimit="10" stroke-width="2"/>
    </g>
    <g id="North_Carolina" data-name="North Carolina" transform="translate(850.122 367.836)">
      <path id="Path_43" data-name="Path 43" d="M1496.151-617.567s1.27,6.06,1.059,8.035-.636,4.092-2.611,5.431-5.079,3.033-5.784,3.95a2.058,2.058,0,0,0-.565,1.552s5.879-2.9,8.394-5.573,2.677-6.18,2.751-7.829S1498.405-615.586,1496.151-617.567Z" transform="translate(-1302.222 639.312)" fill="#1e3c5c" stroke="#fff" stroke-miterlimit="10" stroke-width="2"/>
      <path id="Path_44" data-name="Path 44" d="M1461.525-617.12c1.176-1.952-.813-5.8-.813-5.8s3.833.09,4.266-.777c.158-.317-.343-1.1-1.159-2.1-.315-.319-.666-.662-1.056-1.045-2,.133-2.521,1.5-6.491,2.2-.794.139-4.043-.986-5.9.161-4.346,2.683-6.055-.378-5.365-.644,2.79-1.073,4.893-4.041,8.26-5.637,2.556-1.21,3.861.338,5.523-.663-.107-.123-.216-.247-.316-.366-2.459-2.892-5.751-10.834-5.751-10.834s-13.084,3.2-18.959,4.272-48.866,9.613-68.359,12.55-39.314,6.141-39.314,6.141.827,3.718,0,5.371-4.544,4.339-5.165,9.3c-3.1.413-5.784-.207-10.535,3.925-3.1-1.032-5.785-.413-7.024,1.446s-1.86,6.818-1.86,6.818a8.657,8.657,0,0,0-5.578,1.859c-2.478,2.067-4.338,5.165-7.437,5.579s-8.47,1.24-8.883,8.057c-3.926,2.479-5.373,2.272-5.373,2.272a25.526,25.526,0,0,0-.185,7.527c6.106-.683,11.559-1.229,14.151-1.326a101.968,101.968,0,0,0,12.634-1.149s10.776-6.595,14.566-7.7a45.886,45.886,0,0,1,13.577-2.368c7.1-.316,16.734-1.894,20.049-.316s4.579,5.052,5.052,6.947a124.4,124.4,0,0,1,14.05-2.368c4.1-.474,12.472-1.578,12.472-1.578s26.117,16.362,29.345,19.086h0c.642-.248,1.33-.475,2.045-.684a48.238,48.238,0,0,1,10.167-1.917s1.844-9,5.152-14.315c.3-.477.6-.931.9-1.374.211-.372.419-.708.62-.994a23.731,23.731,0,0,1,3.895-4.276,21.856,21.856,0,0,1,5.648-3.713,33.437,33.437,0,0,1,7.8-2.051c2.89-.634,5.393-1.243,6.37-2.4a40.222,40.222,0,0,0,3.261-5.3c.494-1.006,1-2.015,1.547-2.938a16.94,16.94,0,0,1-3.044,2.844,20.6,20.6,0,0,1-2,1.439,6.489,6.489,0,0,0-1.427-2.072c-1.938-1.224-5.079-.8-5.079-.8l2.332-9.273c-2.242-.487-3.253-1.392-3.832-3.994,1.591,2.6,7.231,3.181,10.267,1.735s2.458-5.928,3.76-6.959S1460.351-615.167,1461.525-617.12Z" transform="translate(-1273.835 642.631)" fill="#1e3c5c" stroke="#fff" stroke-miterlimit="10" stroke-width="2"/>
    </g>
    <g id="Virginia" transform="translate(862.05 299.055)">
      <path id="Virginia-2" data-name="Virginia" d="M1449.41-662.536a16.38,16.38,0,0,1-6.779,1.3c2.115-4.663-1.029-7.266-2.44-9.11s-1.9-3.47-1.789-3.85,3.308.163,3.308.163-3.037-5.639-2.278-8.731a14.528,14.528,0,0,0,.65-4.067c-.9-2.047-2.115-2.169-3.9-2.657a11.963,11.963,0,0,1-4.338-2.277c-1.682-1.193-3.85-1.3-5.856-1.9a6.033,6.033,0,0,1-2.82-1.573,22.536,22.536,0,0,1-4.267-.831c-2.152-.662-4.139-4.469-3.807-6.124s3.642-5.132,2.318-8.773-7.284-4.139-9.27-4.8-.828-3.145-2.483-4.966c-1.182-1.3-4.043-1.164-5.829-.921a31.62,31.62,0,0,1-.792,5.887c-.5.828-7.945-4.469-10.428-6.124-1.821-.331-1.49,3.476-1.49,5.463a7.734,7.734,0,0,1-1.986,5.462,111.761,111.761,0,0,0-7.118,9.6c-3.972-1.159-3.807,4.635-3.972,7.283s-.332,3.972-4.138,4.138-5.132-3.973-5.132-3.973a26.178,26.178,0,0,1-2.483,6.456c-1.489,2.317-7.945,18.043-8.11,20.194s.828,4.469-.993,6.29-5.3,2.317-10.1,3.641c-.994,2.98-1.324,4.3-3.973,5.959s-6.952-.662-6.952-.662a9.8,9.8,0,0,1-7.284,3.145c-4.469-.166-5.876-5.588-5.876-5.588a98.268,98.268,0,0,1-9.27,8.415c-3.566,2.567-5.705,4.421-6.7,5.7a7.468,7.468,0,0,0-1.284,4.564c.142,1-.57,1.568-2.282,2.709-1.687,1.125-6.42,5.153-11.879,8.273,3.913-.445,6.845-.8,8.3-1.014,8.471-1.24,32.023-4.339,32.023-4.339s19.82-3.2,39.314-6.141,62.484-11.482,68.359-12.551,18.958-4.272,18.958-4.272-1.213-3.53-1.552-4.854C1452.392-660.314,1452.23-663.676,1449.41-662.536Z" transform="translate(-1287.583 721.909)" fill="#1e3c5c" stroke="#fff" stroke-miterlimit="10" stroke-width="2"/>
      <path id="virginia-3" data-name="virginia" d="M1479.1-681.239c.109-2.6,1.518-3.8,3.091-6.073a13.965,13.965,0,0,0,1.7-4.129c-3.72-.614-6.705,1.3-8.7,3.265.224.308.4.533.495.646,1.193,1.356-3.145,9.652-3.145,15.509,0,2.6.109,7.374,2.766,7.374,1.306,0,2.766-3.036,3.2-4.772S1479-678.636,1479.1-681.239Z" transform="translate(-1312.072 717.89)" fill="#1e3c5c" stroke="#fff" stroke-miterlimit="10" stroke-width="2"/>
    </g>
    <g id="West_Virginia" data-name="West Virginia" transform="translate(876.639 274.539)">
      <g id="Group_25" data-name="Group 25" transform="translate(0 0)">
        <path id="West_Virginia-2" data-name="West Virginia" d="M1391.991-730.43c-6.29.828-12.91,2.483-13.738,3.477s-1.324,3.807-4.3,3.807c-2.814,3.145-6.29,6.952-8.276,7.614-.5-5.628-1.821-13.408-1.821-13.408l-21.519,3.807-3.31-25.033s-2.948,1.053-3.158,2.317.422,4,.632,9.478.632,13.9-5.687,21.9-6.738,2.738-6.738,2.738-3.791,2.948-4.634,6.739-1.685,9.9-1.685,9.9l-4-3.58s-2.948,3.159-3.37,6.739.632,6.529-1.684,9.056-4.3,2.129-4.3,2.129c.143,5.134,0,6.275.714,7.844s3.423,1.712,4.421,3.423,3,6.846,5.849,9.128a67.687,67.687,0,0,0,5.847,4.137s1.408,5.422,5.876,5.588a9.8,9.8,0,0,0,7.284-3.145s4.3,2.318,6.952.662,2.979-2.979,3.972-5.96c4.8-1.324,8.276-1.82,10.1-3.641s.827-4.138.993-6.29,6.62-17.877,8.111-20.194a26.205,26.205,0,0,0,2.482-6.456s1.325,4.139,5.132,3.973,3.973-1.49,4.138-4.138,0-8.442,3.972-7.282a111.823,111.823,0,0,1,7.118-9.6,7.735,7.735,0,0,0,1.987-5.463c0-1.987-.332-5.794,1.49-5.463,2.483,1.656,9.931,6.952,10.429,6.124s.993-8.607.993-8.607A14.383,14.383,0,0,0,1391.991-730.43Z" transform="translate(-1304.398 750.166)" fill="#1e3c5c" stroke="#fff" stroke-miterlimit="10" stroke-width="2"/>
      </g>
    </g>
    <g id="Ohio" transform="translate(818.177 237.347)">
      <g id="Group_26" data-name="Group 26" transform="translate(0 0)">
        <path id="Ohio-2" data-name="Ohio" d="M1326.942-753.525c.211-1.263,3.159-2.317,3.159-2.317s-1.264-10.951-2.317-15.163c-.753-3.012-2.582-15.279-3.563-22.028-4.416,2.932-10.02,5.987-13.286,7.991-4.5,2.762-10.074,9.717-10.79,10.279-1.126-.46-5.421.409-6.8.613s-7.978,3.171-9.512,2.864-2.762-3.016-6.853-2.812-7.107-.1-9.921-2.045a10.123,10.123,0,0,1-1.495-1.219c-7.465,1.006-16.546,1.695-28.548,2.987,0,0,3.159,33.275,4.213,42.753s3.332,30.5,3.332,30.5a47.371,47.371,0,0,1,6.275.428c2.567.428,6.562.142,7.132,7.416,4.564-.285,6.7-1.283,9.27.856s5.99-.143,8.13.142a24.967,24.967,0,0,1,5.134,1.569l6.7-4.422s-.286,5.278,8.271,6.7c0,0,1.982.4,4.3-2.129s1.264-5.475,1.684-9.056,3.37-6.739,3.37-6.739l4,3.58s.842-6.107,1.685-9.9,4.634-6.739,4.634-6.739.42,5.265,6.737-2.738,5.9-16.427,5.688-21.9S1326.732-752.261,1326.942-753.525Z" transform="translate(-1237.015 793.033)" fill="#1e3c5c" stroke="#fff" stroke-miterlimit="10" stroke-width="2"/>
      </g>
    </g>
    <g id="Indiana" transform="translate(760.403 256.006)">
      <g id="Group_27" data-name="Group 27" transform="translate(0 0)">
        <path id="Indiana-2" data-name="Indiana" d="M1183.118-766.545c-2.1,1.482-3.733,3.733-5.216,3.221-1.132-.39-3.513-1.316-4.942-1.937l.051.022c0,1.355.084,2.839.146,4.8,0,0,2.522,42.748,3.173,53.159s1.735,27.113,1.3,29.715-2.169,7.158-4.555,9.544-2.82,2.82-2.6,4.772c0,0,.212,7.581.15,8.556,0,0,4.361-4.785,6.928-3.5s2.425,1.712,2.425,1.712,1.71-4.136,5.7-2.282a31.824,31.824,0,0,1,4.707,2.424s4.849-6.132,6.7-5.7c1.712,2.14,3.566,3.28,4.422,3.423.285-3.28.712-8.415,5.7-8.415l1.141,4.136s6.561-.285,7.7-.713a49,49,0,0,0,.428-8.13s7.7-5.42,8.415-8.7a20.572,20.572,0,0,0,.571-5.278s5.277-.285,7.273-1.854,3.137-2.71,2.282-6.133.713-4.564.713-4.564-2.279-21.025-3.332-30.5-4.212-42.753-4.212-42.753-17.269,1.9-24.641,2.738c-6.5.742-15.99,1.067-15.99,1.067A6.885,6.885,0,0,0,1183.118-766.545Z" transform="translate(-1170.424 771.527)" fill="#1e3c5c" stroke="#fff" stroke-miterlimit="10" stroke-width="2"/>
      </g>
    </g>
    <g id="South_Carolina" data-name="South Carolina" transform="translate(873.864 429.404)">
      <g id="Group_28" data-name="Group 28">
        <path id="South_Carolina-2" data-name="South Carolina" d="M1371.751-566.4a124.388,124.388,0,0,0-14.05,2.369c-.473-1.895-1.737-5.368-5.052-6.947s-12.945,0-20.049.316a45.889,45.889,0,0,0-13.577,2.369c-3.789,1.1-14.565,7.7-14.565,7.7s-4.594,3.446-2.87,6.892,5.169,5.743,11.2,5.456c0,0,3.552,7.254,6.733,10s8.966,7.23,12.146,10.122,7.086,7.085,8.967,9.11a19.37,19.37,0,0,0,6.507,4.916c2.458,1.012,5.783,2.892,6.8,7.085a15.709,15.709,0,0,1,.433,6.652s3.036.144,4.338,2.169,3.9,7.085,4.917,8.242,3.325,1.735,5.06,1.735h.291a8.894,8.894,0,0,0,.035-2.116s4.609-4.066,6.018-5.151,1.248-1.627,1.789-3.145-1.192-3.959-1.192-3.959l3.74.325a64.463,64.463,0,0,0,5.043-4.229c4.121-3.632,8.3-10.628,9.11-12.255s1.788-1.627,3.362-1.735c1.193-3.741,5.693-4.88,5.693-4.88a42.021,42.021,0,0,1,.272-5.585c.217-8.568,4.283-13.665,8.025-16.539a11.077,11.077,0,0,1,2.7-1.411c-3.228-2.724-29.345-19.086-29.345-19.086S1375.856-566.873,1371.751-566.4Z" transform="translate(-1301.201 571.668)" fill="#d8374f" stroke="#fff" stroke-miterlimit="10" stroke-width="2"/>
      </g>
    </g>
    <g id="Florida" transform="translate(787.25 550.302)">
      <g id="Group_29" data-name="Group 29" transform="translate(0 0)">
        <path id="Path_45" data-name="Path 45" d="M1429.315-272.491a24.965,24.965,0,0,0-3.6,5.755c-1.439,3.289-3.8,8.839-6.372,10.894s-10.072,6.578-9.97,7.4.206,2.467,3.393.822,9.866-8.53,11.408-11.2S1429.726-270.436,1429.315-272.491Z" transform="translate(-1228.908 411.158)" fill="#1e3c5c" stroke="#fff" stroke-miterlimit="10" stroke-width="2"/>
        <path id="Path_46" data-name="Path 46" d="M1398.715-243.942a4.362,4.362,0,0,1,2.878,4.111c-1.542,0-8.53,2.055-9.867,2.57C1395.94-241.373,1398.715-243.942,1398.715-243.942Z" transform="translate(-1226.572 407.378)" fill="#1e3c5c" stroke="#fff" stroke-miterlimit="10" stroke-width="2"/>
        <path id="Path_47" data-name="Path 47" d="M1395.537-334.85c-2.82-3.9-18.6-35.9-18.6-35.9s.488-.542,2.549-2.874c-4.773-6.746-12.872-23.675-14.444-26.983s-8.631-13.54-8.631-13.54-7.505-11.55-9.635-18.174l-.067.012c-4.1.406-8.571.86-9.61,1.008-2.024.289.29-1.157-3.18,4.627,2.024,8.387.289,7.52.289,7.52l-3.182-.289-.578-4.628s-4.338.29-9.255.579-49.164,3.182-53.213,3.47c-1.446-1.735-4.627-6.941-4.627-6.941s-20.244,1.446-28.342,1.735-29.788,3.47-31.812,3.47-2.314,4.338-1.157,6.073,4.049,1.735,4.338,4.049c.189,1.511.132,6.229.068,9.563l.062-.018c.237-.068.478-.139.727-.209l.053-.016c.255-.072.515-.146.784-.22l.1-.029.788-.215.142-.038c.258-.07.519-.139.789-.21l.291-.075.71-.184.3-.075.742-.186.492-.121.619-.152,1.157-.277c12.851-3.036,16.7-2.386,22.449-1.681s19.846,7.645,22.015,8.621a50.582,50.582,0,0,0,1.192,6.832,64.94,64.94,0,0,1,9.977-2.494c3.579-.488,2.711-3.958,4.989-5.314s5.8-1.3,7.592-1.627a3.751,3.751,0,0,1,1.789-4.826c1.844-1.084,4.826-1.193,7.592-1.084s7.7,2.548,7.971,4.23,1.627,3.579,5.314,6.018c.814,4.5,3.2,4.772,4.772,5.369a13.466,13.466,0,0,1,3.8,2.765c.868.759,5.26,1.681,8.3,2.44,1.03,5.531,6.29,10.248,6.29,10.248s.162,3.308.162,5.152-1.193,16.376-1.355,19.032.542,3.959,2.386,7.266c1.735-1.9,1.464-4.717.976-6.344s-.434-2.277.6-2.549,5.8,2.386,5.8,2.386c-.272,3.9-5.8,10.791-5.8,10.791a59.2,59.2,0,0,1,8.188,10.3c3.687,5.965,4.229,9.489,6.56,13.014s4.393,2.277,6.671.325c5.422,3.362,5.856,9.814,6.452,11.007s.434,4.067,7.483,4.61,9.326,6.669,10.357,8.4,2.006,7.374,2.006,7.374c1.465,4.718,5.749,2.6,7.972-.542,11.441,2.874,10.628-11.658,10.953-14.152s1.681-2.766,3.091-3.254c.813-5.856-1.952-27.059-2.169-28.305S1398.356-330.946,1395.537-334.85Z" transform="translate(-1201.368 432.319)" fill="#167a91" stroke="#fff" stroke-miterlimit="10" stroke-width="2"/>
      </g>
    </g>
    <g id="Georgia" transform="translate(823.422 440.477)">
      <g id="Group_30" data-name="Group 30" transform="translate(0 0)">
        <path id="Georgia-2" data-name="Georgia" d="M1352.23-449.066c-.01-.1-.021-.211-.03-.312-.542-6.724,2.712-19.846,3.9-23.751A107.285,107.285,0,0,1,1360.822-485a4.833,4.833,0,0,0,.453-1.518h-.29c-1.735,0-4.05-.579-5.061-1.735s-3.616-6.218-4.917-8.242-4.338-2.169-4.338-2.169a15.711,15.711,0,0,0-.433-6.652c-1.013-4.193-4.338-6.073-6.8-7.086a19.366,19.366,0,0,1-6.507-4.916c-1.88-2.025-5.784-6.218-8.966-9.109s-8.964-7.375-12.146-10.122-6.733-10-6.733-10c-6.03.288-9.477-2.01-11.2-5.456s2.871-6.892,2.871-6.892a101.994,101.994,0,0,1-12.635,1.149c-7.754.287-41.066,4.595-41.066,4.595,2.871,11.487,5.168,22.973,7.753,31.589s8.041,29.866,12.061,36.184,4.021,7.179,4.021,7.179-2.585,4.882-3.734,7.466-.287,5.169.574,8.041,1.436,2.584.575,6.318,1.436,7.179,2.3,8.9a37.8,37.8,0,0,0,2.267,3.761s3.181,5.205,4.628,6.941c4.048-.289,48.3-3.182,53.212-3.471s9.255-.579,9.255-.579l.578,4.628,3.182.289s1.735.868-.289-7.52c3.471-5.783,1.156-4.338,3.181-4.627,1.039-.148,5.507-.6,9.609-1.008Z" transform="translate(-1243.06 558.904)" fill="#1e3c5c" stroke="#fff" stroke-miterlimit="10" stroke-width="2"/>
      </g>
    </g>
    <g id="Kentucky" transform="translate(735.342 329.261)">
      <g id="Group_31" data-name="Group 31" transform="translate(0 0)">
        <path id="Kentucky-2" data-name="Kentucky" d="M1143.114-608.533a15.9,15.9,0,0,1-1.576,2.1c6.7-.177,17.623-.529,19.94-.529,3.3,0,8.263-.413,8.263-.413l.207-4.131s13.842-.827,27.064-1.653c10.942-.685,52.445-4.905,71.234-7.043,5.459-3.12,10.193-7.149,11.88-8.273,1.712-1.141,2.424-1.712,2.281-2.71a7.479,7.479,0,0,1,1.284-4.564c1-1.283,3.138-3.137,6.7-5.7a98.331,98.331,0,0,0,9.27-8.415,67.688,67.688,0,0,1-5.848-4.137c-2.852-2.282-4.849-7.416-5.847-9.128s-3.709-1.854-4.421-3.423-.57-2.709-.713-7.844c-8.558-1.426-8.272-6.7-8.272-6.7l-6.7,4.421a24.938,24.938,0,0,0-5.134-1.569c-2.14-.285-5.562,2-8.129-.142s-4.707-1.142-9.271-.857c-.571-7.274-4.565-6.988-7.132-7.416a47.374,47.374,0,0,0-6.275-.428s-1.569,1.141-.713,4.564-.286,4.564-2.282,6.133-7.274,1.854-7.274,1.854a20.6,20.6,0,0,1-.57,5.278c-.713,3.28-8.415,8.7-8.415,8.7a49.02,49.02,0,0,1-.427,8.13c-1.141.428-7.7.713-7.7.713l-1.141-4.137c-4.992,0-5.42,5.134-5.7,8.415-.856-.142-2.71-1.283-4.422-3.423-1.854-.428-6.7,5.7-6.7,5.7a31.737,31.737,0,0,0-4.706-2.424c-3.994-1.854-5.7,2.282-5.7,2.282s.142-.428-2.425-1.712-6.928,3.5-6.928,3.5a38.043,38.043,0,0,1-1.341,4.39c-.366,1.34-1.4,3.536.182,5.669-2.377-.182-4.816-.731-6.462,2.012s.184,7.255.244,8.047-.244,1.952-2.44,1.037-4.815-3.231-8.107-2.682-3.171.975-4.085,2.439c-.444.71-1.158,2.206-1.778,3.561C1147.19-617.417,1144.826-611.526,1143.114-608.533Z" transform="translate(-1141.538 687.093)" fill="#1e3c5c" stroke="#fff" stroke-miterlimit="10" stroke-width="2"/>
      </g>
    </g>
    <g id="Illinois" transform="translate(683.19 240.433)">
      <g id="Group_32" data-name="Group 32" transform="translate(0 0)">
        <path id="Illinois-2" data-name="Illinois" d="M1165.848-679.942c.433-2.6-.651-19.3-1.3-29.715s-3.173-53.159-3.173-53.159c-.062-1.962-.143-3.445-.146-4.8-.468-.2-.84-.374-1.04-.488-.819-.46-1.944-2.455-2.864-4.245s-5.216-9-5.216-9,.2-1.33.614-4.654a17.362,17.362,0,0,0,0-3.474c.046.555.073,1.087.077,1.591-10.706.643-36.119,2.143-42.913,2.313-6.107.151-11.773.089-15.054-.036,1.24,1.843,1.533,3.112,2.26,3.4.974.389,2.143.195,2.922,1.948s.585,2.922,3.312,5.845,3.506,6.624,1.558,10.91-3.507,7.014-8.182,8.182-8.182,3.117-8.377,4.87.585,3.117,1.559,4.871a8.275,8.275,0,0,1,.389,6.429c-.779,1.558-2.922,3.312-3.117,4.676a7.445,7.445,0,0,0,.2,2.728,2.316,2.316,0,0,0-2.923,1.168c-1.168,1.948-1.362,6.623-2.922,7.987,0,0-.584,8.182,1.363,13.247a18.853,18.853,0,0,0,7.988,9.936c3.7,2.533,7.988,5.066,9.157,9.546s1.559,5.455,2.533,5.649,2.338-2.922,6.234-.389,3.312,3.9,3.312,3.9-2.338,7.014-3.117,10.521-.195,7.987,3.506,10.519,9.936,4.676,12.274,7.014,4.286,4.286,4.87,8.182-.556,9.836,5.224,11.781c.074.025.131.061.2.089a39.574,39.574,0,0,1,1.777-3.561c.915-1.464.792-1.889,4.085-2.439s5.914,1.768,8.107,2.682,2.5-.243,2.439-1.037-1.89-5.3-.244-8.047,4.084-2.194,6.462-2.012c-1.585-2.133-.548-4.328-.183-5.669a37.725,37.725,0,0,0,1.341-4.391c.062-.975-.15-8.556-.15-8.556-.218-1.952.217-2.386,2.6-4.772S1165.414-677.339,1165.848-679.942Z" transform="translate(-1081.427 789.476)" fill="#d8374f" stroke="#fff" stroke-miterlimit="10" stroke-width="2"/>
      </g>
    </g>
    <g id="Wisconsin" transform="translate(649.398 122.98)">
      <g id="Group_33" data-name="Group 33" transform="translate(0 0)">
        <path id="Wisconsin-2" data-name="Wisconsin" d="M1155.03-884.521s-6.546,9.511-8.08,11.659-4.654,6.955-6.853,9.307-2.608-1.994-2.045-3.273,5.421-10.125,6.29-12.324c-2.568-1.667-2.477-5.789-2.419-6.749a3.688,3.688,0,0,1-1.621.357c-2.149.2-.921-9-.87-10.79-.716-.869-3.375-1.279-4.449-1.33-.051-2.659-2.812-3.784-6.034-4.091s-11.557-1.125-19.074-4.551a32.375,32.375,0,0,0-15.9-3.018,45.463,45.463,0,0,0-4.756-5.727,5.729,5.729,0,0,1-1.892.511c-1.381.2-4.347-1.995-4.961-2.3-.921.358-.768.921-3.171.87s-1.585-2.966-.971-3.887,3.681-4.551,3.681-4.551-1.073-1.639-7.005,1.38c-6.309,3.212-9.148,4.924-12.529,5.268-3.529.357-3.427.46-6.7-.818.408-1.755,2.89-4.13,5.489-6.243l-.382.224c-2.025,1.157-4.339,4.194-5.857,5.929s-2.6,6.073-2.892,8.531.723,6.941.506,8.1-2.747,4.338-5.278,6.652-4.843,5.133-4.772,7.158,4.121,3.687,4.772,7.519c-1.59,2.964-2.1,9.327-1.735,12.074s.217,6.218,1.735,7.953,3.181,1.447,5.423.506a9.335,9.335,0,0,0,6.651,4.7c1.735,2.169,3.687,7.158,6.434,8.965s10.268,4.989,11.062,8.242.651,9.688.651,9.688.438,4.1,3.361,4.883c-1.754,5.456-2.338,8.378-1.364,11.5s4.286,5.844,8.572,6.623a16.379,16.379,0,0,1,1.635,2.051c3.281.126,8.947.188,15.054.036,6.794-.17,32.207-1.67,42.913-2.313a39.75,39.75,0,0,0-2.536-12.129,22.35,22.35,0,0,1-.921-13.092,22.52,22.52,0,0,1,3.682-7.978,46.485,46.485,0,0,1-1.739-7.926c-.154-2.762,1.739-4.859,2.3-6.495s-.154-9.665.358-12.683,5.011-10.534,6.393-13.04S1155.03-884.521,1155.03-884.521Z" transform="translate(-1042.479 924.854)" fill="#1e3c5c" stroke="#fff" stroke-miterlimit="10" stroke-width="2"/>
      </g>
    </g>
    <g id="Minessota" transform="translate(565.137 59.756)">
      <g id="Group_34" data-name="Group 34">
        <path id="Minnesotta" d="M1089.643-965.511c-2.173-.689-7.758.636-8.761.97-1.085.361-1.156-.362-2.241-1.88s-9.038-.434-12.565.4c-1.647-3.648-3.847-3.943-5.076-3.292-.481.254-1.409,1.032-2.53,1.885a9.872,9.872,0,0,1-3.491,2.327c-.085.017-.175.03-.262.044a5.343,5.343,0,0,1-1.959.515c-2.893.072-6.507-2.965-6.507-2.965a9.425,9.425,0,0,1-2.82-.578c-1.692-.491-1.776-2.792-1.717-3.892a3.021,3.021,0,0,1,.045-.541c-.063.209-.549,1.007-4.329.819a7.4,7.4,0,0,1-.776-.085c-.1,0-.2.01-.309.012-2.819.073-10.022-6.6-14.315-7.158-2.109-.273-4.331,1.155-6.5,2.166s-6.659,1.232-7.309,1.16c-.514-.057-.576-1.958-.58-2.757l-2.312.154a9.6,9.6,0,0,1-3.1-.217,15.454,15.454,0,0,1-1.963,0c-.8-.145-.145-1.952-.145-1.952a11.645,11.645,0,0,1-3.907-.042c-.359-.009-.7-.019-1.009-.031a4.275,4.275,0,0,1-3.831-3.18c-.651-1.88-2.748-14.1-2.748-14.1H984.29l-.868,9.327h-1.941c-4.09,0-13.447-.015-16.134-.072-3.47-.072-19.989-.238-19.989-.238a40.869,40.869,0,0,1,1.194,9.923c-.142,2.415-.568,10.656-.142,13.782s3.694,10.514,4.262,13.356a99.85,99.85,0,0,1,1.563,13.64c0,3.41.711,10.656,1.136,15.061s2.274,7.53,3.837,10.513.135,8.825.135,8.825a8.324,8.324,0,0,1-1.68,3.665c-1.222,1.222-3.207,3.359-2.9,5.344s3.359,4.582,4.428,6.109,1.833.916,1.985,6.719-1.069,45.507-1.069,45.507,7.1.132,14.253.132,63.19-1.158,63.19-1.158c9.183-.072,29.065-.939,29.065-.939s.145-6.435-.651-9.689-8.314-6.434-11.062-8.242-4.7-6.8-6.434-8.965a9.337,9.337,0,0,1-6.652-4.7c-2.241.94-3.9,1.229-5.422-.506s-1.373-5.206-1.735-7.953.145-9.11,1.735-12.074c-.651-3.832-4.7-5.5-4.772-7.519s2.241-4.844,4.772-7.158,5.061-5.495,5.277-6.652-.794-5.639-.506-8.1,1.374-6.8,2.892-8.531,3.832-4.771,5.856-5.929l.382-.224c2.627-2.137,5.374-4.007,6.223-4.7,1.688-1.381,4.705-7.364,4.705-7.364a4.354,4.354,0,0,1,.315-.593,10.674,10.674,0,0,1,1.534-2.228,27.576,27.576,0,0,1,5.344-4.45,16.192,16.192,0,0,1,1.4-.86c.122-.066.262-.136.4-.2a36.758,36.758,0,0,1,5.081-2.294c.253-.093.51-.193.765-.29.772-.313,1.514-.609,2.189-.875a112.691,112.691,0,0,0,13.867-6.974A3.3,3.3,0,0,0,1089.643-965.511Z" transform="translate(-945.359 997.726)" fill="#d8374f" stroke="#fff" stroke-miterlimit="10" stroke-width="2"/>
      </g>
    </g>
    <g id="Iowa" transform="translate(575.748 219.249)">
      <g id="Group_35" data-name="Group 35" transform="translate(0 0)">
        <path id="Iowa-2" data-name="Iowa" d="M1086.933-777.644c-2.727-2.923-2.533-4.092-3.312-5.845s-1.948-1.558-2.922-1.948-1.169-2.532-3.9-5.455c-4.286-.779-7.6-3.506-8.572-6.623s-.39-6.039,1.364-11.495c-2.922-.779-3.36-4.883-3.36-4.883s-19.882.868-29.065.94c0,0-56.032,1.158-63.19,1.158s-14.253-.132-14.253-.132h-2.138s0,5.5,2.9,8.552c.306,4.123-1.222,12.063-2.749,14.049a32.348,32.348,0,0,1,3.349,6.235c1.665,7.22,3.054,10.829,5.831,13.328a20,20,0,0,0,1.807,10.114,54.969,54.969,0,0,1,3.819,13.005c.79,4.664.075,10.443,1.761,16.276,14.884-.442,38.713-1.513,51.842-1.883,13.832-.389,33.314-.194,33.314-.194s3.313,4.091,5.65,6.623c1.559-1.364,1.753-6.039,2.922-7.987a2.315,2.315,0,0,1,2.923-1.168,7.443,7.443,0,0,1-.2-2.728c.2-1.364,2.339-3.117,3.117-4.675a8.273,8.273,0,0,0-.389-6.429c-.974-1.753-1.754-3.117-1.559-4.871s3.7-3.7,8.377-4.871,6.234-3.9,8.182-8.182S1089.66-774.722,1086.933-777.644Z" transform="translate(-957.589 813.893)" fill="#1e3c5c" stroke="#fff" stroke-miterlimit="10" stroke-width="2"/>
      </g>
    </g>
    <g id="Mossouri" transform="translate(591.417 296.8)">
      <g id="Group_36" data-name="Group 36" transform="translate(0 0)">
        <path id="Missouri" d="M1120.848-624.085c-5.78-1.945-4.64-7.885-5.224-11.781s-2.532-5.845-4.87-8.183-8.572-4.481-12.274-7.013-4.286-7.014-3.507-10.52,3.117-10.52,3.117-10.52.585-1.364-3.311-3.9-5.26.585-6.234.389-1.364-1.168-2.533-5.65-5.454-7.013-9.157-9.546a18.847,18.847,0,0,1-7.987-9.936c-1.948-5.065-1.364-13.247-1.364-13.247-2.337-2.533-5.65-6.623-5.65-6.623s-19.481-.2-33.313.194c-13.129.369-36.958,1.441-51.842,1.882a31.068,31.068,0,0,1-1.045-5.972h0a24.535,24.535,0,0,0,3.927,12.16c5.276,7.774,7.206,9.557,7.206,9.557a33.186,33.186,0,0,0,3.47,1.487c1.487.5,5.7,1.984,5.206,5.949s-3.222,3.47-3.222,3.47a17.858,17.858,0,0,0,2.974,8.181c2.727,3.966,8.429,6.444,8.429,6.444s-.992,17.352-1.24,25.533-.9,33.437-.9,33.437-.273,6.007,0,10.1a37.716,37.716,0,0,0,.51,3.77c16.974-.285,61.493-1.065,69.814-1.537,10.326-.585,24.613-.754,31.194-.954,2.06,6.58-2.512,7.233-4.536,11.366a20.232,20.232,0,0,1,12.274.2c3.313-3.223,4.585-9.063,5.223-10.708,1.2-3.114,4.086-5.533,5.173-7.435C1122.89-616.53,1125.321-622.58,1120.848-624.085Z" transform="translate(-975.649 724.507)" fill="#1e3c5c" stroke="#fff" stroke-miterlimit="10" stroke-width="2"/>
      </g>
    </g>
    <g id="Missispi" transform="translate(692.638 450.826)">
      <g id="Group_37" data-name="Group 37" transform="translate(0 0)">
        <path id="Missisppi" d="M1167.507-417.053s-2.386-31.667-3.471-45.332-.434-47.284.434-57.912,1.952-26.679,1.952-26.679-24.122,1.672-31.352,2.25c-4.04.324-11.335.682-16.988.935a1.24,1.24,0,0,0-.379.918,5.914,5.914,0,0,1-2.512,4.507c-1.783.991-3.96,1.386-4.158,3.763s.793,5.742-.4,7.524-4.554,4.356-6.336,7.326-2.376,5.742-4.752,6.138c-.2,8.118-.594,20.79-.2,24.354l.4,3.564s1.173,11.471,5.97,17.386c-2.4,7.2-2.238,8.954-5.116,12.632s-7.195,8.314-7.994,13.589a44.31,44.31,0,0,0,.319,11.831s14.23-.8,19.825-.8h23.343s-1.278,7.035-.959,8.953a24.371,24.371,0,0,0,3.518,7.515c1,1.443,2.15,3.422,2.761,4.5a74.178,74.178,0,0,0,4.892-6.367,18.668,18.668,0,0,0,3.525.542c1.952.109,6.127-1.627,8.838-1.735s2.441.542,5.369.922a13.679,13.679,0,0,0,3.508-.115Z" transform="translate(-1092.317 546.976)" fill="#1e3c5c" stroke="#fff" stroke-miterlimit="10" stroke-width="2"/>
      </g>
    </g>
    <g id="Alabama" transform="translate(763.789 446.221)">
      <path id="alabama-2" data-name="alabama" d="M1202.931-417.972l-.061.018c.063-3.333.12-8.052-.068-9.563-.29-2.314-3.182-2.314-4.337-4.049s-.868-6.073,1.156-6.073,23.715-3.181,31.812-3.47,28.341-1.736,28.341-1.736a37.825,37.825,0,0,1-2.267-3.761c-.861-1.723-3.159-5.169-2.3-8.9s.287-3.446-.575-6.318-1.723-5.456-.574-8.041,3.734-7.467,3.734-7.467,0-.861-4.022-7.178-9.476-27.569-12.061-36.184-4.882-20.1-7.753-31.589c-12.923,1.436-56.68,4.605-56.68,4.605s-1.084,16.051-1.952,26.679-1.518,44.247-.434,57.912,3.47,45.332,3.47,45.332l.039.21a58.911,58.911,0,0,0,6.36-1.4c2.548-.651,1.844-3.579,2.548-5.369s1.139-2.656,2.928-2.277,4.989,5.26,5.856,7.1-1.193,4.5-1.193,4.5S1196.555-416.11,1202.931-417.972Z" transform="translate(-1174.326 552.284)" fill="#1e3c5c" stroke="#fff" stroke-miterlimit="10" stroke-width="2"/>
    </g>
    <g id="Tennessee" transform="translate(718.402 390.799)">
      <g id="Group_38" data-name="Group 38" transform="translate(0 0)">
        <path id="Path_48" data-name="Path 48" d="M1305.988-616.163s-23.552,3.1-32.022,4.339-66.318,7.231-79.539,8.057-27.064,1.653-27.064,1.653l-.207,4.131s-4.958.413-8.263.413c-2.317,0-13.244.352-19.94.529a19.9,19.9,0,0,0-3.6,5.333c-.637,1.645-1.909,7.485-5.222,10.708,0,0,2.057,1,.473,4.368s-2.376,6.732-3.762,8.118-2.772,2.97-2.772,5.148.708,6.083-.479,8.261a9.47,9.47,0,0,1-1.579,2.154c5.652-.254,12.948-.612,16.988-.936,7.23-.579,31.352-2.251,31.352-2.251s43.757-3.169,56.68-4.605c0,0,14.757-1.908,26.914-3.269a25.525,25.525,0,0,1,.186-7.527s1.446.206,5.372-2.272c.412-6.818,5.785-7.644,8.883-8.057s4.958-3.512,7.437-5.578a8.656,8.656,0,0,1,5.579-1.859s.62-4.958,1.859-6.817,3.926-2.479,7.024-1.446c4.752-4.131,7.438-3.512,10.536-3.925.621-4.959,4.34-7.645,5.165-9.3S1305.988-616.163,1305.988-616.163Z" transform="translate(-1122.013 616.163)" fill="#1e3c5c" stroke="#fff" stroke-miterlimit="10" stroke-width="2"/>
      </g>
    </g>
    <g id="Arkansas" transform="translate(617.776 414.401)">
      <g id="Group_39" data-name="Group 39" transform="translate(0 0)">
        <path id="Arkansas-2" data-name="Arkansas" d="M1114.777-577.4a20.238,20.238,0,0,0-12.274-.2c2.024-4.133,6.6-4.786,4.536-11.366-6.58.2-20.868.369-31.194.954-8.321.471-52.839,1.251-69.813,1.536.755,4.312,2.084,9.886,2.494,13.161.547,4.369,2.731,25.669,2.184,36.866-.428,8.792-.183,24.314-.059,30.577a35.956,35.956,0,0,0,8.959.859c.19,3.042.362,9.1.5,15.475,10.849-.456,33.089-1.378,39.3-1.526,8.316-.2,28.908-.2,28.908-.2l-.4-3.564c-.4-3.564,0-16.236.2-24.354,2.376-.4,2.969-3.168,4.751-6.138s5.148-5.544,6.336-7.326.2-5.148.4-7.524,2.375-2.772,4.157-3.763a5.912,5.912,0,0,0,2.512-4.507c0-.99.771-.893,1.96-3.071s.478-6.084.478-8.261,1.385-3.763,2.772-5.148,2.179-4.752,3.762-8.118S1114.777-577.4,1114.777-577.4Z" transform="translate(-1006.031 588.959)" fill="#1e3c5c" stroke="#fff" stroke-miterlimit="10" stroke-width="2"/>
      </g>
    </g>
    <g id="Louisiana" transform="translate(631.854 512.106)">
      <g id="Group_41" data-name="Group 41" transform="translate(52.118 94.649)">
        <g id="Group_40" data-name="Group 40">
          <path id="Path_49" data-name="Path 49" d="M1082.329-366.172s2.4-1.918,3.838-.639a3.4,3.4,0,0,1,1.279,2.718S1082.969-364.413,1082.329-366.172Z" transform="translate(-1082.329 367.251)" fill="#1e3c5c" stroke="#fff" stroke-miterlimit="10" stroke-width="2"/>
        </g>
      </g>
      <path id="Path_50" data-name="Path 50" d="M1146.41-375.383c-1.844-2.82-5.856-3.254-9.435-3.579s-4.663-2.494-6.941-5.314a8.725,8.725,0,0,0,2.495-5.314c3.253.542,4.662-1.085,4.771-3.037s-.65-4.663-2.277-5.748-2.386,2.928-3.254,5.639c-1.627.651-6.073-2.441-6.073-2.441a35.032,35.032,0,0,1,4.609-3.85,10.732,10.732,0,0,0,1.832-1.713c-.611-1.077-1.762-3.056-2.761-4.5a24.339,24.339,0,0,1-3.518-7.515c-.32-1.918.959-8.953.959-8.953h-23.342c-5.6,0-19.826.8-19.826.8a44.286,44.286,0,0,1-.319-11.832c.8-5.276,5.116-9.912,7.994-13.589s2.717-5.436,5.116-12.631c-4.8-5.915-5.97-17.386-5.97-17.386s-20.593,0-28.908.2c-6.213.148-28.454,1.07-39.3,1.526.213,9.843.346,20.461.346,22,0,2.539-.241,4.473.725,5.8s3.748,2.9,4.353,4.715.6,4.352,2.176,7.616,4.474,6.771,5.2,9.43,1.692,3.868.6,8.1-3.506,9.43-3.506,11.365a9.087,9.087,0,0,0,.967,3.747,3.459,3.459,0,0,0-.6,3.023c.363,2.055.846,3.869,0,5.44a17,17,0,0,0-2.258,10.621,67.916,67.916,0,0,1,19.955-1.518c5.531.434,10.085,3.579,14.641,4.013s5.965-.976,6.941-2.278c-1.3-.976-2.6-4.121.325-5.1s6.073,2.386,6.073,2.386a10.481,10.481,0,0,1,4.772-.108c2.711.542,3.47,5.206,3.47,5.206s.325.109,4.447.868,2.928,3.362,1.953,5.531c11.386,7.917,13.447,5.639,15.616,4.989s1.41-3.687,1.41-3.687a8.968,8.968,0,0,0,3.036,0c.976-.325,1.844-2.278,4.122-2.386,2.494,2.061.542,5.748.542,5.748l1.085.976c2.494-.976,3.036-9.11,3.361-10.194s5.314-3.687,5.314-3.687l.76,5.206a31.887,31.887,0,0,1,6.507,1.518c2.278.976,4.013,3.253,6.724,3.145s3.687.868,3.687.868l2.386-3.8ZM1115.955-398.6c-1.884-.332-2.328-1.108-2.438-2.771s.443-3.436,4.323-4.212,9.312,3.326,9.312,3.326c1.219.776-.112,2.328-2.107,3.88S1117.84-398.265,1115.955-398.6Z" transform="translate(-1022.258 476.344)" fill="#1e3c5c" stroke="#fff" stroke-miterlimit="10" stroke-width="2"/>
    </g>
    <g id="Nebraska" transform="translate(419.481 228.357)">
      <g id="Group_42" data-name="Group 42" transform="translate(0 0)">
        <path id="Nebraska-2" data-name="Nebraska" d="M953.337-722.792c-5.276-7.775-3.568-16.143-4.638-22.463a55.01,55.01,0,0,0-3.819-13.006,20,20,0,0,1-1.806-10.114c-2.777-2.5-4.165-6.109-5.831-13.328-6.55.253-6.386-4.72-6.664-5.831s-11.385-3.609-14.439-4.442-7.559,1.9-11.367,1.067c-5-1.092-12.823-7.275-12.823-7.275s-23-.264-34.1-.819-32.227-1.026-46.666-2.137c-10.76-.827-22.9-1.809-28.4-2.256-.18,1.825-.343,3.389-.482,4.6-.99,8.668-3.194,35.2-4.427,50.324l-.4-.035c3.532.3,6.593.572,8.9.782,11.929,1.084,33.4,2.386,33.4,2.386s-1.067,18.136-1.668,27.962c4.884.261,11.811.63,17.253.916,0,0,56.27,2.231,69.656,2.727s55.527.5,55.527.5S958.613-715.017,953.337-722.792Z" transform="translate(-777.475 803.395)" fill="#1e3c5c" stroke="#fff" stroke-miterlimit="10" stroke-width="2"/>
      </g>
    </g>
    <g id="South_Dakota" data-name="South Dakota" transform="translate(424.791 146.679)">
      <g id="Group_43" data-name="Group 43" transform="translate(0 0)">
        <path id="South_Dakota-2" data-name="South Dakota" d="M783.6-815.86c5.491.446,17.635,1.428,28.4,2.256,14.438,1.11,35.558,1.581,46.665,2.137s34.1.819,34.1.819,7.821,6.183,12.823,7.275c3.808.831,8.311-1.9,11.366-1.067s14.161,3.332,14.438,4.442.114,6.084,6.664,5.831A32.291,32.291,0,0,0,934.7-800.4c1.527-1.986,3.054-9.926,2.749-14.049-2.9-3.054-2.9-8.552-2.9-8.552h2.138s1.222-39.7,1.069-45.506-.916-5.192-1.985-6.719-4.123-4.123-4.428-6.108,1.68-4.123,2.9-5.345a8.325,8.325,0,0,0,1.68-3.665s-22.448-.916-29.014-1.222-44.438-2.29-51.462-2.6-40.162-1.833-49.478-2.444c-6.251-.41-12.292-.751-15.592-.931-.784,9.644-1.511,18.994-1.968,25.5,0,0-3.161,39.392-4.818,56.188Z" transform="translate(-783.595 897.538)" fill="#1e3c5c" stroke="#fff" stroke-miterlimit="10" stroke-width="2"/>
      </g>
    </g>
    <g id="North_Dakota" data-name="North Dakota" transform="translate(431.576 63.648)">
      <g id="Group_44" data-name="Group 44">
        <path id="North_Dakota-2" data-name="North Dakota" d="M860.013-989.757c-16.918-.434-42.3-1.952-60.949-3.471l-.126-.011c-1.266,13.765-3.478,37.712-4.284,45.777-.7,7-2.036,22.472-3.238,37.253,3.3.181,9.341.522,15.592.931,9.316.611,42.453,2.139,49.477,2.444s44.9,2.29,51.462,2.6,29.014,1.222,29.014,1.222,1.427-5.842-.135-8.825-3.41-6.109-3.837-10.514-1.137-11.651-1.137-15.06a99.887,99.887,0,0,0-1.562-13.64c-.568-2.842-3.836-10.23-4.263-13.356s0-11.366.143-13.782a40.855,40.855,0,0,0-1.194-9.923c-8.647-.069-16.281-.123-19.415-.123C896.669-988.239,876.931-989.324,860.013-989.757Z" transform="translate(-791.416 993.239)" fill="#1e3c5c" stroke="#fff" stroke-miterlimit="10" stroke-width="2"/>
      </g>
    </g>
    <g id="Kansas" transform="translate(455.177 314.378)">
      <g id="Group_45" data-name="Group 45">
        <path id="Kansas-2" data-name="Kansas" d="M974.419-681.021a17.858,17.858,0,0,1-2.974-8.181s2.727.5,3.222-3.47-3.718-5.454-5.206-5.949a33.214,33.214,0,0,1-3.47-1.487s-42.14,0-55.526-.5-69.656-2.727-69.656-2.727c-5.443-.286-12.37-.655-17.253-.916-.115,1.895-.214,3.486-.285,4.573-.434,6.724-4.555,66.371-4.555,70.709,0,2.033-.047,5.449-.1,8.5,21.966,1.166,52.742,2.771,58.593,2.943,9.284.273,82.2,1.366,88.2,1.639s15.293.273,15.293.273.651-25.257.9-33.437,1.24-25.532,1.24-25.532S977.146-677.055,974.419-681.021Z" transform="translate(-818.618 704.247)" fill="#1e3c5c" stroke="#fff" stroke-miterlimit="10" stroke-width="2"/>
      </g>
    </g>
    <g id="Texas" transform="translate(326.373 411.668)">
      <g id="Group_46" data-name="Group 46" transform="translate(0 0)">
        <path id="Path_51" data-name="Path 51" d="M899.809-295.275s-4.88-16.268-5.747-21.582a20.542,20.542,0,0,1,1.193-11.17c.868-2.495,3.254-13.773,3.254-13.773a78.776,78.776,0,0,0,6.054-5.317c-.759-1.952-1.111-1.961-1.111-1.961s-4.2-1.714.066-3.2c2.81-.979,7.085-3.64,8.886-6.731.458-.783,3.922-.326,3.922-.326s1.895-2.026-.327-7.45a20.834,20.834,0,0,0,8.757-1.569c4.378,1.765,1.341,5.768,2.744,5.032,4.555-2.386,6.906-3.854,9.943-5.264s9.218-6.941,10.628-8.242,7.374-5.531,8.35-6.941c2.495-.759,6.724-6.941,6.724-6.941s13.882-5.748,20.5-7.374a17.007,17.007,0,0,1,2.258-10.621c.847-1.571.363-3.384,0-5.44a3.46,3.46,0,0,1,.6-3.023,9.085,9.085,0,0,1-.967-3.747c0-1.935,2.418-7.133,3.506-11.365s.121-5.44-.6-8.1-3.627-6.165-5.2-9.43-1.572-5.8-2.176-7.616-3.386-3.385-4.353-4.715-.725-3.264-.725-5.8-.363-29.741-.846-37.478c-9.551.121-13.178-2.3-15.475-3.627s-5.682-4.836-8.825-5.2-6.287,1.693-6.287,1.693c-1.935.12-1.813-.725-3.264-1.451s-4.473,2.539-7.133,1.813c-6-1.637-8.22,2.176-8.22,2.176a87.935,87.935,0,0,0-10.035-2.539c-7.375-1.571-7.616.483-9.551,2.3-1.571.483-5.44-1.21-9.067-3.506s-7.253-.242-9.066.241c-.484-2.3-3.265-5.561-5.319-6.77s-4.11-.846-9.188.242c-5.077-3.023-12.089-3.386-15.353-4.111.725-5.561-1.33-5.924-3.506-6.891-.726,1.209-1.451.967-2.9.242s-2.055.121-3.385.484-2.781-1.089-4.352-2.539a8.366,8.366,0,0,0-3.243-1.876s0-7.857.682-16.056,1.026-38.259,1.026-38.259-41.335-1.708-50.216-2.05c-5.445-.209-12.684-.675-17.473-1q-.055.605-.109,1.2c-.663,7.3-9.067,122.3-9.067,122.3s-23.442-.884-34.721-2.653-34.942-3.318-48.875-4.644c0,1.8-.171,3.771-.31,5.362-2.867-.3-7.155-.756-11.748-1.248l.118.012.154.016,1.327.142.738.079.432.046.965.1.849.091.721.077.539.057.868.092.714.077.612.065.806.085.438.046.672.071.618.065.307.032.817.085.1.011.792.082.508.052.3.03.444.045.28.029.287.028.265.026.393.037c1.873,1.152,3.6,5.547,4.25,7.06s.865,4.251,4.035,5.763,3.89,2.882,6.268,6.2,9.054,9.509,9.054,9.509c1.192,1.627,6.4,2.06,7.049,4.555s1.085,2.06,2.6,2.711c0,6.29,5.64,11.387,5.64,11.387l-.217,11.17s6.073,14.207,13.014,16.159,8.025,5.206,8.025,5.206l10.845,5.314s7.591-8.893,8.568-10.085,1.3-5.857,5.748-10.737a13.894,13.894,0,0,0,9-3.145,30.02,30.02,0,0,0,3.8,3.037c1.084.542,5.639,0,15.183,1.3s6.94,6.4,6.94,6.4,7.375,7.158,9.435,8.893.976,2.278,2.712,4.446a12.59,12.59,0,0,1,2.494,6.507c.217,1.843,4.88,11.821,5.856,14.315-.651,3.9-.108,4.555.759,5.422s3.9,2.061,6.507,4.23,4.989,9.436,7.7,10.845,5.206,3.145,5.531,4.012-1.41,6.724-1.41,6.724-.325,0,1.952,1.3c1.3,3.254-.542,7.7-.542,7.7l5.1,4.121c.976,13.556,12.58,15.725,20.28,16.7,5.314,5.206,9.11,3.8,12.472,3.9s5.314,2.169,9.11,4.772A5.212,5.212,0,0,0,899.809-295.275Z" transform="translate(-670.158 592.11)" fill="#1e3c5c" stroke="#fff" stroke-miterlimit="10" stroke-width="2"/>
        <path id="Path_52" data-name="Path 52" d="M952.423-320.654c1.311.309,1.177,4.836-5.032,9.868s-6.731,5.619-6.535,4.247,2.81-7.123,5.1-9.41S951.312-320.915,952.423-320.654Z" transform="translate(-705.995 556.171)" fill="#1e3c5c" stroke="#fff" stroke-miterlimit="10" stroke-width="2"/>
      </g>
    </g>
    <g id="Colorado" transform="translate(302.165 272.751)">
      <g id="Group_47" data-name="Group 47" transform="translate(0)">
        <path id="Colorado-2" data-name="Colorado" d="M795.267-626.814c.05-3.055.1-6.47.1-8.5,0-4.338,4.121-63.986,4.555-70.709s1.952-32.535,1.952-32.535-21.473-1.3-33.4-2.386-43.814-3.687-59-5.206-52.924-6.073-52.924-6.073-8.676,60.515-9.543,66.155-3.934,34.957-3.934,36.042-.816,7.684-.816,7.684,10.171,1.71,20.344,2.816,47.1,5.529,59.932,6.856,49.98,4.644,49.98,4.644S782.374-627.5,795.267-626.814Z" transform="translate(-642.256 752.226)" fill="#d8374f" stroke="#fff" stroke-miterlimit="10" stroke-width="2"/>
      </g>
    </g>
    <g id="Oklahoma" transform="translate(431.203 396.948)">
      <g id="Group_48" data-name="Group 48" transform="translate(0 0)">
        <path id="Oklahoma-2" data-name="Oklahoma" d="M980.053-575.971c-.547-4.369-2.73-12.834-3-16.93s0-10.1,0-10.1-9.285,0-15.292-.273-78.92-1.366-88.2-1.639-81.349-4.159-81.349-4.159-.592,7.711-1.218,14.72c4.789.33,12.027.8,17.472,1,8.882.342,50.216,2.05,50.216,2.05s-.341,30.061-1.025,38.259-.683,16.056-.683,16.056a8.369,8.369,0,0,1,3.243,1.876c1.571,1.45,3.021,2.9,4.352,2.539s1.934-1.209,3.385-.484,2.176.968,2.9-.242c2.176.967,4.231,1.33,3.506,6.891,3.264.725,10.276,1.088,15.353,4.111,5.078-1.088,7.134-1.451,9.189-.242s4.835,4.474,5.319,6.77c1.813-.483,5.44-2.538,9.066-.241s7.5,3.989,9.067,3.506c1.935-1.814,2.176-3.869,9.551-2.3a87.853,87.853,0,0,1,10.034,2.538s2.217-3.813,8.221-2.176c2.66.725,5.682-2.539,7.133-1.813s1.329,1.571,3.264,1.451c0,0,3.144-2.055,6.287-1.693s6.528,3.869,8.825,5.2a21.724,21.724,0,0,0,6.515,2.767c-.124-6.263-.369-21.785.06-30.577C982.784-550.3,980.6-571.6,980.053-575.971Z" transform="translate(-790.986 609.076)" fill="#1e3c5c" stroke="#fff" stroke-miterlimit="10" stroke-width="2"/>
      </g>
    </g>
    <g id="Washington" transform="translate(55.745)">
      <path id="Path_53" data-name="Path 53" d="M358.231-1006.194s.325,4.121.976,4.989,5.1.759,5.1,2.711a14.108,14.108,0,0,0,5.61,2.833c3.45.862,6.253,3.449,6.469,6.253s0,9.489,1.51,11.645,1.509,2.588,5.175,3.451S390.4-972.8,390.4-972.8a8.434,8.434,0,0,1,9.057-1.295c5.175,2.373,7.828,3.707,18.179,4.785s26.327-.247,37.971,1.694A183.664,183.664,0,0,1,487.652-959s1.8-13.771,3.974-27.012c2.117-12.88,9.9-45.49,12.823-53.936-20.9-5.013-48-11.854-53.168-13.526-7.7-2.5-49.345-13.123-49.345-13.123a23.67,23.67,0,0,0-.976,2.386c-.542,1.518,2.494,6.4,2.494,7.592s-.542,2.278-1.3,4.337.217,4.88.434,6.291a12.331,12.331,0,0,1-.325,4.012c-.217,1.3,1.581,3.73,1.193,4.229-3.337,4.273-6.872,2.836-7.562,2.913-1.612.178-1.935-.7-3.224-.311,1.208-2.617,1.97-.441,3.546-5.527a10.477,10.477,0,0,0,.573-3.474c-.108-1.844,2.112-4.447,2.112-4.447l-.434-1.627c-2.06.109-3.362,3.254-3.579,5.314a37.974,37.974,0,0,1-22.232-7.592c-5.531-4.121-9.435-8.025-11.279-8.567.217,2.277-1.735,9.977-1.844,11.387s1.844,5.531,1.844,9.435c.434,2.929-.434,10.086-.325,13.34s5.314,7.049,5.314,7.049l-5.314.977a6.944,6.944,0,0,0-1.085,3.145,4.259,4.259,0,0,0,1.389,3.058,6.514,6.514,0,0,1,.455,3.448C361.484-1007.5,358.231-1006.194,358.231-1006.194Z" transform="translate(-358.231 1066.601)" fill="#1e3c5c" stroke="#fff" stroke-miterlimit="10" stroke-width="2"/>
      <path id="Path_54" data-name="Path 54" d="M401.83-1058.543s-1.092-1.66-2.71-1.048-1.792,1.835-2.491,1.835a12.5,12.5,0,0,1-1.7-.174s.918,4.457,2.141,3.845.481-2.01,1.573-2.184a4.054,4.054,0,0,1,1.835.087S402.747-1057.1,401.83-1058.543Z" transform="translate(-363.089 1065.69)" fill="#1e3c5c" stroke="#fff" stroke-miterlimit="10" stroke-width="2"/>
      <path id="Path_55" data-name="Path 55" d="M401.5-1054.787a4.339,4.339,0,0,1,.394,2.709c-.35,1.268-1.486,1.573-1.748,1.4S400.061-1054.088,401.5-1054.787Z" transform="translate(-363.768 1065.037)" fill="#1e3c5c" stroke="#fff" stroke-miterlimit="10" stroke-width="2"/>
    </g>
    <g id="Montana" transform="translate(214.411 30.728)">
      <g id="Group_49" data-name="Group 49" transform="translate(0 0)">
        <path id="Montana-2" data-name="Montana" d="M684.369-1007.145c-15.183-2.169-65.142-9.543-65.142-9.543-17.063-2.893-67.6-13.339-67.6-13.339-1.318-.252-3.19-.649-5.471-1.156l.207.046c-1.787,8.32-4.431,20.666-5.033,23.671-.927,4.635,1.391,6.721,1.391,6.721s3.94,5.562,1.854,9.966,1.391,6.49,1.391,6.49,6.025,7.185,9.039,14.138a16.07,16.07,0,0,0,9.27,8.807,26.854,26.854,0,0,1-.7,3.708c-.463,1.622-5.563,15.527-6.952,17.845s-3.245,2.086-.7,6.257,7.185,2.086,10.893-.694c3.941,6.489,2.318,13.21,3.941,17.846a23.028,23.028,0,0,0,6.257,9.27c2.086,2.085,2.086,3.707,1.854,7.648s1.159,4.867,1.159,4.867a5.27,5.27,0,0,1,6.489-2.55c4.635,1.391,5.794.7,9.27,0s4.867,1.623,9.039,1.855,4.866-4.172,6.257-4.4,1.159,1.159,3.245,4.4c1.265,1.968,2.016,2.4,2.413,2.434l.367-.117,2.4-13.238s27.474,4.627,51.477,7.808,66.805,8.1,85.314,8.676c1.157-16.484,4.048-51.188,5.206-62.756.806-8.065,3.018-32.011,4.284-45.777C747.059-999.794,699.519-1004.981,684.369-1007.145Z" transform="translate(-541.11 1031.183)" fill="#1e3c5c" stroke="#fff" stroke-miterlimit="10" stroke-width="2"/>
      </g>
    </g>
    <g id="Wyoming" transform="translate(275.899 155.697)">
      <g id="Group_50" data-name="Group 50" transform="translate(0 0)">
        <path id="Wyoming-2" data-name="Wyoming" d="M705.465-764.016c12.358,1.236,35.779,3.189,50.5,4.459,1.233-15.126,3.438-41.656,4.428-50.324,1.415-12.379,5.3-60.777,5.3-60.777-18.509-.579-61.311-5.494-85.315-8.676s-51.477-7.809-51.477-7.809l-2.4,13.238-10.4,69.112s-3.254,24.293-4.121,29.5c7.375,1.3,19.521,2.82,24.944,3.254s15.617,1.952,15.617,1.952S690.282-765.534,705.465-764.016Z" transform="translate(-611.981 887.143)" fill="#1e3c5c" stroke="#fff" stroke-miterlimit="10" stroke-width="2"/>
      </g>
    </g>
    <g id="Idaho" transform="translate(143.444 26.649)">
      <g id="Group_51" data-name="Group 51" transform="translate(0 0)">
        <path id="Idaho-2" data-name="Idaho" d="M534.94-834.9s24.293,5.205,33.836,6.724,27.113,3.687,27.113,3.687l10.4-69.112s-.695.927-2.781-2.317-1.854-4.635-3.245-4.4-2.086,4.635-6.257,4.4-5.563-2.55-9.039-1.855-4.635,1.39-9.27,0a5.27,5.27,0,0,0-6.489,2.55s-1.391-.928-1.159-4.867.232-5.562-1.854-7.648a23.024,23.024,0,0,1-6.257-9.27c-1.622-4.636,0-11.357-3.941-17.846-3.708,2.781-8.343,4.866-10.893.695s-.7-3.939.7-6.257,6.489-16.223,6.952-17.845a26.888,26.888,0,0,0,.7-3.708,16.071,16.071,0,0,1-9.27-8.807c-3.013-6.953-9.039-14.138-9.039-14.138s-3.477-2.086-1.391-6.49-1.854-9.965-1.854-9.965-2.318-2.086-1.391-6.721c.6-3,3.246-15.351,5.033-23.671-4.537-1-10.776-2.464-17.7-4.125-2.926,8.446-10.706,41.055-12.823,53.935-2.177,13.241-3.973,27.012-3.973,27.012,2.587,4.96,2.587,5.391,4.744,7.332a65.743,65.743,0,0,1,1.293,7.547s-6.469,5.176-9.7,11.429-4.744,6.469-4.744,6.469-5.606,6.039-6.469,9.7,0,3.882,1.725,3.882a9.282,9.282,0,0,0,2.8,4.528,187.321,187.321,0,0,0-6.9,17.682c-2.588,8.195-7.547,29.327-8.626,34.071-.375,1.652-.7,3.536-.959,5.293-4.334-1.047-9.474-2.3-14.887-3.638h0c12.863,3.168,24.179,5.91,26.824,6.414C495.247-842.49,534.94-834.9,534.94-834.9Z" transform="translate(-459.313 1035.885)" fill="#1e3c5c" stroke="#fff" stroke-miterlimit="10" stroke-width="2"/>
      </g>
    </g>
    <g id="New_Mexico" data-name="New Mexico" transform="translate(279.579 382.632)">
      <g id="Group_52" data-name="Group 52" transform="translate(0 0)">
        <path id="New_Mexico-2" data-name="New Mexico" d="M719.086-615.905c-12.827-1.327-49.759-5.75-59.932-6.856s-20.344-2.816-20.344-2.816-4.7,26.568-5.643,33.739-5.056,33.5-6.584,43.967-5.526,38.56-6.583,47.846-3.645,31.036-3.645,31.036l-.028.182-.1-.015C621.9-468,634.086-466.469,635.5-466c-.36-3.746,1.225-13.185,1.225-13.185a22.665,22.665,0,0,0,3.6.5c2.8.3,25.508,2.769,34.437,3.7.14-1.591.31-3.562.31-5.362,13.933,1.327,37.6,2.875,48.875,4.644s34.721,2.653,34.721,2.653,8.4-115,9.067-122.3,1.326-15.923,1.326-15.923S731.912-614.579,719.086-615.905Z" transform="translate(-616.223 625.577)" fill="#1e3c5c" stroke="#fff" stroke-miterlimit="10" stroke-width="2"/>
      </g>
    </g>
    <g id="Utah" transform="translate(192.129 227.636)">
      <path id="Utah-2" data-name="Utah" d="M639.758-759.111s-10.194-1.518-15.617-1.953-17.569-1.952-24.943-3.254c.867-5.206,4.121-29.5,4.121-29.5s-17.569-2.169-27.112-3.687-33.836-6.724-33.836-6.724-1.952,10.628-3.253,16.7-11.93,58.129-13.882,69.842-9.807,51.759-9.807,51.759c4.82.7,22.22,3.643,29.038,4.7s43.144,6.818,51.138,7.876,29.86,4.115,29.86,4.115.816-6.6.816-7.685,3.066-30.4,3.934-36.042S639.758-759.111,639.758-759.111Z" transform="translate(-515.428 804.226)" fill="#167a91" stroke="#fff" stroke-miterlimit="10" stroke-width="2"/>
    </g>
    <g id="Arizona" transform="translate(151.285 365.938)">
      <path id="Arizona-2" data-name="Arizona" d="M589.371-632.24c-7.994-1.057-44.32-6.818-51.138-7.876s-24.217-4-29.038-4.7c-.822,1.528-2.7,18.339-3.174,20.573s-2.94,3.527-5.291,4.232-1.881-1.057-5.525-4-5.878,1.881-6.583,4.35.47,15.753.117,19.985a14.235,14.235,0,0,1-3.481,7.564,17.267,17.267,0,0,0-.477,2.978c-.119,1.668,3.1,5,3.693,6.2s-.6,3.456,1.907,7.03,2.264,4.171-.239,7.149c-7.269,1.43-7.984,9.294-8.341,11.082s.953,4.527-2.86,5.6-4.766,2.383-5.481,6.792,1.191,6.792,2.382,7.149,0,0,2.5.357c.6,2.383-.6,5.839-3.813,6.554s-3.456-.477-3.456-.477-.307.35-.879.991c-.37.613-.857,1.425-1.328,2.221-.936,1.585-1.008,1.369,3.17,3.819s40.779,23.127,46.255,26.586l30.115,19.021a90.413,90.413,0,0,1,10.231,1.152c3.819.793,33,5.62,35.376,6.124.443.094,1.421.246,2.729.433l.028-.182s2.586-21.748,3.644-31.036,5.055-37.383,6.584-47.846,5.643-36.8,6.583-43.967,5.643-33.739,5.643-33.739S597.365-631.181,589.371-632.24Z" transform="translate(-468.35 644.818)" fill="#167a91" stroke="#fff" stroke-miterlimit="10" stroke-width="2"/>
    </g>
    <g id="California" transform="translate(0 176.971)">
      <g id="Group_53" data-name="Group 53" transform="translate(0 0)">
        <path id="Path_56" data-name="Path 56" d="M447.407-560.032l-.293.485c.572-.641.879-.99.879-.99s.239,1.192,3.456.477,4.408-4.17,3.813-6.554c-2.5-.357-1.311,0-2.5-.357s-3.1-2.74-2.382-7.149,1.667-5.72,5.481-6.792,2.5-3.812,2.86-5.6,1.072-9.652,8.341-11.082c2.5-2.978,2.741-3.574.238-7.149s-1.311-5.839-1.907-7.03-3.812-4.528-3.693-6.2a17.249,17.249,0,0,1,.476-2.979s-5.243-7.626-8.34-12.869-26.691-40.87-31.576-48.257-29.669-45.875-32.529-50.64S374.474-756.9,372.21-758.334c.834-4.528,9.651-33.125,11.438-40.155s9.295-40.274,9.295-40.274-33.245-9.175-38.368-10.725c-4.617-1.4-37.681-11.209-44.17-13.135h0c-.11.719-1.869,12.213-2.814,18.672-.976,6.669-5.856,13.231-9.055,16.43a14.514,14.514,0,0,0-4.555,10.791c-.108,4.338,3.849,9.923,4.663,13.393s.6,3.091.651,7.049-4.067,19.629-4.067,19.629,7.646,12.309,9.165,17.569.6,8.242.162,10.791c.651,1.681,5.9,6.215,6.988,7.787.943-5.895,4.242-5.057,4.716-4.4a8.724,8.724,0,0,1,.864,7.624c-.462,1.185,3.144,6.6-.236,7.074-1.163.162-2.977-7.2-5.5-6.366-.235.777-.848,1.936-1.137,2.707-.976,2.6-.814,9.326-.325,12.417s3.9,5.422,5.476,7.1,2.711,2.982,2.766,5.585S313.5-702.7,313.5-702.7s-.38,7.591.813,9.652,3.036,1.735,3.579,6.02,3.2,11.766,4.935,14.369,4.826,6.128,5.639,9.815a11.586,11.586,0,0,0,2.711,5.531,5.353,5.353,0,0,0-.217,1.9c0,1.41-2.658,14.315-2.658,14.315l2.711,3.634s5.314-.542,7.049.325,7.212,4.88,9.544,5.476a5.43,5.43,0,0,0,4.067-.542c1.952,1.193,4.338,11.659,10.14,14.912,2.651,1.485,7.375,1.518,8.622,1.627.921,1.084,2.114,5.259,1.518,6.669s.326,3.47.326,3.47,4.338.922,5.531,1.41,7.049,7.646,9.923,11.821a28.7,28.7,0,0,1,4.446,11.062c.542,2.766.217,13.99.217,13.99s14.842,1.2,21.039,1.413,28.675,3.963,28.675,3.963l5.619,1.3Z" transform="translate(-293.978 862.623)" fill="#d8374f" stroke="#fff" stroke-miterlimit="10" stroke-width="2"/>
        <path id="Path_57" data-name="Path 57" d="M338.168-587.226s.108,4.338,5.1,4.338C341.8-586.63,341.964-586.955,338.168-587.226Z" transform="translate(-299.829 826.16)" fill="#1e3c5c" stroke="#fff" stroke-miterlimit="10" stroke-width="2"/>
        <path id="Path_58" data-name="Path 58" d="M347.036-588.039s-.868,4.935,4.935,4.5C350.506-586.141,350.4-587.008,347.036-588.039Z" transform="translate(-300.997 826.268)" fill="#1e3c5c" stroke="#fff" stroke-miterlimit="10" stroke-width="2"/>
        <path id="Path_59" data-name="Path 59" d="M376.241-560.926c-.622.646,1.059,8.725,4.53,7.261C382.017-554.369,377.356-562.085,376.241-560.926Z" transform="translate(-304.853 822.694)" fill="#1e3c5c" stroke="#fff" stroke-miterlimit="10" stroke-width="2"/>
        <path id="Path_60" data-name="Path 60" d="M372.935-545.61c1.251-.783,4.934,6.561,3.416,7.374S371.633-544.8,372.935-545.61Z" transform="translate(-304.392 820.658)" fill="#1e3c5c" stroke="#fff" stroke-miterlimit="10" stroke-width="2"/>
      </g>
    </g>
    <g id="Nevada" transform="translate(78.232 200.831)">
      <g id="Group_54" data-name="Group 54" transform="translate(0 0)">
        <path id="Nevada-2" data-name="Nevada" d="M474.11-617.308a14.232,14.232,0,0,0,3.481-7.563c.353-4.232-.822-17.517-.117-19.985s2.938-7.289,6.583-4.35,3.173,4.7,5.525,4,4.82-2,5.291-4.233,2.351-19.045,3.174-20.572c0,0,7.854-40.047,9.806-51.759s12.58-63.768,13.882-69.841,3.254-16.7,3.254-16.7-39.693-7.591-48.8-9.327c-6.822-1.3-71.3-17.479-71.3-17.479s-7.507,33.244-9.294,40.274-10.6,35.627-11.439,40.155c2.264,1.43,14.656,20.852,17.516,25.618s27.643,43.252,32.529,50.64,28.478,43.015,31.576,48.258S474.11-617.308,474.11-617.308Z" transform="translate(-384.149 835.122)" fill="#1e3c5c" stroke="#fff" stroke-miterlimit="10" stroke-width="2"/>
      </g>
    </g>
    <g id="Oregon" transform="translate(14.356 68.106)">
      <g id="Group_55" data-name="Group 55" transform="translate(0 0)">
        <path id="Oregon-2" data-name="Oregon" d="M486.08-941.279c-2.157-1.941-2.157-2.372-4.744-7.332a183.545,183.545,0,0,0-32.047-8.615c-11.644-1.941-27.621-.617-37.971-1.695s-13-2.413-18.179-4.785a8.433,8.433,0,0,0-9.057,1.294s-3.666-.647-7.331-1.51-3.666-1.294-5.175-3.45-1.295-8.84-1.51-11.645-3.019-5.39-6.469-6.253a14.111,14.111,0,0,1-5.61-2.833c0,1.952-6.724,2.819-6.724,2.819l-.416,1.2c-.04.114-.082.236-.127.364-.111.322-.239.689-.38,1.1l-.12.345-.085.247-.174.5c-.124.359-.259.745-.4,1.145l-.061.176-.14.4-.126.362-.449,1.291-.161.464c-.28.807-.577,1.657-.885,2.543-.036.1-.073.207-.108.31-.06.171-.12.341-.18.515l-.145.414q-.294.845-.6,1.72l-.124.356-.279.8q-.116.329-.232.663l-.067.189-.243.694-.219.625-.036.1-.316.9-.152.435q-.317.9-.638,1.815l-.156.442-.242.69-.194.549-.193.549q-.4,1.124-.79,2.236l-.009.026-.774,2.184c-4.121,11.6-16.267,35.572-18.762,40.127s-9.869,13.99-10.411,16.7-.109,8.134-1.844,14.315,1.572,8.513,1.572,8.513l-.005.036c6.49,1.926,39.553,11.739,44.17,13.135,5.123,1.55,38.368,10.724,38.368,10.724s38.773,9.728,59.366,14.7c.262-1.758.584-3.641.959-5.293,1.079-4.744,6.038-25.876,8.626-34.071a187.4,187.4,0,0,1,6.9-17.682,9.281,9.281,0,0,1-2.8-4.528c-1.725,0-2.587-.216-1.725-3.882s6.469-9.7,6.469-9.7,1.51-.215,4.744-6.469,9.7-11.429,9.7-11.429A65.754,65.754,0,0,0,486.08-941.279Z" transform="translate(-310.526 988.101)" fill="#d8374f" stroke="#fff" stroke-miterlimit="10" stroke-width="2"/>
      </g>
    </g>
    <g id="Group_56" data-name="Group 56" transform="translate(988.822 304.747)">
      <path id="Washington_DC" data-name="Washington DC" d="M1436.754-710.094a5.146,5.146,0,0,1,.3,1.78,4.542,4.542,0,0,0,2.847-2.6s-2.709-3.54-3.372-4.436a8.928,8.928,0,0,0-2.562,2,3.67,3.67,0,0,0-.268.289A6.248,6.248,0,0,1,1436.754-710.094Z" transform="translate(-1433.701 715.348)" fill="#1e3c5c" stroke="#fff" stroke-miterlimit="10" stroke-width="2"/>
    </g>
  </g>
</svg>
