<svg xmlns="http://www.w3.org/2000/svg" width="764.989" height="511.695" viewBox="0 0 764.989 511.695">
  <g id="Group_57" data-name="Group 57" transform="translate(-292.979 1067.769)">
    <path id="Path_19" data-name="Path 19" d="M715.74-222.978c2.4.4,6.814,1.9,8.568,3.457s3.508,2.455,4.71,4.86,1.553,2.856,2.655,3.407,1.7.952,1.554,1.8a6.465,6.465,0,0,1-4.159,4.159c-2.606.752-3.908.3-4.81.752s-3.558,4.109-4.309,4.81a2.461,2.461,0,0,1-3.658-.05,6.034,6.034,0,0,1-1.353-4.009c0-.651.251-3.357-.55-4.86s-1.9-3.758-1.9-4.81.25-1.349,1.1-2.154c.9-.852,2.506-2.355,2.155-3.858a11.516,11.516,0,0,1-.651-2.606C715.138-222.777,715.483-223.021,715.74-222.978Z" transform="translate(-177.671 -358.149)" fill="#d8374f" stroke="#fff" stroke-miterlimit="10" stroke-width="2"/>
    <path id="Path_20" data-name="Path 20" d="M693.129-246.8c.651-.8,1.453-1,3.657.151s6.095,2.665,6.614,3.106c.813.691,1.326,2.013-.1,2.856-1.329.785-3.653,1.69-4.811,1.2-1.9-.8-5.512-5.161-5.512-5.963A5.654,5.654,0,0,1,693.129-246.8Z" transform="translate(-169.391 -347.76)" fill="#d8374f" stroke="#fff" stroke-miterlimit="10" stroke-width="2"/>
    <path id="Path_21" data-name="Path 21" d="M681.224-244.308a6.365,6.365,0,0,1,2.856.551,2.1,2.1,0,0,1,.953,2.806c-.651,1.1-2.255-.3-3.007-1.353S681.625-244.108,681.224-244.308Z" transform="translate(-164.401 -349.095)" fill="#d8374f" stroke="#fff" stroke-miterlimit="10" stroke-width="2"/>
    <path id="Path_22" data-name="Path 22" d="M675.652-251a49.671,49.671,0,0,0,5.261,1.3c1.2.1,3.557-.1,3.858-1.553C683.017-251.556,677.506-252.207,675.652-251Z" transform="translate(-162.035 -345.956)" fill="#d8374f" stroke="#fff" stroke-miterlimit="10" stroke-width="2"/>
    <path id="Path_23" data-name="Path 23" d="M649.888-268.545a24.077,24.077,0,0,0,2.685,4.508c1.055,1.055,2.877,1.822,2.781,2.59s-1.726.863-2.781.671a7.2,7.2,0,0,1-2.493-1.439s-.959,1.247-1.919.672-2.973-3.165-2.877-4.316C647.491-267.3,649.888-268.545,649.888-268.545Z" transform="translate(-149.142 -338.806)" fill="#d8374f" stroke="#fff" stroke-miterlimit="10" stroke-width="2"/>
    <path id="Path_24" data-name="Path 24" d="M606.237-285.594c.967.322,1.055,4.6.479,5.659s-2.206.192-3.069-.192-4.028-1.151-2.877-3.549S604.511-286.17,606.237-285.594Z" transform="translate(-130.14 -331.444)" fill="#d8374f" stroke="#fff" stroke-miterlimit="10" stroke-width="2"/>
    <path id="Path_25" data-name="Path 25" d="M588.009-278.545s1.822.863.575,2.11a2.829,2.829,0,0,1-2.3,1.055S586.091-277.777,588.009-278.545Z" transform="translate(-124.093 -334.561)" fill="#d8374f" stroke="#fff" stroke-miterlimit="10" stroke-width="2"/>
    <path id="Path_26" data-name="Path 26" d="M695.767-232.842s-.245-.42-1.188,0-1.957.7-1.852,1.049a3.539,3.539,0,0,0,2.306.943c.734-.035,1.468-.7,1.364-1.153A1.808,1.808,0,0,0,695.767-232.842Z" transform="translate(-169.281 -353.884)" fill="#d8374f" stroke="#fff" stroke-miterlimit="10" stroke-width="2"/>
    <g id="Michigan" transform="translate(755.074 -1009.963)">
      <path id="Michigan-2" data-name="Michigan" d="M1236.068-827.874a1.71,1.71,0,0,1-.535-1.77c.068-.678,2.069-3.8,3.257-5.529a4.42,4.42,0,0,1,1.7-6.038,8.316,8.316,0,0,1,4.443-6.445s.271-3.832.441-6.377c-1.289-.984-2.306-6.106-3.053-9.057s-2.171-6.648-5.054-7.361-4.613,1.289-5.257,1.7-1.323,7.632-5.359,6.208-3.019-4.783-2.714-5.461,1.458-1.052,2.578-1.289a6.388,6.388,0,0,1,3.594-5.834s.034-5.19.034-7.734-1.356-3.562-2.272-4.511a1.772,1.772,0,0,1-.611-1.764s.984-.577,2-1.221c-1.764-.509-2.273-2.578-2.985-4.172a16.287,16.287,0,0,1-9.735-2.816,2.345,2.345,0,0,0-1.934-.441c-3.63.475-5.02-1.8-5.02-1.8s-.2.136-2.646,1.459-2.238,1.866-2.17,2.646,2.849,3.29,2.849,3.29a11.609,11.609,0,0,1-3.867,1.662c-2.137.441-1.459,2.578-1.323,4.037a29.109,29.109,0,0,0,1.221,4.58s-3.324,1.73-4.1,1.662-.848-1.187-.882-2.137,1.323-4.545,1.594-5.359c-.441-.475-1.594-.068-1.594-.068s-.61,2.137-1.051,3.426c-2.036.441-3.664,2.815-3.664,2.815a3.122,3.122,0,0,1,.339,2.408c-.339,1.458-2.51,1.255-2.51,1.255a16.239,16.239,0,0,1,.577,3.663c0,1.628-.746,3.562-1.391,5.97s.1,5.359.1,6.445-1.933,4.681.509,8.208,4.714,6.919,5.189,10.074-.237,6.818-1.831,11.227a46.082,46.082,0,0,1-4.749,8.955s6.3-.215,10.607-.708c4.89-.559,16.343-1.816,16.343-1.816C1225.094-826.751,1231.117-827.207,1236.068-827.874Z" transform="translate(-1135.547 939.058)" fill="#294e76" stroke="#fff" stroke-miterlimit="10" stroke-width="2"/>
      <path id="Path_27" data-name="Path 27" d="M1175.34-927.633c-.374-.524-.561-1.348-.674-4.005s-.15-1.834-.486-2.432a26.7,26.7,0,0,1-6.176,2.1c-2.358.524-4.266-.224-4.679-.786s-.187-2.695-.374-3.78-.9-.749-1.647-.6-4.492,2.732-5.24,3.107-4.491.224-5.988.374-5.353,3.257-6.625,4-2.433,1.123-3.443.262a2.978,2.978,0,0,0-3.07-.636,5.083,5.083,0,0,1-3.518-.075c-.861-.524-2.059-3.144-4.792-5.128a7.151,7.151,0,0,0-5.5-1.609c-1.085.038-2.732,2.658-3.593,2.845s-.711-.786-.636-1.422a17.985,17.985,0,0,1,1.871-3.967c.711-1.16,2.021-2.471,2.4-3.331s1.347-2.171,2.171-2.283,1.347-.562,1.31-1.085-.412-.636-2.1-.562-5.2,2.844-7.037,4.3-3.892,4.716-4.492,5.427a18.874,18.874,0,0,1-4.565,3.144,8.879,8.879,0,0,1-4.978.973c-1.235,0-1.647,1.759-2.807,2.994s-3.256,1.086-4.342,1.348a2.122,2.122,0,0,0-1.088,1.063,2.611,2.611,0,0,0,.636-.219,30.115,30.115,0,0,1,3.154,3.8,21.471,21.471,0,0,1,10.549,2,40.535,40.535,0,0,0,12.652,3.019c2.137.2,3.969.95,4,2.713.713.034,2.476.306,2.951.882-.034,1.187-.848,7.293.577,7.157a2.448,2.448,0,0,0,1.076-.237c-.039.637-.1,3.371,1.6,4.477-.095.239-.266.6-.477,1.038l.465-.084a23.352,23.352,0,0,1,1.065-2.292c.674-1.272,3.855-9.619,4.267-10.742s.674-2.47,2.1-2.47a28.114,28.114,0,0,0,4.229-.262c1.01-.187,1.46.037,3.032.449,2.021-4.828,5.726-4.155,7.336-4.117a4.144,4.144,0,0,0,3.144-1.909c.411-.187,8.945.113,10.405.188s9.282-1.086,9.282-1.572S1175.714-927.109,1175.34-927.633Z" transform="translate(-1095.241 959.046)" fill="#294e76" stroke="#fff" stroke-miterlimit="10" stroke-width="2"/>
      <path id="Path_28" data-name="Path 28" d="M1243.4-912.83s.34,3.044,2.023,3.082a2.2,2.2,0,0,0,2.15-1.2C1247.874-911.721,1246.725-912.981,1243.4-912.83Z" transform="translate(-1158.139 944.686)" fill="#1e3c5c" stroke="#fff" stroke-miterlimit="10" stroke-width="2"/>
      <path id="Path_29" data-name="Path 29" d="M1127.889-968.178a50.194,50.194,0,0,1-5.524,3.333c-1.619.666-3.81,1.524-3.048,2.667s2,1.428,3.809-.19S1128.841-967.607,1127.889-968.178Z" transform="translate(-1105.396 968.178)" fill="#1e3c5c" stroke="#fff" stroke-miterlimit="10" stroke-width="2"/>
    </g>
    <g id="Maine" transform="translate(1003.982 -1041.316)">
      <path id="Maine-2" data-name="Maine" d="M1580.119-986.3a6.569,6.569,0,0,0-3.261-2.2c-.894,1.34-2.122,1.452-3.574.224s-1.228-4.8-1.564-5.584-4.467-.447-5.137-1.005-7.036-23.008-7.707-24.236-5.361-2.792-6.7-3.463-3.127,2.346-4.244,3.351-1.452.893-3.015,1.229-2.457-1.564-4.133-3.239c-1.675,2.345-4.579,11.281-5.36,14.3s-.224,5.361-.447,6.7-.894,1.117-1.34,4.132,1.563,4.245,1.675,5.473,0,1.9-2.233,5.585-1.34,9.046-1.34,9.046a11.448,11.448,0,0,0-2.9-.558,1.4,1.4,0,0,0-1.053.661c1.134,3.483,2.638,8.283,3.6,12.05,1.715,6.7,4.832,18.862,5.612,20.109s2.971,1.66,3.75,2.6c.752.9.136,2.851,3,2.772h0c.194-.152.407-.284.407-.284s.144-4.316.4-5.467.935-3.453,1.295-4.64a7.25,7.25,0,0,0,.324-2.23c.035-.5-.684-1.259-.684-1.259a.726.726,0,0,1,.144-.36c.144-.216,2.59-2.446,2.59-2.446a2.346,2.346,0,0,0,1.655.863c1.223.18,2.626-1.007,4.136-2.193s1.8-3.309,2.086-3.489a5.741,5.741,0,0,0,2.338-1.51c.647-.935.575-5.215.54-6.51a1.829,1.829,0,0,1-.9-1.079,4.694,4.694,0,0,1,2.158-1.475c.18.971.36,2.3,1.547,2.086,1.129-.205,1.33,2.41,1.366,3.2a2.24,2.24,0,0,0,1.295-2.374,11.61,11.61,0,0,1-.359-2.23c-.072-1.007,2.139-2.491,3.2-3.021.216-.108,1.619-.791,2.05.576s1.367.576,1.834.576,2.194-2.7,3.6-4.137a20.046,20.046,0,0,1,3.6-3.021,5.392,5.392,0,0,0,2.051-3.057A5.165,5.165,0,0,0,1580.119-986.3Z" transform="translate(-1527.779 1022.663)" fill="#167a91" stroke="#fff" stroke-miterlimit="10" stroke-width="2"/>
      <path id="Path_30" data-name="Path 30" d="M1585.774-922.433s2.2,2.039.277,3.358C1584.252-919.614,1584.255-922.264,1585.774-922.433Z" transform="translate(-1551.93 980.111)" fill="#38b4d6" stroke="#fff" stroke-miterlimit="10" stroke-width="2"/>
      <path id="Path_31" data-name="Path 31" d="M1597.014-932.646s1.919,2.579-.66,3.3c-1.2-.061-1.532-.657-1.052-1.976A1.918,1.918,0,0,1,1597.014-932.646Z" transform="translate(-1556.355 984.447)" fill="#38b4d6" stroke="#fff" stroke-miterlimit="10" stroke-width="2"/>
    </g>
    <g id="New_Hampshire" data-name="New Hampshire" transform="translate(996.14 -994.544)">
      <g id="Group_18" data-name="Group 18" transform="translate(0 0)">
        <path id="New_Hampshire-2" data-name="New Hampshire" d="M1537.084-899.921c-.016-.04-.035-.081-.05-.12-.5-1.4.5-3.381.684-3.6a1.668,1.668,0,0,1,.242-.221c-2.867.079-2.251-1.87-3-2.773-.779-.936-2.971-1.348-3.75-2.595s-3.9-13.406-5.612-20.11c-.964-3.766-2.469-8.567-3.6-12.05a6.2,6.2,0,0,0-.846,1.8,2.264,2.264,0,0,0-1.675-1.675c-1.452,1.787-1.787,6.031-1.787,6.031s-.341,3.368.333,4.6,1.8,2.583.449,5.165a11.447,11.447,0,0,1-3.818,4.154c-.449.337-.674,0-.337,3.256a118.279,118.279,0,0,1,.112,12.576c-.112,2.807-.449,6.512.225,9.769a31.123,31.123,0,0,0,.93,3.336h0a48.309,48.309,0,0,1,5.573-1.407c2.526-.253,6.063-.253,8.716-1.389a56.241,56.241,0,0,0,7.219-4.753Z" transform="translate(-1514.15 941.385)" fill="#167a91" stroke="#fff" stroke-miterlimit="10" stroke-width="2"/>
      </g>
    </g>
    <g id="Vermont" transform="translate(976.845 -988.392)">
      <g id="Group_19" data-name="Group 19" transform="translate(0 0)">
        <path id="Vermont-2" data-name="Vermont" d="M1488.372-926.785c-1.515.342-4.464,1.241-7.751,2.143h0c.453,1.908.874,3.775,1.373,5.327a35.039,35.039,0,0,1,1.647,9.176c-.117,1.294-.823,2.235.118,3.764a12.109,12.109,0,0,1,1.176,6.234,5.18,5.18,0,0,1,3.764,3.529,72.6,72.6,0,0,1,2.235,11.881c0,.025,0,.057,0,.085,2.418-.768,6.794-2.141,10.408-3.189a31.072,31.072,0,0,1-.929-3.336c-.674-3.257-.337-6.962-.225-9.769a118.254,118.254,0,0,0-.112-12.576c-.337-3.257-.113-2.919.337-3.257a11.453,11.453,0,0,0,3.818-4.154c1.347-2.583.224-3.93-.45-5.165s-.333-4.6-.333-4.6S1491.835-927.567,1488.372-926.785Z" transform="translate(-1480.621 930.694)" fill="#294e76" stroke="#fff" stroke-miterlimit="10" stroke-width="2"/>
      </g>
    </g>
    <g id="Massachusets" transform="translate(986.931 -953.08)">
      <path id="Massachusets-2" data-name="Massachusets" d="M1534.45-845.461c.072-.5,1.223-3.7,2.553-3.489s1.259,3.165,1.259,3.165a28.985,28.985,0,0,1,5.215-3.6,9.164,9.164,0,0,1,3.993-.683,8.567,8.567,0,0,0,.072-2.086c-.072-1.475-.468-2.41-1.978-4.028a2.485,2.485,0,0,0-3.057-.719s2.3,1.295,2.625,2.23-.576,2.05-1.69,3.057-3.957.036-4.532-.323-2.014-3.849-2.805-4.891-2.05-.9-3.2-1.007a3.422,3.422,0,0,1-2.41-1.87c-.612-.9-.252-2.014.036-2.949a16,16,0,0,1,2.23-3.165,16.765,16.765,0,0,1-2.469-3.514,56.3,56.3,0,0,1-7.219,4.753c-2.652,1.137-6.189,1.137-8.715,1.389-1.986.2-11.845,3.282-15.979,4.594-.015,1.98-.578,8.536.118,11.09.214.781.512,1.809.828,2.931-.151-.539-.3-1.058-.436-1.537a80.315,80.315,0,0,0,8.395-1.036c3.789-.758,13.389-3.032,13.389-3.032l6.189-1.642s.506.757,1.769,2.274a71.17,71.17,0,0,1,4.787,5.837c.416-.275.726-.476.818-.528C1534.557-844.418,1534.378-844.958,1534.45-845.461Z" transform="translate(-1498.148 869.332)" fill="#167a91" stroke="#fff" stroke-miterlimit="10" stroke-width="2"/>
      <path id="Path_32" data-name="Path 32" d="M1570.563-825.222a2.984,2.984,0,0,0-1.8.049c-.585.365-1.073,1.073-.828,1.243A2.341,2.341,0,0,0,1570.563-825.222Z" transform="translate(-1527.746 850.66)" fill="#1e3c5c" stroke="#fff" stroke-miterlimit="10" stroke-width="2"/>
      <path id="Path_33" data-name="Path 33" d="M1579.077-825.453l2.438-2.048s1.487.39,1.463,1.219S1579.077-825.453,1579.077-825.453Z" transform="translate(-1532.505 851.573)" fill="#1e3c5c" stroke="#fff" stroke-miterlimit="10" stroke-width="2"/>
    </g>
    <path id="Delaware" d="M1466.475-747.486c-1.811-1.294-4.312,1.035-4.312,1.035s2.674,9.143,3.191,11.9,2.588,12.421,2.588,12.421,1.983-.259,4.054-.518,3.35-.346,4.737-3.278c0,0-3.668-4.244-4.855-6.762a41.4,41.4,0,0,0-2.482-4.5c-.9-1.151-3.309-2.769-3.6-3.632s-.719-3.093.216-3.381A6.912,6.912,0,0,1,1466.475-747.486Z" transform="translate(-495.94 -135.311)" fill="#1e3c5c" stroke="#fff" stroke-miterlimit="10" stroke-width="2"/>
    <g id="Rhode_Island" data-name="Rhode Island" transform="translate(1009.455 -935.57)">
      <g id="Group_20" data-name="Group 20" transform="translate(0)">
        <path id="Rhode_Island-2" data-name="Rhode Island" d="M1545.245-836.629c-1.262-1.516-1.768-2.274-1.768-2.274l-6.189,1.642s2.75,3.471,2.549,12.5c2.462-1.074,4.689-2.106,4.9-2.211.432-.216.5-.755,1.69-1.474.847-.513,2.569-1.665,3.606-2.35A71.044,71.044,0,0,0,1545.245-836.629Z" transform="translate(-1537.288 838.903)" fill="#d8374f" stroke="#fff" stroke-miterlimit="10" stroke-width="2"/>
      </g>
    </g>
    <g id="New_York" data-name="New York" transform="translate(903.14 -982.34)">
      <g id="Group_21" data-name="Group 21" transform="translate(0 0)">
        <path id="New_York-2" data-name="New York" d="M1454.04-851.834c-1.151.612-6.258,3.849-7.338,4.028a30.833,30.833,0,0,1-4.351-.072,38.88,38.88,0,0,1-3.741,3.992c-.719.4-.468-2.374-.468-2.374l1.414-1.508a2.748,2.748,0,0,1-.994-1.915c0-.706,2.118-1.647,2.118-1.647a6.125,6.125,0,0,1-1.411-1.53c-.353-.705,0-3.411-.118-5.881s-1.764-7.764-2.47-10.352-.118-9.293-.118-11.175a72.547,72.547,0,0,0-2.235-11.881,5.18,5.18,0,0,0-3.764-3.529,12.106,12.106,0,0,0-1.177-6.235c-.942-1.529-.235-2.47-.118-3.764a35.059,35.059,0,0,0-1.648-9.176c-.5-1.552-.919-3.419-1.372-5.327-4.224,1.159-9,2.325-12.021,2.325-5.361,0-6.822,2-6.822,2-3.494,1.594-5.393,4.952-6.75,7.089a120.235,120.235,0,0,1-7.564,9.6c-2.205,2.543-.679,4-.679,4a3.991,3.991,0,0,1,2.036.781,8.7,8.7,0,0,1-.237,3.866s1.357,1.594,1.085,3.019-.814,1.527-2.883,2.239a20.3,20.3,0,0,1-5.8,5.6c-1.323.679-3.7.306-4.953.306s-2.781,1.831-3.562,1.9-1.8-1.051-6.784-.644a28.286,28.286,0,0,0-11.634,4.071c-.644,2.137,1.12,3.392,1.866,4a21.169,21.169,0,0,1,2.307,2.985s-4.478,5.8-8.073,9.667c-1.164,1.253-2.232,2.3-3.239,3.231l.349,4.965s11.7-.959,20.333-2.494,26.855-6.138,31.075-7.289,5.946-.959,9.974-.767,4.777,6.975,5.371,7.1c3.423.7,4.411,2.11,4.411,2.11a63.226,63.226,0,0,0,6.52,2.346c2.472.641,5.4,1.19,5.219,3.388s-.352,1.717.694,3.605c0,0,2.23.252,3.524.252s7.445-2.7,8.776-3.165,3.452-3.165,3.452-3.165,5.612-3.777,6.834-5.323C1457.313-853.632,1455.19-852.445,1454.04-851.834Z" transform="translate(-1352.542 920.178)" fill="#d8374f" stroke="#fff" stroke-miterlimit="10" stroke-width="2"/>
      </g>
    </g>
    <g id="Connecticut" transform="translate(987.67 -933.928)">
      <g id="Group_22" data-name="Group 22" transform="translate(0 0)">
        <path id="Connecticut-2" data-name="Connecticut" d="M1507.828-833.018a80.307,80.307,0,0,1-8.395,1.036c.793,2.783,1.98,6.873,2.078,8.958.118,2.47-.235,5.176.118,5.881a6.136,6.136,0,0,0,1.412,1.53s-2.118.941-2.118,1.647a2.748,2.748,0,0,0,.994,1.915l.744-.794s5.467-4.856,7.05-6.007,5.539-1.8,7.589-2.194a50.06,50.06,0,0,0,6.466-2.5c.2-9.033-2.549-12.5-2.549-12.5S1511.617-833.776,1507.828-833.018Z" transform="translate(-1499.433 836.05)" fill="#167a91" stroke="#fff" stroke-miterlimit="10" stroke-width="2"/>
      </g>
    </g>
    <g id="New_Jersey" data-name="New Jersey" transform="translate(969.475 -912.689)">
      <g id="Group_23" data-name="Group 23" transform="translate(0 0)">
        <path id="New_Jersey-2" data-name="New Jersey" d="M1482.4-785.56l3.021-4.244c-1.046-1.889-.876-1.408-.693-3.605s-2.747-2.747-5.22-3.388a63.262,63.262,0,0,1-6.519-2.346l-2.685,1.535c.575,3.261,0,3.836-1.919,6.522,1.726,2.686-.575,3.836-.575,3.836s.384,1.727.575,2.877,1.726,1.343,2.686,2.494,2.878,2.3,6.522,4.8c-2.685.959-8.723,7.834-8.723,7.834a6.913,6.913,0,0,0-.46,3.292c-.036,2.374,3.2,3.74,4.064,4.424a9.959,9.959,0,0,0,4.244,1.51c1.295.108,2.158.18,2.626.935-.144,1.87-.252,3.849-.252,3.849a4.881,4.881,0,0,0,1.835-.72c.4-.432.539-4.1.719-5.071s3.417-6.222,3.885-6.905a26.185,26.185,0,0,0,1.474-5.287,53.057,53.057,0,0,0,.215-6.8c.072-2.662-.035-3.812-.971-4.819S1482.4-785.56,1482.4-785.56Z" transform="translate(-1467.814 799.143)" fill="#d8374f" stroke="#fff" stroke-miterlimit="10" stroke-width="2"/>
      </g>
    </g>
    <g id="Pensilvania" transform="translate(894.502 -922.042)">
      <g id="Group_24" data-name="Group 24" transform="translate(0 0)">
        <path id="Pensilvania-2" data-name="Pensilvania" d="M1379.148-767.525c4.485-.862,21.995-4.054,23.893-4.657a34.814,34.814,0,0,0,4.226-1.38,8.181,8.181,0,0,0,1.984-1.553s2.5-2.329,4.312-1.035c0,0,6.038-6.874,8.723-7.834-3.644-2.493-5.562-3.644-6.521-4.8s-2.494-1.343-2.686-2.493-.575-2.877-.575-2.877,2.3-1.151.575-3.837c1.918-2.686,2.494-3.261,1.918-6.521l2.685-1.535s-.989-1.408-4.411-2.11c-.594-.122-1.343-6.906-5.372-7.1s-5.754-.384-9.974.767-22.443,5.755-31.075,7.289-20.333,2.494-20.333,2.494l-.349-4.965c-2.1,1.94-3.926,3.36-5.784,5.011a26.61,26.61,0,0,1-2.855,2.128h0c.651,4.477,1.864,12.613,2.364,14.611.7,2.794,1.537,10.057,1.537,10.057l2.2,16.6,14.272-2.525S1374.663-766.662,1379.148-767.525Z" transform="translate(-1337.53 815.395)" fill="#294e76" stroke="#fff" stroke-miterlimit="10" stroke-width="2"/>
      </g>
    </g>
    <g id="Maryland" transform="translate(914.869 -881.762)">
      <path id="Path_34" data-name="Path 34" d="M1435.049-711.939l-.038-.025Z" transform="translate(-1399.282 731.204)" fill="#1e3c5c" stroke="#fff" stroke-miterlimit="10" stroke-width="2"/>
      <path id="Path_35" data-name="Path 35" d="M1485.465-691.422h0c-.072.253-.139.509-.218.751C1485.321-690.916,1485.4-691.167,1485.465-691.422Z" transform="translate(-1420.607 722.484)" fill="#1e3c5c" stroke="#fff" stroke-miterlimit="10" stroke-width="2"/>
      <path id="Path_36" data-name="Path 36" d="M1435.564-711.544c-.047-.041-.1-.08-.145-.12C1435.469-711.625,1435.518-711.585,1435.564-711.544Z" transform="translate(-1399.456 731.077)" fill="#1e3c5c" stroke="#fff" stroke-miterlimit="10" stroke-width="2"/>
      <path id="Path_37" data-name="Path 37" d="M1438.847-724.87c-1.387,2.932-2.667,3.019-4.737,3.278s-4.054.518-4.054.518-2.07-9.661-2.588-12.421-3.191-11.9-3.191-11.9a8.184,8.184,0,0,1-1.984,1.553,34.769,34.769,0,0,1-4.226,1.381c-1.9.6-19.407,3.8-23.893,4.657s-21.25,3.745-21.25,3.745.879,5.16,1.208,8.893c1.317-.439,3.623-2.964,5.489-5.05,1.977,0,2.306-1.867,2.855-2.525s4.94-1.757,9.112-2.306a9.539,9.539,0,0,1,6.807,1.537s-.052.819-.136,1.837l0-.033c1.184-.161,3.081-.251,3.865.611,1.1,1.208.33,2.855,1.647,3.294a20.45,20.45,0,0,1,4.124,1.216c.177-.137.177-.192.177-.192a5.915,5.915,0,0,1,1.7-1.324c.44.594,2.237,2.942,2.237,2.942a3.015,3.015,0,0,1-1.889,1.723c0,1.962-1.554,3.721-1.737,4.638-.219,1.1,1.1,3.623,2.525,4.063a14.966,14.966,0,0,0,2.83.551,11.463,11.463,0,0,1,1.079-.467c.5-.18,3.632.935,4.783.683s.9-1.474.432-3.381-1.223-2.661-2.554-5.071-.468-2.949-.288-5.287-.648-1.69-.252-5.143,4.568-4.712,5.395-4.46c-2.841,1.69-2.7,5.574-2.7,5.574s1.8,0,2.158,1.511a8.8,8.8,0,0,1-.863,5.071,2.99,2.99,0,0,1,2.553,2.518,2.113,2.113,0,0,1-1.474.108c-.4,1.51,2.014,8.272,6.546,4.928,1.23,2.18,2.745,4.462,3.448,5.433a6.684,6.684,0,0,1,5.766-2.167c.332-1.212.572-2.511.785-3.591A49.189,49.189,0,0,0,1438.847-724.87Z" transform="translate(-1372.924 745.399)" fill="#d8374f" stroke="#fff" stroke-miterlimit="10" stroke-width="2"/>
      <path id="Path_38" data-name="Path 38" d="M1436.674-710.329a2.677,2.677,0,0,0-.174-.254A2.884,2.884,0,0,1,1436.674-710.329Z" transform="translate(-1399.915 730.618)" fill="#1e3c5c" stroke="#fff" stroke-miterlimit="10" stroke-width="2"/>
      <path id="Path_39" data-name="Path 39" d="M1437.5-708.171c-.008-.062-.017-.125-.027-.187C1437.479-708.3,1437.487-708.233,1437.5-708.171Z" transform="translate(-1400.325 729.674)" fill="#1e3c5c" stroke="#fff" stroke-miterlimit="10" stroke-width="2"/>
      <path id="Path_40" data-name="Path 40" d="M1437.22-709.293a3.264,3.264,0,0,1,.11.382A3.043,3.043,0,0,0,1437.22-709.293Z" transform="translate(-1400.22 730.071)" fill="#1e3c5c" stroke="#fff" stroke-miterlimit="10" stroke-width="2"/>
      <path id="Path_41" data-name="Path 41" d="M1437.09-709.574a2.8,2.8,0,0,0-.177-.381A2.8,2.8,0,0,1,1437.09-709.574Z" transform="translate(-1400.09 730.352)" fill="#1e3c5c" stroke="#fff" stroke-miterlimit="10" stroke-width="2"/>
      <path id="Path_42" data-name="Path 42" d="M1435.932-711.223a3.158,3.158,0,0,1,.255.273A3.281,3.281,0,0,0,1435.932-711.223Z" transform="translate(-1399.673 730.89)" fill="#1e3c5c" stroke="#fff" stroke-miterlimit="10" stroke-width="2"/>
    </g>
    <g id="North_Carolina" data-name="North Carolina" transform="translate(857.847 -822.623)">
      <path id="Path_43" data-name="Path 43" d="M1493.488-617.567a30.185,30.185,0,0,1,.7,5.329,4.537,4.537,0,0,1-1.731,3.6,29.077,29.077,0,0,0-3.836,2.62,1.367,1.367,0,0,0-.375,1.03,24.992,24.992,0,0,0,5.568-3.7,7.815,7.815,0,0,0,1.825-5.193C1495.689-614.969,1494.982-616.253,1493.488-617.567Z" transform="translate(-1364.858 631.99)" fill="#1e3c5c" stroke="#fff" stroke-miterlimit="10" stroke-width="2"/>
      <path id="Path_44" data-name="Path 44" d="M1398.326-625.71c.78-1.295-.539-3.849-.539-3.849s2.542.06,2.83-.516c.1-.21-.228-.729-.769-1.395-.209-.211-.442-.439-.7-.693-1.325.089-1.672,1-4.305,1.459-.527.093-2.682-.654-3.915.107-2.882,1.779-4.016-.251-3.558-.427,1.85-.712,3.245-2.681,5.479-3.739,1.7-.8,2.561.224,3.663-.44-.071-.082-.143-.164-.21-.243-1.631-1.918-3.814-7.186-3.814-7.186s-8.678,2.125-12.575,2.834-32.412,6.376-45.341,8.324-26.076,4.073-26.076,4.073.549,2.466,0,3.563-3.014,2.878-3.426,6.167c-2.055.274-3.836-.137-6.988,2.6-2.056-.685-3.837-.274-4.659.959s-1.233,4.522-1.233,4.522a5.742,5.742,0,0,0-3.7,1.233c-1.644,1.371-2.877,3.426-4.933,3.7s-5.618.822-5.892,5.344c-2.6,1.644-3.564,1.507-3.564,1.507a16.925,16.925,0,0,0-.123,4.993c4.05-.453,7.667-.815,9.386-.879a67.622,67.622,0,0,0,8.38-.762s7.148-4.374,9.661-5.107a30.432,30.432,0,0,1,9.005-1.571c4.712-.21,11.1-1.256,13.3-.21a6.784,6.784,0,0,1,3.351,4.608,82.48,82.48,0,0,1,9.319-1.571c2.722-.314,8.272-1.047,8.272-1.047s17.323,10.853,19.464,12.659h0c.426-.164.883-.315,1.356-.454a32,32,0,0,1,6.744-1.272s1.223-5.971,3.417-9.5c.2-.316.4-.617.6-.911.14-.247.278-.47.411-.659a15.74,15.74,0,0,1,2.583-2.836,14.491,14.491,0,0,1,3.747-2.462,22.177,22.177,0,0,1,5.174-1.36c1.917-.42,3.577-.824,4.225-1.589a26.642,26.642,0,0,0,2.163-3.518c.328-.668.666-1.337,1.026-1.949a11.237,11.237,0,0,1-2.019,1.886,13.656,13.656,0,0,1-1.326.955,4.3,4.3,0,0,0-.947-1.374,5.973,5.973,0,0,0-3.369-.531l1.547-6.151a2.869,2.869,0,0,1-2.542-2.649c1.055,1.726,4.8,2.11,6.81,1.151s1.63-3.932,2.494-4.616S1397.547-624.415,1398.326-625.71Z" transform="translate(-1273.834 642.631)" fill="#294e76" stroke="#fff" stroke-miterlimit="10" stroke-width="2"/>
    </g>
    <g id="Virginia" transform="translate(865.759 -868.244)">
      <path id="Virginia-2" data-name="Virginia" d="M1394.92-682.528a10.863,10.863,0,0,1-4.5.863c1.4-3.093-.683-4.819-1.619-6.042a4.728,4.728,0,0,1-1.187-2.554c.072-.252,2.194.108,2.194.108s-2.014-3.74-1.511-5.791a9.636,9.636,0,0,0,.432-2.7c-.6-1.358-1.4-1.439-2.59-1.763a7.934,7.934,0,0,1-2.877-1.511c-1.115-.791-2.554-.863-3.884-1.258a4,4,0,0,1-1.87-1.043,14.95,14.95,0,0,1-2.83-.552c-1.427-.439-2.745-2.964-2.525-4.062s2.415-3.4,1.537-5.819-4.831-2.745-6.148-3.184-.549-2.086-1.647-3.294c-.784-.862-2.682-.772-3.866-.611a20.98,20.98,0,0,1-.525,3.9c-.329.549-5.27-2.964-6.917-4.062-1.208-.22-.988,2.305-.988,3.623a5.13,5.13,0,0,1-1.317,3.623,74.126,74.126,0,0,0-4.721,6.368c-2.635-.769-2.525,3.074-2.635,4.831s-.22,2.635-2.745,2.745-3.4-2.635-3.4-2.635a17.363,17.363,0,0,1-1.647,4.282c-.988,1.537-5.269,11.967-5.38,13.394s.549,2.964-.659,4.172-3.514,1.537-6.7,2.415c-.659,1.977-.878,2.855-2.635,3.953s-4.611-.439-4.611-.439a6.5,6.5,0,0,1-4.831,2.086c-2.964-.11-3.9-3.706-3.9-3.706a65.247,65.247,0,0,1-6.149,5.582,23.623,23.623,0,0,0-4.446,3.784,4.954,4.954,0,0,0-.852,3.027c.094.662-.378,1.04-1.514,1.8a85.2,85.2,0,0,1-7.879,5.487c2.6-.3,4.54-.531,5.508-.673,5.618-.822,21.24-2.878,21.24-2.878s13.146-2.125,26.076-4.073,41.444-7.616,45.341-8.324,12.575-2.834,12.575-2.834-.8-2.342-1.03-3.22C1396.9-681.054,1396.79-683.284,1394.92-682.528Z" transform="translate(-1287.583 721.908)" fill="#294e76" stroke="#fff" stroke-miterlimit="10" stroke-width="2"/>
      <path id="virginia-3" data-name="virginia" d="M1476.9-684.713c.072-1.726,1.007-2.518,2.05-4.028a9.26,9.26,0,0,0,1.128-2.738,6.68,6.68,0,0,0-5.772,2.166c.149.2.262.354.328.429.791.9-2.086,6.4-2.086,10.286,0,1.727.072,4.891,1.834,4.891.866,0,1.834-2.014,2.122-3.165S1476.823-682.986,1476.9-684.713Z" transform="translate(-1366.106 709.023)" fill="#1e3c5c" stroke="#fff" stroke-miterlimit="10" stroke-width="2"/>
    </g>
    <g id="West_Virginia" data-name="West Virginia" transform="translate(875.435 -884.505)">
      <g id="Group_25" data-name="Group 25" transform="translate(0 0)">
        <path id="West_Virginia-2" data-name="West Virginia" d="M1362.5-737.075c-4.172.549-8.563,1.647-9.112,2.306s-.878,2.525-2.855,2.525c-1.866,2.086-4.172,4.611-5.489,5.05-.329-3.733-1.208-8.893-1.208-8.893l-14.273,2.525-2.2-16.6s-1.955.7-2.095,1.536.28,2.655.419,6.286.419,9.22-3.772,14.528-4.469,1.816-4.469,1.816a9.287,9.287,0,0,0-3.073,4.47c-.559,2.515-1.118,6.565-1.118,6.565l-2.654-2.374a9.275,9.275,0,0,0-2.235,4.47c-.279,2.375.419,4.33-1.117,6.007s-2.852,1.412-2.852,1.412c.095,3.406,0,4.162.473,5.2s2.271,1.136,2.932,2.27,1.987,4.541,3.879,6.055a44.943,44.943,0,0,0,3.878,2.744s.934,3.6,3.9,3.706a6.5,6.5,0,0,0,4.831-2.086s2.854,1.537,4.612.439,1.976-1.976,2.635-3.953c3.184-.878,5.489-1.207,6.7-2.415s.549-2.745.658-4.172,4.391-11.857,5.38-13.394a17.377,17.377,0,0,0,1.647-4.282s.878,2.745,3.4,2.635,2.635-.988,2.745-2.745,0-5.6,2.635-4.83a74.141,74.141,0,0,1,4.721-6.368,5.13,5.13,0,0,0,1.318-3.623c0-1.318-.22-3.843.988-3.623,1.647,1.1,6.587,4.611,6.917,4.062s.658-5.709.658-5.709A9.539,9.539,0,0,0,1362.5-737.075Z" transform="translate(-1304.398 750.166)" fill="#294e76" stroke="#fff" stroke-miterlimit="10" stroke-width="2"/>
      </g>
    </g>
    <g id="Ohio" transform="translate(836.659 -909.173)">
      <g id="Group_26" data-name="Group 26" transform="translate(0 0)">
        <path id="Ohio-2" data-name="Ohio" d="M1296.662-766.828c.14-.838,2.1-1.537,2.1-1.537s-.838-7.263-1.537-10.057c-.5-2-1.713-10.134-2.363-14.611-2.929,1.945-6.646,3.971-8.813,5.3-2.985,1.832-6.682,6.445-7.157,6.818-.747-.3-3.6.272-4.511.407s-5.292,2.1-6.31,1.9-1.832-2-4.545-1.865-4.714-.068-6.58-1.356a6.755,6.755,0,0,1-.991-.809c-4.951.667-10.974,1.124-18.935,1.981,0,0,2.1,22.071,2.794,28.357s2.21,20.231,2.21,20.231a31.418,31.418,0,0,1,4.162.284c1.7.284,4.352.094,4.731,4.919,3.027-.189,4.446-.851,6.149.568s3.973-.1,5.392.094a16.559,16.559,0,0,1,3.406,1.04l4.447-2.933s-.189,3.5,5.486,4.447c0,0,1.315.264,2.851-1.412s.838-3.632,1.117-6.007a9.276,9.276,0,0,1,2.235-4.47l2.654,2.374s.559-4.051,1.117-6.565a9.286,9.286,0,0,1,3.074-4.47s.279,3.492,4.469-1.816,3.912-10.9,3.773-14.528S1296.522-765.99,1296.662-766.828Z" transform="translate(-1237.015 793.033)" fill="#294e76" stroke="#fff" stroke-miterlimit="10" stroke-width="2"/>
      </g>
    </g>
    <g id="Indiana" transform="translate(798.339 -896.798)">
      <g id="Group_27" data-name="Group 27" transform="translate(0 0)">
        <path id="Indiana-2" data-name="Indiana" d="M1178.844-768.223c-1.39.983-2.476,2.476-3.46,2.137-.751-.259-2.33-.873-3.278-1.285l.034.014c0,.9.056,1.883.1,3.184,0,0,1.673,28.354,2.1,35.259s1.151,17.983.863,19.709a13.531,13.531,0,0,1-3.021,6.33c-1.582,1.582-1.87,1.87-1.726,3.165,0,0,.141,5.028.1,5.675,0,0,2.893-3.174,4.6-2.323s1.609,1.135,1.609,1.135a2.753,2.753,0,0,1,3.783-1.513,21.09,21.09,0,0,1,3.122,1.608s3.216-4.068,4.446-3.784a6.271,6.271,0,0,0,2.933,2.27c.189-2.176.473-5.581,3.784-5.581l.757,2.744a40.746,40.746,0,0,0,5.109-.473,32.489,32.489,0,0,0,.284-5.393s5.109-3.6,5.582-5.77a13.651,13.651,0,0,0,.379-3.5s3.5-.189,4.825-1.23,2.081-1.8,1.514-4.068.473-3.027.473-3.027-1.512-13.946-2.21-20.231-2.794-28.357-2.794-28.357-11.454,1.257-16.344,1.816c-4.311.492-10.606.708-10.606.708A4.566,4.566,0,0,0,1178.844-768.223Z" transform="translate(-1170.424 771.527)" fill="#294e76" stroke="#fff" stroke-miterlimit="10" stroke-width="2"/>
      </g>
    </g>
    <g id="South_Carolina" data-name="South Carolina" transform="translate(873.595 -781.786)">
      <g id="Group_28" data-name="Group 28">
        <path id="South_Carolina-2" data-name="South Carolina" d="M1348-568.173a82.476,82.476,0,0,0-9.319,1.571,6.783,6.783,0,0,0-3.351-4.608c-2.2-1.047-8.586,0-13.3.21a30.429,30.429,0,0,0-9.005,1.571c-2.513.732-9.661,5.106-9.661,5.106s-3.047,2.286-1.9,4.572,3.429,3.809,7.428,3.619c0,0,2.356,4.812,4.466,6.634s5.947,4.8,8.056,6.714,4.7,4.7,5.947,6.042a12.844,12.844,0,0,0,4.316,3.261,6.916,6.916,0,0,1,4.508,4.7,10.426,10.426,0,0,1,.288,4.412,3.983,3.983,0,0,1,2.877,1.439c.863,1.342,2.59,4.7,3.262,5.467a4.918,4.918,0,0,0,3.356,1.151h.193a5.9,5.9,0,0,0,.023-1.4s3.057-2.7,3.992-3.417.828-1.079,1.187-2.086-.791-2.626-.791-2.626l2.481.216a42.805,42.805,0,0,0,3.345-2.805,34.448,34.448,0,0,0,6.043-8.128c.539-1.079,1.186-1.079,2.23-1.151.791-2.482,3.776-3.237,3.776-3.237a27.9,27.9,0,0,1,.18-3.7,13.658,13.658,0,0,1,5.323-10.97,7.353,7.353,0,0,1,1.79-.936c-2.141-1.807-19.464-12.66-19.464-12.66S1350.718-568.487,1348-568.173Z" transform="translate(-1301.2 571.668)" fill="#d8374f" stroke="#fff" stroke-miterlimit="10" stroke-width="2"/>
      </g>
    </g>
    <g id="Florida" transform="translate(816.146 -701.596)">
      <g id="Group_29" data-name="Group 29" transform="translate(0 0)">
        <path id="Path_45" data-name="Path 45" d="M1422.6-272.491a16.553,16.553,0,0,0-2.386,3.817c-.955,2.182-2.522,5.863-4.227,7.226s-6.681,4.363-6.613,4.908.136,1.636,2.25.546,6.544-5.658,7.567-7.43S1422.873-271.128,1422.6-272.491Z" transform="translate(-1289.674 364.466)" fill="#1e3c5c" stroke="#fff" stroke-miterlimit="10" stroke-width="2"/>
        <path id="Path_46" data-name="Path 46" d="M1396.361-243.942a2.893,2.893,0,0,1,1.909,2.727,41.886,41.886,0,0,0-6.544,1.7C1394.521-242.238,1396.361-243.942,1396.361-243.942Z" transform="translate(-1282.182 352.346)" fill="#1e3c5c" stroke="#fff" stroke-miterlimit="10" stroke-width="2"/>
        <path id="Path_47" data-name="Path 47" d="M1330.156-367.67c-1.87-2.59-12.336-23.81-12.336-23.81s.324-.36,1.69-1.906c-3.166-4.475-8.538-15.7-9.581-17.9s-5.725-8.981-5.725-8.981-4.978-7.661-6.39-12.055l-.044.008c-2.721.269-5.685.57-6.374.669-1.343.192.192-.767-2.11,3.069,1.343,5.563.192,4.988.192,4.988l-2.11-.192-.383-3.069s-2.877.192-6.139.384-32.61,2.11-35.295,2.3c-.959-1.151-3.069-4.6-3.069-4.6s-13.427.959-18.8,1.151-19.758,2.3-21.1,2.3-1.535,2.877-.768,4.028,2.686,1.151,2.877,2.686c.125,1,.087,4.132.045,6.343l.041-.012.482-.138.035-.01c.169-.048.342-.1.52-.146l.069-.019.523-.143.094-.025.524-.139.193-.05.471-.122.2-.05.492-.124.326-.081.411-.1.767-.183c8.524-2.014,11.078-1.583,14.89-1.115s13.164,5.071,14.6,5.718a33.622,33.622,0,0,0,.791,4.532,43.069,43.069,0,0,1,6.618-1.654c2.374-.324,1.8-2.625,3.309-3.525s3.848-.863,5.035-1.079a2.488,2.488,0,0,1,1.187-3.2c1.223-.719,3.2-.791,5.035-.719s5.107,1.69,5.287,2.805,1.079,2.374,3.525,3.992c.54,2.986,2.122,3.165,3.165,3.561a8.928,8.928,0,0,1,2.518,1.834c.576.5,3.489,1.115,5.5,1.619.683,3.669,4.172,6.8,4.172,6.8s.108,2.194.108,3.417-.791,10.862-.9,12.624.36,2.626,1.583,4.819a4.474,4.474,0,0,0,.647-4.208c-.324-1.079-.288-1.511.4-1.691s3.849,1.583,3.849,1.583c-.18,2.589-3.849,7.157-3.849,7.157a39.255,39.255,0,0,1,5.431,6.834c2.446,3.956,2.805,6.294,4.352,8.632s2.913,1.51,4.424.216c3.6,2.23,3.884,6.51,4.28,7.3s.288,2.7,4.963,3.058,6.186,4.424,6.87,5.574a23.191,23.191,0,0,1,1.33,4.891c.972,3.129,3.813,1.726,5.288-.36,7.589,1.906,7.05-7.732,7.265-9.387s1.115-1.835,2.05-2.158c.54-3.884-1.295-17.947-1.439-18.774S1332.026-365.08,1330.156-367.67Z" transform="translate(-1201.368 432.319)" fill="#167a91" stroke="#fff" stroke-miterlimit="10" stroke-width="2"/>
      </g>
    </g>
    <g id="Georgia" transform="translate(840.138 -774.441)">
      <g id="Group_30" data-name="Group 30" transform="translate(0 0)">
        <path id="Georgia-2" data-name="Georgia" d="M1315.47-486.051c-.007-.069-.015-.14-.02-.207-.36-4.46,1.8-13.164,2.59-15.753a71.237,71.237,0,0,1,3.129-7.876,3.2,3.2,0,0,0,.3-1.007h-.193a4.92,4.92,0,0,1-3.356-1.151c-.671-.768-2.4-4.124-3.262-5.467a3.983,3.983,0,0,0-2.877-1.439,10.42,10.42,0,0,0-.287-4.412,6.914,6.914,0,0,0-4.508-4.7,12.849,12.849,0,0,1-4.316-3.261c-1.247-1.343-3.836-4.124-5.947-6.042s-5.946-4.891-8.056-6.714-4.466-6.634-4.466-6.634c-4,.191-6.286-1.333-7.428-3.619s1.9-4.571,1.9-4.571a67.654,67.654,0,0,1-8.38.762c-5.143.191-27.238,3.048-27.238,3.048,1.9,7.619,3.428,15.238,5.143,20.952s5.333,19.81,8,24,2.667,4.761,2.667,4.761-1.714,3.238-2.477,4.952-.19,3.429.381,5.333.952,1.714.381,4.191.952,4.762,1.523,5.9a25.135,25.135,0,0,0,1.5,2.495s2.11,3.453,3.07,4.6c2.685-.192,32.033-2.11,35.295-2.3s6.138-.384,6.138-.384l.383,3.07,2.11.192s1.151.575-.191-4.988c2.3-3.836.767-2.877,2.11-3.069.689-.1,3.652-.4,6.374-.669Z" transform="translate(-1243.06 558.904)" fill="#294e76" stroke="#fff" stroke-miterlimit="10" stroke-width="2"/>
      </g>
    </g>
    <g id="Kentucky" transform="translate(781.716 -848.209)">
      <g id="Group_31" data-name="Group 31" transform="translate(0 0)">
        <path id="Kentucky-2" data-name="Kentucky" d="M1142.583-634.986a10.537,10.537,0,0,1-1.045,1.394c4.441-.117,11.689-.351,13.226-.351,2.192,0,5.481-.274,5.481-.274l.137-2.74s9.182-.548,17.951-1.1c7.258-.454,34.786-3.254,47.248-4.672a85.146,85.146,0,0,0,7.879-5.487c1.136-.757,1.608-1.136,1.513-1.8a4.959,4.959,0,0,1,.852-3.027,23.633,23.633,0,0,1,4.446-3.784,65.233,65.233,0,0,0,6.148-5.582,44.9,44.9,0,0,1-3.879-2.744c-1.892-1.514-3.216-4.919-3.878-6.055s-2.46-1.23-2.933-2.27-.378-1.8-.473-5.2c-5.676-.946-5.487-4.447-5.487-4.447l-4.447,2.933a16.547,16.547,0,0,0-3.405-1.041c-1.419-.189-3.689,1.324-5.392-.094s-3.122-.757-6.149-.568c-.379-4.825-3.028-4.635-4.731-4.919a31.426,31.426,0,0,0-4.162-.284s-1.04.757-.473,3.027-.189,3.028-1.514,4.068-4.825,1.23-4.825,1.23a13.677,13.677,0,0,1-.378,3.5c-.473,2.175-5.582,5.77-5.582,5.77a32.488,32.488,0,0,1-.284,5.393,40.7,40.7,0,0,1-5.109.473l-.756-2.744c-3.312,0-3.6,3.406-3.784,5.581a6.271,6.271,0,0,1-2.933-2.27c-1.23-.284-4.446,3.784-4.446,3.784a21.061,21.061,0,0,0-3.121-1.608,2.753,2.753,0,0,0-3.784,1.514s.094-.284-1.608-1.136-4.6,2.323-4.6,2.323a25.194,25.194,0,0,1-.89,2.912c-.242.889-.93,2.345.121,3.76-1.577-.121-3.194-.485-4.286,1.334s.122,4.812.162,5.337-.162,1.294-1.618.688-3.194-2.143-5.377-1.779-2.1.647-2.709,1.617c-.294.471-.768,1.463-1.179,2.362C1145.287-640.878,1143.718-636.971,1142.583-634.986Z" transform="translate(-1141.538 687.093)" fill="#294e76" stroke="#fff" stroke-miterlimit="10" stroke-width="2"/>
      </g>
    </g>
    <g id="Illinois" transform="translate(747.125 -907.126)">
      <g id="Group_32" data-name="Group 32" transform="translate(0 0)">
        <path id="Illinois-2" data-name="Illinois" d="M1137.422-716.824c.288-1.727-.432-12.8-.863-19.71s-2.105-35.259-2.105-35.259c-.041-1.3-.095-2.285-.1-3.184-.31-.134-.557-.248-.69-.323a8.632,8.632,0,0,1-1.9-2.815c-.61-1.187-3.46-5.97-3.46-5.97s.135-.882.407-3.087a11.55,11.55,0,0,0,0-2.3c.031.368.048.721.051,1.055-7.1.427-23.957,1.421-28.463,1.534-4.05.1-7.809.059-9.985-.024.822,1.222,1.017,2.064,1.5,2.258.646.258,1.422.129,1.938,1.292a8.64,8.64,0,0,0,2.2,3.877,6.159,6.159,0,0,1,1.034,7.236c-1.292,2.843-2.326,4.652-5.427,5.427s-5.427,2.067-5.557,3.23a5.32,5.32,0,0,0,1.034,3.231,5.491,5.491,0,0,1,.258,4.264c-.517,1.034-1.938,2.2-2.068,3.1a4.935,4.935,0,0,0,.13,1.809,1.536,1.536,0,0,0-1.939.775c-.775,1.292-.9,4.393-1.938,5.3,0,0-.387,5.427.9,8.786a12.5,12.5,0,0,0,5.3,6.59c2.456,1.68,5.3,3.36,6.073,6.332s1.034,3.618,1.68,3.747,1.551-1.938,4.135-.258,2.2,2.584,2.2,2.584-1.55,4.652-2.068,6.979-.129,5.3,2.326,6.977,6.59,3.1,8.141,4.652,2.843,2.843,3.23,5.427-.369,6.524,3.465,7.814c.049.017.087.04.134.059a26.235,26.235,0,0,1,1.179-2.362c.607-.971.526-1.253,2.709-1.618s3.922,1.173,5.377,1.779,1.658-.161,1.618-.688-1.254-3.517-.162-5.337,2.709-1.455,4.286-1.334c-1.051-1.415-.364-2.871-.122-3.76a24.918,24.918,0,0,0,.89-2.912c.041-.646-.1-5.675-.1-5.675-.144-1.295.144-1.583,1.727-3.165A13.532,13.532,0,0,0,1137.422-716.824Z" transform="translate(-1081.427 789.476)" fill="#d8374f" stroke="#fff" stroke-miterlimit="10" stroke-width="2"/>
      </g>
    </g>
    <g id="Wisconsin" transform="translate(724.711 -985.031)">
      <g id="Group_33" data-name="Group 33" transform="translate(0 0)">
        <path id="Wisconsin-2" data-name="Wisconsin" d="M1117.132-898.1s-4.342,6.309-5.359,7.734a71.26,71.26,0,0,1-4.545,6.173c-1.458,1.56-1.73-1.323-1.357-2.171s3.6-6.716,4.172-8.175c-1.7-1.105-1.643-3.839-1.6-4.476a2.444,2.444,0,0,1-1.075.237c-1.425.136-.611-5.97-.577-7.157-.475-.577-2.239-.848-2.951-.882-.034-1.764-1.865-2.51-4-2.713a40.542,40.542,0,0,1-12.652-3.019,21.471,21.471,0,0,0-10.549-2,30.144,30.144,0,0,0-3.155-3.8,3.8,3.8,0,0,1-1.255.339c-.916.136-2.883-1.323-3.29-1.526a2.881,2.881,0,0,1-2.1.577c-1.594-.034-1.051-1.968-.644-2.578s2.442-3.019,2.442-3.019-.712-1.087-4.647.915c-4.185,2.13-6.068,3.266-8.31,3.494-2.34.237-2.273.3-4.444-.543.27-1.164,1.917-2.739,3.641-4.141l-.254.148c-1.343.768-2.878,2.782-3.885,3.933s-1.726,4.028-1.918,5.659.48,4.6.336,5.371-1.822,2.877-3.5,4.412-3.213,3.405-3.165,4.748,2.733,2.446,3.165,4.987c-1.055,1.966-1.391,6.186-1.151,8.008s.144,4.124,1.151,5.275,2.11.959,3.6.335a6.193,6.193,0,0,0,4.412,3.117c1.151,1.439,2.446,4.748,4.267,5.946s6.811,3.309,7.337,5.467a33.922,33.922,0,0,1,.432,6.426s.29,2.722,2.229,3.239c-1.163,3.619-1.551,5.557-.9,7.625s2.843,3.876,5.686,4.393a10.857,10.857,0,0,1,1.084,1.36c2.177.083,5.934.125,9.985.024,4.506-.113,21.362-1.108,28.464-1.534a26.366,26.366,0,0,0-1.682-8.045,14.822,14.822,0,0,1-.61-8.684,14.933,14.933,0,0,1,2.442-5.292,30.836,30.836,0,0,1-1.153-5.257c-.1-1.832,1.153-3.223,1.526-4.308s-.1-6.411.237-8.412,3.324-6.987,4.24-8.649A4.1,4.1,0,0,0,1117.132-898.1Z" transform="translate(-1042.479 924.854)" fill="#294e76" stroke="#fff" stroke-miterlimit="10" stroke-width="2"/>
      </g>
    </g>
    <g id="Minessota" transform="translate(668.822 -1026.966)">
      <g id="Group_34" data-name="Group 34">
        <path id="Minnesotta" d="M1041.06-976.358c-1.442-.457-5.146.422-5.811.644-.719.239-.767-.24-1.486-1.247s-5.995-.288-8.334.266c-1.093-2.42-2.552-2.615-3.367-2.184-.319.168-.935.684-1.678,1.25a6.545,6.545,0,0,1-2.316,1.543c-.056.012-.116.02-.174.029a3.55,3.55,0,0,1-1.3.342c-1.919.048-4.316-1.966-4.316-1.966a6.246,6.246,0,0,1-1.87-.384c-1.122-.326-1.178-1.852-1.139-2.582a2,2,0,0,1,.03-.359c-.042.139-.364.668-2.871.543a4.922,4.922,0,0,1-.514-.057c-.068,0-.136.006-.2.008-1.87.049-6.648-4.378-9.5-4.747-1.4-.181-2.873.766-4.311,1.437a14.236,14.236,0,0,1-4.848.769c-.341-.038-.382-1.3-.384-1.829l-1.534.1a6.367,6.367,0,0,1-2.054-.144,10.193,10.193,0,0,1-1.3,0c-.527-.1-.1-1.295-.1-1.295a7.727,7.727,0,0,1-2.591-.028c-.238-.006-.467-.012-.67-.021a2.835,2.835,0,0,1-2.541-2.109c-.432-1.247-1.823-9.351-1.823-9.351h-2.877l-.575,6.186h-1.287c-2.713,0-8.919-.01-10.7-.048-2.3-.048-13.258-.158-13.258-.158a27.1,27.1,0,0,1,.792,6.582,72.925,72.925,0,0,0-.094,9.141c.283,2.073,2.45,6.974,2.827,8.859a66.268,66.268,0,0,1,1.036,9.047c0,2.262.472,7.068.754,9.99a17.95,17.95,0,0,0,2.545,6.973c1.036,1.979.09,5.854.09,5.854a5.521,5.521,0,0,1-1.114,2.431c-.81.81-2.127,2.228-1.924,3.545s2.228,3.039,2.937,4.052,1.215.608,1.317,4.456-.709,30.184-.709,30.184,4.706.087,9.454.087,41.913-.768,41.913-.768c6.091-.048,19.278-.623,19.278-.623a33.948,33.948,0,0,0-.432-6.426c-.527-2.158-5.515-4.268-7.337-5.467s-3.117-4.508-4.267-5.946a6.194,6.194,0,0,1-4.412-3.117c-1.486.624-2.59.815-3.6-.336s-.911-3.453-1.151-5.275.1-6.042,1.151-8.008c-.432-2.542-3.117-3.645-3.165-4.987s1.486-3.213,3.165-4.747,3.357-3.645,3.5-4.412-.527-3.74-.335-5.371.911-4.508,1.918-5.659,2.542-3.165,3.884-3.933l.254-.148c1.742-1.417,3.564-2.658,4.127-3.118,1.119-.916,3.121-4.885,3.121-4.885a2.89,2.89,0,0,1,.209-.394,7.083,7.083,0,0,1,1.018-1.478,18.3,18.3,0,0,1,3.545-2.952,10.788,10.788,0,0,1,.927-.57c.081-.044.173-.09.262-.136a24.377,24.377,0,0,1,3.37-1.522c.168-.062.338-.128.508-.192.512-.208,1-.4,1.452-.58a74.812,74.812,0,0,0,9.2-4.626A2.212,2.212,0,0,0,1041.06-976.358Z" transform="translate(-945.359 997.726)" fill="#d8374f" stroke="#fff" stroke-miterlimit="10" stroke-width="2"/>
      </g>
    </g>
    <g id="Iowa" transform="translate(675.86 -921.177)">
      <g id="Group_35" data-name="Group 35" transform="translate(0 0)">
        <path id="Iowa-2" data-name="Iowa" d="M1043.38-789.85a8.644,8.644,0,0,1-2.2-3.877c-.516-1.163-1.292-1.033-1.938-1.292s-.775-1.68-2.585-3.619c-2.843-.517-5.039-2.325-5.685-4.393s-.259-4.006.9-7.624c-1.938-.517-2.229-3.239-2.229-3.239s-13.187.575-19.278.623c0,0-37.165.768-41.912.768s-9.454-.087-9.454-.087h-1.418s0,3.647,1.924,5.672c.2,2.735-.81,8-1.823,9.318a21.46,21.46,0,0,1,2.221,4.135c1.1,4.789,2.025,7.183,3.867,8.84a13.263,13.263,0,0,0,1.2,6.708,36.469,36.469,0,0,1,2.533,8.626c.524,3.094.05,6.926,1.168,10.8,9.872-.293,25.678-1,34.386-1.249,9.174-.258,22.1-.129,22.1-.129s2.2,2.713,3.748,4.393c1.034-.9,1.163-4.006,1.938-5.3a1.536,1.536,0,0,1,1.939-.775,4.938,4.938,0,0,1-.129-1.809c.129-.9,1.551-2.068,2.068-3.1a5.487,5.487,0,0,0-.258-4.264,5.319,5.319,0,0,1-1.034-3.231c.129-1.163,2.455-2.455,5.556-3.231s4.135-2.584,5.427-5.427A6.159,6.159,0,0,0,1043.38-789.85Z" transform="translate(-957.589 813.893)" fill="#294e76" stroke="#fff" stroke-miterlimit="10" stroke-width="2"/>
      </g>
    </g>
    <g id="Mossouri" transform="translate(686.253 -869.739)">
      <g id="Group_36" data-name="Group 36" transform="translate(0 0)">
        <path id="Missouri" d="M1071.957-657.9c-3.834-1.29-3.078-5.23-3.465-7.814s-1.68-3.877-3.23-5.427-5.685-2.972-8.141-4.652-2.843-4.652-2.326-6.978,2.067-6.978,2.067-6.978.388-.9-2.2-2.584-3.489.388-4.135.258-.9-.775-1.68-3.747-3.618-4.651-6.074-6.332a12.5,12.5,0,0,1-5.3-6.59c-1.292-3.36-.9-8.787-.9-8.787-1.55-1.68-3.747-4.393-3.747-4.393s-12.922-.13-22.1.129c-8.708.245-24.514.956-34.386,1.249a20.587,20.587,0,0,1-.693-3.962h0a16.274,16.274,0,0,0,2.6,8.066c3.5,5.157,4.78,6.339,4.78,6.339a22.009,22.009,0,0,0,2.3.986c.986.329,3.782,1.316,3.453,3.946s-2.137,2.3-2.137,2.3a11.845,11.845,0,0,0,1.972,5.426c1.809,2.63,5.591,4.274,5.591,4.274s-.658,11.509-.822,16.935-.6,22.178-.6,22.178-.181,3.985,0,6.7a25,25,0,0,0,.338,2.5c11.259-.189,40.787-.706,46.306-1.019,6.849-.388,16.326-.5,20.69-.633,1.366,4.364-1.666,4.8-3.009,7.539a13.421,13.421,0,0,1,8.141.13c2.2-2.138,3.041-6.011,3.464-7.1.8-2.066,2.71-3.67,3.431-4.931C1073.311-652.888,1074.923-656.9,1071.957-657.9Z" transform="translate(-975.649 724.507)" fill="#294e76" stroke="#fff" stroke-miterlimit="10" stroke-width="2"/>
      </g>
    </g>
    <g id="Missispi" transform="translate(753.391 -767.577)">
      <g id="Group_37" data-name="Group 37" transform="translate(0 0)">
        <path id="Missisppi" d="M1142.189-460.8s-1.582-21-2.3-30.068-.288-31.363.288-38.412,1.295-17.7,1.295-17.7-16,1.109-20.8,1.493c-2.68.215-7.519.452-11.268.62a.823.823,0,0,0-.251.609,3.923,3.923,0,0,1-1.667,2.989c-1.183.657-2.627.92-2.758,2.5s.526,3.808-.262,4.99-3.021,2.889-4.2,4.859-1.576,3.809-3.152,4.072c-.132,5.385-.394,13.79-.132,16.154l.263,2.364s.778,7.608,3.96,11.531c-1.591,4.773-1.484,5.939-3.394,8.378s-4.772,5.514-5.3,9.013a29.39,29.39,0,0,0,.212,7.848s9.438-.53,13.15-.53h15.482s-.848,4.666-.636,5.938a16.163,16.163,0,0,0,2.333,4.985c.663.957,1.426,2.27,1.832,2.984a49.187,49.187,0,0,0,3.245-4.223,12.378,12.378,0,0,0,2.338.36c1.3.072,4.064-1.079,5.862-1.151s1.619.36,3.561.612a9.079,9.079,0,0,0,2.327-.076Z" transform="translate(-1092.317 546.976)" fill="#294e76" stroke="#fff" stroke-miterlimit="10" stroke-width="2"/>
      </g>
    </g>
    <g id="Alabama" transform="translate(800.584 -770.632)">
      <path id="alabama-2" data-name="alabama" d="M1193.3-463.2l-.041.012c.042-2.211.08-5.341-.045-6.343-.193-1.535-2.11-1.535-2.877-2.686s-.576-4.028.767-4.028,15.729-2.11,21.1-2.3S1231-479.7,1231-479.7a25.011,25.011,0,0,1-1.5-2.495c-.571-1.143-2.1-3.429-1.524-5.9s.191-2.286-.381-4.19-1.143-3.619-.381-5.333,2.477-4.952,2.477-4.952,0-.571-2.667-4.761-6.285-18.286-8-24-3.238-13.333-5.142-20.952c-8.572.952-37.595,3.054-37.595,3.054s-.719,10.646-1.295,17.7-1.007,29.348-.288,38.412,2.3,30.068,2.3,30.068l.025.139a39.033,39.033,0,0,0,4.219-.931c1.69-.432,1.223-2.374,1.69-3.561s.756-1.762,1.942-1.51,3.309,3.489,3.884,4.712-.791,2.985-.791,2.985A22.8,22.8,0,0,1,1193.3-463.2Z" transform="translate(-1174.326 552.284)" fill="#294e76" stroke="#fff" stroke-miterlimit="10" stroke-width="2"/>
    </g>
    <g id="Tennessee" transform="translate(770.48 -807.392)">
      <g id="Group_38" data-name="Group 38" transform="translate(0 0)">
        <path id="Path_48" data-name="Path 48" d="M1244.04-616.163s-15.622,2.055-21.24,2.878-43.987,4.8-52.757,5.344-17.951,1.1-17.951,1.1l-.138,2.74s-3.289.274-5.481.274c-1.537,0-8.785.233-13.226.351a13.19,13.19,0,0,0-2.386,3.537c-.422,1.091-1.266,4.964-3.464,7.1,0,0,1.365.664.314,2.9s-1.576,4.465-2.5,5.385a4.931,4.931,0,0,0-1.839,3.415c0,1.444.47,4.035-.318,5.479a6.26,6.26,0,0,1-1.048,1.428c3.749-.168,8.588-.406,11.268-.621,4.8-.384,20.8-1.493,20.8-1.493s29.023-2.1,37.594-3.054c0,0,9.788-1.266,17.851-2.169a16.929,16.929,0,0,1,.123-4.992s.959.137,3.563-1.507c.274-4.522,3.837-5.07,5.892-5.344s3.289-2.329,4.933-3.7a5.743,5.743,0,0,1,3.7-1.233s.411-3.289,1.233-4.522,2.6-1.644,4.659-.959c3.152-2.74,4.934-2.33,6.988-2.6.412-3.289,2.878-5.07,3.426-6.167S1244.04-616.163,1244.04-616.163Z" transform="translate(-1122.013 616.163)" fill="#294e76" stroke="#fff" stroke-miterlimit="10" stroke-width="2"/>
      </g>
    </g>
    <g id="Arkansas" transform="translate(703.737 -791.737)">
      <g id="Group_39" data-name="Group 39" transform="translate(0 0)">
        <path id="Arkansas-2" data-name="Arkansas" d="M1078.16-581.29a13.422,13.422,0,0,0-8.141-.129c1.343-2.741,4.375-3.175,3.009-7.539-4.364.133-13.842.245-20.69.633-5.519.312-35.047.83-46.306,1.019.5,2.86,1.383,6.557,1.654,8.729.363,2.9,1.811,17.026,1.449,24.453-.284,5.832-.122,16.127-.04,20.281a23.854,23.854,0,0,0,5.943.57c.126,2.018.24,6.034.332,10.265,7.2-.3,21.948-.914,26.069-1.012,5.516-.132,19.175-.132,19.175-.132l-.262-2.364c-.263-2.364,0-10.769.131-16.154,1.576-.262,1.969-2.1,3.152-4.072s3.415-3.677,4.2-4.859.131-3.415.263-4.99,1.575-1.838,2.758-2.5a3.922,3.922,0,0,0,1.667-2.99c0-.657.511-.592,1.3-2.037s.318-4.035.318-5.479a4.932,4.932,0,0,1,1.839-3.415c.919-.919,1.445-3.152,2.5-5.385S1078.16-581.29,1078.16-581.29Z" transform="translate(-1006.031 588.959)" fill="#294e76" stroke="#fff" stroke-miterlimit="10" stroke-width="2"/>
      </g>
    </g>
    <g id="Louisiana" transform="translate(713.075 -726.931)">
      <g id="Group_41" data-name="Group 41" transform="translate(34.569 62.779)">
        <g id="Group_40" data-name="Group 40">
          <path id="Path_49" data-name="Path 49" d="M1082.329-366.535s1.591-1.272,2.546-.424a2.258,2.258,0,0,1,.848,1.8S1082.753-365.368,1082.329-366.535Z" transform="translate(-1082.329 367.251)" fill="#1e3c5c" stroke="#fff" stroke-miterlimit="10" stroke-width="2"/>
        </g>
      </g>
      <path id="Path_50" data-name="Path 50" d="M1104.605-409.379c-1.223-1.87-3.884-2.158-6.258-2.374s-3.093-1.654-4.6-3.525a5.786,5.786,0,0,0,1.654-3.525c2.158.36,3.093-.719,3.165-2.014a4.611,4.611,0,0,0-1.51-3.812c-1.079-.719-1.583,1.942-2.158,3.741-1.079.432-4.028-1.619-4.028-1.619a23.24,23.24,0,0,1,3.057-2.553,7.116,7.116,0,0,0,1.215-1.136c-.406-.715-1.169-2.027-1.832-2.984a16.14,16.14,0,0,1-2.333-4.985c-.212-1.272.636-5.938.636-5.938h-15.483c-3.712,0-13.15.53-13.15.53a29.376,29.376,0,0,1-.212-7.848c.53-3.5,3.393-6.575,5.3-9.013s1.8-3.606,3.394-8.378c-3.182-3.924-3.96-11.532-3.96-11.532s-13.659,0-19.174.132c-4.121.1-18.873.71-26.069,1.012.141,6.529.23,13.572.23,14.594,0,1.684-.16,2.967.481,3.849s2.486,1.925,2.887,3.128.4,2.887,1.443,5.051,2.967,4.491,3.448,6.255,1.123,2.566.4,5.373-2.326,6.255-2.326,7.538a6.025,6.025,0,0,0,.642,2.485,2.294,2.294,0,0,0-.4,2c.24,1.363.562,2.566,0,3.608a11.277,11.277,0,0,0-1.5,7.045,45.042,45.042,0,0,1,13.236-1.007c3.668.288,6.689,2.374,9.711,2.662s3.957-.647,4.6-1.511c-.863-.647-1.726-2.733.216-3.381s4.028,1.582,4.028,1.582a6.95,6.95,0,0,1,3.165-.072c1.8.36,2.3,3.453,2.3,3.453s.216.072,2.949.576,1.942,2.23,1.3,3.669c7.552,5.251,8.919,3.74,10.358,3.309s.935-2.446.935-2.446a5.948,5.948,0,0,0,2.014,0c.648-.216,1.223-1.511,2.734-1.583,1.654,1.367.359,3.812.359,3.812l.72.647c1.654-.647,2.014-6.042,2.229-6.762s3.525-2.446,3.525-2.446l.5,3.453a21.151,21.151,0,0,1,4.316,1.007c1.511.647,2.662,2.158,4.46,2.086a3.351,3.351,0,0,1,2.446.575l1.582-2.518Zm-20.2-15.4c-1.25-.22-1.544-.735-1.617-1.838s.294-2.279,2.867-2.794,6.176,2.206,6.176,2.206c.808.514-.074,1.544-1.4,2.574S1085.655-424.556,1084.405-424.777Z" transform="translate(-1022.258 476.344)" fill="#294e76" stroke="#fff" stroke-miterlimit="10" stroke-width="2"/>
    </g>
    <g id="Nebraska" transform="translate(572.212 -915.136)">
      <g id="Group_42" data-name="Group 42" transform="translate(0 0)">
        <path id="Nebraska-2" data-name="Nebraska" d="M894.121-749.932c-3.5-5.157-2.367-10.707-3.076-14.9a36.48,36.48,0,0,0-2.533-8.626,13.263,13.263,0,0,1-1.2-6.709c-1.842-1.657-2.763-4.052-3.868-8.84-4.345.168-4.236-3.131-4.42-3.867s-7.551-2.394-9.577-2.946-5.013,1.259-7.539.708c-3.318-.724-8.505-4.825-8.505-4.825s-15.253-.175-22.62-.543-21.375-.681-30.952-1.417c-7.137-.549-15.192-1.2-18.834-1.5-.119,1.211-.227,2.248-.32,3.052-.657,5.749-2.119,23.346-2.936,33.379l-.267-.023c2.342.2,4.373.379,5.9.518,7.913.719,22.155,1.582,22.155,1.582s-.708,12.029-1.106,18.547c3.239.173,7.834.418,11.444.608,0,0,37.323,1.48,46.2,1.809s36.83.329,36.83.329S897.62-744.776,894.121-749.932Z" transform="translate(-777.475 803.395)" fill="#294e76" stroke="#fff" stroke-miterlimit="10" stroke-width="2"/>
      </g>
    </g>
    <g id="South_Dakota" data-name="South Dakota" transform="translate(575.734 -969.312)">
      <g id="Group_43" data-name="Group 43" transform="translate(0 0)">
        <path id="South_Dakota-2" data-name="South Dakota" d="M783.6-843.362c3.642.3,11.7.947,18.834,1.5,9.577.737,23.585,1.049,30.952,1.417s22.62.543,22.62.543,5.188,4.1,8.505,4.825c2.526.551,5.513-1.261,7.539-.708s9.392,2.21,9.577,2.947.076,4.035,4.42,3.868a21.421,21.421,0,0,0-2.221-4.135c1.013-1.317,2.026-6.584,1.823-9.318-1.924-2.026-1.924-5.672-1.924-5.672h1.418s.81-26.334.709-30.183-.607-3.444-1.317-4.457-2.735-2.734-2.937-4.052,1.114-2.735,1.924-3.545a5.52,5.52,0,0,0,1.114-2.431s-14.889-.608-19.244-.81-29.474-1.519-34.133-1.722-26.639-1.216-32.818-1.621c-4.146-.272-8.153-.5-10.342-.617-.52,6.4-1,12.6-1.3,16.916,0,0-2.1,26.128-3.2,37.268Z" transform="translate(-783.595 897.538)" fill="#294e76" stroke="#fff" stroke-miterlimit="10" stroke-width="2"/>
      </g>
    </g>
    <g id="North_Dakota" data-name="North Dakota" transform="translate(580.234 -1024.384)">
      <g id="Group_44" data-name="Group 44">
        <path id="North_Dakota-2" data-name="North Dakota" d="M836.915-990.93c-11.221-.288-28.054-1.295-40.426-2.3l-.084-.007c-.84,9.13-2.307,25.014-2.841,30.363-.465,4.643-1.35,14.905-2.148,24.709,2.189.12,6.2.346,10.342.618,6.179.405,28.158,1.419,32.817,1.621s29.779,1.519,34.133,1.722,19.245.81,19.245.81.947-3.875-.09-5.854a17.938,17.938,0,0,1-2.545-6.973c-.283-2.921-.754-7.728-.754-9.99a66.257,66.257,0,0,0-1.036-9.047c-.377-1.885-2.545-6.785-2.827-8.859a72.911,72.911,0,0,1,.094-9.141,27.1,27.1,0,0,0-.792-6.582c-5.736-.046-10.8-.082-12.878-.082C861.228-989.923,848.136-990.642,836.915-990.93Z" transform="translate(-791.416 993.239)" fill="#294e76" stroke="#fff" stroke-miterlimit="10" stroke-width="2"/>
      </g>
    </g>
    <g id="Kansas" transform="translate(595.888 -858.08)">
      <g id="Group_45" data-name="Group 45">
        <path id="Kansas-2" data-name="Kansas" d="M921.958-688.841a11.846,11.846,0,0,1-1.973-5.426s1.809.329,2.137-2.3-2.466-3.617-3.453-3.946a22.048,22.048,0,0,1-2.3-.986s-27.951,0-36.829-.329-46.2-1.809-46.2-1.809c-3.61-.19-8.2-.435-11.444-.608-.077,1.257-.142,2.312-.189,3.033-.288,4.46-3.021,44.023-3.021,46.9,0,1.348-.032,3.614-.065,5.64,14.57.773,34.983,1.838,38.864,1.952,6.158.181,54.519.906,58.5,1.087s10.143.181,10.143.181.432-16.753.6-22.178.822-16.935.822-16.935S923.766-686.211,921.958-688.841Z" transform="translate(-818.618 704.247)" fill="#294e76" stroke="#fff" stroke-miterlimit="10" stroke-width="2"/>
      </g>
    </g>
    <g id="Texas" transform="translate(510.455 -793.55)">
      <g id="Group_46" data-name="Group 46" transform="translate(0 0)">
        <path id="Path_51" data-name="Path 51" d="M822.481-395.225s-3.237-10.79-3.812-14.315a13.627,13.627,0,0,1,.791-7.409c.576-1.655,2.158-9.135,2.158-9.135a52.237,52.237,0,0,0,4.015-3.526c-.5-1.295-.737-1.3-.737-1.3s-2.785-1.137.044-2.124a12.262,12.262,0,0,0,5.894-4.465c.3-.52,2.6-.216,2.6-.216s1.257-1.344-.217-4.942a13.821,13.821,0,0,0,5.808-1.04c2.9,1.171.889,3.826,1.82,3.338,3.021-1.582,4.581-2.556,6.595-3.491s6.114-4.6,7.05-5.467,4.891-3.668,5.539-4.6c1.655-.5,4.46-4.6,4.46-4.6s9.207-3.812,13.6-4.891a11.282,11.282,0,0,1,1.5-7.045c.562-1.042.24-2.245,0-3.608a2.3,2.3,0,0,1,.4-2,6.025,6.025,0,0,1-.642-2.485c0-1.283,1.6-4.731,2.326-7.538s.08-3.608-.4-5.372-2.406-4.089-3.448-6.255-1.043-3.849-1.443-5.051-2.246-2.245-2.887-3.128-.481-2.165-.481-3.848-.24-19.726-.561-24.858c-6.335.08-8.741-1.523-10.264-2.405s-3.769-3.208-5.853-3.448a7.289,7.289,0,0,0-4.17,1.123c-1.283.08-1.2-.481-2.165-.962s-2.967,1.684-4.731,1.2c-3.982-1.086-5.452,1.443-5.452,1.443a58.319,58.319,0,0,0-6.656-1.684c-4.892-1.042-5.052.32-6.335,1.524-1.042.321-3.608-.8-6.014-2.326s-4.811-.161-6.013.16a8.83,8.83,0,0,0-3.528-4.49c-1.363-.8-2.726-.561-6.094.161-3.368-2.005-8.019-2.246-10.183-2.727.481-3.689-.882-3.929-2.326-4.571-.481.8-.962.642-1.924.161s-1.363.08-2.245.321-1.844-.722-2.886-1.684a5.549,5.549,0,0,0-2.151-1.244s0-5.212.453-10.65.68-25.377.68-25.377-27.416-1.133-33.307-1.359c-3.612-.138-8.413-.448-11.589-.666q-.036.4-.072.8c-.44,4.84-6.014,81.117-6.014,81.117s-15.549-.586-23.03-1.76-23.176-2.2-32.417-3.081c0,1.194-.113,2.5-.206,3.557-1.9-.2-4.746-.5-7.792-.828l.078.008.1.011.88.094.49.052.287.03.64.068.563.06.478.051.357.038.575.061.474.051.406.043.534.056.291.031.446.047.41.043.2.021.542.057.07.007.526.055.337.035.2.02.295.03.186.019.19.018.176.017.26.025c1.242.764,2.389,3.679,2.819,4.683s.574,2.819,2.677,3.823,2.58,1.912,4.157,4.11a64.173,64.173,0,0,0,6.005,6.307c.791,1.079,4.244,1.367,4.675,3.021s.719,1.367,1.726,1.8c0,4.172,3.741,7.553,3.741,7.553l-.144,7.409s4.029,9.423,8.632,10.718,5.323,3.453,5.323,3.453l7.193,3.524s5.035-5.9,5.683-6.689.863-3.885,3.812-7.121a9.216,9.216,0,0,0,5.971-2.086,19.9,19.9,0,0,0,2.518,2.014c.719.36,3.74,0,10.07.863s4.6,4.244,4.6,4.244,4.892,4.748,6.258,5.9.647,1.511,1.8,2.949a8.351,8.351,0,0,1,1.654,4.316c.144,1.223,3.237,7.841,3.884,9.5-.432,2.589-.072,3.021.5,3.6s2.59,1.367,4.316,2.805,3.309,6.258,5.107,7.193,3.453,2.086,3.668,2.661-.935,4.46-.935,4.46-.216,0,1.295.863c.863,2.158-.36,5.107-.36,5.107l3.381,2.734c.647,8.991,8.344,10.43,13.451,11.078,3.525,3.453,6.042,2.518,8.272,2.59s3.525,1.439,6.042,3.165A3.457,3.457,0,0,0,822.481-395.225Z" transform="translate(-670.158 592.11)" fill="#294e76" stroke="#fff" stroke-miterlimit="10" stroke-width="2"/>
        <path id="Path_52" data-name="Path 52" d="M948.517-320.66c.87.2.781,3.208-3.337,6.545s-4.464,3.727-4.334,2.817a17.945,17.945,0,0,1,3.381-6.242C945.743-319.056,947.78-320.833,948.517-320.66Z" transform="translate(-785.066 476.874)" fill="#1e3c5c" stroke="#fff" stroke-miterlimit="10" stroke-width="2"/>
      </g>
    </g>
    <g id="Colorado" transform="translate(494.399 -885.69)">
      <g id="Group_47" data-name="Group 47" transform="translate(0)">
        <path id="Colorado-2" data-name="Colorado" d="M743.745-669.043c.033-2.026.065-4.292.065-5.64,0-2.877,2.733-42.44,3.021-46.9s1.295-21.58,1.295-21.58-14.242-.863-22.155-1.582-29.061-2.446-39.131-3.453-35.1-4.028-35.1-4.028-5.755,40.138-6.33,43.879-2.609,23.186-2.609,23.906-.541,5.1-.541,5.1,6.746,1.134,13.494,1.868,31.243,3.667,39.752,4.547,33.151,3.081,33.151,3.081S735.194-669.5,743.745-669.043Z" transform="translate(-642.256 752.226)" fill="#d8374f" stroke="#fff" stroke-miterlimit="10" stroke-width="2"/>
      </g>
    </g>
    <g id="Oklahoma" transform="translate(579.987 -803.313)">
      <g id="Group_48" data-name="Group 48" transform="translate(0 0)">
        <path id="Oklahoma-2" data-name="Oklahoma" d="M916.39-587.118c-.363-2.9-1.811-8.513-1.992-11.23s0-6.7,0-6.7-6.158,0-10.143-.181-52.346-.906-58.5-1.087-53.957-2.758-53.957-2.758-.393,5.114-.808,9.763c3.176.219,7.977.528,11.589.666,5.891.227,33.307,1.359,33.307,1.359s-.227,19.939-.68,25.377-.453,10.65-.453,10.65a5.55,5.55,0,0,1,2.151,1.244c1.042.962,2,1.925,2.886,1.684s1.283-.8,2.245-.321,1.443.642,1.925-.161c1.443.642,2.806.882,2.325,4.571,2.165.481,6.816.722,10.183,2.727,3.368-.722,4.732-.962,6.1-.161a8.832,8.832,0,0,1,3.528,4.49c1.2-.321,3.608-1.684,6.013-.16s4.972,2.646,6.014,2.325c1.283-1.2,1.443-2.566,6.335-1.524a58.268,58.268,0,0,1,6.656,1.684s1.47-2.529,5.453-1.443c1.764.481,3.769-1.684,4.731-1.2s.881,1.042,2.165.962a7.289,7.289,0,0,1,4.17-1.123c2.084.24,4.33,2.566,5.854,3.448a14.414,14.414,0,0,0,4.321,1.836c-.082-4.154-.245-14.45.039-20.281C918.2-570.092,916.753-584.22,916.39-587.118Z" transform="translate(-790.986 609.076)" fill="#294e76" stroke="#fff" stroke-miterlimit="10" stroke-width="2"/>
      </g>
    </g>
    <g id="Washington" transform="translate(330.953 -1066.601)">
      <path id="Path_53" data-name="Path 53" d="M358.231-1026.534a11.915,11.915,0,0,0,.647,3.309c.432.575,3.381.5,3.381,1.8a9.356,9.356,0,0,0,3.721,1.879c2.288.572,4.147,2.288,4.291,4.147s0,6.294,1,7.724,1,1.717,3.433,2.289,4.863,1,4.863,1a5.594,5.594,0,0,1,6.007-.859c3.433,1.574,5.192,2.459,12.058,3.174s17.462-.164,25.186,1.124a121.816,121.816,0,0,1,21.256,5.715s1.192-9.134,2.636-17.916c1.4-8.543,6.564-30.173,8.505-35.775-13.861-3.325-31.841-7.863-35.265-8.972-5.107-1.655-32.729-8.7-32.729-8.7a15.737,15.737,0,0,0-.647,1.582c-.36,1.007,1.654,4.244,1.654,5.036a9.261,9.261,0,0,1-.863,2.877c-.5,1.367.144,3.237.288,4.172a8.178,8.178,0,0,1-.216,2.661c-.144.863,1.049,2.475.791,2.805a4.708,4.708,0,0,1-5.016,1.932c-1.069.118-1.283-.467-2.138-.206.8-1.736,1.307-.293,2.352-3.666a6.949,6.949,0,0,0,.38-2.3c-.072-1.223,1.4-2.949,1.4-2.949l-.288-1.079c-1.367.072-2.23,2.158-2.374,3.525a25.186,25.186,0,0,1-14.746-5.036c-3.669-2.733-6.258-5.323-7.481-5.682.144,1.51-1.151,6.618-1.223,7.553s1.223,3.669,1.223,6.258c.288,1.943-.288,6.69-.216,8.848s3.525,4.675,3.525,4.675l-3.525.648a4.606,4.606,0,0,0-.719,2.086,2.825,2.825,0,0,0,.921,2.029,4.321,4.321,0,0,1,.3,2.287C360.389-1027.4,358.231-1026.534,358.231-1026.534Z" transform="translate(-358.231 1066.601)" fill="#294e76" stroke="#fff" stroke-miterlimit="10" stroke-width="2"/>
      <path id="Path_54" data-name="Path 54" d="M399.505-1058.942a1.614,1.614,0,0,0-1.8-.7c-1.072.406-1.188,1.217-1.652,1.217a8.28,8.28,0,0,1-1.13-.116s.609,2.956,1.42,2.55.319-1.333,1.043-1.449a2.691,2.691,0,0,1,1.217.057S400.114-1057.985,399.505-1058.942Z" transform="translate(-373.809 1063.682)" fill="#1e3c5c" stroke="#fff" stroke-miterlimit="10" stroke-width="2"/>
      <path id="Path_55" data-name="Path 55" d="M401.013-1054.787a2.878,2.878,0,0,1,.261,1.8c-.232.841-.986,1.043-1.16.928S400.056-1054.323,401.013-1054.787Z" transform="translate(-375.983 1061.586)" fill="#1e3c5c" stroke="#fff" stroke-miterlimit="10" stroke-width="2"/>
    </g>
    <g id="Montana" transform="translate(436.193 -1046.219)">
      <g id="Group_49" data-name="Group 49" transform="translate(0 0)">
        <path id="Montana-2" data-name="Montana" d="M636.131-1015.239c-10.071-1.438-43.207-6.33-43.207-6.33-11.318-1.919-44.838-8.848-44.838-8.848-.874-.167-2.116-.431-3.629-.767l.137.031c-1.185,5.518-2.939,13.708-3.338,15.7-.615,3.074.923,4.458.923,4.458s2.613,3.689,1.23,6.61a3.177,3.177,0,0,0,.922,4.3,46.016,46.016,0,0,1,6,9.377,10.659,10.659,0,0,0,6.149,5.841,17.82,17.82,0,0,1-.462,2.459c-.307,1.076-3.689,10.3-4.611,11.837s-2.152,1.383-.461,4.15,4.765,1.384,7.225-.461c2.614,4.3,1.538,8.762,2.614,11.837a15.273,15.273,0,0,0,4.15,6.149c1.383,1.383,1.383,2.459,1.23,5.073s.769,3.229.769,3.229a3.5,3.5,0,0,1,4.3-1.691c3.075.922,3.843.461,6.149,0s3.228,1.076,6,1.23,3.228-2.768,4.15-2.921.769.769,2.152,2.921c.839,1.305,1.337,1.59,1.6,1.615l.244-.078,1.593-8.78s18.223,3.069,34.143,5.179,44.311,5.371,56.587,5.754c.767-10.934,2.685-33.952,3.453-41.625.535-5.35,2-21.232,2.842-30.363C677.712-1010.363,646.18-1013.8,636.131-1015.239Z" transform="translate(-541.111 1031.183)" fill="#294e76" stroke="#fff" stroke-miterlimit="10" stroke-width="2"/>
      </g>
    </g>
    <g id="Wyoming" transform="translate(476.977 -963.33)">
      <g id="Group_50" data-name="Group 50" transform="translate(0 0)">
        <path id="Wyoming-2" data-name="Wyoming" d="M673.987-805.475c8.2.82,23.732,2.115,33.5,2.957.818-10.033,2.28-27.63,2.937-33.379.938-8.211,3.514-40.312,3.514-40.312-12.277-.384-40.666-3.644-56.587-5.755s-34.144-5.179-34.144-5.179l-1.592,8.78-6.9,45.841s-2.158,16.113-2.734,19.566c4.891.863,12.948,1.87,16.544,2.158s10.358,1.295,10.358,1.295S663.916-806.482,673.987-805.475Z" transform="translate(-611.981 887.143)" fill="#294e76" stroke="#fff" stroke-miterlimit="10" stroke-width="2"/>
      </g>
    </g>
    <g id="Idaho" transform="translate(389.122 -1048.925)">
      <g id="Group_51" data-name="Group 51" transform="translate(0 0)">
        <path id="Idaho-2" data-name="Idaho" d="M509.475-902.574s16.113,3.453,22.443,4.46,17.983,2.446,17.983,2.446l6.9-45.841s-.461.615-1.844-1.537-1.23-3.075-2.152-2.921-1.383,3.074-4.15,2.921-3.69-1.691-6-1.23-3.074.922-6.149,0a3.5,3.5,0,0,0-4.3,1.691s-.922-.615-.769-3.228.154-3.689-1.23-5.073a15.268,15.268,0,0,1-4.15-6.149c-1.076-3.075,0-7.533-2.614-11.836-2.46,1.844-5.534,3.228-7.225.461s-.461-2.613.462-4.15,4.3-10.761,4.611-11.836a17.843,17.843,0,0,0,.461-2.459A10.66,10.66,0,0,1,515.6-992.7a46.01,46.01,0,0,0-6-9.377,3.177,3.177,0,0,1-.922-4.3c1.383-2.92-1.23-6.61-1.23-6.61s-1.538-1.384-.922-4.458c.4-1.993,2.153-10.182,3.338-15.7-3.009-.666-7.148-1.634-11.74-2.736-1.941,5.6-7.1,27.231-8.505,35.774-1.444,8.782-2.635,17.917-2.635,17.917,1.716,3.29,1.716,3.576,3.147,4.863a43.627,43.627,0,0,1,.858,5.006,27.976,27.976,0,0,0-6.436,7.581c-2.145,4.148-3.147,4.291-3.147,4.291s-3.719,4.005-4.291,6.436,0,2.575,1.144,2.575a6.157,6.157,0,0,0,1.859,3,124.26,124.26,0,0,0-4.577,11.729c-1.717,5.435-5.006,19.452-5.721,22.6-.249,1.1-.462,2.345-.636,3.511-2.874-.695-6.284-1.529-9.874-2.413h0c8.532,2.1,16.037,3.92,17.792,4.254C483.147-907.61,509.475-902.574,509.475-902.574Z" transform="translate(-459.313 1035.885)" fill="#294e76" stroke="#fff" stroke-miterlimit="10" stroke-width="2"/>
      </g>
    </g>
    <g id="New_Mexico" data-name="New Mexico" transform="translate(479.418 -812.809)">
      <g id="Group_52" data-name="Group 52" transform="translate(0 0)">
        <path id="New_Mexico-2" data-name="New Mexico" d="M684.45-619.162c-8.508-.88-33-3.814-39.752-4.547s-13.494-1.868-13.494-1.868-3.119,17.622-3.743,22.378-3.353,22.223-4.367,29.163-3.665,25.576-4.366,31.736-2.418,20.585-2.418,20.585l-.018.121-.069-.01c3.763.542,11.848,1.56,12.787,1.873-.239-2.485.813-8.745.813-8.745a15.028,15.028,0,0,0,2.389.334c1.858.2,16.919,1.837,22.841,2.454.093-1.055.206-2.362.206-3.556,9.241.88,24.937,1.907,32.418,3.08s23.03,1.76,23.03,1.76,5.574-76.276,6.014-81.117.88-10.561.88-10.561S692.957-618.282,684.45-619.162Z" transform="translate(-616.223 625.577)" fill="#294e76" stroke="#fff" stroke-miterlimit="10" stroke-width="2"/>
      </g>
    </g>
    <g id="Utah" transform="translate(421.414 -915.614)">
      <path id="Utah-2" data-name="Utah" d="M597.893-774.3s-6.762-1.007-10.358-1.3-11.653-1.294-16.544-2.158c.575-3.453,2.733-19.566,2.733-19.566s-11.653-1.438-17.983-2.445-22.443-4.46-22.443-4.46-1.295,7.049-2.158,11.077-7.913,38.556-9.207,46.325-6.5,34.331-6.5,34.331c3.2.468,14.738,2.417,19.26,3.119s28.616,4.522,33.919,5.224,19.806,2.729,19.806,2.729.541-4.378.541-5.1,2.034-20.165,2.609-23.906S597.893-774.3,597.893-774.3Z" transform="translate(-515.428 804.226)" fill="#167a91" stroke="#fff" stroke-miterlimit="10" stroke-width="2"/>
    </g>
    <g id="Arizona" transform="translate(394.323 -823.881)">
      <path id="Arizona-2" data-name="Arizona" d="M548.621-636.475c-5.3-.7-29.4-4.522-33.919-5.224s-16.063-2.651-19.26-3.119c-.545,1.013-1.793,12.164-2.1,13.645s-1.95,2.339-3.509,2.807-1.248-.7-3.664-2.651-3.9,1.248-4.367,2.885.312,10.449.078,13.256a9.441,9.441,0,0,1-2.309,5.017,11.449,11.449,0,0,0-.316,1.975c-.079,1.107,2.055,3.319,2.45,4.11s-.395,2.292,1.265,4.663,1.5,2.766-.158,4.742c-4.821.949-5.3,6.165-5.533,7.351s.632,3-1.9,3.714-3.161,1.581-3.635,4.505.79,4.5,1.58,4.742,0,0,1.66.237a3.584,3.584,0,0,1-2.529,4.347c-2.134.474-2.292-.317-2.292-.317s-.2.232-.583.657c-.245.406-.569.945-.881,1.473-.621,1.051-.669.908,2.1,2.533s27.048,15.34,30.68,17.634l19.975,12.616a59.96,59.96,0,0,1,6.786.764c2.533.526,21.887,3.728,23.464,4.062.294.062.943.163,1.81.287l.019-.121s1.715-14.425,2.417-20.585,3.353-24.8,4.367-31.735,3.743-24.406,4.367-29.163,3.743-22.378,3.743-22.378S553.923-635.773,548.621-636.475Z" transform="translate(-468.35 644.818)" fill="#167a91" stroke="#fff" stroke-miterlimit="10" stroke-width="2"/>
    </g>
    <g id="California" transform="translate(293.978 -949.22)">
      <g id="Group_53" data-name="Group 53" transform="translate(0 0)">
        <path id="Path_56" data-name="Path 56" d="M395.744-661.921l-.194.322c.379-.425.583-.657.583-.657s.158.79,2.292.316a3.584,3.584,0,0,0,2.529-4.347c-1.66-.237-.87,0-1.66-.237s-2.054-1.818-1.58-4.742,1.106-3.794,3.635-4.505,1.66-2.529,1.9-3.714.711-6.4,5.532-7.35c1.66-1.976,1.818-2.371.158-4.742s-.87-3.873-1.265-4.663-2.529-3-2.45-4.11a11.437,11.437,0,0,1,.316-1.976s-3.477-5.058-5.532-8.536-17.7-27.108-20.944-32.008-19.679-30.428-21.576-33.589S347.369-792.5,345.868-793.45c.553-3,6.4-21.971,7.587-26.634S359.62-846.8,359.62-846.8s-22.05-6.085-25.449-7.113c-3.063-.926-24.993-7.435-29.3-8.713h0c-.073.477-1.24,8.1-1.867,12.385-.647,4.424-3.884,8.776-6.006,10.9a9.626,9.626,0,0,0-3.021,7.158c-.072,2.877,2.553,6.582,3.093,8.883a13.924,13.924,0,0,1,.432,4.676c.036,2.626-2.7,13.02-2.7,13.02s5.072,8.165,6.079,11.653a13.241,13.241,0,0,1,.108,7.158c.432,1.115,3.916,4.122,4.635,5.165.625-3.91,2.813-3.354,3.128-2.919a5.786,5.786,0,0,1,.573,5.057c-.307.786,2.086,4.379-.156,4.692-.772.108-1.974-4.779-3.649-4.223-.156.515-.562,1.284-.754,1.8-.647,1.726-.54,6.186-.216,8.236s2.59,3.6,3.632,4.712a5.07,5.07,0,0,1,1.834,3.7c.036,1.726-3.093,4.028-3.093,4.028s-.252,5.035.539,6.4,2.014,1.151,2.374,3.993a30.589,30.589,0,0,0,3.273,9.531c1.151,1.726,3.2,4.064,3.741,6.51a7.685,7.685,0,0,0,1.8,3.669,3.551,3.551,0,0,0-.144,1.259c0,.935-1.763,9.495-1.763,9.495l1.8,2.41s3.525-.36,4.676.216,4.784,3.237,6.33,3.632a3.6,3.6,0,0,0,2.7-.36c1.295.791,2.877,7.733,6.725,9.891,1.758.985,4.891,1.007,5.719,1.079.611.719,1.4,3.489,1.007,4.424a3.5,3.5,0,0,0,.216,2.3s2.877.612,3.669.935,4.676,5.072,6.581,7.841a19.038,19.038,0,0,1,2.949,7.337c.36,1.834.144,9.279.144,9.279s9.844.794,13.954.937,19.02,2.629,19.02,2.629l3.727.86Z" transform="translate(-293.978 862.623)" fill="#d8374f" stroke="#fff" stroke-miterlimit="10" stroke-width="2"/>
        <path id="Path_57" data-name="Path 57" d="M338.168-587.226a3.06,3.06,0,0,0,3.381,2.877C340.578-586.831,340.686-587.047,338.168-587.226Z" transform="translate(-312.739 745.706)" fill="#1e3c5c" stroke="#fff" stroke-miterlimit="10" stroke-width="2"/>
        <path id="Path_58" data-name="Path 58" d="M347.021-588.039s-.576,3.273,3.273,2.985C349.322-586.78,349.25-587.355,347.021-588.039Z" transform="translate(-316.484 746.051)" fill="#1e3c5c" stroke="#fff" stroke-miterlimit="10" stroke-width="2"/>
        <path id="Path_59" data-name="Path 59" d="M376.2-560.966c-.413.428.7,5.788,3,4.816C380.029-556.617,376.938-561.735,376.2-560.966Z" transform="translate(-328.848 734.591)" fill="#1e3c5c" stroke="#fff" stroke-miterlimit="10" stroke-width="2"/>
        <path id="Path_60" data-name="Path 60" d="M372.832-545.63c.83-.519,3.273,4.352,2.266,4.891S371.969-545.09,372.832-545.63Z" transform="translate(-327.369 728.063)" fill="#1e3c5c" stroke="#fff" stroke-miterlimit="10" stroke-width="2"/>
      </g>
    </g>
    <g id="Nevada" transform="translate(345.868 -933.394)">
      <g id="Group_54" data-name="Group 54" transform="translate(0 0)">
        <path id="Nevada-2" data-name="Nevada" d="M443.819-690.65a9.44,9.44,0,0,0,2.309-5.017c.234-2.807-.546-11.619-.078-13.256s1.949-4.834,4.367-2.885,2.1,3.119,3.664,2.651,3.2-1.325,3.509-2.807,1.559-12.632,2.1-13.645c0,0,5.21-26.562,6.5-34.331s8.344-42.3,9.207-46.324,2.158-11.078,2.158-11.078-26.327-5.035-32.37-6.186c-4.525-.862-47.294-11.593-47.294-11.593s-4.979,22.05-6.165,26.713-7.034,23.631-7.587,26.634c1.5.948,9.721,13.83,11.618,16.992s18.335,28.688,21.576,33.589,18.889,28.531,20.944,32.008S443.819-690.65,443.819-690.65Z" transform="translate(-384.149 835.122)" fill="#294e76" stroke="#fff" stroke-miterlimit="10" stroke-width="2"/>
      </g>
    </g>
    <g id="Oregon" transform="translate(303.501 -1021.427)">
      <g id="Group_55" data-name="Group 55" transform="translate(0 0)">
        <path id="Oregon-2" data-name="Oregon" d="M426.967-957.044c-1.431-1.287-1.431-1.573-3.147-4.863a121.749,121.749,0,0,0-21.256-5.714c-7.723-1.287-18.32-.409-25.186-1.124s-8.625-1.6-12.058-3.174a5.593,5.593,0,0,0-6.007.859s-2.431-.429-4.863-1-2.431-.858-3.433-2.289-.859-5.864-1-7.724-2-3.575-4.291-4.147a9.359,9.359,0,0,1-3.721-1.879c0,1.295-4.46,1.87-4.46,1.87l-.276.8-.084.242-.252.727-.079.229-.056.164-.116.332c-.082.239-.171.495-.264.76l-.04.116-.093.268-.083.24-.3.856-.107.308c-.186.535-.383,1.1-.587,1.687-.024.068-.048.137-.072.206-.04.113-.079.226-.119.341l-.1.274q-.2.56-.4,1.141l-.082.236-.185.531q-.077.218-.154.44l-.044.125-.161.46-.145.414-.024.067-.21.6-.1.288-.423,1.2-.1.294-.161.458c-.043.121-.086.243-.129.364l-.128.364q-.263.746-.524,1.483l-.006.017-.513,1.448c-2.733,7.7-10.79,23.594-12.444,26.615s-6.546,9.279-6.905,11.078-.072,5.395-1.223,9.5,1.043,5.646,1.043,5.646l0,.024c4.3,1.278,26.235,7.786,29.3,8.712,3.4,1.028,25.449,7.113,25.449,7.113s25.717,6.453,39.376,9.752c.174-1.166.387-2.415.636-3.511.715-3.147,4-17.163,5.721-22.6a124.288,124.288,0,0,1,4.577-11.728,6.157,6.157,0,0,1-1.859-3c-1.144,0-1.716-.143-1.144-2.575s4.291-6.436,4.291-6.436,1-.143,3.147-4.291a27.976,27.976,0,0,1,6.437-7.581A43.616,43.616,0,0,0,426.967-957.044Z" transform="translate(-310.526 988.101)" fill="#d8374f" stroke="#fff" stroke-miterlimit="10" stroke-width="2"/>
      </g>
    </g>
    <g id="Group_56" data-name="Group 56" transform="translate(949.844 -864.469)">
      <path id="Washington_DC" data-name="Washington DC" d="M1435.726-711.863a3.408,3.408,0,0,1,.2,1.181,3.014,3.014,0,0,0,1.889-1.723s-1.8-2.348-2.237-2.942a5.919,5.919,0,0,0-1.7,1.324,2.431,2.431,0,0,0-.178.192A4.144,4.144,0,0,1,1435.726-711.863Z" transform="translate(-1433.701 715.348)" fill="#1e3c5c" stroke="#fff" stroke-miterlimit="10" stroke-width="2"/>
    </g>
  </g>
</svg>
