<svg id="whatsapp" xmlns="http://www.w3.org/2000/svg" width="43.807" height="43.807" viewBox="0 0 43.807 43.807">
  <g id="Сгруппировать_79" data-name="Сгруппировать 79">
    <path id="Контур_83" data-name="Контур 83" d="M21.909,0H21.9A21.89,21.89,0,0,0,4.17,34.742L1.44,42.879l8.419-2.691A21.9,21.9,0,1,0,21.909,0ZM34.654,30.931c-.528,1.492-2.626,2.73-4.3,3.091-1.144.244-2.639.438-7.672-1.648-6.437-2.667-10.582-9.208-10.905-9.632s-2.6-3.464-2.6-6.607a6.993,6.993,0,0,1,2.24-5.331,3.182,3.182,0,0,1,2.24-.786c.271,0,.515.014.734.025.643.027.967.066,1.391,1.081.528,1.273,1.815,4.416,1.969,4.739a1.3,1.3,0,0,1,.093,1.186,3.785,3.785,0,0,1-.709,1c-.323.372-.63.657-.953,1.057-.3.348-.63.72-.257,1.364a19.442,19.442,0,0,0,3.554,4.416,16.1,16.1,0,0,0,5.136,3.168,1.385,1.385,0,0,0,1.544-.244,26.5,26.5,0,0,0,1.711-2.267,1.222,1.222,0,0,1,1.572-.476c.591.205,3.721,1.752,4.364,2.073s1.068.476,1.224.747A5.455,5.455,0,0,1,34.654,30.931Z" fill="#79899f"/>
  </g>
</svg>
