<svg id="instagram" xmlns="http://www.w3.org/2000/svg" width="43.807" height="43.807" viewBox="0 0 43.807 43.807">
  <path id="Контур_80" data-name="Контур 80" d="M215.385,211.192A4.193,4.193,0,1,1,211.192,207,4.192,4.192,0,0,1,215.385,211.192Zm0,0" transform="translate(-189.289 -189.289)" fill="#79899f"/>
  <path id="Контур_81" data-name="Контур 81" d="M155.6,138.382a4.165,4.165,0,0,0-2.387-2.387,6.959,6.959,0,0,0-2.335-.433c-1.327-.06-1.724-.074-5.083-.074s-3.756.013-5.083.073a6.963,6.963,0,0,0-2.335.433,4.167,4.167,0,0,0-2.387,2.387,6.962,6.962,0,0,0-.433,2.336c-.061,1.326-.074,1.724-.074,5.083s.013,3.756.074,5.083a6.959,6.959,0,0,0,.433,2.335,4.165,4.165,0,0,0,2.387,2.387,6.95,6.95,0,0,0,2.336.433c1.326.06,1.724.073,5.082.073s3.757-.013,5.083-.073a6.951,6.951,0,0,0,2.336-.433,4.165,4.165,0,0,0,2.387-2.387,6.965,6.965,0,0,0,.433-2.335c.06-1.327.073-1.724.073-5.083s-.013-3.756-.073-5.083A6.95,6.95,0,0,0,155.6,138.382Zm-9.8,13.876a6.459,6.459,0,1,1,6.459-6.459A6.459,6.459,0,0,1,145.8,152.258Zm6.714-11.663a1.509,1.509,0,1,1,1.509-1.509A1.509,1.509,0,0,1,152.51,140.595Zm0,0" transform="translate(-123.892 -123.896)" fill="#79899f"/>
  <path id="Контур_82" data-name="Контур 82" d="M21.9,0a21.9,21.9,0,1,0,21.9,21.9A21.906,21.906,0,0,0,21.9,0Zm12.5,27.089a9.228,9.228,0,0,1-.585,3.053,6.431,6.431,0,0,1-3.678,3.678,9.234,9.234,0,0,1-3.053.585c-1.341.061-1.77.076-5.185.076s-3.844-.015-5.186-.076a9.234,9.234,0,0,1-3.053-.585,6.431,6.431,0,0,1-3.678-3.678A9.226,9.226,0,0,1,9.4,27.09c-.062-1.342-.076-1.77-.076-5.186s.014-3.844.076-5.185a9.229,9.229,0,0,1,.584-3.053,6.436,6.436,0,0,1,3.679-3.678A9.236,9.236,0,0,1,16.718,9.4c1.341-.061,1.77-.076,5.185-.076s3.844.015,5.185.076a9.238,9.238,0,0,1,3.053.584,6.433,6.433,0,0,1,3.678,3.679,9.227,9.227,0,0,1,.585,3.053c.061,1.341.076,1.77.076,5.185S34.467,25.748,34.405,27.089Zm0,0" fill="#79899f"/>
</svg>
