<svg xmlns="http://www.w3.org/2000/svg" width="22.952" height="23" viewBox="0 0 22.952 23">
  <g id="phone-call" transform="translate(-0.539)">
    <g id="Сгруппировать_1020" data-name="Сгруппировать 1020" transform="translate(0.539 0)">
      <path id="Контур_84" data-name="Контур 84" d="M22.889,16.88l-3.21-3.21a2.135,2.135,0,0,0-3.554.8A2.184,2.184,0,0,1,13.6,15.848c-2.293-.573-5.388-3.554-5.961-5.961A2.078,2.078,0,0,1,9.018,7.365a2.135,2.135,0,0,0,.8-3.554L6.611.6a2.289,2.289,0,0,0-3.1,0L1.338,2.78c-2.178,2.293.229,8.368,5.617,13.756s11.463,7.91,13.756,5.617l2.178-2.178A2.289,2.289,0,0,0,22.889,16.88Z" transform="translate(-0.539 0)" fill="#1E3C5C"/>
    </g>
  </g>
</svg>
