<svg xmlns="http://www.w3.org/2000/svg" width="43.807" height="43.807" viewBox="0 0 43.807 43.807">
  <path id="twitter" d="M21.9,0a21.9,21.9,0,1,0,21.9,21.9A21.906,21.906,0,0,0,21.9,0Zm10,17.078q.015.323.014.65a14.207,14.207,0,0,1-14.3,14.3h0a14.231,14.231,0,0,1-7.706-2.258,10.225,10.225,0,0,0,1.2.07,10.088,10.088,0,0,0,6.244-2.152,5.033,5.033,0,0,1-4.7-3.492,5.011,5.011,0,0,0,2.271-.086,5.029,5.029,0,0,1-4.033-4.928c0-.023,0-.043,0-.064a4.993,4.993,0,0,0,2.277.629,5.032,5.032,0,0,1-1.556-6.712,14.274,14.274,0,0,0,10.363,5.253,5.03,5.03,0,0,1,8.567-4.585,10.084,10.084,0,0,0,3.193-1.22,5.047,5.047,0,0,1-2.211,2.781,10.027,10.027,0,0,0,2.887-.792A10.217,10.217,0,0,1,31.9,17.078Zm0,0" fill="#1E3C5C"/>
</svg>
