<svg xmlns="http://www.w3.org/2000/svg" width="900.668" height="602.301" viewBox="0 0 900.668 602.301">
  <g id="Сгруппировать_57" data-name="Сгруппировать 57" transform="translate(-292.979 1067.77)" opacity="0.1">
    <path id="Контур_19" data-name="Контур 19" d="M716.319-222.977c2.832.472,8.026,2.242,10.091,4.072s4.131,2.891,5.548,5.725,1.829,3.364,3.127,4.013,2.007,1.122,1.83,2.125a7.614,7.614,0,0,1-4.9,4.9c-3.069.885-4.6.354-5.665.885s-4.19,4.839-5.075,5.666a2.9,2.9,0,0,1-4.309-.059,7.108,7.108,0,0,1-1.593-4.721c0-.767.3-3.954-.648-5.725s-2.243-4.426-2.243-5.666.294-1.589,1.3-2.538c1.063-1,2.951-2.773,2.538-4.544a13.556,13.556,0,0,1-.767-3.069C715.611-222.741,716.016-223.027,716.319-222.977Z" transform="translate(-134.845 -271.82)" fill="#d8374f" stroke="#fff" stroke-miterlimit="10" stroke-width="2"/>
    <path id="Контур_20" data-name="Контур 20" d="M693.156-246.678c.767-.944,1.712-1.18,4.308.178s7.179,3.139,7.791,3.659c.958.813,1.562,2.371-.118,3.364-1.565.925-4.3,1.991-5.666,1.417-2.243-.944-6.492-6.078-6.492-7.023A6.663,6.663,0,0,1,693.156-246.678Z" transform="translate(-128.561 -263.936)" fill="#d8374f" stroke="#fff" stroke-miterlimit="10" stroke-width="2"/>
    <path id="Контур_21" data-name="Контур 21" d="M681.224-244.308a7.5,7.5,0,0,1,3.364.649c1.063.708,1.889,2.006,1.122,3.3s-2.656-.354-3.541-1.594S681.7-244.072,681.224-244.308Z" transform="translate(-124.773 -264.949)" fill="#d8374f" stroke="#fff" stroke-miterlimit="10" stroke-width="2"/>
    <path id="Контур_22" data-name="Контур 22" d="M675.652-250.88a58.477,58.477,0,0,0,6.2,1.535c1.417.118,4.19-.118,4.545-1.829C684.327-251.529,677.835-252.3,675.652-250.88Z" transform="translate(-122.978 -262.566)" fill="#d8374f" stroke="#fff" stroke-miterlimit="10" stroke-width="2"/>
    <path id="Контур_23" data-name="Контур 23" d="M650.708-268.545s1.921,4.067,3.163,5.31,3.389,2.146,3.276,3.05-2.033,1.017-3.276.79a8.476,8.476,0,0,1-2.936-1.694s-1.13,1.469-2.26.791-3.5-3.728-3.389-5.083C647.884-267.076,650.708-268.545,650.708-268.545Z" transform="translate(-113.193 -257.14)" fill="#d8374f" stroke="#fff" stroke-miterlimit="10" stroke-width="2"/>
    <path id="Контур_24" data-name="Контур 24" d="M607.253-285.542c1.139.38,1.242,5.422.565,6.665s-2.6.226-3.615-.226-4.745-1.355-3.389-4.18S605.22-286.22,607.253-285.542Z" transform="translate(-98.771 -251.552)" fill="#d8374f" stroke="#fff" stroke-miterlimit="10" stroke-width="2"/>
    <path id="Контур_25" data-name="Контур 25" d="M588.317-278.545s2.147,1.017.678,2.485a3.332,3.332,0,0,1-2.711,1.242S586.058-277.641,588.317-278.545Z" transform="translate(-94.181 -253.918)" fill="#d8374f" stroke="#fff" stroke-miterlimit="10" stroke-width="2"/>
    <path id="Контур_26" data-name="Контур 26" d="M696.309-232.808s-.289-.494-1.4,0-2.305.823-2.182,1.235,1.852,1.152,2.716,1.111,1.729-.823,1.606-1.358A2.128,2.128,0,0,0,696.309-232.808Z" transform="translate(-128.477 -268.584)" fill="#d8374f" stroke="#fff" stroke-miterlimit="10" stroke-width="2"/>
    <g id="Michigan" transform="translate(837.068 -999.891)">
      <path id="Michigan-2" data-name="Michigan" d="M1244.228-815.122a2.015,2.015,0,0,1-.631-2.084c.08-.8,2.438-4.475,3.836-6.512a5.206,5.206,0,0,1,2-7.111c.959-5.832,5.234-7.591,5.234-7.591s.319-4.514.519-7.51c-1.518-1.159-2.717-7.191-3.6-10.667s-2.556-7.83-5.953-8.67-5.433,1.518-6.193,2-1.557,8.99-6.312,7.311-3.556-5.633-3.2-6.432,1.718-1.238,3.037-1.518a7.525,7.525,0,0,1,4.234-6.871s.04-6.112.04-9.109-1.6-4.195-2.677-5.313a2.087,2.087,0,0,1-.719-2.077s1.159-.679,2.357-1.438c-2.077-.6-2.677-3.037-3.515-4.914a19.183,19.183,0,0,1-11.466-3.317,2.762,2.762,0,0,0-2.278-.519c-4.275.559-5.912-2.117-5.912-2.117s-.24.16-3.116,1.718-2.637,2.2-2.556,3.116,3.355,3.875,3.355,3.875a13.678,13.678,0,0,1-4.554,1.957c-2.517.52-1.718,3.037-1.558,4.754a34.257,34.257,0,0,0,1.438,5.394s-3.916,2.037-4.834,1.957-1-1.4-1.039-2.517,1.558-5.353,1.877-6.312c-.519-.559-1.877-.08-1.877-.08s-.719,2.517-1.239,4.036c-2.4.519-4.315,3.316-4.315,3.316a3.679,3.679,0,0,1,.4,2.836c-.4,1.718-2.957,1.479-2.957,1.479a19.127,19.127,0,0,1,.679,4.315c0,1.918-.879,4.195-1.638,7.031s.12,6.313.12,7.591-2.277,5.513.6,9.668,5.553,8.15,6.112,11.865-.279,8.031-2.157,13.224a54.28,54.28,0,0,1-5.594,10.547s7.415-.254,12.493-.834c5.759-.658,19.25-2.139,19.25-2.139C1231.3-813.8,1238.4-814.337,1244.228-815.122Z" transform="translate(-1125.832 946.077)" fill="#1e3c5c" stroke="#fff" stroke-miterlimit="10" stroke-width="2"/>
      <path id="Контур_27" data-name="Контур 27" d="M1189.584-924.248c-.441-.617-.661-1.587-.793-4.717s-.177-2.16-.573-2.865a31.468,31.468,0,0,1-7.274,2.468c-2.777.618-5.025-.264-5.511-.926s-.22-3.174-.44-4.452-1.058-.882-1.94-.705-5.291,3.218-6.172,3.659-5.29.264-7.053.441-6.3,3.836-7.8,4.717-2.866,1.323-4.056.309a3.508,3.508,0,0,0-3.616-.75c-1.5.353-3.129.53-4.143-.088s-2.425-3.7-5.643-6.04a8.423,8.423,0,0,0-6.48-1.9c-1.279.044-3.218,3.13-4.232,3.35s-.838-.926-.75-1.675a21.193,21.193,0,0,1,2.2-4.673c.838-1.367,2.38-2.91,2.821-3.924s1.588-2.557,2.557-2.689,1.586-.661,1.542-1.278-.484-.75-2.469-.661-6.128,3.35-8.288,5.07-4.585,5.555-5.29,6.392a22.227,22.227,0,0,1-5.377,3.7,10.456,10.456,0,0,1-5.864,1.146c-1.454,0-1.939,2.072-3.306,3.526s-3.835,1.279-5.114,1.587a2.5,2.5,0,0,0-1.281,1.252,3.079,3.079,0,0,0,.749-.258,35.454,35.454,0,0,1,3.715,4.474,25.289,25.289,0,0,1,12.425,2.357,47.745,47.745,0,0,0,14.9,3.556c2.517.239,4.674,1.119,4.714,3.2.839.04,2.916.36,3.476,1.039-.04,1.4-1,8.59.679,8.43a2.883,2.883,0,0,0,1.267-.279c-.046.751-.117,3.971,1.89,5.273-.112.281-.313.711-.562,1.223.351-.062.548-.1.548-.1a27.435,27.435,0,0,1,1.254-2.7c.793-1.5,4.541-11.329,5.025-12.652s.794-2.909,2.47-2.909a33.136,33.136,0,0,0,4.981-.309c1.19-.221,1.72.044,3.572.529,2.38-5.687,6.744-4.894,8.64-4.849s3.263-1.631,3.7-2.248c.484-.22,10.536.133,12.255.221s10.932-1.279,10.932-1.852S1190.025-923.631,1189.584-924.248Z" transform="translate(-1095.241 961.247)" fill="#1e3c5c" stroke="#fff" stroke-miterlimit="10" stroke-width="2"/>
      <path id="Контур_28" data-name="Контур 28" d="M1243.4-912.828s.4,3.585,2.383,3.63a2.587,2.587,0,0,0,2.533-1.416C1248.67-911.522,1247.317-913.006,1243.4-912.828Z" transform="translate(-1142.978 950.348)" fill="#1e3c5c" stroke="#fff" stroke-miterlimit="10" stroke-width="2"/>
      <path id="Контур_29" data-name="Контур 29" d="M1129.441-968.178a59.091,59.091,0,0,1-6.506,3.926c-1.906.785-4.487,1.795-3.589,3.141s2.356,1.682,4.487-.224S1130.563-967.505,1129.441-968.178Z" transform="translate(-1102.948 968.178)" fill="#1e3c5c" stroke="#fff" stroke-miterlimit="10" stroke-width="2"/>
    </g>
    <g id="Maine" transform="translate(1130.239 -1036.82)">
      <path id="Maine-2" data-name="Maine" d="M1589.426-979.835c-1.1-1.779-3.84-2.592-3.84-2.592-1.053,1.579-2.5,1.71-4.211.263s-1.447-5.657-1.841-6.577-5.261-.526-6.051-1.184-8.287-27.1-9.077-28.546-6.315-3.289-7.893-4.078-3.683,2.763-5,3.947-1.71,1.052-3.552,1.447-2.894-1.842-4.868-3.815c-1.973,2.763-5.393,13.287-6.314,16.839s-.264,6.314-.526,7.893-1.053,1.315-1.579,4.866,1.841,5,1.973,6.446,0,2.237-2.631,6.578-1.578,10.655-1.578,10.655a13.484,13.484,0,0,0-3.42-.657,1.644,1.644,0,0,0-1.24.778c1.335,4.1,3.107,9.756,4.242,14.192,2.02,7.9,5.692,22.217,6.61,23.686s3.5,1.955,4.417,3.057c.886,1.063.16,3.358,3.537,3.265v0c.229-.179.479-.334.479-.334s.169-5.083.466-6.439,1.1-4.067,1.525-5.465a8.53,8.53,0,0,0,.381-2.626c.042-.593-.805-1.483-.805-1.483a.856.856,0,0,1,.169-.424c.17-.254,3.05-2.881,3.05-2.881a2.761,2.761,0,0,0,1.949,1.017c1.44.212,3.093-1.186,4.872-2.583s2.118-3.9,2.457-4.109,1.991-.678,2.753-1.779.678-6.142.635-7.667a2.155,2.155,0,0,1-1.059-1.271,5.532,5.532,0,0,1,2.542-1.737c.212,1.144.424,2.712,1.822,2.457,1.33-.242,1.567,2.839,1.61,3.771a2.639,2.639,0,0,0,1.525-2.8,13.684,13.684,0,0,1-.423-2.626c-.085-1.186,2.519-2.933,3.77-3.559.254-.127,1.906-.932,2.415.678s1.61.678,2.16.678,2.584-3.177,4.237-4.872a23.63,23.63,0,0,1,4.236-3.558,6.347,6.347,0,0,0,2.415-3.6A6.081,6.081,0,0,0,1589.426-979.835Z" transform="translate(-1527.779 1022.663)" fill="#167a91" stroke="#fff" stroke-miterlimit="10" stroke-width="2"/>
      <path id="Контур_30" data-name="Контур 30" d="M1585.971-922.433s2.587,2.4.327,3.955C1584.179-919.113,1584.181-922.234,1585.971-922.433Z" transform="translate(-1546.109 990.368)" fill="#38b4d6" stroke="#fff" stroke-miterlimit="10" stroke-width="2"/>
      <path id="Контур_31" data-name="Контур 31" d="M1597.355-932.646s2.261,3.037-.777,3.885c-1.412-.071-1.8-.774-1.239-2.327A2.26,2.26,0,0,1,1597.355-932.646Z" transform="translate(-1549.467 993.659)" fill="#38b4d6" stroke="#fff" stroke-miterlimit="10" stroke-width="2"/>
    </g>
    <g id="New_Hampshire" data-name="New Hampshire" transform="translate(1121.002 -981.73)">
      <g id="Сгруппировать_18" data-name="Сгруппировать 18" transform="translate(0 0)">
        <path id="New_Hampshire-2" data-name="New Hampshire" d="M1541.163-892.547c-.019-.047-.042-.1-.059-.141-.593-1.652.594-3.982.805-4.236a1.952,1.952,0,0,1,.285-.26c-3.377.093-2.652-2.2-3.537-3.266-.918-1.1-3.5-1.587-4.417-3.056s-4.59-15.79-6.61-23.686c-1.135-4.436-2.907-10.09-4.243-14.192a7.3,7.3,0,0,0-1,2.116,2.666,2.666,0,0,0-1.973-1.973c-1.71,2.1-2.1,7.1-2.1,7.1s-.4,3.966.392,5.421,2.116,3.042.529,6.084a13.482,13.482,0,0,1-4.5,4.893c-.529.4-.793,0-.4,3.836a139.287,139.287,0,0,1,.132,14.812c-.132,3.306-.528,7.67.265,11.506a36.633,36.633,0,0,0,1.095,3.929h0a56.9,56.9,0,0,1,6.564-1.657c2.976-.3,7.142-.3,10.265-1.636a66.277,66.277,0,0,0,8.5-5.6Z" transform="translate(-1514.15 941.385)" fill="#167a91" stroke="#fff" stroke-miterlimit="10" stroke-width="2"/>
      </g>
    </g>
    <g id="Vermont" transform="translate(1098.276 -974.484)">
      <g id="Сгруппировать_19" data-name="Сгруппировать 19" transform="translate(0 0)">
        <path id="Vermont-2" data-name="Vermont" d="M1489.751-926.09c-1.785.4-5.259,1.461-9.13,2.524h0c.534,2.248,1.029,4.446,1.618,6.274,1.247,3.88,2.078,9.283,1.939,10.808s-.97,2.633.139,4.433,1.523,4.988,1.385,7.343a6.1,6.1,0,0,1,4.433,4.157,85.5,85.5,0,0,1,2.633,13.994c0,.03,0,.067,0,.1,2.848-.9,8-2.521,12.259-3.756a36.577,36.577,0,0,1-1.094-3.929c-.794-3.836-.4-8.2-.265-11.506a139.286,139.286,0,0,0-.132-14.812c-.4-3.836-.133-3.438.4-3.836a13.487,13.487,0,0,0,4.5-4.893c1.586-3.042.264-4.629-.53-6.084s-.392-5.421-.392-5.421S1493.829-927.011,1489.751-926.09Z" transform="translate(-1480.621 930.694)" fill="#1e3c5c" stroke="#fff" stroke-miterlimit="10" stroke-width="2"/>
      </g>
    </g>
    <g id="Massachusets" transform="translate(1110.155 -932.893)">
      <path id="Massachusets-2" data-name="Massachusets" d="M1540.905-841.216c.085-.593,1.44-4.364,3.007-4.109s1.483,3.728,1.483,3.728a34.133,34.133,0,0,1,6.142-4.236,10.792,10.792,0,0,1,4.7-.8,10.091,10.091,0,0,0,.084-2.457c-.084-1.737-.551-2.839-2.33-4.745a2.927,2.927,0,0,0-3.6-.847s2.711,1.525,3.092,2.626-.678,2.414-1.99,3.6-4.66.042-5.338-.381-2.372-4.533-3.3-5.761-2.415-1.059-3.771-1.186-2.118-1.144-2.838-2.2-.3-2.372.042-3.473a18.843,18.843,0,0,1,2.627-3.728,19.754,19.754,0,0,1-2.908-4.139,66.337,66.337,0,0,1-8.5,5.6c-3.124,1.339-7.29,1.339-10.265,1.636-2.338.234-13.952,3.866-18.82,5.411-.018,2.333-.681,10.054.139,13.062.252.92.6,2.131.975,3.452-.178-.635-.353-1.246-.513-1.81a94.532,94.532,0,0,0,9.888-1.221c4.463-.892,15.77-3.57,15.77-3.57l7.289-1.934s.6.892,2.083,2.678a83.722,83.722,0,0,1,5.638,6.875c.49-.323.855-.561.964-.622C1541.032-839.988,1540.82-840.623,1540.905-841.216Z" transform="translate(-1498.148 869.332)" fill="#167a91" stroke="#fff" stroke-miterlimit="10" stroke-width="2"/>
      <path id="Контур_32" data-name="Контур 32" d="M1571.043-825.2a3.517,3.517,0,0,0-2.125.057c-.689.431-1.264,1.264-.976,1.464A2.757,2.757,0,0,0,1571.043-825.2Z" transform="translate(-1520.612 855.16)" fill="#1e3c5c" stroke="#fff" stroke-miterlimit="10" stroke-width="2"/>
      <path id="Контур_33" data-name="Контур 33" d="M1579.077-825.089l2.872-2.412s1.751.459,1.723,1.436S1579.077-825.089,1579.077-825.089Z" transform="translate(-1524.224 855.854)" fill="#1e3c5c" stroke="#fff" stroke-miterlimit="10" stroke-width="2"/>
    </g>
    <path id="Delaware" d="M1467.241-747.416c-2.133-1.524-5.079,1.219-5.079,1.219s3.149,10.769,3.758,14.02,3.048,14.63,3.048,14.63,2.336-.305,4.774-.61,3.946-.407,5.579-3.861c0,0-4.321-5-5.718-7.964a48.735,48.735,0,0,0-2.923-5.3c-1.059-1.356-3.9-3.262-4.237-4.278s-.848-3.643.254-3.982A8.141,8.141,0,0,1,1467.241-747.416Z" transform="translate(-376.398 -102.695)" fill="#1e3c5c" stroke="#fff" stroke-miterlimit="10" stroke-width="2"/>
    <g id="Rhode_Island" data-name="Rhode Island" transform="translate(1136.684 -912.269)">
      <g id="Сгруппировать_20" data-name="Сгруппировать 20" transform="translate(0)">
        <path id="Rhode_Island-2" data-name="Rhode Island" d="M1546.66-836.225c-1.487-1.786-2.083-2.678-2.083-2.678l-7.289,1.934s3.239,4.089,3,14.728c2.9-1.265,5.523-2.481,5.771-2.6.508-.254.593-.889,1.99-1.736,1-.6,3.026-1.961,4.247-2.768A83.632,83.632,0,0,0,1546.66-836.225Z" transform="translate(-1537.288 838.903)" fill="#d8374f" stroke="#fff" stroke-miterlimit="10" stroke-width="2"/>
      </g>
    </g>
    <g id="New_York" data-name="New York" transform="translate(1011.465 -967.357)">
      <g id="Сгруппировать_21" data-name="Сгруппировать 21" transform="translate(0 0)">
        <path id="New_York-2" data-name="New York" d="M1472.089-839.681c-1.355.72-7.371,4.533-8.643,4.744a36.309,36.309,0,0,1-5.125-.084s-3.559,4.236-4.406,4.7-.551-2.8-.551-2.8l1.665-1.776a3.236,3.236,0,0,1-1.171-2.256c0-.831,2.494-1.94,2.494-1.94a7.221,7.221,0,0,1-1.662-1.8c-.416-.831,0-4.018-.139-6.927s-2.077-9.145-2.909-12.193-.139-10.946-.139-13.162a85.424,85.424,0,0,0-2.632-13.993,6.1,6.1,0,0,0-4.433-4.157c.138-2.355-.277-5.542-1.386-7.343s-.277-2.91-.139-4.433-.693-6.928-1.94-10.808c-.588-1.828-1.083-4.026-1.616-6.274-4.975,1.365-10.606,2.738-14.158,2.738-6.315,0-8.035,2.35-8.035,2.35-4.115,1.878-6.352,5.832-7.95,8.35a141.545,141.545,0,0,1-8.909,11.306c-2.6,3-.8,4.714-.8,4.714a4.7,4.7,0,0,1,2.4.919,10.251,10.251,0,0,1-.28,4.554s1.6,1.878,1.278,3.556-.958,1.8-3.4,2.637a23.9,23.9,0,0,1-6.831,6.592c-1.558.8-4.355.36-5.833.36s-3.275,2.157-4.195,2.237-2.117-1.238-7.99-.759-10.667,3.077-13.7,4.795c-.759,2.516,1.319,3.995,2.2,4.714a24.923,24.923,0,0,1,2.717,3.516s-5.274,6.831-9.509,11.386c-1.371,1.475-2.629,2.71-3.815,3.806l.41,5.848s13.782-1.129,23.949-2.937,31.631-7.23,36.6-8.586,7-1.129,11.748-.9,5.627,8.216,6.327,8.359c4.031.827,5.2,2.486,5.2,2.486a74.535,74.535,0,0,0,7.679,2.763c2.912.755,6.363,1.4,6.147,3.99s-.415,2.022.817,4.246c0,0,2.626.3,4.151.3s8.769-3.177,10.336-3.728,4.066-3.728,4.066-3.728,6.609-4.448,8.05-6.269C1475.943-841.8,1473.444-840.4,1472.089-839.681Z" transform="translate(-1352.542 920.178)" fill="#d8374f" stroke="#fff" stroke-miterlimit="10" stroke-width="2"/>
      </g>
    </g>
    <g id="Connecticut" transform="translate(1111.026 -910.335)">
      <g id="Сгруппировать_22" data-name="Сгруппировать 22" transform="translate(0 0)">
        <path id="Connecticut-2" data-name="Connecticut" d="M1509.321-832.479a94.613,94.613,0,0,1-9.888,1.22c.934,3.278,2.332,8.1,2.448,10.551.139,2.909-.277,6.1.139,6.927a7.234,7.234,0,0,0,1.662,1.8s-2.494,1.108-2.494,1.94a3.236,3.236,0,0,0,1.17,2.256l.876-.936s6.44-5.719,8.3-7.075,6.523-2.118,8.938-2.584a58.986,58.986,0,0,0,7.616-2.945c.237-10.639-3-14.728-3-14.728S1513.784-833.372,1509.321-832.479Z" transform="translate(-1499.433 836.05)" fill="#167a91" stroke="#fff" stroke-miterlimit="10" stroke-width="2"/>
      </g>
    </g>
    <g id="New_Jersey" data-name="New Jersey" transform="translate(1089.595 -885.32)">
      <g id="Сгруппировать_23" data-name="Сгруппировать 23" transform="translate(0 0)">
        <path id="New_Jersey-2" data-name="New Jersey" d="M1485-783.144l3.559-5c-1.232-2.225-1.032-1.658-.817-4.246s-3.236-3.236-6.148-3.99a74.556,74.556,0,0,1-7.678-2.763l-3.163,1.807c.678,3.841,0,4.519-2.26,7.682,2.033,3.163-.678,4.519-.678,4.519s.452,2.034.678,3.389,2.033,1.581,3.164,2.937,3.389,2.711,7.682,5.648c-3.163,1.13-10.274,9.227-10.274,9.227a8.139,8.139,0,0,0-.542,3.878c-.043,2.8,3.77,4.406,4.787,5.21a11.729,11.729,0,0,0,5,1.779c1.525.127,2.542.212,3.093,1.1-.169,2.2-.3,4.533-.3,4.533a5.751,5.751,0,0,0,2.161-.848c.466-.508.635-4.829.847-5.973s4.024-7.328,4.575-8.133,1.356-4.363,1.736-6.227.17-4.872.254-8.007-.042-4.49-1.144-5.677S1485-783.144,1485-783.144Z" transform="translate(-1467.814 799.143)" fill="#d8374f" stroke="#fff" stroke-miterlimit="10" stroke-width="2"/>
      </g>
    </g>
    <g id="Pensilvania" transform="translate(1001.29 -896.336)">
      <g id="Сгруппировать_24" data-name="Сгруппировать 24" transform="translate(0 0)">
        <path id="Pensilvania-2" data-name="Pensilvania" d="M1386.549-759.012c5.282-1.015,25.906-4.774,28.141-5.485a41,41,0,0,0,4.977-1.626,9.629,9.629,0,0,0,2.337-1.829s2.946-2.743,5.079-1.219c0,0,7.112-8.1,10.274-9.227-4.292-2.937-6.551-4.292-7.681-5.648s-2.937-1.581-3.163-2.937-.678-3.389-.678-3.389,2.711-1.355.678-4.519c2.26-3.163,2.937-3.841,2.26-7.681l3.163-1.808s-1.165-1.658-5.2-2.485c-.7-.144-1.582-8.134-6.327-8.359s-6.778-.452-11.748.9-26.433,6.778-36.6,8.585-23.948,2.937-23.948,2.937l-.411-5.848c-2.472,2.285-4.624,3.957-6.812,5.9a31.35,31.35,0,0,1-3.364,2.506h0c.767,5.273,2.2,14.856,2.784,17.209.823,3.291,1.81,11.846,1.81,11.846l2.586,19.556,16.811-2.974S1381.266-758,1386.549-759.012Z" transform="translate(-1337.53 815.395)" fill="#1e3c5c" stroke="#fff" stroke-miterlimit="10" stroke-width="2"/>
      </g>
    </g>
    <g id="Maryland" transform="translate(1025.279 -848.893)">
      <path id="Контур_34" data-name="Контур 34" d="M1435.056-711.935l-.045-.029Z" transform="translate(-1392.929 734.626)" fill="#1e3c5c" stroke="#fff" stroke-miterlimit="10" stroke-width="2"/>
      <path id="Контур_35" data-name="Контур 35" d="M1485.5-691.422h-.005c-.084.3-.164.6-.257.885C1485.335-690.826,1485.422-691.121,1485.5-691.422Z" transform="translate(-1409.113 728.008)" fill="#1e3c5c" stroke="#fff" stroke-miterlimit="10" stroke-width="2"/>
      <path id="Контур_36" data-name="Контур 36" d="M1435.59-711.523q-.083-.072-.17-.141Q1435.507-711.594,1435.59-711.523Z" transform="translate(-1393.061 734.529)" fill="#1e3c5c" stroke="#fff" stroke-miterlimit="10" stroke-width="2"/>
      <path id="Контур_37" data-name="Контур 37" d="M1450.57-721.22c-1.633,3.453-3.142,3.556-5.58,3.86s-4.775.61-4.775.61-2.438-11.379-3.047-14.63-3.759-14.02-3.759-14.02a9.63,9.63,0,0,1-2.337,1.829,40.937,40.937,0,0,1-4.978,1.626c-2.235.711-22.859,4.47-28.141,5.485s-25.029,4.411-25.029,4.411,1.035,6.078,1.423,10.474c1.552-.517,4.267-3.491,6.465-5.948,2.328,0,2.716-2.2,3.363-2.974s5.818-2.069,10.733-2.716a11.236,11.236,0,0,1,8.018,1.811s-.062.965-.16,2.163l0-.039c1.395-.189,3.629-.3,4.553.72,1.293,1.423.389,3.363,1.94,3.88a24.084,24.084,0,0,1,4.857,1.432c.209-.162.209-.226.209-.226a6.969,6.969,0,0,1,2-1.559c.519.7,2.634,3.465,2.634,3.465a3.551,3.551,0,0,1-2.224,2.029c0,2.311-1.83,4.383-2.046,5.463-.259,1.294,1.293,4.268,2.974,4.785a17.644,17.644,0,0,0,3.334.649,13.577,13.577,0,0,1,1.271-.55c.593-.212,4.278,1.1,5.634.8s1.06-1.736.509-3.982-1.441-3.135-3.007-5.973-.551-3.473-.339-6.227-.763-1.991-.3-6.057,5.38-5.55,6.354-5.253c-3.346,1.991-3.177,6.566-3.177,6.566s2.118,0,2.542,1.779-.17,3.9-1.017,5.973c2.583.212,3.007,2.965,3.007,2.965a2.49,2.49,0,0,1-1.737.127c-.467,1.779,2.372,9.743,7.71,5.8,1.448,2.567,3.233,5.255,4.061,6.4a7.872,7.872,0,0,1,6.792-2.552c.391-1.428.674-2.957.924-4.229A57.889,57.889,0,0,0,1450.57-721.22Z" transform="translate(-1372.924 745.399)" fill="#d8374f" stroke="#fff" stroke-miterlimit="10" stroke-width="2"/>
      <path id="Контур_38" data-name="Контур 38" d="M1436.7-710.284a3.126,3.126,0,0,0-.2-.3A3.336,3.336,0,0,1,1436.7-710.284Z" transform="translate(-1393.409 734.181)" fill="#1e3c5c" stroke="#fff" stroke-miterlimit="10" stroke-width="2"/>
      <path id="Контур_39" data-name="Контур 39" d="M1437.5-708.137c-.01-.074-.02-.147-.033-.221C1437.481-708.285,1437.491-708.211,1437.5-708.137Z" transform="translate(-1393.72 733.464)" fill="#1e3c5c" stroke="#fff" stroke-miterlimit="10" stroke-width="2"/>
      <path id="Контур_40" data-name="Контур 40" d="M1437.22-709.293a3.906,3.906,0,0,1,.13.45A3.676,3.676,0,0,0,1437.22-709.293Z" transform="translate(-1393.641 733.765)" fill="#1e3c5c" stroke="#fff" stroke-miterlimit="10" stroke-width="2"/>
      <path id="Контур_41" data-name="Контур 41" d="M1437.121-709.507a3.314,3.314,0,0,0-.208-.448A3.314,3.314,0,0,1,1437.121-709.507Z" transform="translate(-1393.542 733.979)" fill="#1e3c5c" stroke="#fff" stroke-miterlimit="10" stroke-width="2"/>
      <path id="Контур_42" data-name="Контур 42" d="M1435.932-711.223a3.642,3.642,0,0,1,.3.321A3.826,3.826,0,0,0,1435.932-711.223Z" transform="translate(-1393.225 734.387)" fill="#1e3c5c" stroke="#fff" stroke-miterlimit="10" stroke-width="2"/>
    </g>
    <g id="North_Carolina" data-name="North Carolina" transform="translate(958.117 -779.237)">
      <path id="Контур_43" data-name="Контур 43" d="M1494.42-617.567s.991,4.734.827,6.277-.5,3.2-2.039,4.243-3.967,2.369-4.518,3.086a1.61,1.61,0,0,0-.441,1.213s4.593-2.263,6.558-4.353a9.2,9.2,0,0,0,2.149-6.117C1497.013-614.507,1496.182-616.019,1494.42-617.567Z" transform="translate(-1342.917 634.555)" fill="#1e3c5c" stroke="#fff" stroke-miterlimit="10" stroke-width="2"/>
      <path id="Контур_44" data-name="Контур 44" d="M1420.463-622.7c.918-1.525-.635-4.533-.635-4.533s2.994.071,3.333-.607c.123-.247-.268-.859-.906-1.643-.246-.249-.52-.517-.825-.817-1.56.1-1.97,1.173-5.071,1.718-.62.109-3.159-.77-4.611.126-3.395,2.1-4.73-.3-4.191-.5,2.18-.839,3.823-3.157,6.453-4.4,2-.946,3.017.264,4.315-.518-.084-.1-.169-.193-.247-.286-1.921-2.259-4.493-8.464-4.493-8.464s-10.222,2.5-14.811,3.338-38.175,7.51-53.4,9.8-30.713,4.8-30.713,4.8.646,2.905,0,4.2-3.55,3.39-4.035,7.263c-2.421.322-4.519-.161-8.231,3.066-2.421-.807-4.519-.323-5.487,1.13s-1.453,5.326-1.453,5.326a6.764,6.764,0,0,0-4.358,1.452c-1.936,1.615-3.389,4.035-5.81,4.358s-6.617.969-6.939,6.295c-3.067,1.936-4.2,1.775-4.2,1.775a19.942,19.942,0,0,0-.145,5.88c4.77-.534,9.03-.96,11.055-1.036a79.656,79.656,0,0,0,9.87-.9s8.419-5.152,11.379-6.015a35.843,35.843,0,0,1,10.606-1.85c5.55-.247,13.073-1.48,15.663-.247s3.577,3.947,3.947,5.427a97.128,97.128,0,0,1,10.976-1.85c3.207-.37,9.744-1.233,9.744-1.233s20.4,12.783,22.925,14.911h0c.5-.194,1.04-.371,1.6-.534a37.7,37.7,0,0,1,7.943-1.5s1.44-7.032,4.025-11.183c.232-.373.467-.727.7-1.073.165-.29.328-.553.485-.776a18.542,18.542,0,0,1,3.043-3.341,17.079,17.079,0,0,1,4.413-2.9,26.14,26.14,0,0,1,6.094-1.6c2.258-.495,4.213-.971,4.976-1.871a31.355,31.355,0,0,0,2.548-4.143c.386-.786.784-1.574,1.209-2.3a13.227,13.227,0,0,1-2.378,2.222,15.966,15.966,0,0,1-1.562,1.124,5.074,5.074,0,0,0-1.115-1.618,7.034,7.034,0,0,0-3.968-.626L1410-614.1c-1.751-.381-2.541-1.087-2.994-3.12,1.243,2.033,5.649,2.486,8.02,1.356s1.921-4.632,2.937-5.437S1419.546-621.176,1420.463-622.7Z" transform="translate(-1273.834 642.631)" fill="#1e3c5c" stroke="#fff" stroke-miterlimit="10" stroke-width="2"/>
    </g>
    <g id="Virginia" transform="translate(967.436 -832.971)">
      <path id="Virginia-2" data-name="Virginia" d="M1414.007-675.525a12.792,12.792,0,0,1-5.3,1.017c1.652-3.643-.8-5.677-1.906-7.117a5.571,5.571,0,0,1-1.4-3.008c.085-.3,2.585.128,2.585.128s-2.372-4.406-1.779-6.821a11.373,11.373,0,0,0,.508-3.177c-.7-1.6-1.652-1.694-3.05-2.076a9.344,9.344,0,0,1-3.389-1.779c-1.314-.932-3.008-1.017-4.575-1.482a4.714,4.714,0,0,1-2.2-1.229,17.607,17.607,0,0,1-3.334-.65c-1.681-.517-3.233-3.491-2.974-4.784s2.844-4.009,1.81-6.854-5.69-3.233-7.241-3.75-.646-2.457-1.94-3.88c-.923-1.015-3.159-.909-4.553-.72a24.7,24.7,0,0,1-.619,4.6c-.388.647-6.207-3.491-8.147-4.784-1.423-.259-1.164,2.715-1.164,4.268a6.044,6.044,0,0,1-1.552,4.267,87.26,87.26,0,0,0-5.561,7.5c-3.1-.905-2.974,3.621-3.1,5.689s-.259,3.1-3.233,3.233-4.01-3.1-4.01-3.1a20.452,20.452,0,0,1-1.939,5.044c-1.164,1.81-6.206,14.1-6.336,15.776s.647,3.491-.776,4.914-4.138,1.81-7.888,2.844c-.776,2.328-1.035,3.363-3.1,4.656s-5.431-.517-5.431-.517a7.655,7.655,0,0,1-5.69,2.457c-3.491-.13-4.591-4.365-4.591-4.365a76.782,76.782,0,0,1-7.242,6.574,27.838,27.838,0,0,0-5.237,4.456,5.835,5.835,0,0,0-1,3.566c.111.779-.445,1.225-1.783,2.117a100.328,100.328,0,0,1-9.28,6.463c3.057-.348,5.347-.626,6.487-.792,6.618-.969,25.017-3.39,25.017-3.39s15.484-2.5,30.713-4.8,48.814-8.97,53.4-9.8,14.811-3.337,14.811-3.337-.948-2.758-1.213-3.792C1416.336-673.789,1416.21-676.415,1414.007-675.525Z" transform="translate(-1287.583 721.908)" fill="#1e3c5c" stroke="#fff" stroke-miterlimit="10" stroke-width="2"/>
      <path id="virginia-3" data-name="virginia" d="M1477.669-683.5c.085-2.033,1.186-2.965,2.414-4.744a10.909,10.909,0,0,0,1.329-3.225,7.866,7.866,0,0,0-6.8,2.551c.175.24.309.417.386.5.932,1.06-2.457,7.541-2.457,12.116,0,2.034.085,5.761,2.161,5.761,1.02,0,2.16-2.372,2.5-3.728S1477.585-681.462,1477.669-683.5Z" transform="translate(-1347.178 712.129)" fill="#1e3c5c" stroke="#fff" stroke-miterlimit="10" stroke-width="2"/>
    </g>
    <g id="West_Virginia" data-name="West Virginia" transform="translate(978.833 -852.124)">
      <g id="Сгруппировать_25" data-name="Сгруппировать 25" transform="translate(0 0)">
        <path id="West_Virginia-2" data-name="West Virginia" d="M1372.828-734.747c-4.914.647-10.086,1.94-10.733,2.716s-1.034,2.974-3.363,2.974c-2.2,2.457-4.914,5.431-6.465,5.948-.387-4.4-1.422-10.475-1.422-10.475l-16.811,2.974-2.585-19.556s-2.3.823-2.468,1.81.329,3.127.494,7.4.493,10.859-4.443,17.111-5.265,2.139-5.265,2.139-2.962,2.3-3.619,5.264-1.317,7.733-1.317,7.733l-3.126-2.8a10.928,10.928,0,0,0-2.632,5.265c-.329,2.8.494,5.1-1.315,7.075s-3.359,1.663-3.359,1.663c.112,4.011,0,4.9.557,6.128s2.674,1.337,3.454,2.674,2.34,5.349,4.569,7.131a52.891,52.891,0,0,0,4.568,3.232s1.1,4.235,4.591,4.365a7.654,7.654,0,0,0,5.69-2.457s3.362,1.81,5.432.517,2.327-2.328,3.1-4.656c3.75-1.034,6.466-1.422,7.889-2.844s.646-3.233.776-4.914,5.172-13.966,6.336-15.776a20.447,20.447,0,0,0,1.939-5.044s1.035,3.233,4.01,3.1,3.1-1.164,3.233-3.233,0-6.595,3.1-5.689a87.357,87.357,0,0,1,5.56-7.5,6.042,6.042,0,0,0,1.552-4.267c0-1.552-.259-4.526,1.164-4.267,1.939,1.293,7.759,5.431,8.147,4.784s.776-6.724.776-6.724A11.236,11.236,0,0,0,1372.828-734.747Z" transform="translate(-1304.398 750.166)" fill="#1e3c5c" stroke="#fff" stroke-miterlimit="10" stroke-width="2"/>
      </g>
    </g>
    <g id="Ohio" transform="translate(933.161 -881.179)">
      <g id="Сгруппировать_26" data-name="Сгруппировать 26" transform="translate(0 0)">
        <path id="Ohio-2" data-name="Ohio" d="M1307.269-762.168c.165-.987,2.468-1.81,2.468-1.81s-.987-8.555-1.81-11.846c-.588-2.353-2.017-11.936-2.783-17.209-3.45,2.291-7.828,4.677-10.38,6.243-3.516,2.157-7.871,7.591-8.43,8.03-.879-.359-4.235.32-5.313.479s-6.232,2.477-7.431,2.237-2.157-2.357-5.353-2.2-5.552-.08-7.75-1.6a7.924,7.924,0,0,1-1.168-.952c-5.832.786-12.926,1.324-22.3,2.334,0,0,2.468,26,3.291,33.4s2.6,23.829,2.6,23.829a36.976,36.976,0,0,1,4.9.334c2.006.334,5.126.111,5.572,5.794,3.565-.223,5.236-1,7.242.669s4.679-.112,6.351.111a19.5,19.5,0,0,1,4.011,1.225l5.237-3.454s-.223,4.123,6.462,5.238c0,0,1.548.311,3.358-1.663s.987-4.277,1.315-7.075a10.93,10.93,0,0,1,2.633-5.265l3.127,2.8s.657-4.771,1.316-7.733,3.62-5.265,3.62-5.265.328,4.113,5.264-2.139,4.607-12.833,4.443-17.111S1307.1-761.181,1307.269-762.168Z" transform="translate(-1237.015 793.033)" fill="#1e3c5c" stroke="#fff" stroke-miterlimit="10" stroke-width="2"/>
      </g>
    </g>
    <g id="Indiana" transform="translate(888.026 -866.602)">
      <g id="Сгруппировать_27" data-name="Сгруппировать 27" transform="translate(0 0)">
        <path id="Indiana-2" data-name="Indiana" d="M1180.341-767.635c-1.637,1.158-2.916,2.916-4.075,2.516-.885-.305-2.744-1.028-3.861-1.514l.04.017c0,1.059.066,2.218.114,3.75,0,0,1.971,33.4,2.479,41.529s1.355,21.181,1.016,23.214a15.942,15.942,0,0,1-3.558,7.456c-1.864,1.864-2.2,2.2-2.033,3.728,0,0,.165,5.922.117,6.684,0,0,3.407-3.738,5.413-2.735s1.895,1.337,1.895,1.337,1.336-3.231,4.456-1.783a24.863,24.863,0,0,1,3.678,1.894s3.788-4.791,5.236-4.456a7.388,7.388,0,0,0,3.455,2.674c.223-2.563.557-6.574,4.457-6.574l.891,3.231a47.955,47.955,0,0,0,6.017-.557,38.288,38.288,0,0,0,.334-6.351s6.017-4.234,6.574-6.8a16.091,16.091,0,0,0,.446-4.123s4.122-.223,5.682-1.448,2.451-2.117,1.783-4.792.557-3.565.557-3.565-1.781-16.426-2.6-23.829-3.291-33.4-3.291-33.4-13.491,1.481-19.25,2.139c-5.078.58-12.492.834-12.492.834A5.377,5.377,0,0,0,1180.341-767.635Z" transform="translate(-1170.424 771.527)" fill="#1e3c5c" stroke="#fff" stroke-miterlimit="10" stroke-width="2"/>
      </g>
    </g>
    <g id="South_Carolina" data-name="South Carolina" transform="translate(976.666 -731.139)">
      <g id="Сгруппировать_28" data-name="Сгруппировать 28">
        <path id="South_Carolina-2" data-name="South Carolina" d="M1356.317-567.552a97.151,97.151,0,0,0-10.977,1.85c-.369-1.48-1.357-4.193-3.947-5.427s-10.113,0-15.663.247a35.849,35.849,0,0,0-10.607,1.851c-2.96.863-11.379,6.014-11.379,6.014s-3.589,2.692-2.242,5.385,4.038,4.487,8.749,4.262c0,0,2.775,5.667,5.26,7.814s7,5.648,9.489,7.908,5.536,5.535,7,7.117a15.134,15.134,0,0,0,5.083,3.84c1.92.791,4.518,2.26,5.309,5.536a12.274,12.274,0,0,1,.339,5.2s2.372.112,3.389,1.695,3.051,5.535,3.842,6.439a5.793,5.793,0,0,0,3.953,1.356h.227a6.949,6.949,0,0,0,.028-1.653s3.6-3.177,4.7-4.024.974-1.271,1.4-2.457-.931-3.093-.931-3.093l2.922.254a50.51,50.51,0,0,0,3.94-3.3c3.22-2.838,6.482-8.3,7.117-9.574s1.4-1.271,2.627-1.355c.932-2.923,4.448-3.813,4.448-3.813a32.851,32.851,0,0,1,.212-4.363,16.086,16.086,0,0,1,6.27-12.921,8.645,8.645,0,0,1,2.108-1.1c-2.522-2.128-22.925-14.911-22.925-14.911S1359.523-567.922,1356.317-567.552Z" transform="translate(-1301.2 571.668)" fill="#d8374f" stroke="#fff" stroke-miterlimit="10" stroke-width="2"/>
      </g>
    </g>
    <g id="Florida" transform="translate(909 -636.689)">
      <g id="Сгруппировать_29" data-name="Сгруппировать 29" transform="translate(0 0)">
        <path id="Контур_45" data-name="Контур 45" d="M1424.953-272.491a19.5,19.5,0,0,0-2.81,4.5c-1.124,2.57-2.971,6.905-4.978,8.511s-7.869,5.139-7.789,5.781.16,1.927,2.65.642,7.708-6.664,8.912-8.752S1425.274-270.885,1424.953-272.491Z" transform="translate(-1268.389 380.821)" fill="#1e3c5c" stroke="#fff" stroke-miterlimit="10" stroke-width="2"/>
        <path id="Контур_46" data-name="Контур 46" d="M1397.185-243.942a3.407,3.407,0,0,1,2.248,3.211,49.313,49.313,0,0,0-7.708,2.008C1395.018-241.935,1397.185-243.942,1397.185-243.942Z" transform="translate(-1262.703 371.622)" fill="#1e3c5c" stroke="#fff" stroke-miterlimit="10" stroke-width="2"/>
        <path id="Контур_47" data-name="Контур 47" d="M1353.058-356.174c-2.2-3.05-14.53-28.044-14.53-28.044s.381-.424,1.991-2.245c-3.729-5.27-10.056-18.5-11.285-21.08s-6.742-10.578-6.742-10.578-5.864-9.023-7.527-14.2l-.052.009c-3.205.317-6.7.672-7.507.788-1.582.226.226-.9-2.485,3.615,1.581,6.552.225,5.875.225,5.875l-2.485-.226-.452-3.615s-3.389.226-7.23.452-38.408,2.485-41.571,2.711c-1.129-1.355-3.615-5.422-3.615-5.422s-15.815,1.13-22.142,1.356-23.271,2.711-24.852,2.711-1.808,3.389-.9,4.744,3.163,1.356,3.389,3.163c.147,1.18.1,4.867.053,7.471l.049-.014c.185-.053.373-.108.568-.163l.041-.012c.2-.056.4-.114.613-.171l.082-.022.615-.168.111-.03.617-.164.227-.059.555-.144.234-.059.58-.146.384-.095.484-.119.9-.216c10.04-2.372,13.048-1.864,17.538-1.313s15.5,5.973,17.2,6.735a39.672,39.672,0,0,0,.932,5.338,50.729,50.729,0,0,1,7.795-1.949c2.8-.381,2.118-3.092,3.9-4.151s4.533-1.017,5.931-1.271a2.931,2.931,0,0,1,1.4-3.77c1.441-.847,3.77-.932,5.931-.847s6.016,1.991,6.227,3.3,1.271,2.8,4.151,4.7c.636,3.517,2.5,3.728,3.728,4.194a10.512,10.512,0,0,1,2.966,2.16c.678.593,4.109,1.313,6.482,1.906.8,4.321,4.914,8.006,4.914,8.006s.127,2.584.127,4.025-.932,12.793-1.059,14.869.424,3.093,1.864,5.676c1.356-1.482,1.144-3.685.763-4.956s-.339-1.779.466-1.991,4.533,1.864,4.533,1.864c-.212,3.05-4.533,8.43-4.533,8.43a46.254,46.254,0,0,1,6.4,8.049c2.881,4.66,3.3,7.413,5.125,10.167s3.432,1.779,5.211.254c4.236,2.626,4.575,7.667,5.041,8.6s.339,3.178,5.846,3.6,7.286,5.21,8.092,6.566,1.566,5.761,1.566,5.761c1.145,3.686,4.491,2.033,6.228-.424,8.938,2.246,8.3-9.107,8.557-11.056s1.313-2.161,2.414-2.542c.636-4.575-1.525-21.139-1.694-22.113S1355.261-353.124,1353.058-356.174Z" transform="translate(-1201.368 432.319)" fill="#167a91" stroke="#fff" stroke-miterlimit="10" stroke-width="2"/>
      </g>
    </g>
    <g id="Georgia" transform="translate(937.259 -722.488)">
      <g id="Сгруппировать_30" data-name="Сгруппировать 30" transform="translate(0 0)">
        <path id="Georgia-2" data-name="Georgia" d="M1328.347-473.1c-.008-.081-.017-.165-.023-.244-.424-5.253,2.119-15.5,3.05-18.555a83.938,83.938,0,0,1,3.685-9.277,3.772,3.772,0,0,0,.354-1.186h-.227a5.793,5.793,0,0,1-3.953-1.356c-.791-.9-2.824-4.858-3.842-6.439s-3.389-1.695-3.389-1.695a12.277,12.277,0,0,0-.338-5.2,8.145,8.145,0,0,0-5.309-5.535,15.133,15.133,0,0,1-5.084-3.841c-1.469-1.582-4.519-4.858-7-7.116s-7-5.761-9.489-7.908-5.26-7.814-5.26-7.814c-4.71.225-7.4-1.57-8.748-4.262s2.243-5.384,2.243-5.384a79.718,79.718,0,0,1-9.871.9c-6.058.224-32.082,3.589-32.082,3.589,2.243,8.974,4.037,17.947,6.057,24.678s6.282,23.332,9.423,28.268,3.141,5.608,3.141,5.608-2.019,3.814-2.917,5.833-.224,4.038.449,6.282,1.122,2.019.449,4.936,1.121,5.609,1.795,6.955a29.533,29.533,0,0,0,1.771,2.938s2.486,4.067,3.616,5.422c3.162-.226,37.729-2.485,41.571-2.711s7.23-.452,7.23-.452l.451,3.615,2.485.226s1.355.678-.225-5.874c2.711-4.518.9-3.389,2.485-3.615.812-.116,4.3-.47,7.507-.787Z" transform="translate(-1243.06 558.904)" fill="#1e3c5c" stroke="#fff" stroke-miterlimit="10" stroke-width="2"/>
      </g>
    </g>
    <g id="Kentucky" transform="translate(868.448 -809.373)">
      <g id="Сгруппировать_31" data-name="Сгруппировать 31" transform="translate(0 0)">
        <path id="Kentucky-2" data-name="Kentucky" d="M1142.769-625.719a12.4,12.4,0,0,1-1.231,1.641c5.231-.138,13.768-.413,15.578-.413,2.582,0,6.455-.323,6.455-.323l.162-3.228s10.814-.646,21.144-1.291c8.548-.535,40.972-3.832,55.65-5.5a100.245,100.245,0,0,0,9.281-6.463c1.338-.891,1.894-1.337,1.782-2.117a5.84,5.84,0,0,1,1-3.566,27.825,27.825,0,0,1,5.237-4.456,76.8,76.8,0,0,0,7.242-6.574,52.834,52.834,0,0,1-4.569-3.232c-2.228-1.783-3.788-5.794-4.568-7.131s-2.9-1.448-3.454-2.674-.445-2.116-.557-6.128c-6.685-1.114-6.462-5.237-6.462-5.237l-5.237,3.454a19.5,19.5,0,0,0-4.011-1.225c-1.671-.223-4.345,1.56-6.351-.111s-3.677-.892-7.242-.669c-.446-5.682-3.566-5.459-5.572-5.794a37.016,37.016,0,0,0-4.9-.334s-1.225.891-.557,3.565-.223,3.566-1.783,4.791-5.683,1.448-5.683,1.448a16.1,16.1,0,0,1-.445,4.123c-.557,2.562-6.574,6.8-6.574,6.8a38.277,38.277,0,0,1-.334,6.352,47.933,47.933,0,0,1-6.017.557l-.891-3.232c-3.9,0-4.234,4.011-4.457,6.574a7.389,7.389,0,0,1-3.454-2.674c-1.449-.334-5.237,4.456-5.237,4.456a24.784,24.784,0,0,0-3.677-1.894c-3.12-1.449-4.457,1.782-4.457,1.782s.111-.334-1.894-1.337-5.413,2.736-5.413,2.736a29.637,29.637,0,0,1-1.048,3.43c-.286,1.047-1.1,2.762.142,4.429-1.857-.142-3.762-.571-5.048,1.572s.143,5.668.191,6.287-.191,1.524-1.906.81-3.762-2.524-6.333-2.1-2.477.762-3.191,1.905c-.346.554-.9,1.723-1.389,2.782C1145.953-632.66,1144.106-628.058,1142.769-625.719Z" transform="translate(-1141.538 687.093)" fill="#1e3c5c" stroke="#fff" stroke-miterlimit="10" stroke-width="2"/>
      </g>
    </g>
    <g id="Illinois" transform="translate(827.705 -878.768)">
      <g id="Сгруппировать_32" data-name="Сгруппировать 32" transform="translate(0 0)">
        <path id="Illinois-2" data-name="Illinois" d="M1147.379-703.9c.339-2.034-.508-15.081-1.016-23.215s-2.479-41.529-2.479-41.529c-.048-1.533-.112-2.692-.114-3.75-.365-.158-.656-.292-.812-.381-.64-.359-1.518-1.918-2.238-3.316s-4.075-7.032-4.075-7.032.16-1.039.479-3.635a13.615,13.615,0,0,0,0-2.714c.036.433.057.849.06,1.243-8.364.5-28.218,1.674-33.525,1.807-4.771.118-9.2.07-11.761-.028.969,1.44,1.2,2.432,1.766,2.66.761.3,1.674.152,2.283,1.521s.457,2.283,2.588,4.566a7.254,7.254,0,0,1,1.217,8.523c-1.521,3.348-2.739,5.479-6.392,6.393s-6.392,2.435-6.545,3.8.457,2.435,1.218,3.805a6.466,6.466,0,0,1,.3,5.023c-.609,1.217-2.283,2.587-2.436,3.653a5.817,5.817,0,0,0,.153,2.131,1.809,1.809,0,0,0-2.284.913c-.913,1.522-1.064,5.174-2.283,6.24,0,0-.456,6.392,1.065,10.349a14.726,14.726,0,0,0,6.24,7.762c2.892,1.979,6.241,3.957,7.154,7.458s1.218,4.262,1.979,4.414,1.826-2.283,4.87-.3,2.587,3.044,2.587,3.044-1.826,5.479-2.435,8.219-.152,6.24,2.739,8.218,7.762,3.653,9.589,5.479,3.348,3.348,3.8,6.392-.434,7.684,4.082,9.2c.058.02.1.048.157.069a30.969,30.969,0,0,1,1.389-2.781c.714-1.143.619-1.476,3.191-1.905s4.62,1.381,6.333,2.1,1.953-.19,1.906-.81-1.476-4.143-.191-6.286,3.191-1.714,5.048-1.572c-1.238-1.667-.428-3.381-.143-4.428a29.4,29.4,0,0,0,1.048-3.43c.048-.761-.117-6.684-.117-6.684-.17-1.525.169-1.864,2.034-3.728A15.934,15.934,0,0,0,1147.379-703.9Z" transform="translate(-1081.427 789.476)" fill="#d8374f" stroke="#fff" stroke-miterlimit="10" stroke-width="2"/>
      </g>
    </g>
    <g id="Wisconsin" transform="translate(801.306 -970.526)">
      <g id="Сгруппировать_33" data-name="Сгруппировать 33" transform="translate(0 0)">
        <path id="Wisconsin-2" data-name="Wisconsin" d="M1130.407-893.345s-5.114,7.43-6.312,9.109a83.922,83.922,0,0,1-5.353,7.271c-1.718,1.838-2.038-1.558-1.6-2.557s4.235-7.91,4.914-9.628c-2.006-1.3-1.935-4.522-1.89-5.272a2.879,2.879,0,0,1-1.267.279c-1.678.16-.719-7.031-.679-8.43-.559-.679-2.637-1-3.476-1.039-.04-2.077-2.2-2.957-4.714-3.2a47.752,47.752,0,0,1-14.9-3.556,25.292,25.292,0,0,0-12.425-2.357,35.519,35.519,0,0,0-3.715-4.474,4.474,4.474,0,0,1-1.478.4c-1.079.16-3.4-1.558-3.875-1.8a3.393,3.393,0,0,1-2.477.679c-1.877-.04-1.238-2.318-.759-3.037s2.876-3.556,2.876-3.556-.838-1.281-5.473,1.078c-4.929,2.509-7.147,3.847-9.788,4.116-2.757.279-2.677.359-5.234-.639.318-1.371,2.258-3.226,4.288-4.877-.1.057-.207.122-.3.175-1.581.9-3.389,3.276-4.575,4.632s-2.033,4.744-2.26,6.665.565,5.422.4,6.326-2.146,3.389-4.123,5.2-3.784,4.01-3.728,5.592,3.219,2.881,3.728,5.874c-1.242,2.315-1.638,7.286-1.356,9.432s.169,4.858,1.356,6.213,2.485,1.13,4.236.4a7.293,7.293,0,0,0,5.2,3.672c1.355,1.694,2.88,5.592,5.026,7s8.022,3.9,8.642,6.439a39.938,39.938,0,0,1,.509,7.569s.342,3.206,2.625,3.814c-1.37,4.262-1.827,6.545-1.066,8.98s3.349,4.565,6.7,5.174a12.728,12.728,0,0,1,1.277,1.6c2.564.1,6.99.147,11.761.028,5.308-.133,25.161-1.3,33.525-1.807a31.044,31.044,0,0,0-1.981-9.475,17.458,17.458,0,0,1-.719-10.228,17.591,17.591,0,0,1,2.876-6.232,36.324,36.324,0,0,1-1.358-6.192c-.12-2.158,1.358-3.8,1.8-5.074s-.12-7.551.28-9.908,3.915-8.23,4.995-10.187A4.83,4.83,0,0,0,1130.407-893.345Z" transform="translate(-1042.479 924.854)" fill="#1e3c5c" stroke="#fff" stroke-miterlimit="10" stroke-width="2"/>
      </g>
    </g>
    <g id="Minessota" transform="translate(735.479 -1019.918)">
      <g id="Сгруппировать_34" data-name="Сгруппировать 34">
        <path id="Minnesotta" d="M1058.078-972.558c-1.7-.539-6.061.5-6.844.758-.847.282-.9-.283-1.751-1.469s-7.061-.339-9.817.313c-1.287-2.85-3.005-3.081-3.965-2.573-.376.2-1.1.806-1.976,1.473a7.711,7.711,0,0,1-2.727,1.818c-.066.014-.136.024-.2.034a4.175,4.175,0,0,1-1.53.4c-2.26.056-5.083-2.316-5.083-2.316a7.366,7.366,0,0,1-2.2-.452c-1.321-.384-1.388-2.181-1.341-3.041a2.336,2.336,0,0,1,.035-.423c-.049.163-.429.787-3.382.64a5.836,5.836,0,0,1-.606-.066c-.08,0-.16.007-.241.009-2.2.057-7.83-5.156-11.183-5.592-1.647-.214-3.384.9-5.078,1.692a16.753,16.753,0,0,1-5.71.906c-.4-.045-.45-1.53-.453-2.154l-1.806.121a7.5,7.5,0,0,1-2.42-.17,12,12,0,0,1-1.534,0c-.621-.113-.113-1.525-.113-1.525a9.1,9.1,0,0,1-3.052-.033c-.281-.007-.55-.015-.789-.024a3.34,3.34,0,0,1-2.993-2.485c-.508-1.469-2.146-11.014-2.146-11.014h-3.389l-.678,7.286h-1.516c-3.2,0-10.505-.012-12.6-.056-2.711-.056-15.616-.186-15.616-.186a31.914,31.914,0,0,1,.933,7.752,85.9,85.9,0,0,0-.111,10.767c.333,2.442,2.886,8.214,3.33,10.434a78.045,78.045,0,0,1,1.221,10.656c0,2.664.555,8.324.888,11.766s1.777,5.882,3,8.214.106,6.894.106,6.894a6.5,6.5,0,0,1-1.312,2.863c-.954.954-2.505,2.625-2.267,4.175s2.624,3.58,3.459,4.773,1.432.716,1.551,5.249-.835,35.551-.835,35.551,5.543.1,11.135.1,49.365-.9,49.365-.9c7.174-.056,22.706-.734,22.706-.734a39.966,39.966,0,0,0-.508-7.569c-.621-2.542-6.5-5.026-8.642-6.439s-3.671-5.309-5.026-7a7.3,7.3,0,0,1-5.2-3.672c-1.751.735-3.05.961-4.236-.4s-1.073-4.067-1.356-6.213.113-7.117,1.356-9.432c-.508-2.994-3.672-4.293-3.728-5.874s1.751-3.784,3.728-5.592,3.954-4.293,4.123-5.2-.621-4.406-.4-6.326,1.073-5.309,2.259-6.665,2.994-3.728,4.575-4.632l.3-.175c2.052-1.67,4.2-3.13,4.861-3.672,1.318-1.079,3.676-5.753,3.676-5.753a3.453,3.453,0,0,1,.246-.464,8.339,8.339,0,0,1,1.2-1.741,21.555,21.555,0,0,1,4.175-3.476,12.639,12.639,0,0,1,1.092-.672c.1-.052.2-.106.309-.16a28.735,28.735,0,0,1,3.969-1.792c.2-.073.4-.15.6-.226.6-.245,1.183-.476,1.71-.683a88.07,88.07,0,0,0,10.833-5.448A2.561,2.561,0,0,0,1058.078-972.558Z" transform="translate(-945.359 997.726)" fill="#d8374f" stroke="#fff" stroke-miterlimit="10" stroke-width="2"/>
      </g>
    </g>
    <g id="Iowa" transform="translate(743.769 -895.318)">
      <g id="Сгруппировать_35" data-name="Сгруппировать 35" transform="translate(0 0)">
        <path id="Iowa-2" data-name="Iowa" d="M1058.636-785.574c-2.13-2.284-1.979-3.2-2.587-4.566s-1.522-1.217-2.283-1.521-.913-1.978-3.044-4.262c-3.349-.609-5.936-2.739-6.7-5.174s-.3-4.718,1.066-8.98c-2.283-.609-2.625-3.815-2.625-3.815s-15.532.678-22.706.734c0,0-43.774.9-49.365.9s-11.135-.1-11.135-.1h-1.67s0,4.3,2.267,6.681c.239,3.221-.955,9.424-2.147,10.975a25.282,25.282,0,0,1,2.616,4.871c1.3,5.64,2.386,8.46,4.555,10.412a15.617,15.617,0,0,0,1.411,7.9,42.951,42.951,0,0,1,2.983,10.16c.617,3.644.058,8.158,1.376,12.715,11.627-.345,30.244-1.182,40.5-1.471,10.806-.3,26.025-.152,26.025-.152s2.588,3.2,4.414,5.174c1.218-1.066,1.37-4.718,2.283-6.24a1.809,1.809,0,0,1,2.283-.913,5.808,5.808,0,0,1-.152-2.131c.152-1.065,1.827-2.435,2.435-3.653a6.465,6.465,0,0,0-.3-5.023c-.761-1.37-1.37-2.435-1.218-3.8s2.891-2.891,6.544-3.805,4.87-3.044,6.392-6.392A7.254,7.254,0,0,0,1058.636-785.574Z" transform="translate(-957.589 813.893)" fill="#1e3c5c" stroke="#fff" stroke-miterlimit="10" stroke-width="2"/>
      </g>
    </g>
    <g id="Mossouri" transform="translate(756.009 -834.732)">
      <g id="Сгруппировать_36" data-name="Сгруппировать 36" transform="translate(0 0)">
        <path id="Missouri" d="M1089.083-646.054c-4.516-1.52-3.625-6.16-4.082-9.2s-1.978-4.566-3.8-6.392-6.7-3.5-9.588-5.479-3.349-5.479-2.74-8.218,2.435-8.219,2.435-8.219.457-1.065-2.587-3.044-4.109.457-4.871.3-1.066-.913-1.978-4.414-4.261-5.479-7.154-7.458a14.723,14.723,0,0,1-6.24-7.762c-1.521-3.957-1.066-10.349-1.066-10.349-1.826-1.979-4.413-5.174-4.413-5.174s-15.22-.153-26.025.152c-10.257.289-28.873,1.126-40.5,1.471a24.258,24.258,0,0,1-.817-4.666h0a19.17,19.17,0,0,0,3.068,9.5c4.121,6.073,5.63,7.466,5.63,7.466a25.924,25.924,0,0,0,2.711,1.162c1.162.387,4.454,1.55,4.067,4.648s-2.517,2.711-2.517,2.711a13.952,13.952,0,0,0,2.323,6.391c2.13,3.1,6.585,5.034,6.585,5.034s-.775,13.556-.969,19.947-.7,26.122-.7,26.122-.213,4.693,0,7.894a29.344,29.344,0,0,0,.4,2.945c13.261-.223,48.04-.832,54.54-1.2,8.066-.457,19.229-.589,24.369-.745,1.609,5.141-1.962,5.651-3.543,8.88a15.805,15.805,0,0,1,9.588.153c2.589-2.518,3.582-7.08,4.08-8.365.941-2.433,3.192-4.322,4.041-5.808C1090.678-640.152,1092.577-644.879,1089.083-646.054Z" transform="translate(-975.649 724.507)" fill="#1e3c5c" stroke="#fff" stroke-miterlimit="10" stroke-width="2"/>
      </g>
    </g>
    <g id="Missispi" transform="translate(835.086 -714.403)">
      <g id="Сгруппировать_37" data-name="Сгруппировать 37" transform="translate(0 0)">
        <path id="Missisppi" d="M1151.057-445.477s-1.864-24.74-2.711-35.415-.339-36.94.339-45.243,1.525-20.842,1.525-20.842-18.845,1.306-24.493,1.758c-3.156.253-8.856.533-13.272.731a.969.969,0,0,0-.3.717,4.62,4.62,0,0,1-1.963,3.521c-1.393.774-3.094,1.083-3.248,2.939s.619,4.486-.309,5.878-3.558,3.4-4.95,5.723-1.856,4.486-3.713,4.8c-.155,6.342-.464,16.242-.155,19.026l.31,2.784s.916,8.961,4.663,13.582c-1.874,5.621-1.748,6.995-4,9.868s-5.621,6.495-6.245,10.616a34.61,34.61,0,0,0,.249,9.243s11.116-.624,15.488-.624h18.236s-1,5.5-.749,6.994a19.019,19.019,0,0,0,2.748,5.871c.781,1.127,1.68,2.673,2.157,3.515a57.936,57.936,0,0,0,3.822-4.974,14.568,14.568,0,0,0,2.754.424c1.525.085,4.786-1.271,6.9-1.355s1.907.424,4.194.72a10.694,10.694,0,0,0,2.741-.09Z" transform="translate(-1092.317 546.976)" fill="#1e3c5c" stroke="#fff" stroke-miterlimit="10" stroke-width="2"/>
      </g>
    </g>
    <g id="Alabama" transform="translate(890.671 -718.001)">
      <path id="alabama-2" data-name="alabama" d="M1196.673-447.356l-.048.014c.049-2.6.094-6.29-.053-7.47-.226-1.808-2.485-1.808-3.388-3.163s-.678-4.745.9-4.745,18.526-2.485,24.853-2.711,22.141-1.356,22.141-1.356a29.492,29.492,0,0,1-1.771-2.938c-.673-1.346-2.468-4.038-1.795-6.955s.224-2.692-.449-4.936-1.346-4.263-.449-6.282,2.917-5.833,2.917-5.833,0-.673-3.141-5.608-7.4-21.537-9.423-28.268-3.814-15.7-6.057-24.678c-10.1,1.122-44.28,3.6-44.28,3.6s-.847,12.539-1.525,20.842-1.186,34.567-.339,45.243,2.711,35.415,2.711,35.415l.03.164a45.936,45.936,0,0,0,4.969-1.1c1.991-.508,1.441-2.8,1.991-4.194s.89-2.075,2.288-1.779,3.9,4.109,4.575,5.55-.932,3.516-.932,3.516S1191.692-445.9,1196.673-447.356Z" transform="translate(-1174.326 552.284)" fill="#1e3c5c" stroke="#fff" stroke-miterlimit="10" stroke-width="2"/>
    </g>
    <g id="Tennessee" transform="translate(855.214 -761.298)">
      <g id="Сгруппировать_38" data-name="Сгруппировать 38" transform="translate(0 0)">
        <path id="Контур_48" data-name="Контур 48" d="M1265.739-616.163s-18.4,2.421-25.016,3.39-51.809,5.649-62.138,6.294-21.143,1.291-21.143,1.291l-.162,3.228s-3.874.323-6.456.323c-1.81,0-10.347.275-15.578.413a15.543,15.543,0,0,0-2.811,4.166c-.5,1.285-1.491,5.847-4.08,8.365,0,0,1.607.782.37,3.412s-1.856,5.259-2.939,6.342-2.166,2.32-2.166,4.022.553,4.753-.375,6.454a7.379,7.379,0,0,1-1.234,1.682c4.416-.2,10.115-.478,13.272-.731,5.648-.452,24.493-1.758,24.493-1.758s34.184-2.476,44.279-3.6c0,0,11.528-1.491,21.026-2.554a19.953,19.953,0,0,1,.145-5.88s1.13.161,4.2-1.775c.322-5.326,4.519-5.972,6.94-6.295s3.874-2.744,5.81-4.358a6.764,6.764,0,0,1,4.359-1.453s.484-3.873,1.452-5.326,3.066-1.936,5.488-1.13c3.712-3.228,5.811-2.744,8.231-3.066.485-3.874,3.39-5.972,4.035-7.263S1265.739-616.163,1265.739-616.163Z" transform="translate(-1122.013 616.163)" fill="#1e3c5c" stroke="#fff" stroke-miterlimit="10" stroke-width="2"/>
      </g>
    </g>
    <g id="Arkansas" transform="translate(776.602 -742.859)">
      <g id="Сгруппировать_39" data-name="Сгруппировать 39" transform="translate(0 0)">
        <path id="Arkansas-2" data-name="Arkansas" d="M1090.986-579.927a15.807,15.807,0,0,0-9.589-.152c1.581-3.229,5.153-3.739,3.544-8.88-5.14.156-16.3.289-24.369.746-6.5.368-41.28.977-54.54,1.2.59,3.369,1.628,7.723,1.948,10.281.427,3.413,2.133,20.054,1.707,28.8-.334,6.869-.143,18.995-.046,23.888a28.086,28.086,0,0,0,7,.671c.149,2.377.283,7.107.391,12.09,8.476-.356,25.85-1.077,30.7-1.192,6.5-.155,22.584-.155,22.584-.155l-.309-2.784c-.31-2.784,0-12.684.154-19.026,1.857-.309,2.32-2.475,3.712-4.8s4.022-4.331,4.95-5.723.154-4.022.31-5.878,1.855-2.166,3.248-2.939a4.62,4.62,0,0,0,1.963-3.521c0-.773.6-.7,1.531-2.4s.374-4.753.374-6.454,1.082-2.939,2.165-4.022,1.7-3.712,2.939-6.342S1090.986-579.927,1090.986-579.927Z" transform="translate(-1006.031 588.959)" fill="#1e3c5c" stroke="#fff" stroke-miterlimit="10" stroke-width="2"/>
      </g>
    </g>
    <g id="Louisiana" transform="translate(787.601 -666.529)">
      <g id="Сгруппировать_41" data-name="Сгруппировать 41" transform="translate(40.716 73.943)">
        <g id="Сгруппировать_40" data-name="Сгруппировать 40">
          <path id="Контур_49" data-name="Контур 49" d="M1082.329-366.408s1.873-1.5,3-.5a2.659,2.659,0,0,1,1,2.124S1082.828-365.034,1082.329-366.408Z" transform="translate(-1082.329 367.251)" fill="#1e3c5c" stroke="#fff" stroke-miterlimit="10" stroke-width="2"/>
        </g>
      </g>
      <path id="Контур_50" data-name="Контур 50" d="M1119.249-397.471c-1.44-2.2-4.575-2.542-7.371-2.8s-3.643-1.949-5.422-4.152a6.814,6.814,0,0,0,1.949-4.151c2.542.424,3.643-.847,3.727-2.372s-.508-3.643-1.779-4.49-1.864,2.288-2.542,4.406c-1.271.508-4.744-1.907-4.744-1.907a27.374,27.374,0,0,1,3.6-3.007,8.381,8.381,0,0,0,1.432-1.338c-.478-.842-1.377-2.388-2.157-3.515a19.011,19.011,0,0,1-2.748-5.871c-.25-1.5.749-6.994.749-6.994h-18.236c-4.372,0-15.488.624-15.488.624a34.6,34.6,0,0,1-.249-9.243c.624-4.122,4-7.744,6.245-10.616s2.123-4.247,4-9.868c-3.748-4.621-4.664-13.582-4.664-13.582s-16.087,0-22.584.155c-4.854.115-22.229.836-30.7,1.192.167,7.69.271,15.985.271,17.189,0,1.983-.188,3.495.566,4.533s2.928,2.267,3.4,3.684.472,3.4,1.7,5.95,3.495,5.289,4.061,7.367,1.322,3.022.472,6.328-2.739,7.367-2.739,8.878a7.1,7.1,0,0,0,.756,2.927,2.7,2.7,0,0,0-.473,2.361c.284,1.606.662,3.022,0,4.25a13.284,13.284,0,0,0-1.763,8.3,53.051,53.051,0,0,1,15.589-1.186c4.321.339,7.879,2.8,11.437,3.135s4.66-.763,5.423-1.779c-1.016-.763-2.033-3.219.254-3.982s4.745,1.864,4.745,1.864a8.185,8.185,0,0,1,3.728-.085c2.118.424,2.711,4.067,2.711,4.067s.254.085,3.474.678,2.287,2.626,1.525,4.321c8.9,6.185,10.505,4.406,12.2,3.9s1.1-2.881,1.1-2.881a7,7,0,0,0,2.372,0c.763-.254,1.44-1.779,3.22-1.864,1.948,1.61.423,4.49.423,4.49l.848.763c1.949-.763,2.372-7.117,2.626-7.964s4.152-2.881,4.152-2.881l.594,4.067a24.906,24.906,0,0,1,5.083,1.186c1.779.763,3.135,2.542,5.253,2.457s2.88.678,2.88.678l1.864-2.965Zm-23.792-18.136c-1.472-.26-1.818-.865-1.905-2.165s.346-2.684,3.378-3.291,7.274,2.6,7.274,2.6c.952.606-.087,1.819-1.646,3.031S1096.929-415.347,1095.457-415.607Z" transform="translate(-1022.258 476.344)" fill="#1e3c5c" stroke="#fff" stroke-miterlimit="10" stroke-width="2"/>
    </g>
    <g id="Nebraska" transform="translate(621.689 -888.202)">
      <g id="Сгруппировать_42" data-name="Сгруппировать 42" transform="translate(0 0)">
        <path id="Nebraska-2" data-name="Nebraska" d="M914.863-740.425c-4.121-6.074-2.787-12.611-3.623-17.549a42.978,42.978,0,0,0-2.984-10.16,15.62,15.62,0,0,1-1.411-7.9c-2.169-1.952-3.254-4.772-4.555-10.412-5.117.2-4.989-3.688-5.206-4.555s-8.894-2.82-11.28-3.47-5.905,1.483-8.88.834c-3.908-.853-10.018-5.683-10.018-5.683s-17.965-.206-26.642-.64-25.177-.8-36.456-1.67c-8.406-.647-17.894-1.413-22.183-1.762-.14,1.426-.268,2.647-.376,3.6-.773,6.772-2.5,27.5-3.459,39.314l-.314-.027c2.759.238,5.151.447,6.952.611,9.32.847,26.095,1.864,26.095,1.864s-.834,14.168-1.3,21.845c3.815.2,9.227.492,13.479.716,0,0,43.96,1.743,54.417,2.13s43.379.388,43.379.388S918.985-734.352,914.863-740.425Z" transform="translate(-777.475 803.395)" fill="#1e3c5c" stroke="#fff" stroke-miterlimit="10" stroke-width="2"/>
      </g>
    </g>
    <g id="South_Dakota" data-name="South Dakota" transform="translate(625.837 -952.011)">
      <g id="Сгруппировать_43" data-name="Сгруппировать 43" transform="translate(0 0)">
        <path id="South_Dakota-2" data-name="South Dakota" d="M783.6-833.729c4.29.349,13.777,1.115,22.184,1.762,11.279.867,27.779,1.235,36.456,1.67s26.643.64,26.643.64,6.11,4.83,10.018,5.683c2.975.649,6.493-1.485,8.88-.834s11.063,2.6,11.28,3.47.089,4.753,5.206,4.555a25.229,25.229,0,0,0-2.616-4.871c1.193-1.551,2.386-7.755,2.148-10.975-2.267-2.386-2.267-6.681-2.267-6.681h1.67s.954-31.017.835-35.551-.716-4.056-1.551-5.249-3.221-3.221-3.459-4.772,1.312-3.221,2.266-4.175a6.5,6.5,0,0,0,1.312-2.863s-17.537-.716-22.667-.954-34.716-1.789-40.2-2.028-31.376-1.432-38.653-1.909c-4.883-.32-9.6-.587-12.181-.727-.612,7.534-1.18,14.839-1.537,19.924,0,0-2.469,30.774-3.764,43.9Z" transform="translate(-783.595 897.538)" fill="#1e3c5c" stroke="#fff" stroke-miterlimit="10" stroke-width="2"/>
      </g>
    </g>
    <g id="North_Dakota" data-name="North Dakota" transform="translate(631.138 -1016.877)">
      <g id="Сгруппировать_44" data-name="Сгруппировать 44">
        <path id="North_Dakota-2" data-name="North Dakota" d="M845.006-990.519c-13.217-.339-33.042-1.525-47.615-2.711l-.1-.009c-.989,10.754-2.717,29.462-3.347,35.763-.547,5.469-1.59,17.556-2.53,29.1,2.578.141,7.3.408,12.181.728,7.277.477,33.165,1.671,38.653,1.909s35.074,1.789,40.2,2.028,22.667.955,22.667.955,1.115-4.564-.106-6.895-2.664-4.772-3-8.214-.888-9.1-.888-11.766a78.072,78.072,0,0,0-1.221-10.656c-.444-2.22-3-7.992-3.33-10.434a85.865,85.865,0,0,1,.111-10.766,31.931,31.931,0,0,0-.933-7.752c-6.756-.054-12.719-.1-15.168-.1C873.642-989.333,858.223-990.18,845.006-990.519Z" transform="translate(-791.416 993.239)" fill="#1e3c5c" stroke="#fff" stroke-miterlimit="10" stroke-width="2"/>
      </g>
    </g>
    <g id="Kansas" transform="translate(649.575 -821)">
      <g id="Сгруппировать_45" data-name="Сгруппировать 45">
        <path id="Kansas-2" data-name="Kansas" d="M940.334-686.1a13.951,13.951,0,0,1-2.323-6.391s2.13.387,2.517-2.711-2.905-4.261-4.067-4.647a26.019,26.019,0,0,1-2.711-1.162s-32.921,0-43.379-.388-54.417-2.13-54.417-2.13c-4.252-.224-9.664-.512-13.479-.716-.09,1.48-.167,2.723-.222,3.573-.339,5.253-3.558,51.851-3.558,55.24,0,1.588-.037,4.257-.077,6.643,17.161.91,41.2,2.165,45.775,2.3,7.253.213,64.214,1.067,68.908,1.28s11.947.213,11.947.213.509-19.732.7-26.122.968-19.947.968-19.947S942.464-683,940.334-686.1Z" transform="translate(-818.618 704.247)" fill="#1e3c5c" stroke="#fff" stroke-miterlimit="10" stroke-width="2"/>
      </g>
    </g>
    <g id="Texas" transform="translate(548.95 -744.995)">
      <g id="Сгруппировать_46" data-name="Сгруппировать 46" transform="translate(0 0)">
        <path id="Контур_51" data-name="Контур 51" d="M849.568-360.214s-3.812-12.709-4.49-16.86a16.052,16.052,0,0,1,.932-8.727c.678-1.949,2.542-10.76,2.542-10.76a61.527,61.527,0,0,0,4.729-4.154c-.593-1.525-.868-1.532-.868-1.532s-3.28-1.339.052-2.5c2.2-.765,5.535-2.844,6.943-5.258.358-.612,3.064-.255,3.064-.255s1.48-1.583-.256-5.82a16.28,16.28,0,0,0,6.841-1.225c3.42,1.379,1.048,4.506,2.144,3.931,3.559-1.864,5.4-3.011,7.768-4.112s7.2-5.423,8.3-6.439,5.761-4.321,6.524-5.422c1.949-.593,5.253-5.422,5.253-5.422s10.845-4.49,16.013-5.761a13.288,13.288,0,0,1,1.764-8.3c.662-1.227.283-2.644,0-4.25a2.7,2.7,0,0,1,.473-2.361,7.1,7.1,0,0,1-.756-2.927c0-1.511,1.889-5.573,2.739-8.878s.094-4.25-.472-6.328-2.833-4.816-4.061-7.367-1.228-4.533-1.7-5.95-2.645-2.645-3.4-3.684-.567-2.55-.567-4.533-.283-23.234-.661-29.279c-7.461.095-10.295-1.794-12.089-2.833s-4.439-3.778-6.894-4.062a8.586,8.586,0,0,0-4.911,1.323c-1.511.094-1.417-.566-2.55-1.133s-3.495,1.983-5.573,1.417c-4.69-1.279-6.422,1.7-6.422,1.7a68.676,68.676,0,0,0-7.839-1.983c-5.761-1.227-5.95.377-7.461,1.795-1.227.378-4.25-.945-7.084-2.739s-5.666-.189-7.083.189c-.378-1.794-2.55-4.345-4.156-5.289s-3.211-.661-7.178.189c-3.966-2.362-9.444-2.645-11.994-3.211.567-4.345-1.039-4.628-2.739-5.384-.567.945-1.134.756-2.267.189s-1.605.094-2.645.378-2.172-.851-3.4-1.984a6.537,6.537,0,0,0-2.533-1.465s0-6.138.533-12.543.8-29.889.8-29.889-32.292-1.334-39.23-1.6c-4.254-.163-9.909-.527-13.65-.785q-.043.473-.085.94c-.518,5.7-7.083,95.541-7.083,95.541s-18.314-.691-27.125-2.073-27.3-2.592-38.182-3.628c0,1.407-.133,2.946-.243,4.189-2.24-.234-5.59-.591-9.178-.975l.092.01.12.013,1.036.111.577.062.337.036.754.081.664.071.563.06.421.045.678.072.558.06.478.051.63.066.342.036.525.055.482.051.24.025.638.066.082.009.619.064.4.041.232.024.347.035.219.022.224.022.207.02.307.029c1.463.9,2.814,4.334,3.32,5.516s.676,3.32,3.153,4.5,3.039,2.251,4.9,4.841a75.557,75.557,0,0,0,7.073,7.429c.932,1.271,5,1.61,5.507,3.559s.847,1.609,2.033,2.118c0,4.914,4.406,8.9,4.406,8.9l-.17,8.726s4.745,11.1,10.167,12.624,6.269,4.067,6.269,4.067l8.472,4.151s5.931-6.947,6.693-7.879,1.017-4.575,4.491-8.388a10.855,10.855,0,0,0,7.032-2.457,23.463,23.463,0,0,0,2.965,2.372c.847.424,4.406,0,11.861,1.017s5.422,5,5.422,5,5.762,5.592,7.371,6.947.762,1.779,2.118,3.474a9.836,9.836,0,0,1,1.949,5.084c.169,1.44,3.812,9.235,4.575,11.183-.508,3.05-.085,3.558.593,4.236s3.05,1.61,5.083,3.3,3.9,7.371,6.015,8.472,4.067,2.457,4.321,3.135-1.1,5.253-1.1,5.253-.254,0,1.525,1.017c1.017,2.542-.424,6.015-.424,6.015l3.982,3.22c.762,10.59,9.828,12.285,15.843,13.047,4.151,4.067,7.117,2.965,9.743,3.05s4.151,1.694,7.117,3.728A4.072,4.072,0,0,0,849.568-360.214Z" transform="translate(-670.158 592.11)" fill="#1e3c5c" stroke="#fff" stroke-miterlimit="10" stroke-width="2"/>
        <path id="Контур_52" data-name="Контур 52" d="M949.885-320.657c1.024.241.919,3.778-3.931,7.709s-5.258,4.39-5.105,3.318a21.137,21.137,0,0,1,3.982-7.351C946.618-318.768,949.017-320.861,949.885-320.657Z" transform="translate(-757.368 504.65)" fill="#1e3c5c" stroke="#fff" stroke-miterlimit="10" stroke-width="2"/>
      </g>
    </g>
    <g id="Colorado" transform="translate(530.038 -853.52)">
      <g id="Сгруппировать_47" data-name="Сгруппировать 47" transform="translate(0)">
        <path id="Colorado-2" data-name="Colorado" d="M761.793-654.25c.039-2.387.077-5.055.077-6.643,0-3.389,3.219-49.987,3.558-55.24s1.525-25.418,1.525-25.418-16.775-1.016-26.1-1.864-34.228-2.881-46.09-4.067-41.346-4.745-41.346-4.745-6.778,47.276-7.455,51.682-3.073,27.309-3.073,28.157-.638,6-.638,6,7.946,1.336,15.894,2.2,36.8,4.319,46.821,5.356,39.046,3.628,39.046,3.628S751.72-654.784,761.793-654.25Z" transform="translate(-642.256 752.226)" fill="#d8374f" stroke="#fff" stroke-miterlimit="10" stroke-width="2"/>
      </g>
    </g>
    <g id="Oklahoma" transform="translate(630.846 -756.494)">
      <g id="Сгруппировать_48" data-name="Сгруппировать 48" transform="translate(0 0)">
        <path id="Oklahoma-2" data-name="Oklahoma" d="M938.69-583.213c-.427-3.413-2.133-10.026-2.347-13.227s0-7.893,0-7.893-7.253,0-11.947-.213-61.655-1.067-68.908-1.281-63.552-3.249-63.552-3.249-.463,6.024-.951,11.5c3.741.258,9.4.621,13.65.785,6.939.267,39.23,1.6,39.23,1.6s-.267,23.485-.8,29.889-.534,12.543-.534,12.543a6.54,6.54,0,0,1,2.534,1.466c1.227,1.133,2.36,2.267,3.4,1.984s1.511-.945,2.645-.378,1.7.756,2.267-.189c1.7.756,3.306,1.039,2.739,5.383,2.55.567,8.028.85,11.994,3.212,3.967-.85,5.573-1.133,7.179-.189s3.777,3.495,4.156,5.289c1.416-.377,4.25-1.983,7.083-.188s5.856,3.116,7.083,2.739c1.512-1.417,1.7-3.022,7.462-1.795a68.67,68.67,0,0,1,7.839,1.983s1.732-2.979,6.422-1.7c2.078.566,4.439-1.983,5.573-1.417s1.038,1.227,2.55,1.133a8.585,8.585,0,0,1,4.911-1.322c2.455.283,5.1,3.022,6.895,4.061a16.968,16.968,0,0,0,5.089,2.162c-.1-4.893-.288-17.019.047-23.888C940.823-563.16,939.117-579.8,938.69-583.213Z" transform="translate(-790.986 609.076)" fill="#1e3c5c" stroke="#fff" stroke-miterlimit="10" stroke-width="2"/>
      </g>
    </g>
    <g id="Washington" transform="translate(337.528 -1066.601)">
      <path id="Контур_53" data-name="Контур 53" d="M358.231-1019.409s.254,3.22.763,3.9,3.982.593,3.982,2.118a11.017,11.017,0,0,0,4.383,2.213c2.695.674,4.885,2.695,5.054,4.885s0,7.413,1.179,9.1,1.179,2.022,4.043,2.7,5.727,1.179,5.727,1.179a6.588,6.588,0,0,1,7.075-1.011c4.043,1.854,6.116,2.9,14.2,3.738s20.568-.193,29.664,1.323a143.441,143.441,0,0,1,25.036,6.731s1.4-10.759,3.1-21.1c1.654-10.062,7.731-35.538,10.018-42.136-16.325-3.916-37.5-9.261-41.537-10.567-6.015-1.949-38.549-10.252-38.549-10.252a18.571,18.571,0,0,0-.762,1.864c-.424,1.186,1.949,5,1.949,5.931a10.914,10.914,0,0,1-1.017,3.389c-.593,1.61.169,3.813.339,4.914a9.631,9.631,0,0,1-.254,3.135c-.17,1.017,1.235,2.914.932,3.3a5.546,5.546,0,0,1-5.908,2.276c-1.259.139-1.511-.551-2.519-.243.944-2.044,1.539-.345,2.77-4.318a8.186,8.186,0,0,0,.448-2.714c-.085-1.44,1.65-3.474,1.65-3.474l-.339-1.271c-1.61.085-2.626,2.542-2.8,4.152a29.665,29.665,0,0,1-17.368-5.931c-4.321-3.219-7.371-6.269-8.811-6.693.169,1.779-1.356,7.794-1.44,8.9s1.44,4.321,1.44,7.371c.339,2.288-.339,7.88-.254,10.422s4.151,5.507,4.151,5.507l-4.151.763a5.422,5.422,0,0,0-.847,2.457,3.327,3.327,0,0,0,1.085,2.389,5.089,5.089,0,0,1,.355,2.694C360.773-1020.427,358.231-1019.409,358.231-1019.409Z" transform="translate(-358.231 1066.601)" fill="#1e3c5c" stroke="#fff" stroke-miterlimit="10" stroke-width="2"/>
      <path id="Контур_54" data-name="Контур 54" d="M400.32-1058.8a1.9,1.9,0,0,0-2.117-.819c-1.263.478-1.4,1.433-1.946,1.433a9.78,9.78,0,0,1-1.331-.136s.717,3.482,1.673,3,.375-1.57,1.229-1.706a3.167,3.167,0,0,1,1.433.068S401.036-1057.675,400.32-1058.8Z" transform="translate(-370.054 1064.386)" fill="#1e3c5c" stroke="#fff" stroke-miterlimit="10" stroke-width="2"/>
      <path id="Контур_55" data-name="Контур 55" d="M401.184-1054.787a3.39,3.39,0,0,1,.308,2.117c-.273.99-1.161,1.229-1.366,1.093S400.058-1054.241,401.184-1054.787Z" transform="translate(-371.704 1062.795)" fill="#1e3c5c" stroke="#fff" stroke-miterlimit="10" stroke-width="2"/>
    </g>
    <g id="Montana" transform="translate(461.483 -1042.595)">
      <g id="Сгруппировать_49" data-name="Сгруппировать 49" transform="translate(0 0)">
        <path id="Montana-2" data-name="Montana" d="M653.028-1012.4c-11.861-1.694-50.891-7.456-50.891-7.456-13.33-2.26-52.812-10.421-52.812-10.421-1.03-.2-2.492-.507-4.274-.9l.162.036c-1.4,6.5-3.462,16.145-3.932,18.492-.724,3.621,1.087,5.251,1.087,5.251s3.078,4.345,1.448,7.785,1.086,5.07,1.086,5.07a54.194,54.194,0,0,1,7.061,11.045,12.555,12.555,0,0,0,7.242,6.88,21.005,21.005,0,0,1-.544,2.9c-.362,1.267-4.346,12.13-5.431,13.941s-2.535,1.63-.543,4.888,5.613,1.63,8.51-.542c3.079,5.069,1.811,10.32,3.079,13.941a17.985,17.985,0,0,0,4.888,7.242c1.629,1.63,1.629,2.9,1.448,5.975s.906,3.8.906,3.8a4.117,4.117,0,0,1,5.069-1.992c3.621,1.086,4.527.544,7.242,0s3.8,1.268,7.062,1.449,3.8-3.26,4.888-3.441.905.906,2.535,3.441c.988,1.537,1.575,1.873,1.885,1.9l.287-.092,1.876-10.342s21.464,3.615,40.215,6.1,52.19,6.326,66.65,6.778c.9-12.878,3.163-39.99,4.067-49.027.63-6.3,2.358-25.008,3.347-35.762C702-1006.66,664.863-1010.713,653.028-1012.4Z" transform="translate(-541.11 1031.183)" fill="#1e3c5c" stroke="#fff" stroke-miterlimit="10" stroke-width="2"/>
      </g>
    </g>
    <g id="Wyoming" transform="translate(509.518 -944.966)">
      <g id="Сгруппировать_50" data-name="Сгруппировать 50" transform="translate(0 0)">
        <path id="Wyoming-2" data-name="Wyoming" d="M685.013-790.953c9.655.965,27.952,2.491,39.452,3.483.963-11.817,2.685-32.543,3.459-39.315,1.105-9.671,4.139-47.481,4.139-47.481-14.46-.452-47.9-4.292-66.65-6.778s-40.215-6.1-40.215-6.1L623.322-876.8,615.2-822.809s-2.542,18.978-3.22,23.045c5.761,1.017,15.25,2.2,19.487,2.542s12.2,1.525,12.2,1.525S673.152-792.139,685.013-790.953Z" transform="translate(-611.981 887.143)" fill="#1e3c5c" stroke="#fff" stroke-miterlimit="10" stroke-width="2"/>
      </g>
    </g>
    <g id="Idaho" transform="translate(406.041 -1045.782)">
      <g id="Сгруппировать_51" data-name="Сгруппировать 51" transform="translate(0 0)">
        <path id="Idaho-2" data-name="Idaho" d="M518.395-878.868s18.978,4.067,26.434,5.253,21.181,2.88,21.181,2.88l8.122-53.992s-.543.724-2.172-1.81-1.448-3.622-2.535-3.44-1.63,3.621-4.888,3.44-4.346-1.992-7.062-1.449-3.621,1.086-7.242,0a4.117,4.117,0,0,0-5.069,1.992s-1.087-.724-.906-3.8.181-4.345-1.448-5.974a17.985,17.985,0,0,1-4.888-7.243c-1.267-3.621,0-8.872-3.078-13.941-2.9,2.172-6.518,3.8-8.51.543s-.543-3.077.544-4.888,5.069-12.674,5.431-13.941a21.017,21.017,0,0,0,.544-2.9,12.555,12.555,0,0,1-7.242-6.881,54.186,54.186,0,0,0-7.061-11.044s-2.716-1.63-1.087-5.07-1.448-7.785-1.448-7.785-1.811-1.63-1.086-5.251c.47-2.347,2.536-11.993,3.932-18.492-3.544-.784-8.419-1.925-13.827-3.222-2.286,6.6-8.364,32.074-10.018,42.136-1.7,10.344-3.1,21.1-3.1,21.1,2.021,3.875,2.021,4.212,3.706,5.728a51.393,51.393,0,0,1,1.011,5.9s-5.054,4.043-7.581,8.929-3.706,5.054-3.706,5.054-4.38,4.718-5.054,7.581,0,3.033,1.347,3.033a7.253,7.253,0,0,0,2.19,3.537,146.326,146.326,0,0,0-5.39,13.814c-2.022,6.4-5.9,22.911-6.739,26.617-.293,1.29-.544,2.762-.749,4.135-3.385-.818-7.4-1.8-11.63-2.842h0c10.049,2.475,18.89,4.617,20.956,5.01C487.386-884.8,518.395-878.868,518.395-878.868Z" transform="translate(-459.313 1035.885)" fill="#1e3c5c" stroke="#fff" stroke-miterlimit="10" stroke-width="2"/>
      </g>
    </g>
    <g id="New_Mexico" data-name="New Mexico" transform="translate(512.393 -767.678)">
      <g id="Сгруппировать_52" data-name="Сгруппировать 52" transform="translate(0 0)">
        <path id="New_Mexico-2" data-name="New Mexico" d="M696.582-618.021c-10.021-1.037-38.874-4.492-46.821-5.356s-15.894-2.2-15.894-2.2-3.674,20.756-4.408,26.358-3.95,26.175-5.143,34.348-4.317,30.124-5.143,37.379-2.848,24.246-2.848,24.246l-.022.142-.081-.012c4.432.639,13.955,1.838,15.061,2.206-.281-2.927.957-10.3.957-10.3a17.7,17.7,0,0,0,2.814.394c2.188.238,19.927,2.163,26.9,2.891.109-1.243.243-2.782.243-4.189,10.885,1.036,29.372,2.246,38.182,3.628s27.125,2.073,27.125,2.073,6.565-89.84,7.083-95.541,1.036-12.439,1.036-12.439S706.6-616.985,696.582-618.021Z" transform="translate(-616.223 625.577)" fill="#1e3c5c" stroke="#fff" stroke-miterlimit="10" stroke-width="2"/>
      </g>
    </g>
    <g id="Utah" transform="translate(444.075 -888.765)">
      <path id="Utah-2" data-name="Utah" d="M612.557-768.981s-7.964-1.186-12.2-1.526-13.725-1.525-19.486-2.542c.677-4.067,3.219-23.045,3.219-23.045s-13.725-1.694-21.181-2.88-26.434-5.253-26.434-5.253-1.525,8.3-2.542,13.047-9.32,45.412-10.845,54.563-7.661,40.436-7.661,40.436c3.766.551,17.359,2.846,22.685,3.674s33.705,5.327,39.951,6.153,23.328,3.215,23.328,3.215.638-5.156.638-6,2.4-23.751,3.073-28.157S612.557-768.981,612.557-768.981Z" transform="translate(-515.428 804.226)" fill="#167a91" stroke="#fff" stroke-miterlimit="10" stroke-width="2"/>
    </g>
    <g id="Arizona" transform="translate(412.166 -780.72)">
      <path id="Arizona-2" data-name="Arizona" d="M562.895-634.991c-6.245-.826-34.624-5.327-39.951-6.153s-18.919-3.123-22.685-3.674c-.642,1.194-2.112,14.327-2.479,16.072s-2.3,2.755-4.133,3.306-1.469-.826-4.316-3.123-4.592,1.469-5.143,3.4.367,12.307.091,15.613a11.121,11.121,0,0,1-2.719,5.909,13.471,13.471,0,0,0-.372,2.327c-.093,1.3,2.42,3.91,2.885,4.841s-.465,2.7,1.49,5.492,1.768,3.258-.186,5.585c-5.679,1.117-6.237,7.261-6.516,8.658s.745,3.537-2.234,4.375-3.723,1.862-4.282,5.306.931,5.306,1.861,5.585,0,0,1.956.279a4.222,4.222,0,0,1-2.979,5.12c-2.513.558-2.7-.373-2.7-.373s-.24.273-.687.774c-.289.478-.67,1.114-1.037,1.735-.731,1.238-.788,1.069,2.477,2.983s31.858,18.068,36.136,20.77l23.527,14.86a70.655,70.655,0,0,1,7.993.9c2.984.62,25.779,4.391,27.636,4.784.346.073,1.11.192,2.132.338l.022-.142s2.02-16.99,2.847-24.246,3.949-29.2,5.143-37.379,4.408-28.746,5.143-34.349,4.408-26.358,4.408-26.358S569.14-634.165,562.895-634.991Z" transform="translate(-468.35 644.818)" fill="#167a91" stroke="#fff" stroke-miterlimit="10" stroke-width="2"/>
    </g>
    <g id="California" transform="translate(293.978 -928.346)">
      <g id="Сгруппировать_53" data-name="Сгруппировать 53" transform="translate(0 0)">
        <path id="Контур_56" data-name="Контур 56" d="M413.841-626.231l-.229.379c.447-.5.687-.774.687-.774s.186.931,2.7.373a4.221,4.221,0,0,0,2.979-5.12c-1.955-.279-1.024,0-1.955-.279s-2.42-2.141-1.861-5.585,1.3-4.469,4.282-5.307,1.955-2.978,2.234-4.374.838-7.54,6.516-8.658c1.955-2.327,2.141-2.792.186-5.585s-1.024-4.562-1.49-5.492-2.978-3.537-2.885-4.841a13.481,13.481,0,0,1,.372-2.327s-4.1-5.958-6.516-10.054-20.852-31.929-24.668-37.7-23.178-35.838-25.412-39.561-11.916-18.9-13.684-20.014c.651-3.537,7.54-25.878,8.936-31.37s7.261-31.463,7.261-31.463-25.972-7.168-29.974-8.378c-3.607-1.09-29.437-8.757-34.507-10.262h0c-.086.562-1.46,9.541-2.2,14.587-.763,5.21-4.575,10.336-7.074,12.835a11.339,11.339,0,0,0-3.558,8.43c-.085,3.389,3.007,7.752,3.643,10.463s.466,2.415.508,5.507-3.177,15.335-3.177,15.335,5.973,9.617,7.16,13.725a15.6,15.6,0,0,1,.127,8.43c.508,1.313,4.612,4.855,5.459,6.083.737-4.6,3.314-3.95,3.684-3.438a6.816,6.816,0,0,1,.675,5.956c-.361.926,2.456,5.157-.184,5.526-.909.127-2.325-5.628-4.3-4.974-.184.607-.662,1.513-.888,2.115-.762,2.033-.636,7.286-.254,9.7s3.05,4.236,4.278,5.55,2.118,2.33,2.161,4.363-3.643,4.745-3.643,4.745-.3,5.931.635,7.54,2.372,1.356,2.8,4.7a36.028,36.028,0,0,0,3.855,11.226c1.356,2.033,3.77,4.787,4.406,7.668a9.051,9.051,0,0,0,2.118,4.321,4.182,4.182,0,0,0-.169,1.483c0,1.1-2.076,11.183-2.076,11.183l2.118,2.839s4.151-.424,5.507.254,5.634,3.813,7.456,4.278a4.243,4.243,0,0,0,3.178-.424c1.525.932,3.389,9.108,7.921,11.65,2.071,1.16,5.761,1.186,6.736,1.271.72.847,1.652,4.109,1.186,5.21a4.116,4.116,0,0,0,.254,2.711s3.389.72,4.321,1.1,5.507,5.974,7.752,9.235a22.422,22.422,0,0,1,3.474,8.642c.424,2.161.169,10.929.169,10.929s11.6.935,16.436,1.1,22.4,3.1,22.4,3.1l4.39,1.013Z" transform="translate(-293.978 862.623)" fill="#d8374f" stroke="#fff" stroke-miterlimit="10" stroke-width="2"/>
        <path id="Контур_57" data-name="Контур 57" d="M338.168-587.226s.085,3.389,3.982,3.389C341.006-586.76,341.133-587.015,338.168-587.226Z" transform="translate(-308.217 773.888)" fill="#1e3c5c" stroke="#fff" stroke-miterlimit="10" stroke-width="2"/>
        <path id="Контур_58" data-name="Контур 58" d="M347.026-588.039s-.678,3.855,3.855,3.516C349.737-586.556,349.652-587.234,347.026-588.039Z" transform="translate(-311.059 774.15)" fill="#1e3c5c" stroke="#fff" stroke-miterlimit="10" stroke-width="2"/>
        <path id="Контур_59" data-name="Контур 59" d="M376.213-560.952c-.486.5.828,6.817,3.539,5.673C380.725-555.83,377.084-561.857,376.213-560.952Z" transform="translate(-320.443 765.452)" fill="#1e3c5c" stroke="#fff" stroke-miterlimit="10" stroke-width="2"/>
        <path id="Контур_60" data-name="Контур 60" d="M372.868-545.623c.977-.611,3.854,5.125,2.669,5.761S371.851-544.987,372.868-545.623Z" transform="translate(-319.321 760.498)" fill="#1e3c5c" stroke="#fff" stroke-miterlimit="10" stroke-width="2"/>
      </g>
    </g>
    <g id="Nevada" transform="translate(355.095 -909.706)">
      <g id="Сгруппировать_54" data-name="Сгруппировать 54" transform="translate(0 0)">
        <path id="Nevada-2" data-name="Nevada" d="M454.429-664.959a11.12,11.12,0,0,0,2.719-5.909c.276-3.306-.643-13.685-.092-15.613s2.3-5.694,5.143-3.4,2.479,3.674,4.316,3.123,3.766-1.561,4.133-3.306,1.837-14.878,2.479-16.072c0,0,6.136-31.285,7.661-40.436s9.828-49.818,10.845-54.562,2.542-13.047,2.542-13.047-31.009-5.931-38.126-7.286c-5.33-1.015-55.7-13.655-55.7-13.655s-5.865,25.971-7.261,31.463-8.285,27.833-8.936,31.37c1.768,1.117,11.449,16.29,13.684,20.014s21.6,33.79,25.412,39.561,22.248,33.6,24.668,37.7S454.429-664.959,454.429-664.959Z" transform="translate(-384.149 835.122)" fill="#1e3c5c" stroke="#fff" stroke-miterlimit="10" stroke-width="2"/>
      </g>
    </g>
    <g id="Oregon" transform="translate(305.194 -1013.395)">
      <g id="Сгруппировать_55" data-name="Сгруппировать 55" transform="translate(0 0)">
        <path id="Oregon-2" data-name="Oregon" d="M447.674-951.522c-1.685-1.516-1.685-1.853-3.706-5.728a143.417,143.417,0,0,0-25.036-6.73c-9.1-1.516-21.578-.482-29.664-1.324s-10.159-1.885-14.2-3.738a6.589,6.589,0,0,0-7.076,1.011s-2.864-.506-5.727-1.179-2.864-1.011-4.043-2.7-1.011-6.907-1.179-9.1-2.359-4.211-5.054-4.885A11.021,11.021,0,0,1,347.6-988.1c0,1.525-5.253,2.2-5.253,2.2l-.325.94-.1.285-.3.857-.094.27-.066.193-.136.391c-.1.281-.2.582-.31.895l-.047.137-.11.315-.1.283-.351,1.008-.126.363c-.219.63-.451,1.295-.691,1.987-.028.08-.057.162-.085.243-.047.133-.094.266-.14.4l-.113.323q-.23.66-.469,1.344l-.1.278-.218.625-.181.517-.052.148-.19.542-.171.488-.028.08-.247.7-.119.34q-.248.706-.5,1.418l-.122.346-.189.539-.152.429-.151.429q-.31.879-.617,1.746l-.007.021-.6,1.706c-3.219,9.065-12.708,27.79-14.657,31.348s-7.71,10.929-8.133,13.047-.085,6.354-1.44,11.184,1.228,6.651,1.228,6.651l0,.028c5.07,1.5,30.9,9.171,34.507,10.261,4,1.211,29.974,8.378,29.974,8.378s30.291,7.6,46.379,11.487c.2-1.373.456-2.845.749-4.135.843-3.706,4.717-20.215,6.739-26.617a146.4,146.4,0,0,1,5.39-13.814,7.251,7.251,0,0,1-2.19-3.538c-1.347,0-2.021-.169-1.347-3.032s5.054-7.581,5.054-7.581,1.179-.168,3.706-5.054,7.581-8.928,7.581-8.928A51.369,51.369,0,0,0,447.674-951.522Z" transform="translate(-310.526 988.101)" fill="#d8374f" stroke="#fff" stroke-miterlimit="10" stroke-width="2"/>
      </g>
    </g>
    <g id="Сгруппировать_56" data-name="Сгруппировать 56" transform="translate(1066.474 -828.524)">
      <path id="Washington_DC" data-name="Washington DC" d="M1436.086-711.244a4.02,4.02,0,0,1,.236,1.391,3.55,3.55,0,0,0,2.225-2.029s-2.116-2.766-2.635-3.465a6.975,6.975,0,0,0-2,1.56,2.887,2.887,0,0,0-.209.226A4.883,4.883,0,0,1,1436.086-711.244Z" transform="translate(-1433.701 715.348)" fill="#1e3c5c" stroke="#fff" stroke-miterlimit="10" stroke-width="2"/>
    </g>
  </g>
</svg>
