<svg xmlns="http://www.w3.org/2000/svg" width="50.335" height="50.335" viewBox="0 0 50.335 50.335">
  <g id="Twitter" transform="translate(0)">
    <circle id="Oval" cx="25.168" cy="25.168" r="25.168" transform="translate(0)" fill="#2aa3ef"/>
    <path id="Twitter-2" data-name="Twitter" d="M20.65,1.986a8.5,8.5,0,0,1-2.433.668A4.249,4.249,0,0,0,20.079.31a8.467,8.467,0,0,1-2.691,1.027,4.239,4.239,0,0,0-7.329,2.9,4.284,4.284,0,0,0,.111.966A12.027,12.027,0,0,1,1.438.775,4.24,4.24,0,0,0,2.749,6.43,4.2,4.2,0,0,1,.831,5.9v.054a4.237,4.237,0,0,0,3.4,4.153,4.23,4.23,0,0,1-1.116.149,4.167,4.167,0,0,1-.8-.077,4.243,4.243,0,0,0,3.958,2.942,8.511,8.511,0,0,1-5.263,1.812A8.539,8.539,0,0,1,0,14.875a11.989,11.989,0,0,0,6.495,1.9A11.971,11.971,0,0,0,18.549,4.727c0-.185,0-.366-.012-.548A8.611,8.611,0,0,0,20.65,1.987Z" transform="translate(14.843 16.778)" fill="#fff"/>
  </g>
</svg>
