<svg id="youtube-symbol" xmlns="http://www.w3.org/2000/svg" width="30" height="30" viewBox="0 0 30 30">
  <g id="Сгруппировать_5213" data-name="Сгруппировать 5213" transform="translate(0 0)">
    <path id="Контур_9748" data-name="Контур 9748" d="M39.969,43.769,46.7,40.277l-6.734-3.513Z" transform="translate(-27.702 -25.481)" fill="#1e3c5c"/>
    <path id="Контур_9749" data-name="Контур 9749" d="M15,0A15,15,0,1,0,30,15,15,15,0,0,0,15,0ZM25.22,20.007a2.676,2.676,0,0,1-2.29,2.081A71.033,71.033,0,0,1,15,22.381a71.06,71.06,0,0,1-7.932-.294,2.674,2.674,0,0,1-2.289-2.081A22.675,22.675,0,0,1,4.409,15a22.674,22.674,0,0,1,.374-5.007A2.675,2.675,0,0,1,7.071,7.912,71.133,71.133,0,0,1,15,7.618a71.1,71.1,0,0,1,7.931.293,2.675,2.675,0,0,1,2.29,2.081A22.672,22.672,0,0,1,25.59,15,22.674,22.674,0,0,1,25.22,20.007Z" transform="translate(0 0)" fill="#1e3c5c"/>
  </g>
</svg>
