<svg xmlns="http://www.w3.org/2000/svg" width="30" height="30" viewBox="0 0 30 30">
  <path id="google-plus" d="M15,30A15,15,0,1,0,0,15,15.005,15.005,0,0,0,15,30Zm5.354-16.071H22.5V11.782h2.148V13.93h2.129v2.148H24.649v2.147H22.5V16.078H20.354ZM10.724,7.5a7.254,7.254,0,0,1,5.021,1.954l-2.033,1.972a4.25,4.25,0,0,0-2.989-1.155,4.724,4.724,0,0,0,0,9.448,4.066,4.066,0,0,0,4.24-3.224h-4.24V13.917H17.8a6.592,6.592,0,0,1,.115,1.251c0,4.283-2.874,7.33-7.186,7.33h0a7.5,7.5,0,1,1,0-15Z" fill="#1e3c5c"/>
</svg>
