<svg xmlns="http://www.w3.org/2000/svg" width="29.708" height="25.747" viewBox="0 0 29.708 25.747">
  <g id="Сгруппировать_11106" data-name="Сгруппировать 11106" transform="translate(-12073 -15848)">
    <g id="noun_GPS_1748051" transform="translate(12073 15848)">
      <path id="Контур_12262" data-name="Контур 12262" d="M27.212,21.659a.5.5,0,0,0-.455-.3H19.791c1.652-2.63,3.5-6,3.5-7.922a6.437,6.437,0,1,0-12.873,0c0,1.923,1.848,5.292,3.5,7.922H6.951a.5.5,0,0,0-.455.3L2.04,32.057a.5.5,0,0,0,.455.69H31.213a.5.5,0,0,0,.455-.69Zm-4.059.69H26.43l.524,1.227-.657.219-.807-.4a.492.492,0,0,0-.342-.037l-1.708.427-.576-.576ZM11.408,13.437a5.446,5.446,0,1,1,10.893,0c0,2.369-3.62,7.965-5.446,10.54C15.028,21.4,11.408,15.806,11.408,13.437Zm6.666,10.522c1.1.228,1.751.723,1.751,1.114,0,.517-1.13,1.238-2.971,1.238s-2.971-.721-2.971-1.238c0-.39.652-.886,1.751-1.114.456.659.767,1.086.82,1.159a.5.5,0,0,0,.8,0C17.307,25.045,17.619,24.617,18.074,23.959Zm-10.8-1.61h3.2l-.371.557-1.675.418-1.424-.356Zm9.6,8.261L16.5,31.757H3.246L6.618,23.89l1.7.425a.5.5,0,0,0,.241,0l1.981-.5a.5.5,0,0,0,.292-.205l.843-1.265h2.88c.168.258.331.5.486.735-1.322.365-2.145,1.1-2.145,1.988,0,1.27,1.7,2.228,3.961,2.228s3.961-.958,3.961-2.228c0-.885-.823-1.624-2.145-1.988.155-.231.318-.477.486-.735h2.952l-.278.834a.5.5,0,0,0,.12.507l.99.99a.5.5,0,0,0,.47.13l1.8-.451.826.413a.487.487,0,0,0,.378.026l.929-.309.73,1.7-2.228-.371a.507.507,0,0,0-.3.045l-2.921,1.462L20.7,27.81a.5.5,0,0,0-.323.259l-.882,1.764-2.238.448A.5.5,0,0,0,16.879,30.61Zm.662,1.147.187-.561,2.2-.439a.5.5,0,0,0,.347-.264l.888-1.777,1.76-.44a.526.526,0,0,0,.1-.037l2.827-1.414,2.7.45,1.92,4.482Z" transform="translate(-2 -7)" fill="#d8374f"/>
      <path id="Контур_12263" data-name="Контур 12263" d="M31.922,15.961a3.961,3.961,0,1,0-3.961,3.961A3.961,3.961,0,0,0,31.922,15.961Zm-6.932,0a2.971,2.971,0,1,1,2.971,2.971A2.971,2.971,0,0,1,24.99,15.961Z" transform="translate(-13.107 -9.524)" fill="#d8374f"/>
      <path id="Контур_12264" data-name="Контур 12264" d="M18.368,46.749a.5.5,0,0,0-.168-.191l-1.4-.935-.935-1.4a.5.5,0,0,0-.414-.22H13.961a.5.5,0,0,0-.35.145l-.792.792L11.11,44.51a.5.5,0,0,0-.6.36l-.5,1.981a.5.5,0,0,0,.068.4l.99,1.485a.5.5,0,0,0,.292.205l1.981.5a.5.5,0,0,0,.12.013h1.485a.5.5,0,0,0,.221-.05l.807-.4,1.291.43a.489.489,0,0,0,.156.023.5.5,0,0,0,.35-.145l.99-.99a.5.5,0,0,0,.093-.571ZM17.3,48.383l-1.2-.4a.489.489,0,0,0-.378.026l-.886.446h-1.31l-1.735-.434-.763-1.144.322-1.287,1.5.375a.5.5,0,0,0,.47-.13l.845-.848h1.016l.842,1.265a.5.5,0,0,0,.137.137l1.376.917.277.554Z" transform="translate(-6.039 -25.68)" fill="#d8374f"/>
    </g>
  </g>
</svg>
