<svg xmlns="http://www.w3.org/2000/svg" width="26.014" height="26" viewBox="0 0 26.014 26">
  <g id="noun_live_1178704" transform="translate(-2 -2)">
    <path id="Контур_12259" data-name="Контур 12259" d="M14.671,22.259a7.587,7.587,0,1,0-7.587-7.587A7.587,7.587,0,0,0,14.671,22.259Zm0,1.084a8.671,8.671,0,1,1,8.671-8.671A8.671,8.671,0,0,1,14.671,23.343Z" transform="translate(0.336 0.336)" fill="#d8374f"/>
    <path id="Контур_12260" data-name="Контур 12260" d="M14.336,16.5a2.168,2.168,0,1,0-2.168-2.168A2.168,2.168,0,0,0,14.336,16.5Zm0,2.168a4.336,4.336,0,1,1,4.336-4.336A4.336,4.336,0,0,1,14.336,18.671Z" transform="translate(0.671 0.671)" fill="#d8374f"/>
    <path id="Контур_12261" data-name="Контур 12261" d="M16.854,27.863a.552.552,0,1,1,.552-.552A.552.552,0,0,1,16.854,27.863Zm-1.99.13a.552.552,0,1,1,.631-.459A.552.552,0,0,1,14.864,27.993Zm-1.986-.175a.552.552,0,1,1,.7-.354A.552.552,0,0,1,12.878,27.818Zm-1.927-.472a.552.552,0,1,1,.738-.254A.552.552,0,0,1,10.951,27.346ZM9.11,26.58a.552.552,0,1,1,.769-.136A.552.552,0,0,1,9.11,26.58Zm-1.7-1.038a.552.552,0,1,1,.78-.014A.552.552,0,0,1,7.407,25.542ZM5.883,24.256a.552.552,0,1,1,.773.109A.552.552,0,0,1,5.883,24.256Zm-1.3-1.5a.552.552,0,1,1,.75.215A.552.552,0,0,1,4.578,22.761ZM3.513,21.076a.552.552,0,1,1,.707.33A.552.552,0,0,1,3.513,21.076Zm-.8-1.828a.552.552,0,1,1,.647.436A.552.552,0,0,1,2.717,19.247ZM2.21,17.319a.552.552,0,1,1,.571.532A.552.552,0,0,1,2.21,17.319ZM2,15.336a.552.552,0,1,1,.481.615A.552.552,0,0,1,2,15.336Zm.1-1.982a.552.552,0,1,1,.39.676A.552.552,0,0,1,2.1,13.354ZM2.5,11.4a.552.552,0,1,1,.28.729A.552.552,0,0,1,2.5,11.4ZM3.2,9.531a.552.552,0,1,1,.162.763A.552.552,0,0,1,3.2,9.531ZM4.169,7.79a.552.552,0,1,1,.041.779A.552.552,0,0,1,4.169,7.79ZM5.388,6.225A.552.552,0,1,1,5.32,7,.552.552,0,0,1,5.388,6.225ZM6.84,4.858a.552.552,0,1,1-.189.757A.552.552,0,0,1,6.84,4.858ZM8.483,3.729a.552.552,0,1,1-.3.718A.552.552,0,0,1,8.483,3.729Zm1.8-.865a.552.552,0,1,1-.414.662A.552.552,0,0,1,10.28,2.864Zm1.908-.58a.552.552,0,1,1-.512.589A.552.552,0,0,1,12.188,2.284ZM14.152,2a.552.552,0,1,1-.589.512A.552.552,0,0,1,14.152,2Zm1.994.022a.552.552,0,1,1-.662.414A.552.552,0,0,1,16.146,2.023Zm1.967.326a.552.552,0,1,1-.718.3A.552.552,0,0,1,18.113,2.349Zm1.894.623a.552.552,0,1,1-.757.189A.552.552,0,0,1,20.007,2.972Zm1.777.905a.552.552,0,1,1-.778.068A.552.552,0,0,1,21.784,3.877Zm1.611,1.159A.552.552,0,1,1,22.615,5,.552.552,0,0,1,23.395,5.036Zm1.421,1.4a.552.552,0,1,1-.763-.162A.552.552,0,0,1,24.816,6.434Zm1.191,1.6a.552.552,0,1,1-.729-.28A.552.552,0,0,1,26.007,8.034ZM26.94,9.8a.552.552,0,1,1-.676-.39A.552.552,0,0,1,26.94,9.8Zm.651,1.875a.552.552,0,1,1-.615-.481A.552.552,0,0,1,27.591,11.67Zm.358,1.962a.552.552,0,1,1-.532-.571A.552.552,0,0,1,27.949,13.632ZM28,15.625a.552.552,0,1,1-.436-.647A.552.552,0,0,1,28,15.625ZM27.753,17.6a.552.552,0,1,1-.33-.707A.552.552,0,0,1,27.753,17.6ZM27.2,19.52a.552.552,0,1,1-.215-.75A.552.552,0,0,1,27.2,19.52Zm-.831,1.8a.552.552,0,1,1-.109-.773A.552.552,0,0,1,26.372,21.322Zm-1.1,1.662a.552.552,0,1,1,.014-.78A.552.552,0,0,1,25.27,22.984Zm-1.343,1.474a.552.552,0,1,1,.136-.769A.552.552,0,0,1,23.927,24.457Zm-1.553,1.251a.552.552,0,1,1,.254-.738A.552.552,0,0,1,22.374,25.708Zm-1.716,1a.552.552,0,1,1,.354-.7A.552.552,0,0,1,20.658,26.7ZM18.8,27.43a.552.552,0,1,1,.459-.631A.552.552,0,0,1,18.8,27.43Z" transform="translate(0 0)" fill="#d8374f" fill-rule="evenodd"/>
  </g>
</svg>
