<svg xmlns="http://www.w3.org/2000/svg" width="952.25" height="610.055" viewBox="0 0 952.25 610.055">
  <g id="Сгруппировать_11144" data-name="Сгруппировать 11144" transform="translate(-483.251 -2288.623)">
    <g id="Сгруппировать_11131" data-name="Сгруппировать 11131" transform="translate(-30.5)">
      <g id="Сгруппировать_11111" data-name="Сгруппировать 11111" transform="translate(210.021 3355.895)">
        <path id="Контур_19" data-name="Контур 19" d="M716.374-222.977c2.872.478,8.14,2.274,10.235,4.13s4.19,2.932,5.626,5.806,1.855,3.411,3.172,4.069,2.035,1.138,1.856,2.155a7.722,7.722,0,0,1-4.968,4.968c-3.112.9-4.669.359-5.746.9s-4.25,4.908-5.147,5.746a2.94,2.94,0,0,1-4.37-.06,7.208,7.208,0,0,1-1.616-4.788c0-.778.3-4.01-.658-5.806s-2.275-4.489-2.275-5.746.3-1.611,1.316-2.574c1.078-1.017,2.993-2.813,2.574-4.608a13.76,13.76,0,0,1-.778-3.112C715.655-222.737,716.067-223.028,716.374-222.977Z" transform="translate(-130.827 -263.72)" fill="none" stroke="#fff" stroke-miterlimit="10" stroke-width="1.5"/>
        <path id="Контур_20" data-name="Контур 20" d="M693.159-246.667c.778-.958,1.736-1.2,4.369.18s7.28,3.183,7.9,3.711c.971.825,1.584,2.4-.119,3.412-1.587.938-4.364,2.019-5.746,1.437-2.275-.957-6.584-6.164-6.584-7.123A6.757,6.757,0,0,1,693.159-246.667Z" transform="translate(-124.73 -256.07)" fill="none" stroke="#fff" stroke-miterlimit="10" stroke-width="1.5"/>
        <path id="Контур_21" data-name="Контур 21" d="M681.224-244.308a7.6,7.6,0,0,1,3.411.658c1.078.718,1.916,2.035,1.138,3.352s-2.694-.359-3.592-1.616S681.7-244.068,681.224-244.308Z" transform="translate(-121.055 -257.053)" fill="#d8374f" stroke="#fff" stroke-miterlimit="10" stroke-width="1.5"/>
        <path id="Контур_22" data-name="Контур 22" d="M675.652-250.869a59.341,59.341,0,0,0,6.284,1.556c1.437.12,4.25-.12,4.609-1.855C684.45-251.527,677.866-252.305,675.652-250.869Z" transform="translate(-119.313 -254.742)" fill="#d8374f" stroke="#fff" stroke-miterlimit="10" stroke-width="1.5"/>
        <path id="Контур_23" data-name="Контур 23" d="M650.784-268.545s1.948,4.124,3.208,5.385,3.437,2.176,3.322,3.093-2.062,1.031-3.322.8a8.6,8.6,0,0,1-2.978-1.719s-1.146,1.49-2.292.8-3.551-3.781-3.437-5.155C647.921-267.055,650.784-268.545,650.784-268.545Z" transform="translate(-109.819 -249.477)" fill="none" stroke="#fff" stroke-miterlimit="10" stroke-width="1.5"/>
        <path id="Контур_24" data-name="Контур 24" d="M607.349-285.537c1.156.385,1.26,5.5.573,6.759s-2.635.23-3.666-.229-4.812-1.375-3.437-4.239S605.287-286.225,607.349-285.537Z" transform="translate(-95.827 -244.056)" fill="none" stroke="#fff" stroke-miterlimit="10" stroke-width="1.5"/>
        <path id="Контур_25" data-name="Контур 25" d="M588.346-278.545s2.177,1.031.687,2.521a3.379,3.379,0,0,1-2.749,1.26S586.055-277.628,588.346-278.545Z" transform="translate(-91.374 -246.351)" fill="#d8374f" stroke="#fff" stroke-miterlimit="10" stroke-width="1.5"/>
        <path id="Контур_26" data-name="Контур 26" d="M696.36-232.805s-.293-.5-1.419,0-2.338.834-2.213,1.252,1.879,1.169,2.755,1.127,1.754-.835,1.629-1.378A2.158,2.158,0,0,0,696.36-232.805Z" transform="translate(-124.648 -260.58)" fill="#d8374f" stroke="#fff" stroke-miterlimit="10" stroke-width="1.5"/>
        <g id="Michigan" transform="translate(844.762 -998.946)">
          <path id="Michigan-2" data-name="Michigan" d="M1244.994-813.926a2.043,2.043,0,0,1-.639-2.114c.081-.811,2.472-4.538,3.89-6.6a5.28,5.28,0,0,1,2.026-7.212c.973-5.915,5.308-7.7,5.308-7.7s.323-4.578.526-7.617c-1.54-1.175-2.755-7.293-3.647-10.818s-2.593-7.941-6.038-8.793-5.51,1.54-6.28,2.026-1.579,9.117-6.4,7.415-3.606-5.713-3.241-6.523,1.742-1.256,3.08-1.54a7.632,7.632,0,0,1,4.294-6.969s.041-6.2.041-9.238-1.62-4.254-2.714-5.389a2.116,2.116,0,0,1-.729-2.107s1.175-.688,2.391-1.458c-2.107-.608-2.715-3.08-3.565-4.984a19.455,19.455,0,0,1-11.629-3.363,2.8,2.8,0,0,0-2.31-.527c-4.336.567-6-2.147-6-2.147s-.243.162-3.161,1.742-2.674,2.229-2.593,3.16,3.4,3.93,3.4,3.93a13.871,13.871,0,0,1-4.619,1.985c-2.553.527-1.743,3.08-1.58,4.822a34.728,34.728,0,0,0,1.459,5.47s-3.971,2.066-4.9,1.985-1.013-1.418-1.054-2.553,1.58-5.429,1.9-6.4c-.526-.567-1.9-.081-1.9-.081s-.729,2.553-1.256,4.093c-2.431.526-4.376,3.362-4.376,3.362a3.73,3.73,0,0,1,.405,2.877c-.405,1.742-3,1.5-3,1.5a19.39,19.39,0,0,1,.689,4.376c0,1.945-.892,4.254-1.661,7.131s.121,6.4.121,7.7-2.31,5.591.608,9.805,5.631,8.265,6.2,12.033-.283,8.145-2.188,13.411a55.048,55.048,0,0,1-5.673,10.7s7.52-.257,12.669-.846c5.841-.667,19.522-2.169,19.522-2.169C1231.885-812.583,1239.08-813.129,1244.994-813.926Z" transform="translate(-1124.921 946.736)" fill="#1e3c5c" stroke="#fff" stroke-miterlimit="10" stroke-width="1.5"/>
          <path id="Контур_27" data-name="Контур 27" d="M1190.92-923.93c-.447-.626-.67-1.61-.8-4.784s-.179-2.191-.581-2.905a31.9,31.9,0,0,1-7.377,2.5c-2.816.626-5.1-.268-5.589-.939s-.223-3.219-.447-4.515-1.073-.894-1.967-.715-5.365,3.264-6.26,3.711-5.365.268-7.152.447-6.394,3.89-7.914,4.783-2.907,1.342-4.113.313a3.557,3.557,0,0,0-3.667-.76c-1.52.357-3.174.537-4.2-.09s-2.459-3.755-5.723-6.125a8.542,8.542,0,0,0-6.572-1.922c-1.3.045-3.263,3.175-4.292,3.4s-.85-.939-.76-1.7a21.491,21.491,0,0,1,2.235-4.739c.849-1.386,2.414-2.951,2.861-3.979s1.61-2.593,2.593-2.727,1.609-.671,1.565-1.3-.491-.76-2.5-.671-6.215,3.4-8.405,5.142-4.649,5.633-5.365,6.483a22.557,22.557,0,0,1-5.454,3.755,10.609,10.609,0,0,1-5.947,1.162c-1.475,0-1.967,2.1-3.353,3.576s-3.89,1.3-5.187,1.61a2.533,2.533,0,0,0-1.3,1.269,3.115,3.115,0,0,0,.759-.262,35.986,35.986,0,0,1,3.768,4.538,25.646,25.646,0,0,1,12.6,2.391,48.424,48.424,0,0,0,15.113,3.606c2.552.242,4.74,1.134,4.781,3.241.851.04,2.958.365,3.525,1.054-.041,1.418-1.013,8.711.689,8.549a2.92,2.92,0,0,0,1.285-.283c-.046.761-.119,4.027,1.916,5.348-.113.285-.317.722-.57,1.24l.556-.1a27.819,27.819,0,0,1,1.272-2.738c.8-1.52,4.6-11.49,5.1-12.831s.8-2.95,2.5-2.95a33.586,33.586,0,0,0,5.052-.313c1.207-.224,1.744.045,3.622.536,2.414-5.767,6.84-4.963,8.762-4.918s3.309-1.654,3.756-2.28c.491-.223,10.685.135,12.429.224s11.087-1.3,11.087-1.878S1191.367-923.3,1190.92-923.93Z" transform="translate(-1095.241 961.454)" fill="#1e3c5c" stroke="#fff" stroke-miterlimit="10" stroke-width="1.5"/>
          <path id="Контур_28" data-name="Контур 28" d="M1243.4-912.828s.407,3.636,2.417,3.681a2.623,2.623,0,0,0,2.568-1.436C1248.745-911.5,1247.373-913.009,1243.4-912.828Z" transform="translate(-1141.556 950.88)" fill="#1e3c5c" stroke="#fff" stroke-miterlimit="10" stroke-width="1.5"/>
          <path id="Контур_29" data-name="Контур 29" d="M1129.587-968.178a59.931,59.931,0,0,1-6.6,3.981c-1.933.8-4.55,1.82-3.64,3.185s2.389,1.706,4.551-.228S1130.725-967.5,1129.587-968.178Z" transform="translate(-1102.719 968.178)" fill="#1e3c5c" stroke="#fff" stroke-miterlimit="10" stroke-width="1.5"/>
        </g>
        <g id="Maine" transform="translate(1142.086 -1036.398)">
          <path id="Maine-2" data-name="Maine" d="M1590.3-979.229c-1.118-1.8-3.895-2.629-3.895-2.629-1.068,1.6-2.535,1.735-4.27.267s-1.467-5.737-1.868-6.671-5.336-.533-6.137-1.2-8.4-27.482-9.206-28.95-6.4-3.335-8-4.136-3.736,2.8-5.07,4-1.734,1.067-3.6,1.468-2.935-1.868-4.937-3.87c-2,2.8-5.47,13.475-6.4,17.077s-.267,6.4-.534,8.005-1.068,1.334-1.6,4.936,1.867,5.07,2,6.537,0,2.268-2.668,6.671-1.6,10.806-1.6,10.806a13.67,13.67,0,0,0-3.469-.667,1.669,1.669,0,0,0-1.258.789c1.354,4.161,3.151,9.894,4.3,14.393,2.048,8.007,5.772,22.531,6.7,24.021s3.549,1.983,4.479,3.1c.9,1.079.163,3.406,3.587,3.312h0c.232-.182.486-.339.486-.339s.172-5.155.473-6.53,1.117-4.124,1.546-5.542a8.666,8.666,0,0,0,.387-2.663c.042-.6-.817-1.5-.817-1.5a.867.867,0,0,1,.172-.43c.172-.258,3.093-2.921,3.093-2.921a2.8,2.8,0,0,0,1.976,1.031c1.461.215,3.137-1.2,4.941-2.62s2.148-3.953,2.491-4.168,2.019-.687,2.792-1.8.688-6.229.645-7.776a2.185,2.185,0,0,1-1.075-1.289,5.612,5.612,0,0,1,2.578-1.762c.215,1.16.43,2.75,1.848,2.492,1.349-.245,1.589,2.879,1.632,3.824a2.676,2.676,0,0,0,1.547-2.836,13.877,13.877,0,0,1-.429-2.663c-.086-1.2,2.555-2.975,3.823-3.609.258-.129,1.934-.945,2.449.687s1.633.688,2.191.688,2.621-3.222,4.3-4.941a23.946,23.946,0,0,1,4.3-3.609,6.439,6.439,0,0,0,2.449-3.651A6.168,6.168,0,0,0,1590.3-979.229Z" transform="translate(-1527.779 1022.663)" fill="#167a91" stroke="#fff" stroke-miterlimit="10" stroke-width="1.5"/>
          <path id="Контур_30" data-name="Контур 30" d="M1585.989-922.433s2.624,2.435.332,4.011C1584.172-919.066,1584.175-922.232,1585.989-922.433Z" transform="translate(-1545.563 991.331)" fill="#38b4d6" stroke="#fff" stroke-miterlimit="10" stroke-width="1.5"/>
          <path id="Контур_31" data-name="Контур 31" d="M1597.388-932.646s2.293,3.081-.788,3.941c-1.432-.072-1.83-.784-1.256-2.36A2.292,2.292,0,0,1,1597.388-932.646Z" transform="translate(-1548.821 994.523)" fill="#38b4d6" stroke="#fff" stroke-miterlimit="10" stroke-width="1.5"/>
        </g>
        <g id="New_Hampshire" data-name="New Hampshire" transform="translate(1132.718 -980.528)">
          <g id="Сгруппировать_18" data-name="Сгруппировать 18" transform="translate(0 0)">
            <path id="New_Hampshire-2" data-name="New Hampshire" d="M1541.546-891.856c-.019-.047-.042-.1-.059-.143-.6-1.675.6-4.039.817-4.3a1.994,1.994,0,0,1,.289-.264c-3.425.094-2.689-2.233-3.588-3.312-.931-1.118-3.549-1.61-4.479-3.1s-4.655-16.014-6.7-24.021c-1.151-4.5-2.949-10.233-4.3-14.393a7.406,7.406,0,0,0-1.011,2.146,2.7,2.7,0,0,0-2-2c-1.734,2.134-2.135,7.2-2.135,7.2s-.407,4.023.4,5.5,2.146,3.085.536,6.17a13.673,13.673,0,0,1-4.56,4.962c-.536.4-.8,0-.4,3.89a141.368,141.368,0,0,1,.134,15.021c-.134,3.353-.536,7.779.269,11.669a37.288,37.288,0,0,0,1.111,3.985h0a57.723,57.723,0,0,1,6.657-1.681c3.018-.3,7.243-.3,10.411-1.659,1.685-.722,5.458-3.362,8.623-5.677Z" transform="translate(-1514.15 941.385)" fill="#167a91" stroke="#fff" stroke-miterlimit="10" stroke-width="1.5"/>
          </g>
        </g>
        <g id="Vermont" transform="translate(1109.67 -973.18)">
          <g id="Сгруппировать_19" data-name="Сгруппировать 19" transform="translate(0 0)">
            <path id="Vermont-2" data-name="Vermont" d="M1489.88-926.025c-1.81.409-5.333,1.482-9.259,2.56h0c.542,2.279,1.044,4.509,1.64,6.363,1.265,3.935,2.108,9.415,1.967,10.96s-.984,2.67.141,4.5,1.545,5.058,1.4,7.447a6.187,6.187,0,0,1,4.5,4.216,86.677,86.677,0,0,1,2.67,14.192c0,.03,0,.068,0,.1,2.888-.917,8.116-2.557,12.432-3.809a37.136,37.136,0,0,1-1.109-3.985c-.806-3.89-.4-8.316-.269-11.669a141.211,141.211,0,0,0-.134-15.022c-.4-3.89-.135-3.487.4-3.89a13.68,13.68,0,0,0,4.56-4.962c1.609-3.085.267-4.695-.537-6.17s-.4-5.5-.4-5.5S1494.016-926.959,1489.88-926.025Z" transform="translate(-1480.621 930.694)" fill="#1e3c5c" stroke="#fff" stroke-miterlimit="10" stroke-width="1.5"/>
          </g>
        </g>
        <g id="Massachusets" transform="translate(1121.718 -930.999)">
          <path id="Massachusets-2" data-name="Massachusets" d="M1541.511-840.818c.086-.6,1.461-4.425,3.05-4.168s1.5,3.781,1.5,3.781a34.611,34.611,0,0,1,6.229-4.3,10.95,10.95,0,0,1,4.769-.816,10.239,10.239,0,0,0,.086-2.492c-.086-1.762-.559-2.879-2.363-4.812a2.969,2.969,0,0,0-3.652-.859s2.75,1.547,3.136,2.664-.687,2.449-2.019,3.651-4.726.043-5.413-.386-2.406-4.6-3.351-5.843-2.449-1.074-3.824-1.2-2.148-1.161-2.878-2.234-.3-2.406.043-3.522,2.663-3.781,2.663-3.781a20.022,20.022,0,0,1-2.949-4.2c-3.166,2.315-6.938,4.955-8.624,5.677-3.168,1.358-7.393,1.358-10.411,1.66-2.372.237-14.15,3.921-19.087,5.488-.018,2.366-.69,10.2.141,13.248.255.933.612,2.161.989,3.5-.181-.643-.358-1.264-.521-1.836a95.949,95.949,0,0,0,10.028-1.238c4.526-.905,15.993-3.621,15.993-3.621l7.393-1.961s.6.9,2.113,2.716a84.964,84.964,0,0,1,5.718,6.972c.5-.328.867-.569.977-.63C1541.64-839.572,1541.425-840.217,1541.511-840.818Z" transform="translate(-1498.148 869.332)" fill="#167a91" stroke="#fff" stroke-miterlimit="10" stroke-width="1.5"/>
          <path id="Контур_32" data-name="Контур 32" d="M1571.088-825.2a3.567,3.567,0,0,0-2.155.058c-.7.436-1.282,1.281-.99,1.485A2.8,2.8,0,0,0,1571.088-825.2Z" transform="translate(-1519.943 855.583)" fill="#1e3c5c" stroke="#fff" stroke-miterlimit="10" stroke-width="1.5"/>
          <path id="Контур_33" data-name="Контур 33" d="M1579.077-825.055l2.912-2.446s1.776.466,1.748,1.457S1579.077-825.055,1579.077-825.055Z" transform="translate(-1523.447 856.255)" fill="#1e3c5c" stroke="#fff" stroke-miterlimit="10" stroke-width="1.5"/>
        </g>
        <path id="Delaware" d="M1467.313-747.41c-2.164-1.546-5.151,1.236-5.151,1.236s3.194,10.921,3.812,14.219,3.091,14.837,3.091,14.837,2.369-.31,4.843-.619,4-.413,5.658-3.916c0,0-4.382-5.07-5.8-8.077a49.466,49.466,0,0,0-2.965-5.37c-1.074-1.375-3.953-3.308-4.3-4.339s-.859-3.695.258-4.039A8.25,8.25,0,0,1,1467.313-747.41Z" transform="translate(-365.181 -99.635)" fill="#1e3c5c" stroke="#fff" stroke-miterlimit="10" stroke-width="1.5"/>
        <g id="Rhode_Island" data-name="Rhode Island" transform="translate(1148.623 -910.083)">
          <g id="Сгруппировать_20" data-name="Сгруппировать 20" transform="translate(0)">
            <path id="Rhode_Island-2" data-name="Rhode Island" d="M1546.793-836.187c-1.508-1.811-2.112-2.716-2.112-2.716l-7.393,1.961s3.285,4.147,3.044,14.936c2.941-1.283,5.6-2.516,5.853-2.641.515-.258.6-.9,2.019-1.761,1.012-.613,3.068-1.989,4.307-2.807A84.988,84.988,0,0,0,1546.793-836.187Z" transform="translate(-1537.288 838.903)" fill="#d8374f" stroke="#fff" stroke-miterlimit="10" stroke-width="1.5"/>
          </g>
        </g>
        <g id="New_York" data-name="New York" transform="translate(1021.629 -965.951)">
          <g id="Сгруппировать_21" data-name="Сгруппировать 21" transform="translate(0 0)">
            <path id="New_York-2" data-name="New York" d="M1473.782-838.54c-1.374.731-7.475,4.6-8.764,4.812a36.856,36.856,0,0,1-5.2-.086s-3.609,4.3-4.468,4.769-.559-2.835-.559-2.835l1.689-1.8a3.282,3.282,0,0,1-1.187-2.288c0-.843,2.529-1.967,2.529-1.967a7.313,7.313,0,0,1-1.686-1.827c-.422-.843,0-4.075-.141-7.025s-2.107-9.274-2.951-12.365-.141-11.1-.141-13.349a86.658,86.658,0,0,0-2.669-14.192,6.188,6.188,0,0,0-4.5-4.216c.14-2.388-.281-5.62-1.406-7.447s-.281-2.951-.141-4.5-.7-7.026-1.968-10.96c-.6-1.854-1.1-4.084-1.639-6.363-5.045,1.385-10.756,2.777-14.359,2.777-6.4,0-8.149,2.383-8.149,2.383-4.173,1.9-6.442,5.915-8.063,8.468a143.513,143.513,0,0,1-9.035,11.467c-2.634,3.038-.811,4.781-.811,4.781a4.765,4.765,0,0,1,2.431.932,10.4,10.4,0,0,1-.283,4.619s1.621,1.9,1.3,3.606-.972,1.824-3.444,2.674a24.247,24.247,0,0,1-6.928,6.685c-1.58.811-4.417.365-5.916.365s-3.322,2.187-4.255,2.269-2.147-1.256-8.1-.77-10.818,3.12-13.9,4.863c-.77,2.552,1.337,4.052,2.229,4.781a25.3,25.3,0,0,1,2.755,3.565s-5.349,6.929-9.644,11.548c-1.391,1.5-2.667,2.749-3.869,3.86l.416,5.931s13.978-1.145,24.288-2.979,32.079-7.332,37.119-8.707,7.1-1.145,11.914-.916,5.706,8.332,6.416,8.478c4.088.839,5.269,2.521,5.269,2.521a75.586,75.586,0,0,0,7.788,2.8c2.953.765,6.453,1.422,6.234,4.047s-.42,2.05.829,4.307c0,0,2.663.3,4.21.3s8.893-3.222,10.483-3.781,4.124-3.781,4.124-3.781,6.7-4.512,8.164-6.359C1477.692-840.688,1475.157-839.27,1473.782-838.54Z" transform="translate(-1352.542 920.178)" fill="#d8374f" stroke="#fff" stroke-miterlimit="10" stroke-width="1.5"/>
          </g>
        </g>
        <g id="Connecticut" transform="translate(1122.601 -908.121)">
          <g id="Сгруппировать_22" data-name="Сгруппировать 22" transform="translate(0 0)">
            <path id="Connecticut-2" data-name="Connecticut" d="M1509.461-832.428a95.932,95.932,0,0,1-10.028,1.237c.947,3.324,2.365,8.21,2.483,10.7.141,2.951-.281,6.182.141,7.025a7.33,7.33,0,0,0,1.686,1.827s-2.53,1.124-2.53,1.967a3.283,3.283,0,0,0,1.187,2.288l.889-.949s6.531-5.8,8.421-7.175,6.616-2.148,9.065-2.62a59.772,59.772,0,0,0,7.723-2.987c.241-10.79-3.044-14.936-3.044-14.936S1513.988-833.334,1509.461-832.428Z" transform="translate(-1499.433 836.05)" fill="#167a91" stroke="#fff" stroke-miterlimit="10" stroke-width="1.5"/>
          </g>
        </g>
        <g id="New_Jersey" data-name="New Jersey" transform="translate(1100.866 -882.752)">
          <g id="Сгруппировать_23" data-name="Сгруппировать 23" transform="translate(0 0)">
            <path id="New_Jersey-2" data-name="New Jersey" d="M1485.242-782.918l3.609-5.069c-1.249-2.256-1.047-1.681-.828-4.307s-3.281-3.282-6.235-4.047a75.592,75.592,0,0,1-7.787-2.8l-3.208,1.833c.687,3.9,0,4.583-2.292,7.791,2.062,3.208-.687,4.583-.687,4.583s.459,2.062.687,3.437,2.062,1.6,3.208,2.978,3.438,2.75,7.791,5.728c-3.208,1.146-10.42,9.357-10.42,9.357a8.26,8.26,0,0,0-.55,3.933c-.043,2.835,3.823,4.468,4.854,5.284a11.9,11.9,0,0,0,5.069,1.8c1.547.129,2.578.215,3.136,1.117-.172,2.234-.3,4.6-.3,4.6a5.83,5.83,0,0,0,2.192-.859c.472-.515.644-4.9.859-6.058s4.081-7.432,4.64-8.249,1.375-4.425,1.761-6.315.172-4.941.257-8.12-.042-4.554-1.16-5.757S1485.242-782.918,1485.242-782.918Z" transform="translate(-1467.814 799.143)" fill="#d8374f" stroke="#fff" stroke-miterlimit="10" stroke-width="1.5"/>
          </g>
        </g>
        <g id="Pensilvania" transform="translate(1011.31 -893.923)">
          <g id="Сгруппировать_24" data-name="Сгруппировать 24" transform="translate(0 0)">
            <path id="Pensilvania-2" data-name="Pensilvania" d="M1387.243-758.213c5.357-1.03,26.273-4.842,28.54-5.563a41.531,41.531,0,0,0,5.048-1.649,9.769,9.769,0,0,0,2.37-1.854s2.987-2.782,5.151-1.236c0,0,7.212-8.211,10.419-9.358-4.353-2.978-6.644-4.353-7.79-5.728s-2.979-1.6-3.208-2.978-.687-3.437-.687-3.437,2.75-1.375.687-4.583c2.292-3.208,2.979-3.9,2.292-7.79l3.207-1.833s-1.181-1.682-5.269-2.521c-.71-.146-1.6-8.249-6.416-8.478s-6.874-.459-11.914.916-26.808,6.874-37.119,8.707-24.288,2.979-24.288,2.979l-.417-5.931c-2.507,2.317-4.69,4.014-6.909,5.986a31.821,31.821,0,0,1-3.411,2.541h0c.777,5.348,2.227,15.067,2.823,17.453.834,3.337,1.835,12.014,1.835,12.014l2.622,19.833,17.049-3.016S1381.886-757.183,1387.243-758.213Z" transform="translate(-1337.53 815.395)" fill="#167a91" stroke="#fff" stroke-miterlimit="10" stroke-width="1.5"/>
          </g>
        </g>
        <g id="Maryland" transform="translate(1035.64 -845.808)">
          <path id="Контур_34" data-name="Контур 34" d="M1435.057-711.934l-.046-.03Z" transform="translate(-1392.333 734.947)" fill="#1e3c5c" stroke="#fff" stroke-miterlimit="10" stroke-width="1.5"/>
          <path id="Контур_35" data-name="Контур 35" d="M1485.508-691.422h-.006c-.085.3-.166.608-.261.9C1485.336-690.818,1485.425-691.117,1485.508-691.422Z" transform="translate(-1408.035 728.526)" fill="#1e3c5c" stroke="#fff" stroke-miterlimit="10" stroke-width="1.5"/>
          <path id="Контур_36" data-name="Контур 36" d="M1435.593-711.521c-.056-.049-.114-.1-.173-.143C1435.479-711.617,1435.537-711.57,1435.593-711.521Z" transform="translate(-1392.461 734.853)" fill="#1e3c5c" stroke="#fff" stroke-miterlimit="10" stroke-width="1.5"/>
          <path id="Контур_37" data-name="Контур 37" d="M1451.67-720.877c-1.657,3.5-3.186,3.607-5.659,3.915s-4.843.619-4.843.619-2.473-11.54-3.091-14.837-3.812-14.219-3.812-14.219a9.771,9.771,0,0,1-2.37,1.854,41.5,41.5,0,0,1-5.048,1.649c-2.267.721-23.182,4.533-28.54,5.563s-25.384,4.474-25.384,4.474,1.05,6.164,1.443,10.623c1.574-.524,4.328-3.541,6.557-6.032,2.361,0,2.755-2.23,3.411-3.016s5.9-2.1,10.885-2.755a11.4,11.4,0,0,1,8.131,1.836s-.062.979-.162,2.194l0-.039c1.414-.192,3.681-.3,4.618.73,1.311,1.443.394,3.411,1.967,3.935a24.412,24.412,0,0,1,4.926,1.452c.212-.164.212-.23.212-.23a7.068,7.068,0,0,1,2.031-1.582c.526.709,2.672,3.514,2.672,3.514a3.6,3.6,0,0,1-2.256,2.058c0,2.343-1.856,4.445-2.075,5.54-.262,1.312,1.311,4.328,3.016,4.853a17.883,17.883,0,0,0,3.381.658,13.7,13.7,0,0,1,1.289-.558c.6-.215,4.339,1.117,5.713.816s1.075-1.761.516-4.038-1.461-3.179-3.05-6.057-.559-3.523-.344-6.316-.774-2.019-.3-6.143,5.456-5.629,6.444-5.327c-3.394,2.019-3.222,6.659-3.222,6.659s2.148,0,2.578,1.8-.172,3.953-1.031,6.058c2.62.214,3.05,3.007,3.05,3.007a2.523,2.523,0,0,1-1.761.129c-.473,1.8,2.406,9.881,7.819,5.886,1.469,2.6,3.279,5.33,4.119,6.49a7.984,7.984,0,0,1,6.888-2.588c.4-1.448.684-3,.937-4.289A58.75,58.75,0,0,0,1451.67-720.877Z" transform="translate(-1372.924 745.399)" fill="#d8374f" stroke="#fff" stroke-miterlimit="10" stroke-width="1.5"/>
          <path id="Контур_38" data-name="Контур 38" d="M1436.708-710.28a3.242,3.242,0,0,0-.208-.3A3.436,3.436,0,0,1,1436.708-710.28Z" transform="translate(-1392.799 734.515)" fill="#1e3c5c" stroke="#fff" stroke-miterlimit="10" stroke-width="1.5"/>
          <path id="Контур_39" data-name="Контур 39" d="M1437.5-708.135c-.01-.074-.02-.149-.033-.224C1437.482-708.284,1437.491-708.209,1437.5-708.135Z" transform="translate(-1393.101 733.82)" fill="#1e3c5c" stroke="#fff" stroke-miterlimit="10" stroke-width="1.5"/>
          <path id="Контур_40" data-name="Контур 40" d="M1437.22-709.293a3.968,3.968,0,0,1,.132.456A3.715,3.715,0,0,0,1437.22-709.293Z" transform="translate(-1393.023 734.112)" fill="#1e3c5c" stroke="#fff" stroke-miterlimit="10" stroke-width="1.5"/>
          <path id="Контур_41" data-name="Контур 41" d="M1437.124-709.5a3.308,3.308,0,0,0-.211-.455A3.308,3.308,0,0,1,1437.124-709.5Z" transform="translate(-1392.927 734.319)" fill="#1e3c5c" stroke="#fff" stroke-miterlimit="10" stroke-width="1.5"/>
          <path id="Контур_42" data-name="Контур 42" d="M1435.932-711.223a3.753,3.753,0,0,1,.3.326A3.935,3.935,0,0,0,1435.932-711.223Z" transform="translate(-1392.621 734.715)" fill="#1e3c5c" stroke="#fff" stroke-miterlimit="10" stroke-width="1.5"/>
        </g>
        <g id="North_Carolina" data-name="North Carolina" transform="translate(967.526 -775.166)">
          <path id="Контур_43" data-name="Контур 43" d="M1494.508-617.567s1.006,4.8.839,6.366-.5,3.242-2.068,4.3-4.024,2.4-4.583,3.13a1.631,1.631,0,0,0-.448,1.23s4.658-2.294,6.651-4.415a9.333,9.333,0,0,0,2.179-6.2C1497.138-614.464,1496.294-616,1494.508-617.567Z" transform="translate(-1340.859 634.796)" fill="#1e3c5c" stroke="#fff" stroke-miterlimit="10" stroke-width="1.5"/>
          <path id="Контур_44" data-name="Контур 44" d="M1422.541-622.418c.932-1.547-.644-4.6-.644-4.6s3.036.071,3.38-.616c.125-.251-.272-.871-.918-1.666-.25-.252-.528-.525-.837-.828-1.583.106-2,1.189-5.143,1.743-.629.111-3.2-.781-4.676.128-3.443,2.125-4.8-.3-4.251-.51,2.211-.85,3.877-3.2,6.545-4.466,2.025-.959,3.059.267,4.376-.525-.085-.1-.171-.2-.251-.29-1.948-2.291-4.556-8.584-4.556-8.584s-10.367,2.538-15.021,3.385-38.716,7.617-54.161,9.944-31.148,4.866-31.148,4.866.655,2.946,0,4.256-3.6,3.438-4.092,7.366c-2.455.327-4.583-.164-8.347,3.11-2.456-.818-4.583-.327-5.565,1.146s-1.473,5.4-1.473,5.4a6.86,6.86,0,0,0-4.42,1.473c-1.964,1.637-3.437,4.092-5.893,4.42s-6.71.982-7.038,6.384c-3.111,1.964-4.257,1.8-4.257,1.8a20.215,20.215,0,0,0-.147,5.964c4.838-.542,9.158-.974,11.212-1.05a80.811,80.811,0,0,0,10.01-.91s8.538-5.225,11.54-6.1a36.361,36.361,0,0,1,10.757-1.876c5.628-.25,13.258-1.5,15.885-.25s3.628,4,4,5.5a98.518,98.518,0,0,1,11.131-1.877c3.252-.375,9.882-1.25,9.882-1.25s20.693,12.964,23.25,15.122h0c.508-.2,1.054-.377,1.62-.542a38.233,38.233,0,0,1,8.056-1.519s1.46-7.132,4.081-11.342c.235-.378.474-.737.713-1.089.167-.294.332-.561.491-.787a18.806,18.806,0,0,1,3.086-3.388,17.32,17.32,0,0,1,4.475-2.942,26.5,26.5,0,0,1,6.181-1.625c2.29-.5,4.273-.984,5.047-1.9a31.831,31.831,0,0,0,2.584-4.2c.392-.8.8-1.6,1.226-2.328a13.427,13.427,0,0,1-2.412,2.253,16.25,16.25,0,0,1-1.584,1.14,5.142,5.142,0,0,0-1.131-1.641,7.135,7.135,0,0,0-4.024-.635l1.848-7.347c-1.776-.386-2.578-1.1-3.036-3.165,1.26,2.062,5.729,2.521,8.134,1.375s1.948-4.7,2.979-5.514S1421.61-620.872,1422.541-622.418Z" transform="translate(-1273.835 642.631)" fill="#1e3c5c" stroke="#fff" stroke-miterlimit="10" stroke-width="1.5"/>
        </g>
        <g id="Virginia" transform="translate(976.977 -829.661)">
          <path id="Virginia-2" data-name="Virginia" d="M1415.8-674.868a12.975,12.975,0,0,1-5.371,1.031c1.676-3.695-.816-5.757-1.933-7.218a5.65,5.65,0,0,1-1.418-3.051c.086-.3,2.621.129,2.621.129s-2.406-4.468-1.8-6.917a11.529,11.529,0,0,0,.515-3.222c-.712-1.622-1.676-1.718-3.093-2.105a9.482,9.482,0,0,1-3.437-1.8c-1.332-.945-3.051-1.031-4.64-1.5a4.779,4.779,0,0,1-2.234-1.246,17.852,17.852,0,0,1-3.381-.659c-1.705-.524-3.279-3.541-3.017-4.852s2.885-4.066,1.836-6.951-5.771-3.279-7.344-3.8-.656-2.492-1.968-3.935c-.936-1.03-3.2-.922-4.618-.73a25.047,25.047,0,0,1-.628,4.665c-.393.656-6.3-3.541-8.263-4.852-1.443-.262-1.18,2.754-1.18,4.328a6.128,6.128,0,0,1-1.574,4.328,88.588,88.588,0,0,0-5.64,7.607c-3.147-.918-3.016,3.672-3.147,5.77s-.263,3.148-3.279,3.279-4.066-3.147-4.066-3.147a20.741,20.741,0,0,1-1.967,5.115c-1.18,1.836-6.294,14.3-6.426,16s.656,3.541-.787,4.984-4.2,1.836-8,2.885c-.787,2.361-1.049,3.41-3.148,4.722s-5.508-.524-5.508-.524a7.764,7.764,0,0,1-5.771,2.492c-3.541-.131-4.656-4.427-4.656-4.427a77.9,77.9,0,0,1-7.344,6.667,28.218,28.218,0,0,0-5.311,4.52,5.917,5.917,0,0,0-1.017,3.616c.113.79-.452,1.243-1.808,2.147a101.763,101.763,0,0,1-9.412,6.555c3.1-.352,5.423-.634,6.579-.8,6.711-.982,25.371-3.438,25.371-3.438s15.7-2.538,31.148-4.865,49.505-9.1,54.16-9.944,15.021-3.385,15.021-3.385-.962-2.8-1.23-3.846C1418.16-673.107,1418.032-675.771,1415.8-674.868Z" transform="translate(-1287.583 721.909)" fill="#1e3c5c" stroke="#fff" stroke-miterlimit="10" stroke-width="1.5"/>
          <path id="virginia-3" data-name="virginia" d="M1477.742-683.382c.086-2.062,1.2-3.007,2.449-4.812a11.071,11.071,0,0,0,1.348-3.271,7.979,7.979,0,0,0-6.9,2.587c.177.244.313.422.392.512.945,1.075-2.492,7.647-2.492,12.287,0,2.063.086,5.843,2.191,5.843,1.035,0,2.191-2.406,2.534-3.781S1477.656-681.319,1477.742-683.382Z" transform="translate(-1345.402 712.421)" fill="#1e3c5c" stroke="#fff" stroke-miterlimit="10" stroke-width="1.5"/>
        </g>
        <g id="West_Virginia" data-name="West Virginia" transform="translate(988.535 -849.085)">
          <g id="Сгруппировать_25" data-name="Сгруппировать 25" transform="translate(0 0)">
            <path id="West_Virginia-2" data-name="West Virginia" d="M1373.8-734.529c-4.984.656-10.229,1.967-10.884,2.754s-1.049,3.016-3.411,3.016c-2.229,2.492-4.983,5.508-6.557,6.033-.393-4.459-1.443-10.623-1.443-10.623l-17.049,3.016-2.622-19.833s-2.335.834-2.5,1.835.334,3.171.5,7.509.5,11.013-4.506,17.353-5.339,2.169-5.339,2.169-3,2.336-3.671,5.339-1.335,7.843-1.335,7.843l-3.17-2.836a11.08,11.08,0,0,0-2.67,5.339c-.334,2.837.5,5.173-1.334,7.175s-3.406,1.687-3.406,1.687c.113,4.068,0,4.972.565,6.215s2.712,1.356,3.5,2.712,2.373,5.424,4.633,7.232a53.64,53.64,0,0,0,4.633,3.277s1.115,4.3,4.656,4.427a7.763,7.763,0,0,0,5.771-2.492s3.41,1.836,5.509.524,2.36-2.36,3.147-4.722c3.8-1.049,6.557-1.442,8-2.885s.656-3.279.787-4.984,5.245-14.164,6.426-16a20.751,20.751,0,0,0,1.967-5.115s1.05,3.279,4.066,3.148,3.148-1.18,3.279-3.279,0-6.688,3.147-5.77a88.538,88.538,0,0,1,5.639-7.607,6.128,6.128,0,0,0,1.574-4.328c0-1.574-.263-4.59,1.18-4.328,1.967,1.312,7.869,5.508,8.263,4.852s.786-6.82.786-6.82A11.4,11.4,0,0,0,1373.8-734.529Z" transform="translate(-1304.398 750.166)" fill="none" stroke="#fff" stroke-miterlimit="10" stroke-width="1.5"/>
          </g>
        </g>
        <g id="Ohio" transform="translate(942.217 -878.552)">
          <g id="Сгруппировать_26" data-name="Сгруппировать 26" transform="translate(0 0)">
            <path id="Ohio-2" data-name="Ohio" d="M1308.264-761.731c.167-1,2.5-1.835,2.5-1.835s-1-8.676-1.835-12.014c-.6-2.386-2.046-12.1-2.823-17.453-3.5,2.323-7.939,4.743-10.527,6.332-3.566,2.188-7.982,7.7-8.549,8.144-.891-.364-4.3.324-5.389.486s-6.321,2.513-7.537,2.269-2.188-2.39-5.429-2.228-5.631-.081-7.86-1.62a8.032,8.032,0,0,1-1.184-.966c-5.914.8-13.109,1.342-22.619,2.367,0,0,2.5,26.364,3.337,33.873s2.64,24.166,2.64,24.166a37.524,37.524,0,0,1,4.972.339c2.034.339,5.2.113,5.651,5.876,3.616-.226,5.31-1.017,7.345.679s4.745-.114,6.441.113a19.764,19.764,0,0,1,4.068,1.243l5.312-3.5s-.227,4.182,6.553,5.312c0,0,1.57.315,3.406-1.687s1-4.338,1.334-7.175a11.083,11.083,0,0,1,2.67-5.339l3.171,2.836s.667-4.839,1.335-7.843,3.671-5.339,3.671-5.339.333,4.171,5.338-2.169,4.672-13.015,4.506-17.353S1308.1-760.73,1308.264-761.731Z" transform="translate(-1237.015 793.033)" fill="#1e3c5c" stroke="#fff" stroke-miterlimit="10" stroke-width="1.5"/>
          </g>
        </g>
        <g id="Indiana" transform="translate(896.442 -863.769)">
          <g id="Сгруппировать_27" data-name="Сгруппировать 27" transform="translate(0 0)">
            <path id="Indiana-2" data-name="Indiana" d="M1180.481-767.58c-1.66,1.175-2.958,2.958-4.133,2.552-.9-.309-2.783-1.043-3.916-1.535l.04.017c0,1.074.067,2.249.116,3.8,0,0,2,33.869,2.515,42.117s1.375,21.481,1.031,23.543a16.162,16.162,0,0,1-3.609,7.561c-1.89,1.89-2.234,2.234-2.062,3.781,0,0,.168,6.006.119,6.779,0,0,3.455-3.791,5.489-2.774s1.922,1.356,1.922,1.356,1.355-3.277,4.519-1.808a25.191,25.191,0,0,1,3.729,1.921s3.842-4.859,5.311-4.52a7.492,7.492,0,0,0,3.5,2.712c.226-2.6.565-6.667,4.52-6.667l.9,3.277a48.64,48.64,0,0,0,6.1-.565,38.824,38.824,0,0,0,.339-6.441s6.1-4.294,6.667-6.893a16.32,16.32,0,0,0,.452-4.182s4.181-.226,5.763-1.469,2.485-2.147,1.808-4.859.565-3.616.565-3.616-1.806-16.658-2.64-24.167-3.338-33.873-3.338-33.873-13.682,1.5-19.522,2.169c-5.15.588-12.669.846-12.669.846A5.454,5.454,0,0,0,1180.481-767.58Z" transform="translate(-1170.424 771.527)" fill="#1e3c5c" stroke="#fff" stroke-miterlimit="10" stroke-width="1.5"/>
          </g>
        </g>
        <g id="South_Carolina" data-name="South Carolina" transform="translate(986.337 -726.387)">
          <g id="Сгруппировать_28" data-name="Сгруппировать 28">
            <path id="South_Carolina-2" data-name="South Carolina" d="M1357.1-567.493a98.525,98.525,0,0,0-11.132,1.877c-.375-1.5-1.376-4.253-4-5.5s-10.257,0-15.885.25a36.355,36.355,0,0,0-10.757,1.877c-3,.875-11.54,6.1-11.54,6.1s-3.64,2.73-2.274,5.461,4.1,4.55,8.872,4.323c0,0,2.814,5.747,5.334,7.924s7.1,5.728,9.623,8.02,5.614,5.613,7.1,7.217a15.347,15.347,0,0,0,5.156,3.895c1.948.8,4.582,2.292,5.385,5.614a12.449,12.449,0,0,1,.343,5.27s2.406.114,3.437,1.718,3.094,5.613,3.9,6.53a5.874,5.874,0,0,0,4.009,1.375h.23a7.055,7.055,0,0,0,.028-1.676s3.651-3.222,4.768-4.081.989-1.289,1.418-2.492-.945-3.136-.945-3.136l2.964.258a51.113,51.113,0,0,0,4-3.351c3.265-2.878,6.574-8.42,7.218-9.709s1.417-1.289,2.664-1.375c.945-2.964,4.51-3.867,4.51-3.867a33.27,33.27,0,0,1,.215-4.425,16.315,16.315,0,0,1,6.359-13.1,8.782,8.782,0,0,1,2.138-1.118c-2.557-2.158-23.25-15.122-23.25-15.122S1360.35-567.868,1357.1-567.493Z" transform="translate(-1301.2 571.668)" fill="#d8374f" stroke="#fff" stroke-miterlimit="10" stroke-width="1.5"/>
          </g>
        </g>
        <g id="Florida" transform="translate(917.713 -630.599)">
          <g id="Сгруппировать_29" data-name="Сгруппировать 29" transform="translate(0 0)">
            <path id="Контур_45" data-name="Контур 45" d="M1425.173-272.491a19.778,19.778,0,0,0-2.85,4.559c-1.14,2.606-3.013,7-5.049,8.632s-7.98,5.212-7.9,5.863.163,1.954,2.688.652,7.817-6.758,9.038-8.876S1425.5-270.863,1425.173-272.491Z" transform="translate(-1266.391 382.356)" fill="#1e3c5c" stroke="#fff" stroke-miterlimit="10" stroke-width="1.5"/>
            <path id="Контур_46" data-name="Контур 46" d="M1397.263-243.942a3.456,3.456,0,0,1,2.28,3.257,50.02,50.02,0,0,0-7.817,2.036C1395.065-241.907,1397.263-243.942,1397.263-243.942Z" transform="translate(-1260.875 373.431)" fill="#1e3c5c" stroke="#fff" stroke-miterlimit="10" stroke-width="1.5"/>
            <path id="Контур_47" data-name="Контур 47" d="M1355.207-355.1c-2.234-3.093-14.736-28.441-14.736-28.441s.387-.43,2.019-2.277c-3.781-5.345-10.2-18.758-11.444-21.379s-6.838-10.728-6.838-10.728-5.946-9.151-7.634-14.4l-.053.01c-3.251.322-6.79.681-7.614.8-1.6.229.229-.916-2.52,3.666,1.6,6.645.229,5.958.229,5.958l-2.521-.229-.458-3.666s-3.437.23-7.333.458-38.952,2.521-42.16,2.75c-1.146-1.375-3.666-5.5-3.666-5.5s-16.039,1.146-22.455,1.375-23.6,2.75-25.2,2.75-1.833,3.437-.917,4.812,3.208,1.375,3.437,3.208c.149,1.2.1,4.936.053,7.577l.049-.015c.188-.054.379-.11.576-.165l.042-.012c.2-.057.408-.116.621-.174l.082-.023.625-.17.113-.03.625-.166.23-.06.563-.146.237-.06.588-.148.39-.1.49-.12.917-.219c10.182-2.406,13.232-1.89,17.786-1.331s15.724,6.057,17.443,6.831a40.163,40.163,0,0,0,.945,5.413,51.432,51.432,0,0,1,7.9-1.976c2.836-.386,2.148-3.136,3.953-4.21s4.6-1.031,6.015-1.289a2.972,2.972,0,0,1,1.418-3.823c1.461-.859,3.823-.945,6.015-.859s6.1,2.019,6.315,3.351,1.289,2.836,4.21,4.768c.645,3.566,2.536,3.781,3.781,4.254a10.667,10.667,0,0,1,3.008,2.191c.687.6,4.168,1.332,6.573,1.934.816,4.382,4.984,8.119,4.984,8.119s.128,2.621.128,4.082-.945,12.974-1.074,15.079.43,3.137,1.891,5.757c1.375-1.5,1.16-3.737.774-5.026s-.344-1.8.472-2.02,4.6,1.89,4.6,1.89c-.215,3.093-4.6,8.55-4.6,8.55a46.9,46.9,0,0,1,6.488,8.163c2.921,4.726,3.351,7.518,5.2,10.311s3.48,1.8,5.285.258c4.3,2.663,4.64,7.776,5.112,8.721s.344,3.223,5.929,3.652,7.389,5.284,8.206,6.659,1.589,5.843,1.589,5.843c1.161,3.738,4.555,2.062,6.316-.43,9.064,2.277,8.421-9.236,8.678-11.213s1.332-2.191,2.448-2.578c.645-4.64-1.547-21.438-1.718-22.426S1357.441-352,1355.207-355.1Z" transform="translate(-1201.368 432.319)" fill="#167a91" stroke="#fff" stroke-miterlimit="10" stroke-width="1.5"/>
          </g>
        </g>
        <g id="Georgia" transform="translate(946.372 -717.613)">
          <g id="Сгруппировать_30" data-name="Сгруппировать 30" transform="translate(0 0)">
            <path id="Georgia-2" data-name="Georgia" d="M1329.555-471.88c-.008-.082-.017-.167-.024-.247-.43-5.327,2.148-15.724,3.093-18.818a84.934,84.934,0,0,1,3.738-9.408,3.825,3.825,0,0,0,.359-1.2h-.23a5.877,5.877,0,0,1-4.01-1.375c-.8-.917-2.864-4.927-3.9-6.53s-3.437-1.718-3.437-1.718a12.449,12.449,0,0,0-.343-5.27c-.8-3.322-3.437-4.812-5.385-5.614a15.348,15.348,0,0,1-5.156-3.895c-1.49-1.6-4.583-4.927-7.1-7.217s-7.1-5.843-9.623-8.02-5.334-7.924-5.334-7.924c-4.777.228-7.508-1.593-8.873-4.323s2.274-5.461,2.274-5.461a80.811,80.811,0,0,1-10.01.91c-6.144.228-32.536,3.64-32.536,3.64,2.275,9.1,4.095,18.2,6.143,25.028s6.371,23.663,9.556,28.668,3.186,5.688,3.186,5.688-2.048,3.868-2.958,5.916-.228,4.1.455,6.371,1.138,2.048.455,5.006,1.137,5.688,1.82,7.053a30.01,30.01,0,0,0,1.8,2.98s2.521,4.124,3.667,5.5c3.207-.229,38.264-2.521,42.16-2.75s7.333-.458,7.333-.458l.458,3.667,2.521.229s1.375.687-.229-5.958c2.75-4.582.916-3.437,2.52-3.666.823-.118,4.363-.477,7.614-.8Z" transform="translate(-1243.06 558.904)" fill="#1e3c5c" stroke="#fff" stroke-miterlimit="10" stroke-width="1.5"/>
          </g>
        </g>
        <g id="Kentucky" transform="translate(876.586 -805.729)">
          <g id="Сгруппировать_31" data-name="Сгруппировать 31" transform="translate(0 0)">
            <path id="Kentucky-2" data-name="Kentucky" d="M1142.786-624.85a12.584,12.584,0,0,1-1.248,1.665c5.3-.14,13.962-.419,15.8-.419,2.618,0,6.547-.327,6.547-.327l.164-3.273s10.967-.655,21.443-1.31c8.669-.542,41.552-3.886,56.438-5.58a101.757,101.757,0,0,0,9.412-6.555c1.356-.9,1.92-1.356,1.807-2.147a5.923,5.923,0,0,1,1.018-3.616,28.226,28.226,0,0,1,5.311-4.519,77.929,77.929,0,0,0,7.345-6.667,53.614,53.614,0,0,1-4.633-3.277c-2.26-1.808-3.842-5.876-4.633-7.232s-2.938-1.469-3.5-2.712-.451-2.147-.565-6.215c-6.78-1.13-6.554-5.312-6.554-5.312l-5.311,3.5a19.767,19.767,0,0,0-4.068-1.243c-1.7-.226-4.407,1.582-6.44-.113s-3.729-.9-7.345-.679c-.453-5.763-3.617-5.537-5.651-5.876a37.538,37.538,0,0,0-4.972-.339s-1.243.9-.565,3.616-.226,3.616-1.808,4.859-5.764,1.469-5.764,1.469a16.331,16.331,0,0,1-.452,4.182c-.565,2.6-6.667,6.892-6.667,6.892a38.812,38.812,0,0,1-.339,6.442,48.636,48.636,0,0,1-6.1.565l-.9-3.278c-3.956,0-4.294,4.068-4.52,6.667a7.493,7.493,0,0,1-3.5-2.712c-1.469-.339-5.311,4.519-5.311,4.519a25.129,25.129,0,0,0-3.729-1.92c-3.164-1.469-4.52,1.808-4.52,1.808s.113-.339-1.921-1.356-5.489,2.775-5.489,2.775a30.04,30.04,0,0,1-1.063,3.478c-.29,1.062-1.111,2.8.144,4.492-1.883-.144-3.816-.579-5.12,1.594s.146,5.748.194,6.376-.194,1.546-1.933.821-3.815-2.56-6.423-2.125-2.512.772-3.236,1.932a31.531,31.531,0,0,0-1.409,2.821C1146.016-631.889,1144.143-627.222,1142.786-624.85Z" transform="translate(-1141.538 687.093)" fill="none" stroke="#fff" stroke-miterlimit="10" stroke-width="1.5"/>
          </g>
        </g>
        <g id="Illinois" transform="translate(835.267 -876.107)">
          <g id="Сгруппировать_32" data-name="Сгруппировать 32" transform="translate(0 0)">
            <path id="Illinois-2" data-name="Illinois" d="M1148.313-702.692c.343-2.062-.515-15.295-1.031-23.543s-2.514-42.117-2.514-42.117c-.049-1.554-.113-2.73-.116-3.8-.371-.161-.665-.3-.824-.386-.648-.364-1.54-1.945-2.269-3.363s-4.133-7.131-4.133-7.131.162-1.054.486-3.687a13.791,13.791,0,0,0,0-2.753c.036.439.058.861.061,1.261-8.482.51-28.617,1.7-34,1.833-4.839.12-9.328.071-11.927-.029.982,1.46,1.214,2.466,1.791,2.7.772.309,1.7.154,2.315,1.543s.464,2.315,2.624,4.631a7.357,7.357,0,0,1,1.235,8.644c-1.543,3.4-2.778,5.557-6.483,6.483s-6.483,2.469-6.637,3.859.464,2.47,1.235,3.859a6.559,6.559,0,0,1,.309,5.094c-.618,1.235-2.315,2.624-2.47,3.7a5.894,5.894,0,0,0,.155,2.161,1.835,1.835,0,0,0-2.316.926c-.926,1.543-1.08,5.248-2.315,6.328,0,0-.462,6.483,1.08,10.5a14.938,14.938,0,0,0,6.328,7.872c2.933,2.007,6.329,4.013,7.255,7.563s1.235,4.322,2.007,4.476,1.852-2.315,4.939-.309,2.624,3.087,2.624,3.087-1.852,5.557-2.47,8.336-.154,6.328,2.778,8.334,7.872,3.7,9.725,5.557,3.4,3.4,3.858,6.483-.44,7.793,4.139,9.334c.059.02.1.048.16.07a31.333,31.333,0,0,1,1.408-2.821c.725-1.16.628-1.5,3.236-1.932s4.685,1.4,6.423,2.125,1.981-.193,1.933-.821-1.5-4.2-.193-6.375,3.236-1.738,5.12-1.594c-1.256-1.69-.434-3.429-.145-4.491a29.79,29.79,0,0,0,1.063-3.479c.049-.772-.119-6.779-.119-6.779-.172-1.547.172-1.89,2.062-3.781A16.167,16.167,0,0,0,1148.313-702.692Z" transform="translate(-1081.427 789.476)" fill="#d8374f" stroke="#fff" stroke-miterlimit="10" stroke-width="1.5"/>
          </g>
        </g>
        <g id="Wisconsin" transform="translate(808.494 -969.165)">
          <g id="Сгруппировать_33" data-name="Сгруппировать 33" transform="translate(0 0)">
            <path id="Wisconsin-2" data-name="Wisconsin" d="M1131.653-892.9s-5.186,7.536-6.4,9.238a85.2,85.2,0,0,1-5.429,7.374c-1.742,1.864-2.066-1.58-1.62-2.593s4.295-8.022,4.984-9.764c-2.035-1.32-1.963-4.586-1.917-5.347a2.92,2.92,0,0,1-1.285.283c-1.7.162-.729-7.131-.689-8.549-.567-.689-2.674-1.013-3.525-1.054-.04-2.107-2.228-3-4.781-3.241a48.428,48.428,0,0,1-15.112-3.606,25.651,25.651,0,0,0-12.6-2.391,36.019,36.019,0,0,0-3.768-4.537,4.534,4.534,0,0,1-1.5.4c-1.094.162-3.444-1.581-3.93-1.823a3.44,3.44,0,0,1-2.512.689c-1.9-.041-1.256-2.35-.77-3.08s2.917-3.606,2.917-3.606-.85-1.3-5.551,1.093c-5,2.545-7.248,3.9-9.927,4.174-2.8.283-2.715.364-5.308-.648.323-1.391,2.289-3.272,4.349-4.946l-.3.177c-1.6.917-3.437,3.323-4.64,4.7s-2.062,4.812-2.291,6.759.573,5.5.4,6.415-2.177,3.437-4.182,5.27-3.838,4.067-3.781,5.671,3.265,2.922,3.781,5.957c-1.26,2.348-1.661,7.39-1.375,9.566s.172,4.926,1.375,6.3,2.52,1.146,4.3.4a7.4,7.4,0,0,0,5.27,3.724c1.375,1.718,2.921,5.671,5.1,7.1s8.135,3.952,8.764,6.53a40.514,40.514,0,0,1,.516,7.676s.347,3.251,2.662,3.869c-1.389,4.323-1.852,6.638-1.081,9.108s3.4,4.63,6.792,5.247a12.941,12.941,0,0,1,1.3,1.625c2.6.1,7.089.149,11.927.029,5.383-.134,25.517-1.323,34-1.832a31.49,31.49,0,0,0-2.009-9.61,17.7,17.7,0,0,1-.729-10.373,17.84,17.84,0,0,1,2.917-6.321,36.872,36.872,0,0,1-1.378-6.28c-.122-2.188,1.378-3.849,1.823-5.146s-.122-7.658.284-10.049,3.97-8.346,5.065-10.332A4.9,4.9,0,0,0,1131.653-892.9Z" transform="translate(-1042.479 924.854)" fill="#1e3c5c" stroke="#fff" stroke-miterlimit="10" stroke-width="1.5"/>
          </g>
        </g>
        <g id="Minessota" transform="translate(741.734 -1019.257)">
          <g id="Сгруппировать_34" data-name="Сгруппировать 34">
            <path id="Minnesotta" d="M1059.675-972.2c-1.722-.546-6.146.5-6.941.769-.859.286-.916-.287-1.776-1.49s-7.161-.343-9.955.318c-1.305-2.89-3.048-3.124-4.021-2.609-.381.2-1.116.817-2,1.493a7.816,7.816,0,0,1-2.766,1.844c-.068.014-.138.024-.208.035a4.233,4.233,0,0,1-1.552.408c-2.292.057-5.156-2.349-5.156-2.349a7.459,7.459,0,0,1-2.234-.458c-1.34-.389-1.407-2.212-1.36-3.083a2.379,2.379,0,0,1,.035-.429c-.05.166-.435.8-3.429.649a5.819,5.819,0,0,1-.615-.068c-.081,0-.162.007-.245.009-2.234.058-7.941-5.229-11.342-5.671-1.671-.216-3.432.915-5.15,1.716a17.008,17.008,0,0,1-5.791.919c-.407-.046-.456-1.552-.459-2.185l-1.832.123a7.614,7.614,0,0,1-2.454-.172,12.2,12.2,0,0,1-1.556,0c-.63-.115-.115-1.547-.115-1.547a9.218,9.218,0,0,1-3.1-.033c-.285-.007-.558-.015-.8-.025a3.387,3.387,0,0,1-3.036-2.52c-.516-1.489-2.177-11.17-2.177-11.17H976.2l-.687,7.39h-1.538c-3.24,0-10.654-.012-12.783-.057-2.75-.057-15.837-.188-15.837-.188a32.368,32.368,0,0,1,.946,7.862,87.1,87.1,0,0,0-.113,10.919c.337,2.477,2.927,8.33,3.377,10.582a79.158,79.158,0,0,1,1.238,10.806c0,2.7.563,8.443.9,11.933s1.8,5.966,3.04,8.33.107,6.992.107,6.992a6.6,6.6,0,0,1-1.331,2.9c-.968.968-2.541,2.662-2.3,4.234s2.661,3.63,3.508,4.84,1.452.726,1.573,5.323-.847,36.054-.847,36.054,5.622.1,11.292.1,50.065-.917,50.065-.917c7.276-.057,23.028-.744,23.028-.744a40.541,40.541,0,0,0-.515-7.676c-.63-2.578-6.587-5.1-8.764-6.53s-3.723-5.385-5.1-7.1a7.4,7.4,0,0,1-5.27-3.724c-1.776.745-3.093.974-4.3-.4s-1.088-4.124-1.375-6.3.115-7.218,1.375-9.566c-.516-3.036-3.724-4.354-3.781-5.958s1.776-3.838,3.781-5.671,4.01-4.353,4.181-5.27-.629-4.468-.4-6.416,1.088-5.385,2.291-6.759,3.036-3.78,4.64-4.7l.3-.177c2.081-1.693,4.258-3.175,4.93-3.725,1.337-1.094,3.728-5.834,3.728-5.834a3.508,3.508,0,0,1,.249-.47,8.472,8.472,0,0,1,1.215-1.765,21.861,21.861,0,0,1,4.234-3.526,12.865,12.865,0,0,1,1.107-.681c.1-.052.207-.108.313-.162a29.134,29.134,0,0,1,4.025-1.818c.2-.074.4-.153.607-.23.612-.248,1.2-.483,1.734-.693a89.332,89.332,0,0,0,10.986-5.525A2.589,2.589,0,0,0,1059.675-972.2Z" transform="translate(-945.359 997.726)" fill="#d8374f" stroke="#fff" stroke-miterlimit="10" stroke-width="1.5"/>
          </g>
        </g>
        <g id="Iowa" transform="translate(750.141 -892.891)">
          <g id="Сгруппировать_35" data-name="Сгруппировать 35" transform="translate(0 0)">
            <path id="Iowa-2" data-name="Iowa" d="M1060.067-785.173c-2.161-2.316-2.007-3.242-2.624-4.631s-1.543-1.234-2.315-1.543-.926-2.006-3.087-4.322c-3.4-.617-6.02-2.778-6.792-5.248s-.309-4.785,1.081-9.107c-2.315-.617-2.662-3.869-2.662-3.869s-15.753.687-23.028.744c0,0-44.394.917-50.065.917s-11.293-.1-11.293-.1h-1.694s0,4.356,2.3,6.776c.242,3.267-.968,9.558-2.178,11.131a25.636,25.636,0,0,1,2.653,4.94c1.319,5.72,2.419,8.58,4.62,10.56a15.84,15.84,0,0,0,1.431,8.013,43.565,43.565,0,0,1,3.026,10.3c.626,3.7.059,8.274,1.4,12.9,11.792-.35,30.672-1.2,41.074-1.492,10.959-.309,26.394-.154,26.394-.154s2.625,3.241,4.476,5.247c1.235-1.08,1.389-4.785,2.315-6.328a1.834,1.834,0,0,1,2.316-.926,5.893,5.893,0,0,1-.155-2.161c.155-1.08,1.852-2.47,2.47-3.7a6.556,6.556,0,0,0-.308-5.094c-.772-1.389-1.389-2.47-1.235-3.859s2.933-2.932,6.637-3.859,4.939-3.087,6.483-6.483A7.357,7.357,0,0,0,1060.067-785.173Z" transform="translate(-957.589 813.893)" fill="#1e3c5c" stroke="#fff" stroke-miterlimit="10" stroke-width="1.5"/>
          </g>
        </g>
        <g id="Mossouri" transform="translate(762.555 -831.448)">
          <g id="Сгруппировать_36" data-name="Сгруппировать 36" transform="translate(0 0)">
            <path id="Missouri" d="M1090.69-644.943c-4.58-1.541-3.676-6.247-4.14-9.334s-2.006-4.631-3.859-6.483-6.791-3.55-9.724-5.557-3.4-5.557-2.778-8.335,2.47-8.335,2.47-8.335.464-1.081-2.624-3.087-4.168.463-4.939.309-1.081-.926-2.007-4.476-4.321-5.556-7.255-7.563a14.932,14.932,0,0,1-6.328-7.872c-1.543-4.013-1.081-10.5-1.081-10.5-1.852-2.007-4.476-5.247-4.476-5.247s-15.435-.155-26.394.154c-10.4.293-29.282,1.141-41.075,1.491a24.632,24.632,0,0,1-.828-4.732h0a19.44,19.44,0,0,0,3.111,9.635c4.18,6.16,5.71,7.572,5.71,7.572a26.279,26.279,0,0,0,2.75,1.178c1.178.393,4.517,1.572,4.124,4.714s-2.553,2.75-2.553,2.75a14.15,14.15,0,0,0,2.356,6.482c2.161,3.142,6.678,5.106,6.678,5.106s-.786,13.748-.982,20.229-.713,26.492-.713,26.492-.216,4.76,0,8.005a29.9,29.9,0,0,0,.4,2.987c13.449-.226,48.72-.844,55.313-1.217,8.181-.463,19.5-.6,24.715-.756,1.632,5.213-1.99,5.731-3.594,9.005a16.031,16.031,0,0,1,9.724.155c2.625-2.554,3.633-7.181,4.138-8.484.954-2.467,3.237-4.384,4.1-5.89C1092.308-638.957,1094.233-643.751,1090.69-644.943Z" transform="translate(-975.649 724.507)" fill="#1e3c5c" stroke="#fff" stroke-miterlimit="10" stroke-width="1.5"/>
          </g>
        </g>
        <g id="Missispi" transform="translate(842.752 -709.414)">
          <g id="Сгруппировать_37" data-name="Сгруппировать 37" transform="translate(0 0)">
            <path id="Missisppi" d="M1151.89-444.039s-1.891-25.09-2.75-35.916-.343-37.463.344-45.884,1.547-21.137,1.547-21.137-19.112,1.325-24.841,1.783c-3.2.257-8.981.54-13.46.741a.985.985,0,0,0-.3.727,4.685,4.685,0,0,1-1.99,3.571c-1.413.785-3.137,1.1-3.295,2.981s.628,4.549-.313,5.961-3.608,3.452-5.02,5.8-1.882,4.55-3.765,4.863c-.157,6.432-.471,16.472-.157,19.3l.314,2.824s.929,9.088,4.73,13.774c-1.9,5.7-1.773,7.094-4.054,10.008s-5.7,6.587-6.333,10.767a35.109,35.109,0,0,0,.253,9.374s11.274-.633,15.708-.633H1127s-1.013,5.573-.76,7.093a19.3,19.3,0,0,0,2.787,5.954c.791,1.143,1.7,2.711,2.188,3.565a58.7,58.7,0,0,0,3.876-5.045,14.777,14.777,0,0,0,2.793.43c1.547.086,4.855-1.289,7-1.375s1.934.43,4.253.731a10.835,10.835,0,0,0,2.78-.091Z" transform="translate(-1092.317 546.976)" fill="#1e3c5c" stroke="#fff" stroke-miterlimit="10" stroke-width="1.5"/>
          </g>
        </g>
        <g id="Alabama" transform="translate(899.125 -713.062)">
          <path id="alabama-2" data-name="alabama" d="M1196.99-445.869l-.048.015c.05-2.641.1-6.38-.054-7.576-.23-1.833-2.521-1.833-3.437-3.208s-.688-4.812.916-4.812,18.789-2.521,25.2-2.75,22.455-1.375,22.455-1.375a29.917,29.917,0,0,1-1.8-2.98c-.682-1.365-2.5-4.1-1.82-7.053s.227-2.73-.455-5.005-1.365-4.323-.455-6.371,2.958-5.916,2.958-5.916,0-.682-3.186-5.688-7.508-21.843-9.556-28.668-3.868-15.926-6.142-25.027c-10.239,1.138-44.907,3.649-44.907,3.649s-.859,12.717-1.547,21.138-1.2,35.057-.344,45.883,2.75,35.916,2.75,35.916l.03.166a46.656,46.656,0,0,0,5.039-1.112c2.019-.516,1.461-2.836,2.019-4.254s.9-2.1,2.32-1.8,3.953,4.168,4.64,5.629-.945,3.565-.945,3.565S1191.938-444.394,1196.99-445.869Z" transform="translate(-1174.326 552.284)" fill="#1e3c5c" stroke="#fff" stroke-miterlimit="10" stroke-width="1.5"/>
        </g>
        <g id="Tennessee" transform="translate(863.165 -756.972)">
          <g id="Сгруппировать_38" data-name="Сгруппировать 38" transform="translate(0 0)">
            <path id="Контур_48" data-name="Контур 48" d="M1267.776-616.163s-18.66,2.455-25.371,3.438-52.543,5.729-63.018,6.384-21.443,1.31-21.443,1.31l-.165,3.273s-3.928.327-6.547.327c-1.836,0-10.493.279-15.8.419a15.76,15.76,0,0,0-2.85,4.226c-.5,1.3-1.512,5.93-4.137,8.484,0,0,1.63.793.375,3.46s-1.883,5.334-2.98,6.432-2.2,2.353-2.2,4.079.561,4.82-.38,6.545a7.49,7.49,0,0,1-1.251,1.706c4.479-.2,10.259-.485,13.46-.741,5.729-.458,24.84-1.783,24.84-1.783s34.668-2.511,44.907-3.649c0,0,11.692-1.512,21.324-2.59a20.22,20.22,0,0,1,.147-5.964s1.146.164,4.256-1.8c.327-5.4,4.583-6.056,7.038-6.384s3.928-2.783,5.892-4.42a6.859,6.859,0,0,1,4.42-1.473s.491-3.928,1.473-5.4,3.11-1.964,5.565-1.146c3.765-3.273,5.893-2.783,8.348-3.11.492-3.928,3.438-6.057,4.092-7.366S1267.776-616.163,1267.776-616.163Z" transform="translate(-1122.013 616.163)" fill="#1e3c5c" stroke="#fff" stroke-miterlimit="10" stroke-width="1.5"/>
          </g>
        </g>
        <g id="Arkansas" transform="translate(783.44 -738.273)">
          <g id="Сгруппировать_39" data-name="Сгруппировать 39" transform="translate(0 0)">
            <path id="Arkansas-2" data-name="Arkansas" d="M1092.19-579.8a16.033,16.033,0,0,0-9.725-.155c1.6-3.275,5.226-3.792,3.594-9.005-5.213.159-16.534.292-24.714.756-6.593.373-41.864.991-55.313,1.217.6,3.416,1.651,7.833,1.976,10.427.433,3.462,2.163,20.338,1.731,29.209-.339,6.966-.145,19.264-.047,24.226a28.492,28.492,0,0,0,7.1.68c.151,2.411.287,7.207.4,12.261,8.6-.361,26.217-1.092,31.139-1.209,6.589-.157,22.9-.157,22.9-.157l-.313-2.824c-.314-2.824,0-12.864.157-19.3,1.883-.313,2.353-2.51,3.765-4.863s4.079-4.392,5.02-5.8.157-4.079.314-5.961,1.882-2.2,3.294-2.981a4.685,4.685,0,0,0,1.99-3.571c0-.785.611-.708,1.552-2.434s.379-4.82.379-6.545,1.1-2.981,2.2-4.079,1.726-3.765,2.981-6.432S1092.19-579.8,1092.19-579.8Z" transform="translate(-1006.031 588.959)" fill="#1e3c5c" stroke="#fff" stroke-miterlimit="10" stroke-width="1.5"/>
          </g>
        </g>
        <g id="Louisiana" transform="translate(794.594 -660.862)">
          <g id="Сгруппировать_41" data-name="Сгруппировать 41" transform="translate(41.292 74.99)">
            <g id="Сгруппировать_40" data-name="Сгруппировать 40">
              <path id="Контур_49" data-name="Контур 49" d="M1082.329-366.4s1.9-1.52,3.04-.507a2.7,2.7,0,0,1,1.013,2.154S1082.836-365,1082.329-366.4Z" transform="translate(-1082.329 367.251)" fill="#1e3c5c" stroke="#fff" stroke-miterlimit="10" stroke-width="1.5"/>
            </g>
          </g>
          <path id="Контур_50" data-name="Контур 50" d="M1120.623-396.353c-1.461-2.234-4.64-2.578-7.476-2.836s-3.695-1.976-5.5-4.21a6.913,6.913,0,0,0,1.977-4.21c2.577.43,3.694-.859,3.78-2.406s-.515-3.695-1.8-4.554-1.89,2.32-2.578,4.468c-1.289.516-4.811-1.934-4.811-1.934a27.773,27.773,0,0,1,3.651-3.05,8.506,8.506,0,0,0,1.452-1.357c-.485-.854-1.4-2.422-2.188-3.565a19.282,19.282,0,0,1-2.787-5.954c-.253-1.52.76-7.093.76-7.093h-18.494c-4.434,0-15.708.633-15.708.633a35.092,35.092,0,0,1-.253-9.374c.633-4.18,4.053-7.853,6.334-10.767s2.153-4.307,4.054-10.008c-3.8-4.687-4.73-13.775-4.73-13.775s-16.315,0-22.9.157c-4.923.117-22.544.848-31.14,1.209.169,7.8.274,16.212.274,17.432,0,2.011-.191,3.544.575,4.6s2.97,2.3,3.448,3.736.479,3.448,1.724,6.034,3.545,5.364,4.119,7.471,1.341,3.065.479,6.418-2.778,7.471-2.778,9a7.2,7.2,0,0,0,.766,2.969,2.741,2.741,0,0,0-.479,2.395c.287,1.628.671,3.065,0,4.31a13.472,13.472,0,0,0-1.789,8.415,53.809,53.809,0,0,1,15.81-1.2c4.382.344,7.99,2.836,11.6,3.179s4.726-.773,5.5-1.8c-1.031-.773-2.062-3.265.258-4.038s4.812,1.89,4.812,1.89a8.3,8.3,0,0,1,3.781-.086c2.149.43,2.75,4.124,2.75,4.124s.258.086,3.523.687,2.32,2.664,1.547,4.382c9.021,6.272,10.654,4.468,12.373,3.952s1.117-2.921,1.117-2.921a7.1,7.1,0,0,0,2.405,0c.774-.258,1.461-1.8,3.266-1.89,1.976,1.633.429,4.554.429,4.554l.859.773c1.976-.773,2.406-7.217,2.663-8.077s4.21-2.922,4.21-2.922l.6,4.124a25.27,25.27,0,0,1,5.155,1.2c1.8.773,3.179,2.578,5.328,2.492s2.921.687,2.921.687l1.891-3.007Zm-24.129-18.393c-1.493-.263-1.844-.878-1.932-2.2s.351-2.722,3.425-3.337,7.377,2.635,7.377,2.635c.966.614-.088,1.844-1.669,3.074S1097.987-414.483,1096.494-414.747Z" transform="translate(-1022.258 476.344)" fill="#1e3c5c" stroke="#fff" stroke-miterlimit="10" stroke-width="1.5"/>
        </g>
        <g id="Nebraska" transform="translate(626.331 -885.675)">
          <g id="Сгруппировать_42" data-name="Сгруппировать 42" transform="translate(0 0)">
            <path id="Nebraska-2" data-name="Nebraska" d="M916.81-739.533c-4.18-6.16-2.827-12.79-3.675-17.8a43.585,43.585,0,0,0-3.026-10.3,15.839,15.839,0,0,1-1.431-8.014c-2.2-1.98-3.3-4.84-4.62-10.56-5.19.2-5.06-3.74-5.28-4.62s-9.02-2.86-11.44-3.519-5.989,1.5-9.006.846c-3.963-.865-10.16-5.764-10.16-5.764s-18.22-.209-27.02-.649-25.533-.813-36.973-1.693c-8.525-.656-18.147-1.433-22.5-1.787-.142,1.446-.272,2.685-.382,3.646-.784,6.868-2.531,27.888-3.507,39.872l-.318-.027c2.8.241,5.224.453,7.05.619,9.452.859,26.465,1.89,26.465,1.89s-.846,14.369-1.321,22.154c3.87.207,9.358.5,13.669.726,0,0,44.583,1.768,55.188,2.16s43.994.393,43.994.393S920.99-733.374,916.81-739.533Z" transform="translate(-777.475 803.395)" fill="none" stroke="#fff" stroke-miterlimit="10" stroke-width="1.5"/>
          </g>
        </g>
        <g id="South_Dakota" data-name="South Dakota" transform="translate(630.538 -950.388)">
          <g id="Сгруппировать_43" data-name="Сгруппировать 43" transform="translate(0 0)">
            <path id="South_Dakota-2" data-name="South Dakota" d="M783.6-832.825c4.35.354,13.972,1.132,22.5,1.787,11.439.88,28.173,1.253,36.973,1.693s27.02.649,27.02.649,6.2,4.9,10.16,5.764c3.017.658,6.585-1.506,9.006-.846s11.219,2.64,11.44,3.52.09,4.82,5.28,4.62a25.594,25.594,0,0,0-2.653-4.94c1.21-1.573,2.42-7.864,2.178-11.131-2.3-2.419-2.3-6.776-2.3-6.776h1.694s.968-31.457.847-36.055-.726-4.114-1.573-5.323-3.267-3.266-3.508-4.84,1.331-3.267,2.3-4.235a6.6,6.6,0,0,0,1.331-2.9s-17.785-.726-22.988-.968-35.208-1.815-40.773-2.057-31.82-1.452-39.2-1.936c-4.953-.325-9.739-.595-12.354-.737-.621,7.641-1.2,15.049-1.559,20.206,0,0-2.5,31.21-3.817,44.517Z" transform="translate(-783.595 897.538)" fill="none" stroke="#fff" stroke-miterlimit="10" stroke-width="1.5"/>
          </g>
        </g>
        <g id="North_Dakota" data-name="North Dakota" transform="translate(635.914 -1016.173)">
          <g id="Сгруппировать_44" data-name="Сгруппировать 44">
            <path id="North_Dakota-2" data-name="North Dakota" d="M845.765-990.481c-13.4-.344-33.51-1.547-48.289-2.75l-.1-.009c-1,10.906-2.756,29.879-3.394,36.269-.555,5.547-1.613,17.8-2.565,29.515,2.615.143,7.4.413,12.354.738,7.381.484,33.635,1.695,39.2,1.937s35.571,1.815,40.773,2.057,22.988.968,22.988.968,1.13-4.628-.107-6.992-2.7-4.84-3.04-8.33-.9-9.231-.9-11.932a79.131,79.131,0,0,0-1.238-10.807c-.45-2.251-3.04-8.1-3.377-10.582a87.1,87.1,0,0,1,.113-10.919,32.376,32.376,0,0,0-.946-7.862c-6.851-.055-12.9-.1-15.383-.1C874.807-989.278,859.169-990.137,845.765-990.481Z" transform="translate(-791.416 993.239)" fill="#1e3c5c" stroke="#fff" stroke-miterlimit="10" stroke-width="1.5"/>
          </g>
        </g>
        <g id="Kansas" transform="translate(654.613 -817.521)">
          <g id="Сгруппировать_45" data-name="Сгруппировать 45">
            <path id="Kansas-2" data-name="Kansas" d="M942.058-685.845a14.149,14.149,0,0,1-2.357-6.482s2.16.393,2.553-2.75-2.946-4.321-4.124-4.713a26.357,26.357,0,0,1-2.75-1.178s-33.388,0-43.993-.393-55.188-2.16-55.188-2.16c-4.312-.227-9.8-.519-13.67-.726-.091,1.5-.17,2.762-.225,3.623-.344,5.327-3.609,52.586-3.609,56.023,0,1.611-.038,4.317-.078,6.737,17.4.923,41.788,2.2,46.423,2.332,7.356.216,65.124,1.082,69.884,1.3s12.116.216,12.116.216.516-20.011.713-26.492.982-20.229.982-20.229S944.219-682.7,942.058-685.845Z" transform="translate(-818.618 704.247)" fill="#1e3c5c" stroke="#fff" stroke-miterlimit="10" stroke-width="1.5"/>
          </g>
        </g>
        <g id="Texas" transform="translate(552.562 -740.439)">
          <g id="Сгруппировать_46" data-name="Сгруппировать 46" transform="translate(0 0)">
            <path id="Контур_51" data-name="Контур 51" d="M852.11-356.929s-3.866-12.889-4.553-17.1a16.277,16.277,0,0,1,.945-8.85c.687-1.976,2.578-10.912,2.578-10.912a62.411,62.411,0,0,0,4.8-4.212c-.6-1.547-.881-1.553-.881-1.553s-3.327-1.358.052-2.537c2.227-.776,5.613-2.884,7.041-5.333.363-.621,3.107-.258,3.107-.258s1.5-1.605-.259-5.9a16.508,16.508,0,0,0,6.938-1.243c3.469,1.4,1.062,4.57,2.174,3.987,3.609-1.89,5.472-3.053,7.878-4.171s7.3-5.5,8.421-6.53,5.843-4.382,6.616-5.5c1.976-.6,5.327-5.5,5.327-5.5s11-4.554,16.24-5.843a13.474,13.474,0,0,1,1.789-8.415c.671-1.245.287-2.682,0-4.31a2.741,2.741,0,0,1,.479-2.395,7.2,7.2,0,0,1-.766-2.969c0-1.533,1.916-5.652,2.778-9s.1-4.31-.479-6.417-2.874-4.885-4.119-7.471-1.245-4.6-1.724-6.034-2.682-2.682-3.449-3.736-.575-2.586-.575-4.6-.287-23.563-.67-29.694c-7.567.1-10.441-1.82-12.26-2.873s-4.5-3.832-6.992-4.119a8.708,8.708,0,0,0-4.981,1.341c-1.533.1-1.437-.575-2.586-1.149s-3.544,2.011-5.652,1.437c-4.757-1.3-6.513,1.724-6.513,1.724a69.655,69.655,0,0,0-7.95-2.012c-5.843-1.245-6.034.383-7.567,1.82-1.245.383-4.31-.958-7.184-2.778s-5.746-.192-7.183.191c-.383-1.82-2.586-4.406-4.214-5.364s-3.257-.67-7.28.192c-4.023-2.4-9.578-2.682-12.164-3.257.575-4.406-1.054-4.694-2.778-5.46-.575.958-1.149.766-2.3.192s-1.628.1-2.682.383-2.2-.863-3.448-2.012a6.631,6.631,0,0,0-2.569-1.486s0-6.225.541-12.721.813-30.313.813-30.313-32.749-1.353-39.786-1.624c-4.314-.166-10.049-.535-13.844-.8q-.044.479-.086.953c-.526,5.782-7.184,96.894-7.184,96.894s-18.573-.7-27.509-2.1-27.684-2.629-38.723-3.68c0,1.427-.135,2.987-.246,4.248-2.272-.237-5.669-.6-9.308-.989l.093.01.122.013,1.051.113.585.063.342.036.765.082.673.072.571.061.427.045.687.073.566.061.485.051.639.067.347.037.533.056.489.052.243.025.647.067.083.009.628.065.4.042.236.024.352.036.222.023.227.022.21.021.311.03c1.484.913,2.854,4.4,3.367,5.594s.686,3.368,3.2,4.566,3.082,2.283,4.966,4.91a76.656,76.656,0,0,0,7.173,7.534c.945,1.289,5.069,1.632,5.585,3.609s.859,1.633,2.062,2.148c0,4.984,4.468,9.022,4.468,9.022l-.172,8.85s4.812,11.256,10.311,12.8,6.358,4.124,6.358,4.124L738-428.16s6.015-7.046,6.788-7.991,1.031-4.64,4.554-8.507a11.009,11.009,0,0,0,7.132-2.492,23.78,23.78,0,0,0,3.007,2.406c.859.43,4.468,0,12.03,1.031s5.5,5.069,5.5,5.069,5.843,5.671,7.475,7.046.773,1.8,2.148,3.523a9.975,9.975,0,0,1,1.976,5.156c.172,1.461,3.866,9.366,4.64,11.342-.515,3.093-.086,3.609.6,4.3s3.093,1.633,5.155,3.351,3.953,7.475,6.1,8.592,4.124,2.492,4.382,3.179-1.117,5.327-1.117,5.327-.258,0,1.547,1.031c1.031,2.578-.43,6.1-.43,6.1l4.039,3.265c.773,10.741,9.967,12.459,16.068,13.232,4.21,4.124,7.218,3.007,9.881,3.093s4.21,1.718,7.218,3.781A4.129,4.129,0,0,0,852.11-356.929Z" transform="translate(-670.158 592.11)" fill="#1e3c5c" stroke="#fff" stroke-miterlimit="10" stroke-width="1.5"/>
            <path id="Контур_52" data-name="Контур 52" d="M950.014-320.657c1.039.245.932,3.832-3.986,7.818s-5.333,4.452-5.178,3.365a21.441,21.441,0,0,1,4.039-7.456C946.7-318.742,949.133-320.864,950.014-320.657Z" transform="translate(-754.77 507.257)" fill="#1e3c5c" stroke="#fff" stroke-miterlimit="10" stroke-width="1.5"/>
          </g>
        </g>
        <g id="Colorado" transform="translate(533.383 -850.501)">
          <g id="Сгруппировать_47" data-name="Сгруппировать 47" transform="translate(0)">
            <path id="Colorado-2" data-name="Colorado" d="M763.486-652.863c.04-2.421.078-5.126.078-6.737,0-3.437,3.265-50.7,3.609-56.022s1.547-25.778,1.547-25.778-17.013-1.031-26.465-1.89-34.714-2.922-46.743-4.124-41.931-4.812-41.931-4.812-6.874,47.946-7.561,52.414-3.117,27.7-3.117,28.556-.647,6.088-.647,6.088,8.058,1.355,16.119,2.231,37.321,4.38,47.484,5.432,39.6,3.68,39.6,3.68S753.271-653.4,763.486-652.863Z" transform="translate(-642.256 752.226)" fill="#d8374f" stroke="#fff" stroke-miterlimit="10" stroke-width="1.5"/>
          </g>
        </g>
        <g id="Oklahoma" transform="translate(635.619 -752.101)">
          <g id="Сгруппировать_48" data-name="Сгруппировать 48" transform="translate(0 0)">
            <path id="Oklahoma-2" data-name="Oklahoma" d="M940.783-582.847c-.433-3.462-2.163-10.169-2.38-13.414s0-8.005,0-8.005-7.356,0-12.116-.216-62.528-1.082-69.884-1.3-64.452-3.295-64.452-3.295-.469,6.109-.965,11.662c3.794.261,9.529.63,13.843.8,7.037.271,39.786,1.624,39.786,1.624s-.271,23.818-.812,30.313-.541,12.721-.541,12.721a6.629,6.629,0,0,1,2.57,1.486c1.245,1.149,2.394,2.3,3.448,2.012s1.532-.958,2.682-.384,1.724.767,2.3-.192c1.724.767,3.352,1.054,2.777,5.46,2.586.575,8.142.862,12.164,3.257,4.024-.862,5.652-1.149,7.281-.192s3.831,3.544,4.214,5.364c1.436-.383,4.31-2.011,7.183-.191s5.939,3.161,7.184,2.778c1.533-1.437,1.724-3.065,7.567-1.82a69.644,69.644,0,0,1,7.95,2.011s1.756-3.021,6.513-1.724c2.108.575,4.5-2.011,5.652-1.437s1.053,1.245,2.586,1.149a8.706,8.706,0,0,1,4.981-1.341c2.49.287,5.172,3.065,6.992,4.119a17.215,17.215,0,0,0,5.162,2.193c-.1-4.962-.292-17.26.047-24.227C942.946-562.509,941.216-579.385,940.783-582.847Z" transform="translate(-790.986 609.076)" fill="none" stroke="#fff" stroke-miterlimit="10" stroke-width="1.5"/>
          </g>
        </g>
        <g id="Washington" transform="translate(338.145 -1066.601)">
          <path id="Контур_53" data-name="Контур 53" d="M358.231-1018.741s.258,3.266.773,3.953,4.038.6,4.038,2.148a11.179,11.179,0,0,0,4.445,2.244c2.733.683,4.954,2.733,5.125,4.954s0,7.518,1.2,9.226,1.2,2.05,4.1,2.734,5.808,1.2,5.808,1.2a6.682,6.682,0,0,1,7.176-1.026c4.1,1.88,6.2,2.937,14.4,3.791s20.859-.2,30.085,1.342a145.527,145.527,0,0,1,25.39,6.826s1.423-10.911,3.148-21.4c1.677-10.2,7.841-36.042,10.16-42.734-16.557-3.972-38.034-9.392-42.125-10.717-6.1-1.977-39.1-10.4-39.1-10.4a18.8,18.8,0,0,0-.773,1.89c-.43,1.2,1.976,5.069,1.976,6.015a11.066,11.066,0,0,1-1.031,3.436c-.6,1.633.172,3.867.344,4.984a9.769,9.769,0,0,1-.258,3.179c-.172,1.031,1.253,2.956.945,3.351a5.624,5.624,0,0,1-5.991,2.308c-1.277.141-1.533-.558-2.554-.246.957-2.073,1.561-.35,2.809-4.379a8.3,8.3,0,0,0,.454-2.752c-.086-1.46,1.673-3.523,1.673-3.523l-.344-1.289c-1.632.086-2.664,2.578-2.835,4.21a30.085,30.085,0,0,1-17.615-6.015c-4.382-3.265-7.475-6.358-8.936-6.788.172,1.8-1.375,7.9-1.461,9.022s1.461,4.382,1.461,7.475c.344,2.32-.344,7.991-.258,10.569s4.21,5.585,4.21,5.585l-4.21.774a5.5,5.5,0,0,0-.859,2.491,3.375,3.375,0,0,0,1.1,2.423,5.161,5.161,0,0,1,.36,2.732C360.809-1019.773,358.231-1018.741,358.231-1018.741Z" transform="translate(-357.897 1066.807)" fill="#1e3c5c" stroke="#fff" stroke-miterlimit="10" stroke-width="1.5"/>
          <path id="Контур_54" data-name="Контур 54" d="M400.4-1058.789a1.928,1.928,0,0,0-2.147-.83c-1.281.484-1.419,1.454-1.973,1.454a9.9,9.9,0,0,1-1.35-.138s.727,3.531,1.7,3.046.381-1.592,1.246-1.731a3.214,3.214,0,0,1,1.454.069S401.123-1057.646,400.4-1058.789Z" transform="translate(-369.702 1064.452)" fill="#1e3c5c" stroke="#fff" stroke-miterlimit="10" stroke-width="1.5"/>
          <path id="Контур_55" data-name="Контур 55" d="M401.2-1054.787a3.437,3.437,0,0,1,.312,2.146c-.277,1-1.177,1.246-1.385,1.108S400.058-1054.233,401.2-1054.787Z" transform="translate(-371.303 1062.908)" fill="#1e3c5c" stroke="#fff" stroke-miterlimit="10" stroke-width="1.5"/>
        </g>
        <g id="Montana" transform="translate(463.856 -1042.255)">
          <g id="Сгруппировать_49" data-name="Сгруппировать 49" transform="translate(0 0)">
            <path id="Montana-2" data-name="Montana" d="M654.614-1012.137C642.584-1013.856,603-1019.7,603-1019.7c-13.519-2.292-53.56-10.569-53.56-10.569-1.044-.2-2.528-.514-4.335-.916l.164.036c-1.416,6.592-3.511,16.374-3.988,18.755-.735,3.672,1.1,5.325,1.1,5.325s3.121,4.407,1.469,7.9,1.1,5.142,1.1,5.142a54.965,54.965,0,0,1,7.161,11.2,12.732,12.732,0,0,0,7.345,6.978,21.3,21.3,0,0,1-.551,2.938c-.367,1.285-4.407,12.3-5.508,14.139s-2.571,1.653-.551,4.957,5.692,1.653,8.63-.55c3.122,5.141,1.837,10.466,3.122,14.139a18.242,18.242,0,0,0,4.958,7.345c1.652,1.653,1.652,2.938,1.469,6.059s.919,3.856.919,3.856a4.175,4.175,0,0,1,5.141-2.02c3.673,1.1,4.591.551,7.345,0s3.856,1.286,7.162,1.47,3.856-3.306,4.958-3.489.918.919,2.571,3.489c1,1.559,1.6,1.9,1.912,1.929l.291-.093,1.9-10.488S625-928.5,644.016-925.984s52.93,6.415,67.594,6.874c.917-13.06,3.207-40.556,4.124-49.721.639-6.39,2.392-25.363,3.394-36.269C704.283-1006.313,666.617-1010.423,654.614-1012.137Z" transform="translate(-541.111 1031.183)" fill="#1e3c5c" stroke="#fff" stroke-miterlimit="10" stroke-width="1.5"/>
          </g>
        </g>
        <g id="Wyoming" transform="translate(512.572 -943.243)">
          <g id="Сгруппировать_50" data-name="Сгруппировать 50" transform="translate(0 0)">
            <path id="Wyoming-2" data-name="Wyoming" d="M686.048-789.59c9.791.979,28.348,2.527,40.011,3.533.977-11.984,2.723-33,3.508-39.872,1.121-9.808,4.2-48.153,4.2-48.153-14.665-.459-48.576-4.353-67.594-6.874s-40.785-6.187-40.785-6.187l-1.9,10.488L615.246-821.9s-2.578,19.247-3.265,23.372c5.843,1.031,15.466,2.234,19.763,2.578s12.373,1.547,12.373,1.547S674.018-790.793,686.048-789.59Z" transform="translate(-611.981 887.143)" fill="#1e3c5c" stroke="#fff" stroke-miterlimit="10" stroke-width="1.5"/>
          </g>
        </g>
        <g id="Idaho" transform="translate(407.629 -1045.487)">
          <g id="Сгруппировать_51" data-name="Сгруппировать 51" transform="translate(0 0)">
            <path id="Idaho-2" data-name="Idaho" d="M519.232-876.644s19.247,4.124,26.808,5.327,21.481,2.921,21.481,2.921l8.237-54.757s-.55.734-2.2-1.836-1.469-3.673-2.571-3.489-1.652,3.672-4.958,3.489-4.407-2.02-7.162-1.469-3.672,1.1-7.345,0a4.175,4.175,0,0,0-5.141,2.02s-1.1-.735-.918-3.856.184-4.407-1.469-6.059a18.239,18.239,0,0,1-4.957-7.345c-1.286-3.673,0-9-3.122-14.139-2.938,2.2-6.61,3.855-8.63.55s-.551-3.121.551-4.958,5.141-12.854,5.508-14.139a21.323,21.323,0,0,0,.551-2.938,12.732,12.732,0,0,1-7.345-6.978,54.95,54.95,0,0,0-7.161-11.2s-2.754-1.653-1.1-5.142-1.469-7.9-1.469-7.9-1.837-1.653-1.1-5.325c.476-2.381,2.572-12.163,3.987-18.755-3.594-.8-8.538-1.952-14.023-3.268-2.319,6.692-8.482,32.528-10.16,42.733-1.725,10.491-3.148,21.4-3.148,21.4,2.05,3.93,2.05,4.272,3.759,5.809a52.1,52.1,0,0,1,1.025,5.979s-5.125,4.1-7.688,9.055-3.759,5.125-3.759,5.125-4.442,4.784-5.125,7.688,0,3.076,1.367,3.076a7.354,7.354,0,0,0,2.221,3.587,148.407,148.407,0,0,0-5.467,14.01c-2.05,6.492-5.98,23.235-6.834,26.994-.3,1.309-.552,2.8-.76,4.194-3.433-.83-7.506-1.826-11.8-2.882h0c10.191,2.51,19.157,4.682,21.253,5.081C487.783-882.659,519.232-876.644,519.232-876.644Z" transform="translate(-459.313 1035.885)" fill="#1e3c5c" stroke="#fff" stroke-miterlimit="10" stroke-width="1.5"/>
          </g>
        </g>
        <g id="New_Mexico" data-name="New Mexico" transform="translate(515.488 -763.444)">
          <g id="Сгруппировать_52" data-name="Сгруппировать 52" transform="translate(0 0)">
            <path id="New_Mexico-2" data-name="New Mexico" d="M697.721-617.914c-10.163-1.052-39.424-4.556-47.484-5.432s-16.119-2.231-16.119-2.231-3.726,21.05-4.471,26.731-4.006,26.546-5.216,34.835-4.378,30.551-5.216,37.909-2.888,24.59-2.888,24.59l-.022.144-.083-.012c4.495.648,14.152,1.864,15.274,2.238-.285-2.968.971-10.446.971-10.446a17.937,17.937,0,0,0,2.854.4c2.219.241,20.209,2.194,27.284,2.932.111-1.261.246-2.822.246-4.248,11.039,1.051,29.788,2.278,38.723,3.68s27.51,2.1,27.51,2.1,6.658-91.113,7.184-96.895,1.051-12.616,1.051-12.616S707.883-616.863,697.721-617.914Z" transform="translate(-616.223 625.577)" fill="none" stroke="#fff" stroke-miterlimit="10" stroke-width="1.5"/>
          </g>
        </g>
        <g id="Utah" transform="translate(446.202 -886.246)">
          <path id="Utah-2" data-name="Utah" d="M613.934-768.481s-8.077-1.2-12.373-1.547-13.92-1.546-19.762-2.578c.687-4.124,3.265-23.371,3.265-23.371s-13.92-1.718-21.481-2.921-26.809-5.327-26.809-5.327-1.547,8.421-2.577,13.232-9.452,46.056-11,55.335-7.77,41.009-7.77,41.009c3.819.559,17.6,2.887,23.006,3.726s34.183,5.4,40.517,6.24,23.658,3.26,23.658,3.26.647-5.229.647-6.088,2.429-24.088,3.117-28.556S613.934-768.481,613.934-768.481Z" transform="translate(-515.428 804.226)" fill="#167a91" stroke="#fff" stroke-miterlimit="10" stroke-width="1.5"/>
        </g>
        <g id="Arizona" transform="translate(413.841 -776.67)">
          <path id="Arizona-2" data-name="Arizona" d="M564.234-634.852c-6.334-.838-35.114-5.4-40.517-6.24s-19.187-3.167-23.006-3.726c-.652,1.211-2.142,14.53-2.514,16.3s-2.329,2.794-4.192,3.353-1.49-.838-4.377-3.167-4.657,1.49-5.216,3.446.372,12.481.093,15.834a11.277,11.277,0,0,1-2.758,5.993,13.665,13.665,0,0,0-.377,2.36c-.094,1.322,2.455,3.965,2.926,4.91s-.472,2.738,1.511,5.57,1.793,3.3-.189,5.664c-5.759,1.133-6.325,7.364-6.609,8.78s.755,3.587-2.266,4.436-3.776,1.888-4.342,5.382.944,5.381,1.888,5.664,0,0,1.983.283a4.281,4.281,0,0,1-3.021,5.193c-2.549.566-2.738-.378-2.738-.378s-.243.277-.7.785c-.293.485-.679,1.129-1.052,1.76-.742,1.256-.8,1.085,2.512,3.025s32.309,18.324,36.648,21.064l23.86,15.07a71.628,71.628,0,0,1,8.106.913c3.026.628,26.144,4.453,28.028,4.852.351.074,1.126.195,2.162.343l.022-.144s2.049-17.231,2.888-24.59,4-29.619,5.216-37.908,4.471-29.153,5.216-34.835,4.471-26.731,4.471-26.731S570.568-634.014,564.234-634.852Z" transform="translate(-468.35 644.818)" fill="#167a91" stroke="#fff" stroke-miterlimit="10" stroke-width="1.5"/>
        </g>
        <g id="California" transform="translate(293.978 -926.388)">
          <g id="Сгруппировать_53" data-name="Сгруппировать 53" transform="translate(0 0)">
            <path id="Контур_56" data-name="Контур 56" d="M415.539-622.882l-.232.384c.453-.508.7-.785.7-.785s.189.945,2.738.378a4.281,4.281,0,0,0,3.021-5.193c-1.983-.283-1.039,0-1.983-.283s-2.454-2.171-1.888-5.664,1.321-4.532,4.342-5.382,1.982-3.02,2.266-4.436.85-7.647,6.609-8.78c1.982-2.36,2.171-2.832.189-5.664s-1.039-4.626-1.511-5.57-3.02-3.587-2.926-4.909a13.676,13.676,0,0,1,.377-2.36s-4.154-6.042-6.608-10.2-21.147-32.381-25.018-38.234S372.1-755.922,369.839-759.7s-12.084-19.164-13.878-20.3c.661-3.588,7.647-26.245,9.063-31.815s7.364-31.909,7.364-31.909-26.34-7.269-30.4-8.5c-3.658-1.106-29.854-8.881-35-10.407h0c-.087.57-1.481,9.677-2.23,14.794-.773,5.284-4.64,10.483-7.174,13.017a11.5,11.5,0,0,0-3.609,8.55c-.086,3.437,3.05,7.862,3.695,10.611s.472,2.449.516,5.585-3.222,15.552-3.222,15.552,6.058,9.753,7.261,13.92a15.816,15.816,0,0,1,.128,8.55c.516,1.332,4.677,4.924,5.536,6.169.747-4.67,3.361-4.006,3.737-3.487a6.912,6.912,0,0,1,.685,6.041c-.366.939,2.491,5.231-.187,5.6-.922.129-2.358-5.708-4.359-5.044-.186.615-.672,1.534-.9,2.145-.773,2.062-.645,7.389-.258,9.838s3.093,4.3,4.339,5.628,2.148,2.363,2.191,4.425-3.695,4.812-3.695,4.812-.3,6.015.644,7.647,2.406,1.375,2.835,4.769a36.535,36.535,0,0,0,3.91,11.385c1.375,2.062,3.823,4.855,4.468,7.776a9.18,9.18,0,0,0,2.148,4.382,4.241,4.241,0,0,0-.172,1.5c0,1.117-2.106,11.342-2.106,11.342l2.148,2.879s4.21-.43,5.585.258,5.714,3.867,7.561,4.339a4.3,4.3,0,0,0,3.222-.43c1.547.945,3.437,9.237,8.034,11.815,2.1,1.177,5.843,1.2,6.831,1.289.73.859,1.675,4.167,1.2,5.284a4.175,4.175,0,0,0,.258,2.75s3.437.731,4.382,1.117,5.585,6.058,7.862,9.366a22.741,22.741,0,0,1,3.523,8.764c.43,2.191.172,11.084.172,11.084s11.759.948,16.669,1.12,22.719,3.14,22.719,3.14l4.452,1.027Z" transform="translate(-283.478 842.616)" fill="#d8374f" stroke="#fff" stroke-miterlimit="10" stroke-width="1.5"/>
            <path id="Контур_57" data-name="Контур 57" d="M338.168-587.226s.086,3.437,4.038,3.437C341.047-586.754,341.175-587.012,338.168-587.226Z" transform="translate(-307.792 776.532)" fill="#1e3c5c" stroke="#fff" stroke-miterlimit="10" stroke-width="1.5"/>
            <path id="Контур_58" data-name="Контур 58" d="M347.026-588.039s-.687,3.91,3.91,3.566C349.776-586.535,349.69-587.223,347.026-588.039Z" transform="translate(-310.55 776.786)" fill="#1e3c5c" stroke="#fff" stroke-miterlimit="10" stroke-width="1.5"/>
            <path id="Контур_59" data-name="Контур 59" d="M376.214-560.951c-.493.512.839,6.913,3.589,5.753C380.791-555.756,377.1-561.869,376.214-560.951Z" transform="translate(-319.654 768.348)" fill="#1e3c5c" stroke="#fff" stroke-miterlimit="10" stroke-width="1.5"/>
            <path id="Контур_60" data-name="Контур 60" d="M372.871-545.622c.991-.62,3.909,5.2,2.706,5.843S371.84-544.978,372.871-545.622Z" transform="translate(-318.565 763.541)" fill="#1e3c5c" stroke="#fff" stroke-miterlimit="10" stroke-width="1.5"/>
          </g>
        </g>
        <g id="Nevada" transform="translate(355.961 -907.483)">
          <g id="Сгруппировать_54" data-name="Сгруппировать 54" transform="translate(0 0)">
            <path id="Nevada-2" data-name="Nevada" d="M455.425-662.549a11.277,11.277,0,0,0,2.758-5.992c.28-3.353-.652-13.879-.093-15.834s2.328-5.775,5.216-3.447,2.514,3.726,4.377,3.167,3.819-1.583,4.192-3.353,1.863-15.089,2.514-16.3c0,0,6.223-31.729,7.77-41.009s9.967-50.523,11-55.335,2.578-13.232,2.578-13.232-31.448-6.015-38.666-7.39c-5.4-1.03-56.493-13.848-56.493-13.848s-5.948,26.339-7.364,31.909-8.4,28.227-9.063,31.815c1.793,1.133,11.611,16.521,13.878,20.3s21.9,34.269,25.772,40.122,22.563,34.08,25.018,38.234S455.425-662.549,455.425-662.549Z" transform="translate(-384.149 835.122)" fill="#1e3c5c" stroke="#fff" stroke-miterlimit="10" stroke-width="1.5"/>
          </g>
        </g>
        <g id="Oregon" transform="translate(305.353 -1012.641)">
          <g id="Сгруппировать_55" data-name="Сгруппировать 55" transform="translate(0 0)">
            <path id="Oregon-2" data-name="Oregon" d="M449.617-951c-1.709-1.538-1.709-1.879-3.759-5.809a145.448,145.448,0,0,0-25.39-6.826c-9.225-1.538-21.884-.489-30.084-1.342s-10.3-1.912-14.4-3.791a6.681,6.681,0,0,0-7.176,1.025s-2.9-.513-5.809-1.2-2.9-1.025-4.1-2.734-1.026-7-1.2-9.226-2.392-4.271-5.125-4.954a11.18,11.18,0,0,1-4.445-2.244c0,1.546-5.327,2.234-5.327,2.234l-.33.954c-.032.091-.065.187-.1.288-.088.255-.189.546-.3.869l-.095.273-.067.2-.138.4c-.1.285-.2.59-.315.907l-.048.139-.111.32-.1.287-.356,1.023-.128.367c-.222.639-.457,1.313-.7,2.015-.029.081-.058.164-.086.246-.048.135-.095.27-.142.408l-.115.328q-.233.669-.476,1.363l-.1.282-.221.634q-.092.261-.183.525l-.053.15-.193.55-.173.495-.028.08-.25.712-.12.344q-.252.717-.505,1.438l-.124.351-.192.547c-.052.145-.1.29-.154.435l-.153.435q-.314.891-.626,1.771l-.007.02-.613,1.73c-3.265,9.194-12.889,28.183-14.865,31.792s-7.819,11.084-8.249,13.232-.086,6.445-1.461,11.342,1.246,6.745,1.246,6.745l0,.028c5.142,1.526,31.338,9.3,35,10.407,4.059,1.228,30.4,8.5,30.4,8.5s30.72,7.708,47.036,11.649c.208-1.393.463-2.885.76-4.194.854-3.758,4.784-20.5,6.834-26.994a148.456,148.456,0,0,1,5.467-14.01,7.355,7.355,0,0,1-2.221-3.588c-1.366,0-2.05-.171-1.366-3.076s5.125-7.688,5.125-7.688,1.2-.17,3.759-5.125,7.689-9.055,7.689-9.055A52.084,52.084,0,0,0,449.617-951Z" transform="translate(-310.4 988.347)" fill="#d8374f" stroke="#fff" stroke-miterlimit="10" stroke-width="1.5"/>
          </g>
        </g>
        <g id="Сгруппировать_56" data-name="Сгруппировать 56" transform="translate(1077.417 -825.152)">
          <path id="Washington_DC" data-name="Washington DC" d="M1436.12-711.186a4.074,4.074,0,0,1,.239,1.411,3.6,3.6,0,0,0,2.256-2.058s-2.146-2.8-2.672-3.515a7.07,7.07,0,0,0-2.03,1.582,2.884,2.884,0,0,0-.212.229A4.951,4.951,0,0,1,1436.12-711.186Z" transform="translate(-1433.701 715.348)" fill="#1e3c5c" stroke="#fff" stroke-miterlimit="10" stroke-width="1.5"/>
        </g>
      </g>
      <text id="WA" transform="translate(606 2338)" fill="#fff" font-size="16" font-family="Poppins-SemiBold, Poppins" font-weight="600"><tspan x="-13.808" y="0">WA</tspan></text>
      <text id="OR" transform="translate(585 2407)" fill="#fff" font-size="16" font-family="Poppins-SemiBold, Poppins" font-weight="600"><tspan x="-11.248" y="0">OR</tspan></text>
      <text id="CA" transform="translate(552 2535)" fill="#fff" font-size="16" font-family="Poppins-SemiBold, Poppins" font-weight="600"><tspan x="-11.704" y="0">CA</tspan></text>
      <text id="NV" transform="translate(619 2515)" fill="#fff" font-size="16" font-family="Poppins-SemiBold, Poppins" font-weight="600"><tspan x="-11.448" y="0">NV</tspan></text>
      <text id="ID" transform="translate(675 2435)" fill="#fff" font-size="16" font-family="Poppins-SemiBold, Poppins" font-weight="600"><tspan x="-7.968" y="0">ID</tspan></text>
      <text id="MT" transform="translate(759 2378)" fill="#fff" font-size="16" font-family="Poppins-SemiBold, Poppins" font-weight="600"><tspan x="-11.576" y="0">MT</tspan></text>
      <text id="WY" transform="translate(783 2468)" fill="#fff" font-size="16" font-family="Poppins-SemiBold, Poppins" font-weight="600"><tspan x="-13.336" y="0">WY</tspan></text>
      <text id="UT" transform="translate(707 2542)" fill="#fff" font-size="16" font-family="Poppins-SemiBold, Poppins" font-weight="600"><tspan x="-9.928" y="0">UT</tspan></text>
      <text id="AZ" transform="translate(690 2648)" fill="#fff" font-size="16" font-family="Poppins-SemiBold, Poppins" font-weight="600"><tspan x="-10.216" y="0">AZ</tspan></text>
      <text id="NM" transform="translate(785 2660)" fill="#fff" font-size="16" font-family="Poppins-SemiBold, Poppins" font-weight="600"><tspan x="-12.92" y="0">NM</tspan></text>
      <text id="CO" transform="translate(805 2562)" fill="#fff" font-size="16" font-family="Poppins-SemiBold, Poppins" font-weight="600"><tspan x="-12.392" y="0">CO</tspan></text>
      <text id="ND" transform="translate(898 2382)" fill="#fff" font-size="16" font-family="Poppins-SemiBold, Poppins" font-weight="600"><tspan x="-11.624" y="0">ND</tspan></text>
      <text id="SD" transform="translate(898 2447)" fill="#fff" font-size="16" font-family="Poppins-SemiBold, Poppins" font-weight="600"><tspan x="-10.528" y="0">SD</tspan></text>
      <text id="NE" transform="translate(903 2511)" fill="#fff" font-size="16" font-family="Poppins-SemiBold, Poppins" font-weight="600"><tspan x="-10.008" y="0">NE</tspan></text>
      <text id="KS" transform="translate(922 2578)" fill="#fff" font-size="16" font-family="Poppins-SemiBold, Poppins" font-weight="600"><tspan x="-9.92" y="0">KS</tspan></text>
      <text id="OK" transform="translate(946 2647)" fill="#fff" font-size="16" font-family="Poppins-SemiBold, Poppins" font-weight="600"><tspan x="-11.528" y="0">OK</tspan></text>
      <text id="TX" transform="translate(906 2737)" fill="#fff" font-size="16" font-family="Poppins-SemiBold, Poppins" font-weight="600"><tspan x="-9.728" y="0">TX</tspan></text>
      <text id="LA" transform="translate(1034 2737)" fill="#fff" font-size="16" font-family="Poppins-SemiBold, Poppins" font-weight="600"><tspan x="-9.328" y="0">LA</tspan></text>
      <text id="MS" transform="translate(1086 2707)" fill="#fff" font-size="16" font-family="Poppins-SemiBold, Poppins" font-weight="600"><tspan x="-11.824" y="0">MS</tspan></text>
      <text id="AL" transform="translate(1138 2701)" fill="#fff" font-size="16" font-family="Poppins-SemiBold, Poppins" font-weight="600"><tspan x="-9.328" y="0">AL</tspan></text>
      <text id="GA" transform="translate(1202 2701)" fill="#fff" font-size="16" font-family="Poppins-SemiBold, Poppins" font-weight="600"><tspan x="-11.776" y="0">GA</tspan></text>
      <text id="SC" transform="translate(1243 2662)" fill="#fff" font-size="16" font-family="Poppins-SemiBold, Poppins" font-weight="600"><tspan x="-10.784" y="0">SC</tspan></text>
      <text id="NC" transform="translate(1263 2618)" fill="#fff" font-size="16" font-family="Poppins-SemiBold, Poppins" font-weight="600"><tspan x="-11.88" y="0">NC</tspan></text>
      <text id="VA" transform="translate(1273 2571)" fill="#fff" font-size="16" font-family="Poppins-SemiBold, Poppins" font-weight="600"><tspan x="-11.272" y="0">VA</tspan></text>
      <text id="WV" transform="translate(1225 2561)" fill="#fff" font-size="16" font-family="Poppins-SemiBold, Poppins" font-weight="600"><tspan x="-13.816" y="0">WV</tspan></text>
      <text id="KY" transform="translate(1160 2591)" fill="#fff" font-size="16" font-family="Poppins-SemiBold, Poppins" font-weight="600"><tspan x="-10.368" y="0">KY</tspan></text>
      <text id="TN" transform="translate(1140 2631)" fill="#fff" font-size="16" font-family="Poppins-SemiBold, Poppins" font-weight="600"><tspan x="-10.272" y="0">TN</tspan></text>
      <text id="AR" transform="translate(1034 2663)" fill="#fff" font-size="16" font-family="Poppins-SemiBold, Poppins" font-weight="600"><tspan x="-10.56" y="0">AR</tspan></text>
      <text id="MO" transform="translate(1026 2583)" fill="#fff" font-size="16" font-family="Poppins-SemiBold, Poppins" font-weight="600"><tspan x="-13.432" y="0">MO</tspan></text>
      <text id="IA" transform="translate(1007 2500)" fill="#fff" font-size="16" font-family="Poppins-SemiBold, Poppins" font-weight="600"><tspan x="-7.784" y="0">IA</tspan></text>
      <text id="MN" transform="translate(993 2416)" fill="#fff" font-size="16" font-family="Poppins-SemiBold, Poppins" font-weight="600"><tspan x="-12.92" y="0">MN</tspan></text>
      <text id="WI" transform="translate(1067 2442)" fill="#fff" font-size="16" font-family="Poppins-SemiBold, Poppins" font-weight="600"><tspan x="-10.328" y="0">WI</tspan></text>
      <text id="IL" transform="translate(1081 2539)" fill="#fff" font-size="16" font-family="Poppins-SemiBold, Poppins" font-weight="600"><tspan x="-5.848" y="0">IL</tspan></text>
      <text id="IN" transform="translate(1133 2539)" fill="#fff" font-size="16" font-family="Poppins-SemiBold, Poppins" font-weight="600"><tspan x="-7.96" y="0">IN</tspan></text>
      <text id="OH" transform="translate(1184 2528)" fill="#fff" font-size="16" font-family="Poppins-SemiBold, Poppins" font-weight="600"><tspan x="-12.024" y="0">OH</tspan></text>
      <text id="PA" transform="translate(1264 2501)" fill="#fff" font-size="16" font-family="Poppins-SemiBold, Poppins" font-weight="600"><tspan x="-10.44" y="0">PA</tspan></text>
      <text id="NY" transform="translate(1297 2448)" fill="#fff" font-size="16" font-family="Poppins-SemiBold, Poppins" font-weight="600"><tspan x="-10.968" y="0">NY</tspan></text>
      <text id="ME" transform="translate(1378 2375)" fill="#fff" font-size="16" font-family="Poppins-SemiBold, Poppins" font-weight="600"><tspan x="-11.312" y="0">ME</tspan></text>
      <text id="FL" transform="translate(1252 2792)" fill="#fff" font-size="16" font-family="Poppins-SemiBold, Poppins" font-weight="600"><tspan x="-7.96" y="0">FL</tspan></text>
      <g id="Прямоугольник_3201" data-name="Прямоугольник 3201" transform="translate(1262 2296)" fill="#167a91" stroke="#fff" stroke-width="1">
        <rect width="54" height="30" stroke="none"/>
        <rect x="0.5" y="0.5" width="53" height="29" fill="none"/>
      </g>
      <text id="NH" transform="translate(1289 2316)" fill="#fff" font-size="16" font-family="Poppins-SemiBold, Poppins" font-weight="600"><tspan x="-11.512" y="0">NH</tspan></text>
      <g id="Прямоугольник_3202" data-name="Прямоугольник 3202" transform="translate(1262 2336)" fill="#1e3c5c" stroke="#fff" stroke-width="1">
        <rect width="54" height="30" stroke="none"/>
        <rect x="0.5" y="0.5" width="53" height="29" fill="none"/>
      </g>
      <text id="VT" transform="translate(1289 2357)" fill="#fff" font-size="16" font-family="Poppins-SemiBold, Poppins" font-weight="600"><tspan x="-10.104" y="0">VT</tspan></text>
      <g id="Прямоугольник_3203" data-name="Прямоугольник 3203" transform="translate(1412 2446)" fill="#167a91" stroke="#fff" stroke-width="1">
        <rect width="54" height="30" stroke="none"/>
        <rect x="0.5" y="0.5" width="53" height="29" fill="none"/>
      </g>
      <text id="NH-2" data-name="NH" transform="translate(1439 2466)" fill="#fff" font-size="16" font-family="Poppins-SemiBold, Poppins" font-weight="600"><tspan x="-11.512" y="0">NH</tspan></text>
      <g id="Прямоугольник_3204" data-name="Прямоугольник 3204" transform="translate(1412 2486)" fill="#d8374f" stroke="#fff" stroke-width="1">
        <rect width="54" height="30" stroke="none"/>
        <rect x="0.5" y="0.5" width="53" height="29" fill="none"/>
      </g>
      <text id="VT-2" data-name="VT" transform="translate(1439 2507)" fill="#fff" font-size="16" font-family="Poppins-SemiBold, Poppins" font-weight="600"><tspan x="-10.104" y="0">VT</tspan></text>
      <g id="Прямоугольник_3205" data-name="Прямоугольник 3205" transform="translate(1412 2526)" fill="#167a91" stroke="#fff" stroke-width="1">
        <rect width="54" height="30" stroke="none"/>
        <rect x="0.5" y="0.5" width="53" height="29" fill="none"/>
      </g>
      <text id="NH-3" data-name="NH" transform="translate(1439 2546)" fill="#fff" font-size="16" font-family="Poppins-SemiBold, Poppins" font-weight="600"><tspan x="-11.512" y="0">NH</tspan></text>
      <g id="Прямоугольник_3206" data-name="Прямоугольник 3206" transform="translate(1412 2566)" fill="#d8374f" stroke="#fff" stroke-width="1">
        <rect width="54" height="30" stroke="none"/>
        <rect x="0.5" y="0.5" width="53" height="29" fill="none"/>
      </g>
      <text id="VT-3" data-name="VT" transform="translate(1439 2587)" fill="#fff" font-size="16" font-family="Poppins-SemiBold, Poppins" font-weight="600"><tspan x="-10.104" y="0">VT</tspan></text>
      <g id="Прямоугольник_3207" data-name="Прямоугольник 3207" transform="translate(1412 2606)" fill="#167a91" stroke="#fff" stroke-width="1">
        <rect width="54" height="30" stroke="none"/>
        <rect x="0.5" y="0.5" width="53" height="29" fill="none"/>
      </g>
      <text id="NH-4" data-name="NH" transform="translate(1439 2626)" fill="#fff" font-size="16" font-family="Poppins-SemiBold, Poppins" font-weight="600"><tspan x="-11.512" y="0">NH</tspan></text>
      <g id="Прямоугольник_3208" data-name="Прямоугольник 3208" transform="translate(1412 2646)" fill="#1e3c5c" stroke="#fff" stroke-width="1">
        <rect width="54" height="30" stroke="none"/>
        <rect x="0.5" y="0.5" width="53" height="29" fill="none"/>
      </g>
      <text id="VT-4" data-name="VT" transform="translate(1439 2667)" fill="#fff" font-size="16" font-family="Poppins-SemiBold, Poppins" font-weight="600"><tspan x="-10.104" y="0">VT</tspan></text>
      <g id="Прямоугольник_3209" data-name="Прямоугольник 3209" transform="translate(1412 2686)" fill="#d8374f" stroke="#fff" stroke-width="1">
        <rect width="54" height="30" stroke="none"/>
        <rect x="0.5" y="0.5" width="53" height="29" fill="none"/>
      </g>
      <text id="NH-5" data-name="NH" transform="translate(1439 2706)" fill="#fff" font-size="16" font-family="Poppins-SemiBold, Poppins" font-weight="600"><tspan x="-11.512" y="0">NH</tspan></text>
      <g id="Прямоугольник_3210" data-name="Прямоугольник 3210" transform="translate(1412 2726)" fill="#d8374f" stroke="#fff" stroke-width="1">
        <rect width="54" height="30" stroke="none"/>
        <rect x="0.5" y="0.5" width="53" height="29" fill="none"/>
      </g>
      <text id="VT-5" data-name="VT" transform="translate(1439 2747)" fill="#fff" font-size="16" font-family="Poppins-SemiBold, Poppins" font-weight="600"><tspan x="-10.104" y="0">VT</tspan></text>
    </g>
  </g>
</svg>
