<svg xmlns="http://www.w3.org/2000/svg" width="335.996" height="295.292" viewBox="0 0 335.996 295.292">
  <g id="Сгруппировать_11132" data-name="Сгруппировать 11132" transform="translate(-19.5 -1395.708)">
    <g id="Сгруппировать_11105" data-name="Сгруппировать 11105" transform="translate(-273.979 2462.894)">
      <path id="Контур_19" data-name="Контур 19" d="M713.913-222.98a9.621,9.621,0,0,1,3.762,1.518,6.859,6.859,0,0,1,2.068,2.134c.528,1.056.682,1.254,1.166,1.5s.748.418.682.792a2.838,2.838,0,0,1-1.826,1.826c-1.144.33-1.716.132-2.112.33a21.843,21.843,0,0,0-1.892,2.112,1.081,1.081,0,0,1-1.606-.022,2.65,2.65,0,0,1-.594-1.76,4.956,4.956,0,0,0-.242-2.134,6.729,6.729,0,0,1-.836-2.112c0-.462.11-.592.484-.946.4-.374,1.1-1.034.946-1.694a5.057,5.057,0,0,1-.286-1.144C713.649-222.892,713.8-223,713.913-222.98Z" transform="translate(-312.765 -630.47)" fill="none" stroke="#fff" stroke-miterlimit="10" stroke-width="1"/>
      <path id="Контур_20" data-name="Контур 20" d="M693.045-247.164c.286-.352.638-.44,1.606.066s2.676,1.17,2.9,1.364a.718.718,0,0,1-.044,1.254,3.1,3.1,0,0,1-2.112.528,6.919,6.919,0,0,1-2.42-2.618A2.485,2.485,0,0,1,693.045-247.164Z" transform="translate(-298.189 -612.182)" fill="none" stroke="#fff" stroke-miterlimit="10" stroke-width="1"/>
      <path id="Контур_21" data-name="Контур 21" d="M681.224-244.308a2.8,2.8,0,0,1,1.254.242.922.922,0,0,1,.418,1.232c-.286.484-.99-.132-1.32-.594S681.4-244.22,681.224-244.308Z" transform="translate(-289.404 -614.532)" fill="#d8374f" stroke="#fff" stroke-miterlimit="10" stroke-width="1"/>
      <path id="Контур_22" data-name="Контур 22" d="M675.652-251.4a21.81,21.81,0,0,0,2.31.572c.528.044,1.562-.044,1.694-.682C678.886-251.638,676.466-251.924,675.652-251.4Z" transform="translate(-285.24 -609.006)" fill="#d8374f" stroke="#fff" stroke-miterlimit="10" stroke-width="1"/>
      <path id="Контур_23" data-name="Контур 23" d="M647.3-268.545a10.573,10.573,0,0,0,1.179,1.979c.463.463,1.263.8,1.221,1.137s-.758.379-1.221.295a3.16,3.16,0,0,1-1.095-.632s-.421.548-.842.295a3.389,3.389,0,0,1-1.263-1.895C646.251-268,647.3-268.545,647.3-268.545Z" transform="translate(-262.543 -596.419)" fill="#d8374f" stroke="#fff" stroke-miterlimit="10" stroke-width="1"/>
      <path id="Контур_24" data-name="Контур 24" d="M603.031-285.759c.425.142.463,2.021.21,2.484s-.968.084-1.347-.084-1.769-.505-1.263-1.558A1.882,1.882,0,0,1,603.031-285.759Z" transform="translate(-229.092 -583.459)" fill="#d8374f" stroke="#fff" stroke-miterlimit="10" stroke-width="1"/>
      <path id="Контур_25" data-name="Контур 25" d="M587.038-278.545s.8.379.253.926a1.242,1.242,0,0,1-1.011.463A1.419,1.419,0,0,1,587.038-278.545Z" transform="translate(-218.447 -588.946)" fill="#d8374f" stroke="#fff" stroke-miterlimit="10" stroke-width="1"/>
      <path id="Контур_26" data-name="Контур 26" d="M694.057-232.946s-.108-.184-.522,0-.859.307-.813.46a1.554,1.554,0,0,0,1.013.414c.322-.015.645-.307.6-.506A.793.793,0,0,0,694.057-232.946Z" transform="translate(-297.995 -622.963)" fill="#d8374f" stroke="#fff" stroke-miterlimit="10" stroke-width="1"/>
      <g id="Michigan" transform="translate(496.425 -1041.734)">
        <path id="Michigan-2" data-name="Michigan" d="M1210.329-868.1a.751.751,0,0,1-.235-.777,13.617,13.617,0,0,1,1.43-2.428,1.94,1.94,0,0,1,.745-2.651,3.651,3.651,0,0,1,1.951-2.83s.119-1.683.193-2.8c-.566-.432-1.013-2.681-1.34-3.976s-.953-2.919-2.219-3.232a2.561,2.561,0,0,0-2.308.745c-.283.179-.581,3.351-2.353,2.725a1.721,1.721,0,0,1-1.191-2.4c.134-.3.64-.462,1.132-.566a2.805,2.805,0,0,1,1.578-2.561s.015-2.279.015-3.4a2.509,2.509,0,0,0-1-1.981.778.778,0,0,1-.268-.774s.432-.253.879-.536c-.774-.223-1-1.132-1.311-1.832a7.151,7.151,0,0,1-4.274-1.236,1.029,1.029,0,0,0-.849-.194,2.173,2.173,0,0,1-2.2-.789s-.089.06-1.162.64-.983.819-.953,1.161,1.251,1.445,1.251,1.445a5.1,5.1,0,0,1-1.7.73c-.938.194-.641,1.132-.581,1.772a12.769,12.769,0,0,0,.536,2.011,7.989,7.989,0,0,1-1.8.73c-.343-.03-.372-.521-.387-.938a13.854,13.854,0,0,1,.7-2.353c-.193-.208-.7-.03-.7-.03s-.268.938-.462,1.5a3.267,3.267,0,0,0-1.608,1.236,1.371,1.371,0,0,1,.149,1.057c-.149.64-1.1.551-1.1.551a7.129,7.129,0,0,1,.253,1.608,12.09,12.09,0,0,1-.611,2.621,8.976,8.976,0,0,0,.045,2.83c0,.477-.849,2.055.224,3.6a11.961,11.961,0,0,1,2.278,4.423,10.332,10.332,0,0,1-.8,4.929,20.235,20.235,0,0,1-2.085,3.932s2.764-.095,4.657-.311c2.147-.245,7.176-.8,7.176-.8C1205.511-867.607,1208.156-867.808,1210.329-868.1Z" transform="translate(-1166.195 916.916)" fill="#1e3c5c" stroke="#fff" stroke-miterlimit="10" stroke-width="1"/>
        <path id="Контур_27" data-name="Контур 27" d="M1130.409-938.31c-.164-.23-.246-.592-.3-1.758s-.066-.805-.214-1.068a11.727,11.727,0,0,1-2.712.92,2.318,2.318,0,0,1-2.054-.345c-.181-.246-.082-1.183-.164-1.66s-.394-.329-.723-.263-1.972,1.2-2.3,1.364a19.328,19.328,0,0,1-2.629.164c-.657.066-2.35,1.43-2.909,1.758s-1.068.493-1.512.115a1.307,1.307,0,0,0-1.348-.279,2.232,2.232,0,0,1-1.545-.033c-.378-.23-.9-1.38-2.1-2.251a3.139,3.139,0,0,0-2.416-.706c-.477.016-1.2,1.167-1.578,1.249s-.312-.345-.279-.625a7.9,7.9,0,0,1,.822-1.742c.312-.509.887-1.085,1.052-1.463s.592-.953.953-1,.591-.247.575-.477-.181-.279-.92-.247-2.284,1.249-3.089,1.89a15.032,15.032,0,0,0-1.972,2.383,8.288,8.288,0,0,1-2,1.38,3.9,3.9,0,0,1-2.186.427c-.542,0-.723.772-1.232,1.315s-1.43.477-1.906.592a.932.932,0,0,0-.478.467,1.148,1.148,0,0,0,.279-.1,13.224,13.224,0,0,1,1.385,1.668,9.427,9.427,0,0,1,4.632.879,17.8,17.8,0,0,0,5.555,1.325c.938.089,1.742.417,1.757,1.191a2.409,2.409,0,0,1,1.3.387c-.015.521-.372,3.2.253,3.142a1.074,1.074,0,0,0,.472-.1c-.017.28-.044,1.48.7,1.966-.042.1-.117.265-.21.456l.2-.037a10.225,10.225,0,0,1,.468-1.006c.3-.559,1.693-4.223,1.873-4.716s.3-1.084.92-1.084a12.346,12.346,0,0,0,1.857-.115,2.672,2.672,0,0,1,1.331.2,2.779,2.779,0,0,1,3.221-1.808,1.819,1.819,0,0,0,1.38-.838c.181-.082,3.927.05,4.568.082a16.149,16.149,0,0,0,4.075-.69C1131.263-937.62,1130.573-938.08,1130.409-938.31Z" transform="translate(-1095.241 952.102)" fill="#1e3c5c" stroke="#fff" stroke-miterlimit="10" stroke-width="1"/>
        <path id="Контур_28" data-name="Контур 28" d="M1243.4-912.837s.15,1.336.888,1.353a.964.964,0,0,0,.944-.528C1245.363-912.35,1244.859-912.9,1243.4-912.837Z" transform="translate(-1205.965 926.824)" fill="#1e3c5c" stroke="#fff" stroke-miterlimit="10" stroke-width="1"/>
        <path id="Контур_29" data-name="Контур 29" d="M1122.994-968.178a22.042,22.042,0,0,1-2.425,1.463c-.711.292-1.673.669-1.338,1.171s.878.627,1.673-.084S1123.412-967.927,1122.994-968.178Z" transform="translate(-1113.118 968.178)" fill="#1e3c5c" stroke="#fff" stroke-miterlimit="10" stroke-width="1"/>
      </g>
      <g id="Maine" transform="translate(605.71 -1055.5)">
        <path id="Maine-2" data-name="Maine" d="M1550.759-1006.7a2.884,2.884,0,0,0-1.432-.966c-.393.589-.932.638-1.569.1s-.539-2.109-.687-2.452-1.961-.2-2.256-.441-3.089-10.1-3.384-10.641-2.354-1.226-2.942-1.52-1.373,1.03-1.864,1.471-.637.392-1.324.54-1.079-.687-1.815-1.422a31.9,31.9,0,0,0-2.354,6.277,14.29,14.29,0,0,0-.2,2.942c-.1.588-.392.49-.589,1.814s.686,1.864.735,2.4,0,.834-.981,2.452a6.723,6.723,0,0,0-.588,3.972,5.026,5.026,0,0,0-1.275-.245.613.613,0,0,0-.462.29c.5,1.529,1.158,3.637,1.582,5.29.753,2.943,2.122,8.282,2.464,8.829s1.3.729,1.646,1.14.06,1.252,1.319,1.217h0c.085-.067.179-.125.179-.125s.063-1.895.174-2.4.41-1.516.568-2.037a3.182,3.182,0,0,0,.142-.979c.016-.221-.3-.553-.3-.553a.319.319,0,0,1,.063-.158c.063-.095,1.137-1.074,1.137-1.074a1.03,1.03,0,0,0,.726.379c.537.079,1.153-.442,1.816-.963s.789-1.453.916-1.532a2.522,2.522,0,0,0,1.026-.663,8.834,8.834,0,0,0,.237-2.858.8.8,0,0,1-.395-.474,2.062,2.062,0,0,1,.948-.648c.079.426.158,1.011.679.916.5-.09.584,1.058.6,1.406a.984.984,0,0,0,.569-1.042,5.1,5.1,0,0,1-.158-.979c-.032-.442.939-1.094,1.405-1.327.095-.047.711-.347.9.253s.6.253.805.253.963-1.184,1.579-1.816a8.8,8.8,0,0,1,1.579-1.326,2.367,2.367,0,0,0,.9-1.342A2.267,2.267,0,0,0,1550.759-1006.7Z" transform="translate(-1527.779 1022.663)" fill="#167a91" stroke="#fff" stroke-miterlimit="10" stroke-width="1"/>
        <path id="Контур_30" data-name="Контур 30" d="M1585.152-922.433s.964.9.122,1.474C1584.484-921.2,1584.485-922.359,1585.152-922.433Z" transform="translate(-1570.293 947.757)" fill="#38b4d6" stroke="#fff" stroke-miterlimit="10" stroke-width="1"/>
        <path id="Контур_31" data-name="Контур 31" d="M1595.935-932.646s.843,1.132-.29,1.448c-.526-.027-.673-.288-.462-.867A.842.842,0,0,1,1595.935-932.646Z" transform="translate(-1578.084 955.39)" fill="#38b4d6" stroke="#fff" stroke-miterlimit="10" stroke-width="1"/>
      </g>
      <g id="New_Hampshire" data-name="New Hampshire" transform="translate(602.267 -1034.964)">
        <g id="Сгруппировать_18" data-name="Сгруппировать 18" transform="translate(0 0)">
          <path id="New_Hampshire-2" data-name="New Hampshire" d="M1524.22-923.18c-.007-.017-.016-.036-.022-.052a2.178,2.178,0,0,1,.3-1.579.73.73,0,0,1,.106-.1c-1.259.035-.988-.821-1.319-1.217s-1.3-.592-1.646-1.139-1.711-5.886-2.464-8.829c-.423-1.654-1.084-3.761-1.582-5.29a2.723,2.723,0,0,0-.371.789.994.994,0,0,0-.735-.735,6.211,6.211,0,0,0-.785,2.648,5.166,5.166,0,0,0,.146,2.021,1.979,1.979,0,0,1,.2,2.268,5.026,5.026,0,0,1-1.676,1.824c-.2.148-.3,0-.148,1.43a51.947,51.947,0,0,1,.049,5.521,18.075,18.075,0,0,0,.1,4.289,13.675,13.675,0,0,0,.408,1.465h0a21.209,21.209,0,0,1,2.447-.618,13.426,13.426,0,0,0,3.827-.61,24.7,24.7,0,0,0,3.17-2.087Z" transform="translate(-1514.15 941.385)" fill="#167a91" stroke="#fff" stroke-miterlimit="10" stroke-width="1"/>
        </g>
      </g>
      <g id="Vermont" transform="translate(593.795 -1032.263)">
        <g id="Сгруппировать_19" data-name="Сгруппировать 19" transform="translate(0 0)">
          <path id="Vermont-2" data-name="Vermont" d="M1484.024-928.978c-.665.15-1.96.545-3.4.941h0c.2.838.384,1.657.6,2.339a15.384,15.384,0,0,1,.723,4.029c-.051.568-.362.981.052,1.653a5.318,5.318,0,0,1,.516,2.737,2.274,2.274,0,0,1,1.653,1.55,31.864,31.864,0,0,1,.981,5.216c0,.011,0,.025,0,.037,1.062-.337,2.983-.94,4.57-1.4a13.626,13.626,0,0,1-.408-1.465,18.049,18.049,0,0,1-.1-4.289,51.917,51.917,0,0,0-.049-5.521c-.148-1.43-.049-1.282.148-1.43a5.029,5.029,0,0,0,1.676-1.824,1.979,1.979,0,0,0-.2-2.268,5.168,5.168,0,0,1-.146-2.021S1485.545-929.321,1484.024-928.978Z" transform="translate(-1480.621 930.694)" fill="#1e3c5c" stroke="#fff" stroke-miterlimit="10" stroke-width="1"/>
        </g>
      </g>
      <g id="Massachusets" transform="translate(598.224 -1016.759)">
        <path id="Massachusets-2" data-name="Massachusets" d="M1514.087-858.851c.032-.221.537-1.627,1.121-1.532s.553,1.39.553,1.39a12.723,12.723,0,0,1,2.29-1.579,4.024,4.024,0,0,1,1.753-.3,3.765,3.765,0,0,0,.031-.916,2.465,2.465,0,0,0-.869-1.769,1.091,1.091,0,0,0-1.342-.316s1.011.568,1.153.979-.253.9-.742,1.342-1.737.016-1.99-.142-.884-1.69-1.232-2.148-.9-.395-1.406-.442a1.5,1.5,0,0,1-1.058-.821,1.489,1.489,0,0,1,.016-1.295,7.022,7.022,0,0,1,.979-1.39,7.36,7.36,0,0,1-1.084-1.543,24.718,24.718,0,0,1-3.17,2.087,13.427,13.427,0,0,1-3.827.61c-.872.087-5.2,1.441-7.016,2.017a25.553,25.553,0,0,0,.052,4.869c.094.343.225.794.364,1.287-.067-.237-.131-.465-.191-.675a35.248,35.248,0,0,0,3.686-.455c1.664-.333,5.879-1.331,5.879-1.331l2.717-.721s.222.333.776,1a31.23,31.23,0,0,1,2.1,2.563c.183-.121.319-.209.359-.232C1514.134-858.394,1514.055-858.63,1514.087-858.851Z" transform="translate(-1498.148 869.332)" fill="#167a91" stroke="#fff" stroke-miterlimit="10" stroke-width="1"/>
        <path id="Контур_32" data-name="Контур 32" d="M1569.051-825.294a1.311,1.311,0,0,0-.792.021c-.257.16-.471.471-.364.546A1.028,1.028,0,0,0,1569.051-825.294Z" transform="translate(-1550.251 836.462)" fill="#1e3c5c" stroke="#fff" stroke-miterlimit="10" stroke-width="1"/>
        <path id="Контур_33" data-name="Контур 33" d="M1579.077-826.6l1.07-.9s.653.171.642.535S1579.077-826.6,1579.077-826.6Z" transform="translate(-1558.63 838.07)" fill="#1e3c5c" stroke="#fff" stroke-miterlimit="10" stroke-width="1"/>
      </g>
      <path id="Delaware" d="M1464.056-747.705c-.8-.568-1.893.454-1.893.454s1.174,4.014,1.4,5.226,1.136,5.454,1.136,5.454.871-.114,1.78-.227a2.067,2.067,0,0,0,2.08-1.439,18.934,18.934,0,0,1-2.132-2.969,18.177,18.177,0,0,0-1.09-1.974c-.395-.505-1.453-1.216-1.579-1.595s-.316-1.358.095-1.484A3.034,3.034,0,0,1,1464.056-747.705Z" transform="translate(-873.031 -238.195)" fill="#1e3c5c" stroke="#fff" stroke-miterlimit="10" stroke-width="1"/>
      <g id="Rhode_Island" data-name="Rhode Island" transform="translate(608.113 -1009.071)">
        <g id="Сгруппировать_20" data-name="Сгруппировать 20" transform="translate(0)">
          <path id="Rhode_Island-2" data-name="Rhode Island" d="M1540.782-837.9c-.554-.666-.776-1-.776-1l-2.717.721s1.208,1.524,1.119,5.49c1.081-.472,2.059-.925,2.151-.971.189-.095.221-.331.742-.647.372-.225,1.128-.731,1.583-1.032A31.2,31.2,0,0,0,1540.782-837.9Z" transform="translate(-1537.288 838.903)" fill="none" stroke="#fff" stroke-miterlimit="10" stroke-width="1"/>
        </g>
      </g>
      <g id="New_York" data-name="New York" transform="translate(561.435 -1029.606)">
        <g id="Сгруппировать_21" data-name="Сгруппировать 21" transform="translate(0 0)">
          <path id="New_York-2" data-name="New York" d="M1397.105-890.171a29.779,29.779,0,0,1-3.222,1.769,13.54,13.54,0,0,1-1.91-.031,17.071,17.071,0,0,1-1.642,1.753c-.316.174-.205-1.042-.205-1.042l.621-.662a1.207,1.207,0,0,1-.436-.841c0-.31.93-.723.93-.723a2.689,2.689,0,0,1-.62-.672,17.827,17.827,0,0,1-.052-2.582,30.405,30.405,0,0,0-1.084-4.545,26.169,26.169,0,0,1-.052-4.906,31.85,31.85,0,0,0-.981-5.216,2.274,2.274,0,0,0-1.652-1.55,5.316,5.316,0,0,0-.517-2.737c-.413-.671-.1-1.085-.052-1.653a15.393,15.393,0,0,0-.723-4.029c-.219-.681-.4-1.5-.6-2.339a24.04,24.04,0,0,1-5.278,1.021c-2.354,0-3,.876-3,.876a7.407,7.407,0,0,0-2.964,3.113,52.761,52.761,0,0,1-3.321,4.215c-.968,1.117-.3,1.757-.3,1.757a1.752,1.752,0,0,1,.894.343,3.821,3.821,0,0,1-.1,1.7,1.939,1.939,0,0,1,.476,1.325c-.119.626-.357.67-1.266.983a8.912,8.912,0,0,1-2.546,2.457,5.408,5.408,0,0,1-2.174.134c-.551,0-1.221.8-1.564.834a7.4,7.4,0,0,0-2.979-.283,12.418,12.418,0,0,0-5.108,1.787,1.633,1.633,0,0,0,.819,1.757,9.3,9.3,0,0,1,1.013,1.31s-1.966,2.547-3.545,4.245c-.511.55-.98,1.01-1.422,1.419l.153,2.18s5.138-.421,8.927-1.095,11.791-2.7,13.644-3.2a11.166,11.166,0,0,1,4.379-.337c1.769.084,2.1,3.063,2.358,3.116a3.146,3.146,0,0,1,1.937.927,27.764,27.764,0,0,0,2.863,1.03c1.085.281,2.372.523,2.292,1.487s-.155.754.3,1.583c0,0,.979.111,1.547.111a29.835,29.835,0,0,0,3.853-1.39,5.589,5.589,0,0,0,1.516-1.39,22.837,22.837,0,0,0,3-2.337C1398.542-890.961,1397.61-890.439,1397.105-890.171Z" transform="translate(-1352.542 920.178)" fill="none" stroke="#fff" stroke-miterlimit="10" stroke-width="1"/>
        </g>
      </g>
      <g id="Connecticut" transform="translate(598.548 -1008.35)">
        <g id="Сгруппировать_22" data-name="Сгруппировать 22" transform="translate(0 0)">
          <path id="Connecticut-2" data-name="Connecticut" d="M1503.119-834.719a35.264,35.264,0,0,1-3.686.455,23.815,23.815,0,0,1,.913,3.933,17.8,17.8,0,0,0,.052,2.582,2.694,2.694,0,0,0,.62.672s-.93.413-.93.723a1.206,1.206,0,0,0,.436.841l.327-.349s2.4-2.132,3.1-2.637a10.736,10.736,0,0,1,3.332-.963,21.984,21.984,0,0,0,2.839-1.1c.089-3.966-1.119-5.49-1.119-5.49S1504.783-835.052,1503.119-834.719Z" transform="translate(-1499.433 836.05)" fill="#167a91" stroke="#fff" stroke-miterlimit="10" stroke-width="1"/>
        </g>
      </g>
      <g id="New_Jersey" data-name="New Jersey" transform="translate(590.56 -999.025)">
        <g id="Сгруппировать_23" data-name="Сгруппировать 23" transform="translate(0 0)">
          <path id="New_Jersey-2" data-name="New Jersey" d="M1474.22-793.179l1.326-1.863c-.459-.829-.385-.618-.3-1.583s-1.206-1.206-2.292-1.487a27.785,27.785,0,0,1-2.862-1.03l-1.179.674c.253,1.432,0,1.684-.842,2.863.758,1.179-.253,1.684-.253,1.684s.169.758.253,1.263.758.589,1.179,1.095a17.477,17.477,0,0,0,2.864,2.105c-1.179.421-3.83,3.439-3.83,3.439a3.036,3.036,0,0,0-.2,1.445c-.016,1.042,1.405,1.642,1.784,1.942a4.372,4.372,0,0,0,1.863.663c.568.047.948.079,1.153.411-.063.821-.111,1.69-.111,1.69a2.144,2.144,0,0,0,.806-.316,13.232,13.232,0,0,0,.316-2.227,23.469,23.469,0,0,1,1.706-3.032,11.493,11.493,0,0,0,.647-2.321,23.3,23.3,0,0,0,.095-2.985c.032-1.169-.016-1.674-.426-2.116S1474.22-793.179,1474.22-793.179Z" transform="translate(-1467.814 799.143)" fill="none" stroke="#fff" stroke-miterlimit="10" stroke-width="1"/>
        </g>
      </g>
      <g id="Pensilvania" transform="translate(557.642 -1003.131)">
        <g id="Сгруппировать_24" data-name="Сгруппировать 24" transform="translate(0 0)">
          <path id="Pensilvania-2" data-name="Pensilvania" d="M1355.8-794.377c1.969-.378,9.657-1.78,10.49-2.045a15.271,15.271,0,0,0,1.855-.606,3.591,3.591,0,0,0,.871-.682s1.1-1.023,1.893-.454c0,0,2.651-3.018,3.83-3.439a17.47,17.47,0,0,1-2.863-2.105c-.421-.505-1.095-.589-1.179-1.095s-.253-1.263-.253-1.263,1.011-.505.253-1.685c.842-1.179,1.095-1.432.842-2.863l1.179-.674a3.146,3.146,0,0,0-1.937-.927c-.261-.054-.59-3.032-2.358-3.116a11.165,11.165,0,0,0-4.379.337c-1.853.505-9.854,2.527-13.644,3.2s-8.927,1.095-8.927,1.095l-.153-2.18c-.922.852-1.724,1.475-2.539,2.2a11.693,11.693,0,0,1-1.254.934h0c.286,1.966.818,5.538,1.038,6.415.307,1.227.675,4.416.675,4.416l.964,7.29,6.266-1.109S1353.833-794,1355.8-794.377Z" transform="translate(-1337.53 815.395)" fill="#1e3c5c" stroke="#fff" stroke-miterlimit="10" stroke-width="1"/>
        </g>
      </g>
      <g id="Maryland" transform="translate(566.585 -985.446)">
        <path id="Контур_34" data-name="Контур 34" d="M1435.028-711.953l-.017-.011Z" transform="translate(-1419.324 720.412)" fill="#1e3c5c" stroke="#fff" stroke-miterlimit="10" stroke-width="1"/>
        <path id="Контур_35" data-name="Контур 35" d="M1485.34-691.423h0c-.031.111-.061.223-.1.33C1485.277-691.2,1485.309-691.311,1485.34-691.423Z" transform="translate(-1456.864 705.061)" fill="#1e3c5c" stroke="#fff" stroke-miterlimit="10" stroke-width="1"/>
        <path id="Контур_36" data-name="Контур 36" d="M1435.484-711.612l-.063-.053Z" transform="translate(-1419.63 720.188)" fill="#1e3c5c" stroke="#fff" stroke-miterlimit="10" stroke-width="1"/>
        <path id="Контур_37" data-name="Контур 37" d="M1401.868-736.386a2.067,2.067,0,0,1-2.08,1.439c-.909.114-1.78.227-1.78.227s-.909-4.242-1.136-5.453-1.4-5.226-1.4-5.226a3.592,3.592,0,0,1-.871.682,15.247,15.247,0,0,1-1.856.606c-.833.265-8.521,1.666-10.49,2.045s-9.33,1.644-9.33,1.644.386,2.266.53,3.9a9.534,9.534,0,0,0,2.41-2.217c.868,0,1.012-.82,1.254-1.109a12.082,12.082,0,0,1,4-1.012,4.188,4.188,0,0,1,2.989.675s-.023.36-.06.806v-.014c.52-.071,1.353-.11,1.7.268.482.53.145,1.254.723,1.446a8.977,8.977,0,0,1,1.81.534c.078-.06.078-.084.078-.084a2.6,2.6,0,0,1,.746-.581c.193.261.982,1.292.982,1.292a1.324,1.324,0,0,1-.829.756c0,.861-.682,1.634-.763,2.036a2.057,2.057,0,0,0,1.109,1.784,6.574,6.574,0,0,0,1.243.242,5.044,5.044,0,0,1,.474-.205c.221-.079,1.595.411,2.1.3s.4-.647.19-1.484a8.616,8.616,0,0,0-1.121-2.226c-.585-1.058-.205-1.295-.126-2.321s-.284-.742-.111-2.258a2.463,2.463,0,0,1,2.369-1.958,2.923,2.923,0,0,0-1.184,2.448s.789,0,.948.663a3.863,3.863,0,0,1-.379,2.227,1.313,1.313,0,0,1,1.121,1.105.928.928,0,0,1-.647.047c-.174.663.884,3.632,2.874,2.163.54.957,1.205,1.959,1.514,2.386a2.934,2.934,0,0,1,2.532-.951c.146-.532.251-1.1.344-1.577A21.591,21.591,0,0,0,1401.868-736.386Z" transform="translate(-1372.924 745.399)" fill="none" stroke="#fff" stroke-miterlimit="10" stroke-width="1"/>
        <path id="Контур_38" data-name="Контур 38" d="M1436.576-710.472a1.167,1.167,0,0,0-.076-.111A1.248,1.248,0,0,1,1436.576-710.472Z" transform="translate(-1420.437 719.38)" fill="#1e3c5c" stroke="#fff" stroke-miterlimit="10" stroke-width="1"/>
        <path id="Контур_39" data-name="Контур 39" d="M1437.48-708.276c0-.027-.007-.055-.012-.082C1437.473-708.331,1437.477-708.3,1437.48-708.276Z" transform="translate(-1421.16 717.717)" fill="#1e3c5c" stroke="#fff" stroke-miterlimit="10" stroke-width="1"/>
        <path id="Контур_40" data-name="Контур 40" d="M1437.22-709.293a1.453,1.453,0,0,1,.048.168A1.362,1.362,0,0,0,1437.22-709.293Z" transform="translate(-1420.975 718.416)" fill="#1e3c5c" stroke="#fff" stroke-miterlimit="10" stroke-width="1"/>
        <path id="Контур_41" data-name="Контур 41" d="M1436.991-709.788a1.217,1.217,0,0,0-.078-.167A1.217,1.217,0,0,1,1436.991-709.788Z" transform="translate(-1420.746 718.91)" fill="#1e3c5c" stroke="#fff" stroke-miterlimit="10" stroke-width="1"/>
        <path id="Контур_42" data-name="Контур 42" d="M1435.932-711.223a1.364,1.364,0,0,1,.112.12A1.42,1.42,0,0,0,1435.932-711.223Z" transform="translate(-1420.012 719.858)" fill="#1e3c5c" stroke="#fff" stroke-miterlimit="10" stroke-width="1"/>
      </g>
      <g id="North_Carolina" data-name="North Carolina" transform="translate(541.549 -959.481)">
        <path id="Контур_43" data-name="Контур 43" d="M1490.544-617.567a13.255,13.255,0,0,1,.308,2.34,1.991,1.991,0,0,1-.76,1.582,12.774,12.774,0,0,0-1.684,1.15.6.6,0,0,0-.164.452,10.971,10.971,0,0,0,2.445-1.623,3.431,3.431,0,0,0,.8-2.28A2.229,2.229,0,0,0,1490.544-617.567Z" transform="translate(-1434.068 623.9)" fill="#1e3c5c" stroke="#fff" stroke-miterlimit="10" stroke-width="1"/>
        <path id="Контур_44" data-name="Контур 44" d="M1328.493-635.2c.342-.568-.237-1.69-.237-1.69s1.116.026,1.242-.226c.046-.092-.1-.32-.338-.612-.092-.093-.194-.193-.308-.3-.582.039-.734.437-1.89.641-.231.041-1.177-.287-1.719.047-1.266.781-1.763-.11-1.562-.187.813-.313,1.425-1.177,2.406-1.642.744-.352,1.125.1,1.608-.193l-.092-.107a17.026,17.026,0,0,1-1.675-3.155s-3.81.933-5.521,1.244-14.231,2.8-19.907,3.655-11.449,1.788-11.449,1.788a3.256,3.256,0,0,1,0,1.564c-.24.481-1.323,1.264-1.5,2.708a4.238,4.238,0,0,0-3.068,1.143,1.711,1.711,0,0,0-2.046.421,6.552,6.552,0,0,0-.542,1.985,2.521,2.521,0,0,0-1.625.541c-.722.6-1.263,1.5-2.166,1.625s-2.467.361-2.587,2.346c-1.143.722-1.565.662-1.565.662a7.431,7.431,0,0,0-.054,2.192c1.778-.2,3.366-.358,4.121-.386a29.693,29.693,0,0,0,3.679-.335,32.193,32.193,0,0,1,4.242-2.242,13.363,13.363,0,0,1,3.954-.69c2.069-.092,4.873-.552,5.839-.092a2.978,2.978,0,0,1,1.471,2.023,36.22,36.22,0,0,1,4.092-.69c1.2-.138,3.632-.46,3.632-.46s7.606,4.765,8.546,5.558h0c.187-.072.387-.138.6-.2a14.052,14.052,0,0,1,2.961-.558,15.637,15.637,0,0,1,1.5-4.169c.087-.139.174-.271.262-.4.062-.108.122-.206.181-.289a6.911,6.911,0,0,1,1.134-1.245,6.365,6.365,0,0,1,1.645-1.081,9.741,9.741,0,0,1,2.272-.6,3.821,3.821,0,0,0,1.855-.7,11.7,11.7,0,0,0,.95-1.544c.144-.293.292-.587.451-.856a4.933,4.933,0,0,1-.887.828,5.977,5.977,0,0,1-.582.419,1.89,1.89,0,0,0-.416-.6,2.623,2.623,0,0,0-1.479-.233l.679-2.7a1.26,1.26,0,0,1-1.116-1.163c.463.758,2.106.927,2.99.505s.716-1.726,1.095-2.027S1328.151-634.633,1328.493-635.2Z" transform="translate(-1273.834 642.631)" fill="#1e3c5c" stroke="#fff" stroke-miterlimit="10" stroke-width="1"/>
      </g>
      <g id="Virginia" transform="translate(545.022 -979.511)">
        <path id="Virginia-2" data-name="Virginia" d="M1334.71-704.618a4.77,4.77,0,0,1-1.974.379c.616-1.358-.3-2.116-.711-2.653a2.077,2.077,0,0,1-.521-1.121c.032-.11.964.047.964.047a5.026,5.026,0,0,1-.663-2.542,4.233,4.233,0,0,0,.189-1.184c-.262-.6-.616-.632-1.137-.774a3.484,3.484,0,0,1-1.263-.663,5.54,5.54,0,0,0-1.705-.553,1.757,1.757,0,0,1-.821-.458,6.565,6.565,0,0,1-1.243-.242,2.056,2.056,0,0,1-1.109-1.784c.1-.482,1.06-1.494.675-2.555s-2.121-1.205-2.7-1.4-.241-.916-.723-1.446c-.344-.379-1.177-.339-1.7-.268a9.214,9.214,0,0,1-.231,1.714c-.145.241-2.314-1.3-3.037-1.784-.53-.1-.434,1.012-.434,1.591a2.253,2.253,0,0,1-.578,1.591,32.542,32.542,0,0,0-2.073,2.8c-1.157-.337-1.109,1.35-1.157,2.121s-.1,1.157-1.205,1.205-1.495-1.157-1.495-1.157a7.622,7.622,0,0,1-.723,1.88,39.464,39.464,0,0,0-2.362,5.881c-.048.627.241,1.3-.289,1.832s-1.543.675-2.94,1.06c-.289.868-.386,1.253-1.157,1.736s-2.025-.193-2.025-.193a2.854,2.854,0,0,1-2.121.916c-1.3-.048-1.711-1.627-1.711-1.627a28.631,28.631,0,0,1-2.7,2.451,10.373,10.373,0,0,0-1.952,1.661,2.175,2.175,0,0,0-.374,1.329c.041.291-.166.457-.665.789a37.407,37.407,0,0,1-3.459,2.409c1.14-.13,1.993-.233,2.418-.3,2.467-.361,9.326-1.264,9.326-1.264s5.772-.933,11.449-1.788,18.2-3.344,19.907-3.655,5.521-1.244,5.521-1.244-.353-1.028-.452-1.414C1335.578-703.971,1335.531-704.95,1334.71-704.618Z" transform="translate(-1287.583 721.909)" fill="#1e3c5c" stroke="#fff" stroke-miterlimit="10" stroke-width="1"/>
        <path id="virginia-3" data-name="virginia" d="M1474.454-688.552c.031-.758.442-1.105.9-1.769a4.07,4.07,0,0,0,.5-1.2,2.933,2.933,0,0,0-2.534.951c.065.09.115.155.144.188.347.4-.916,2.811-.916,4.516,0,.758.032,2.148.805,2.148.38,0,.805-.884.932-1.39S1474.422-687.794,1474.454-688.552Z" transform="translate(-1425.811 699.226)" fill="#1e3c5c" stroke="#fff" stroke-miterlimit="10" stroke-width="1"/>
      </g>
      <g id="West_Virginia" data-name="West Virginia" transform="translate(549.271 -986.651)">
        <g id="Сгруппировать_25" data-name="Сгруппировать 25" transform="translate(0 0)">
          <path id="West_Virginia-2" data-name="West Virginia" d="M1329.906-744.419a12.079,12.079,0,0,0-4,1.012c-.241.289-.386,1.109-1.254,1.109a9.535,9.535,0,0,1-2.41,2.217c-.144-1.639-.53-3.9-.53-3.9l-6.267,1.109-.964-7.29s-.858.307-.92.675.123,1.166.184,2.76a8.906,8.906,0,0,1-1.656,6.378c-1.84,2.331-1.962.8-1.962.8a4.077,4.077,0,0,0-1.349,1.962c-.245,1.1-.491,2.883-.491,2.883l-1.165-1.042a4.073,4.073,0,0,0-.981,1.962c-.123,1.043.184,1.9-.49,2.637s-1.252.62-1.252.62a6.068,6.068,0,0,0,.208,2.284c.208.457,1,.5,1.287,1a9.074,9.074,0,0,0,1.7,2.658,19.722,19.722,0,0,0,1.7,1.2s.41,1.579,1.711,1.627a2.853,2.853,0,0,0,2.121-.916s1.253.675,2.025.193.868-.868,1.157-1.736c1.4-.385,2.41-.53,2.941-1.06s.241-1.205.289-1.832a39.425,39.425,0,0,1,2.362-5.881,7.627,7.627,0,0,0,.723-1.88s.386,1.205,1.495,1.157,1.157-.434,1.205-1.205,0-2.458,1.157-2.121a32.561,32.561,0,0,1,2.073-2.8,2.252,2.252,0,0,0,.579-1.591c0-.579-.1-1.687.434-1.591.723.482,2.892,2.025,3.037,1.784a18.216,18.216,0,0,0,.289-2.507A4.189,4.189,0,0,0,1329.906-744.419Z" transform="translate(-1304.398 750.166)" fill="#d8374f" stroke="#fff" stroke-miterlimit="10" stroke-width="1"/>
        </g>
      </g>
      <g id="Ohio" transform="translate(532.246 -997.481)">
        <g id="Сгруппировать_26" data-name="Сгруппировать 26" transform="translate(0 0)">
          <path id="Ohio-2" data-name="Ohio" d="M1263.2-781.528c.062-.368.92-.675.92-.675s-.368-3.189-.675-4.416c-.219-.877-.752-4.449-1.038-6.415-1.286.854-2.918,1.744-3.869,2.327a20.26,20.26,0,0,0-3.142,2.994,7.12,7.12,0,0,0-1.981.179,17.953,17.953,0,0,1-2.77.834c-.447-.089-.8-.878-2-.819a4.333,4.333,0,0,1-2.889-.6,2.954,2.954,0,0,1-.435-.355c-2.174.293-4.818.493-8.314.87,0,0,.92,9.69,1.227,12.45s.97,8.883.97,8.883a13.791,13.791,0,0,1,1.827.125c.748.125,1.911.041,2.077,2.16,1.329-.083,1.952-.374,2.7.249s1.744-.042,2.367.041a7.267,7.267,0,0,1,1.5.457l1.952-1.288s-.083,1.537,2.409,1.952c0,0,.577.116,1.252-.62s.368-1.594.49-2.637a4.073,4.073,0,0,1,.981-1.962l1.165,1.043s.245-1.779.491-2.883a4.077,4.077,0,0,1,1.349-1.962s.122,1.533,1.962-.8a8.907,8.907,0,0,0,1.656-6.378C1263.326-780.362,1263.142-781.16,1263.2-781.528Z" transform="translate(-1237.015 793.033)" fill="#1e3c5c" stroke="#fff" stroke-miterlimit="10" stroke-width="1"/>
        </g>
      </g>
      <g id="Indiana" transform="translate(515.421 -992.048)">
        <g id="Сгруппировать_27" data-name="Сгруппировать 27" transform="translate(0 0)">
          <path id="Indiana-2" data-name="Indiana" d="M1174.121-770.076c-.61.432-1.087,1.087-1.519.938-.33-.114-1.023-.383-1.439-.564l.015.006c0,.395.025.827.042,1.4,0,0,.735,12.449.924,15.481s.505,7.9.379,8.654a5.941,5.941,0,0,1-1.326,2.779c-.695.695-.821.821-.758,1.39,0,0,.062,2.208.044,2.492,0,0,1.27-1.393,2.018-1.02s.706.5.706.5a1.209,1.209,0,0,1,1.661-.664,9.26,9.26,0,0,1,1.371.706s1.412-1.786,1.952-1.661a2.754,2.754,0,0,0,1.288,1c.083-.955.208-2.451,1.661-2.451l.332,1.2a17.888,17.888,0,0,0,2.243-.208,14.272,14.272,0,0,0,.125-2.368s2.243-1.578,2.451-2.533a6,6,0,0,0,.166-1.537,5.1,5.1,0,0,0,2.118-.54,1.427,1.427,0,0,0,.665-1.786c-.249-1,.208-1.329.208-1.329s-.664-6.123-.97-8.883-1.227-12.45-1.227-12.45-5.029.552-7.176.8c-1.893.216-4.657.311-4.657.311A2,2,0,0,0,1174.121-770.076Z" transform="translate(-1170.424 771.527)" fill="#1e3c5c" stroke="#fff" stroke-miterlimit="10" stroke-width="1"/>
        </g>
      </g>
      <g id="South_Carolina" data-name="South Carolina" transform="translate(548.463 -941.551)">
        <g id="Сгруппировать_28" data-name="Сгруппировать 28">
          <path id="South_Carolina-2" data-name="South Carolina" d="M1321.746-570.133a36.213,36.213,0,0,0-4.092.69,2.978,2.978,0,0,0-1.471-2.023c-.965-.46-3.77,0-5.839.092a13.362,13.362,0,0,0-3.954.69,32.189,32.189,0,0,0-4.242,2.242s-1.338,1-.836,2.007a3.117,3.117,0,0,0,3.261,1.589,12.034,12.034,0,0,0,1.961,2.913c.927.8,2.611,2.105,3.537,2.948s2.064,2.063,2.611,2.653a5.641,5.641,0,0,0,1.895,1.432,3.036,3.036,0,0,1,1.979,2.063,4.575,4.575,0,0,1,.126,1.937,1.749,1.749,0,0,1,1.263.632c.379.589,1.137,2.063,1.432,2.4a2.159,2.159,0,0,0,1.474.505h.085a2.589,2.589,0,0,0,.01-.616s1.342-1.184,1.753-1.5.363-.474.521-.916-.347-1.153-.347-1.153l1.089.095a18.785,18.785,0,0,0,1.469-1.232,15.126,15.126,0,0,0,2.653-3.569c.237-.474.521-.474.979-.505a2.489,2.489,0,0,1,1.658-1.421,12.233,12.233,0,0,1,.079-1.626,6,6,0,0,1,2.337-4.816,3.227,3.227,0,0,1,.786-.411c-.94-.793-8.546-5.558-8.546-5.558S1322.942-570.271,1321.746-570.133Z" transform="translate(-1301.2 571.668)" fill="none" stroke="#fff" stroke-miterlimit="10" stroke-width="1"/>
        </g>
      </g>
      <g id="Florida" transform="translate(523.239 -906.343)">
        <g id="Сгруппировать_29" data-name="Сгруппировать 29" transform="translate(0 0)">
          <path id="Контур_45" data-name="Контур 45" d="M1415.182-272.491a7.27,7.27,0,0,0-1.048,1.676,9.749,9.749,0,0,1-1.856,3.173c-.748.6-2.933,1.916-2.9,2.155s.06.718.988.24a13.258,13.258,0,0,0,3.322-3.262C1414.134-269.289,1415.3-271.892,1415.182-272.491Z" transform="translate(-1356.82 312.873)" fill="#1e3c5c" stroke="#fff" stroke-miterlimit="10" stroke-width="1"/>
          <path id="Контур_46" data-name="Контур 46" d="M1393.761-243.942a1.27,1.27,0,0,1,.838,1.2,18.387,18.387,0,0,0-2.873.748C1392.953-243.194,1393.761-243.942,1393.761-243.942Z" transform="translate(-1343.63 291.537)" fill="#1e3c5c" stroke="#fff" stroke-miterlimit="10" stroke-width="1"/>
          <path id="Контур_47" data-name="Контур 47" d="M1257.913-403.934c-.821-1.137-5.416-10.454-5.416-10.454s.142-.158.742-.837a74.97,74.97,0,0,1-4.206-7.858c-.458-.963-2.513-3.943-2.513-3.943a31.611,31.611,0,0,1-2.806-5.293l-.019,0c-1.195.118-2.5.25-2.8.294-.59.084.084-.337-.926,1.347.589,2.442.084,2.19.084,2.19l-.927-.084-.168-1.348s-1.263.084-2.7.169-14.317.927-15.5,1.011c-.421-.505-1.348-2.021-1.348-2.021s-5.9.421-8.254.505-8.675,1.011-9.264,1.011-.674,1.263-.337,1.769,1.179.505,1.263,1.179c.055.44.038,1.814.02,2.785l.018-.005.212-.061.015,0,.228-.064.03-.008.229-.063.041-.011.23-.061.085-.022.207-.054.087-.022.216-.054.143-.035.18-.044.337-.081c3.742-.884,4.864-.695,6.538-.489s5.78,2.226,6.411,2.511a14.759,14.759,0,0,0,.347,1.99,18.906,18.906,0,0,1,2.906-.726c1.042-.142.79-1.153,1.453-1.548a6.487,6.487,0,0,1,2.211-.474,1.092,1.092,0,0,1,.521-1.405,4.4,4.4,0,0,1,2.211-.316c.805.032,2.242.742,2.321,1.232s.474,1.042,1.547,1.753a1.677,1.677,0,0,0,1.39,1.563,3.921,3.921,0,0,1,1.105.805,11.516,11.516,0,0,0,2.416.711,6.352,6.352,0,0,0,1.832,2.984s.047.963.047,1.5-.347,4.769-.395,5.543a3.379,3.379,0,0,0,.695,2.116,1.965,1.965,0,0,0,.284-1.847c-.142-.474-.126-.663.174-.742s1.69.695,1.69.695c-.079,1.137-1.69,3.143-1.69,3.143a17.239,17.239,0,0,1,2.385,3c1.074,1.737,1.232,2.763,1.911,3.79s1.279.663,1.943.095c1.579.979,1.705,2.858,1.879,3.205s.126,1.184,2.179,1.342a3.764,3.764,0,0,1,3.016,2.448,10.177,10.177,0,0,1,.584,2.148c.427,1.374,1.674.758,2.322-.158,3.332.837,3.1-3.395,3.19-4.121s.49-.806.9-.948c.237-1.705-.568-7.88-.632-8.243S1258.734-402.8,1257.913-403.934Z" transform="translate(-1201.368 432.319)" fill="#167a91" stroke="#fff" stroke-miterlimit="10" stroke-width="1"/>
        </g>
      </g>
      <g id="Georgia" transform="translate(533.773 -938.326)">
        <g id="Сгруппировать_30" data-name="Сгруппировать 30" transform="translate(0 0)">
          <path id="Georgia-2" data-name="Georgia" d="M1274.852-526.917c0-.03-.006-.061-.009-.091a25.887,25.887,0,0,1,1.137-6.917,31.248,31.248,0,0,1,1.374-3.458,1.405,1.405,0,0,0,.132-.442h-.084a2.16,2.16,0,0,1-1.474-.505c-.295-.337-1.053-1.811-1.432-2.4a1.749,1.749,0,0,0-1.263-.632,4.575,4.575,0,0,0-.126-1.937,3.036,3.036,0,0,0-1.979-2.063,5.641,5.641,0,0,1-1.9-1.432c-.547-.59-1.684-1.811-2.611-2.653s-2.611-2.148-3.537-2.948a12.034,12.034,0,0,1-1.961-2.913,3.117,3.117,0,0,1-3.261-1.589c-.5-1,.836-2.007.836-2.007a29.7,29.7,0,0,1-3.679.335c-2.258.084-11.959,1.338-11.959,1.338.836,3.345,1.505,6.69,2.258,9.2s2.342,8.7,3.512,10.537A8.424,8.424,0,0,1,1250-535.4s-.753,1.422-1.087,2.174a3.283,3.283,0,0,0,.167,2.342c.251.836.418.753.167,1.84a3.844,3.844,0,0,0,.669,2.593,11.024,11.024,0,0,0,.66,1.1s.927,1.516,1.348,2.021c1.179-.084,14.064-.927,15.5-1.011s2.7-.169,2.7-.169l.168,1.348.927.084s.505.253-.084-2.19c1.011-1.684.337-1.263.926-1.347.3-.043,1.6-.175,2.8-.294Z" transform="translate(-1243.06 558.904)" fill="#1e3c5c" stroke="#fff" stroke-miterlimit="10" stroke-width="1"/>
        </g>
      </g>
      <g id="Kentucky" transform="translate(508.123 -970.715)">
        <g id="Сгруппировать_31" data-name="Сгруппировать 31" transform="translate(0 0)">
          <path id="Kentucky-2" data-name="Kentucky" d="M1142-664.215a4.621,4.621,0,0,1-.459.612c1.95-.052,5.132-.154,5.807-.154.962,0,2.406-.12,2.406-.12l.06-1.2s4.031-.241,7.882-.481c3.186-.2,15.273-1.429,20.745-2.051a37.387,37.387,0,0,0,3.459-2.409c.5-.332.706-.5.664-.789a2.177,2.177,0,0,1,.374-1.329,10.373,10.373,0,0,1,1.952-1.661,28.638,28.638,0,0,0,2.7-2.451,19.713,19.713,0,0,1-1.7-1.2,9.076,9.076,0,0,1-1.7-2.658c-.291-.5-1.08-.54-1.288-1a6.074,6.074,0,0,1-.208-2.284c-2.492-.415-2.409-1.952-2.409-1.952l-1.952,1.288a7.265,7.265,0,0,0-1.5-.457c-.623-.083-1.62.581-2.367-.041s-1.371-.333-2.7-.249c-.166-2.118-1.329-2.035-2.077-2.16a13.8,13.8,0,0,0-1.827-.125s-.457.332-.208,1.329a1.427,1.427,0,0,1-.665,1.786,5.1,5.1,0,0,1-2.118.54,6,6,0,0,1-.166,1.537c-.208.955-2.451,2.533-2.451,2.533a14.272,14.272,0,0,1-.125,2.368,17.876,17.876,0,0,1-2.243.208l-.332-1.2c-1.454,0-1.578,1.5-1.661,2.451a2.754,2.754,0,0,1-1.288-1c-.54-.125-1.952,1.661-1.952,1.661a9.237,9.237,0,0,0-1.371-.706,1.209,1.209,0,0,0-1.661.664s.041-.125-.706-.5-2.018,1.02-2.018,1.02a11.048,11.048,0,0,1-.391,1.278,1.71,1.71,0,0,0,.053,1.651c-.692-.053-1.4-.213-1.882.586s.053,2.113.071,2.343-.071.568-.71.3-1.4-.941-2.361-.781-.923.284-1.189.71a11.59,11.59,0,0,0-.518,1.037C1143.184-666.8,1142.5-665.087,1142-664.215Z" transform="translate(-1141.538 687.093)" fill="#d8374f" stroke="#fff" stroke-miterlimit="10" stroke-width="1"/>
        </g>
      </g>
      <g id="Illinois" transform="translate(492.935 -996.583)">
        <g id="Сгруппировать_32" data-name="Сгруппировать 32" transform="translate(0 0)">
          <path id="Illinois-2" data-name="Illinois" d="M1106.012-757.578c.126-.758-.189-5.622-.379-8.654s-.924-15.481-.924-15.481c-.018-.571-.042-1-.042-1.4-.136-.059-.245-.109-.3-.142a3.787,3.787,0,0,1-.834-1.236c-.268-.521-1.519-2.621-1.519-2.621s.059-.387.179-1.355a5.067,5.067,0,0,0,0-1.012c.013.161.021.316.022.463-3.118.187-10.519.624-12.5.674-1.778.044-3.428.026-4.384-.011.361.537.446.906.658.991.284.113.624.057.851.567a3.794,3.794,0,0,0,.965,1.7,2.7,2.7,0,0,1,.454,3.177c-.567,1.248-1.021,2.043-2.383,2.383s-2.383.908-2.44,1.418a2.337,2.337,0,0,0,.454,1.418,2.41,2.41,0,0,1,.113,1.872c-.227.454-.851.964-.908,1.362a2.166,2.166,0,0,0,.057.794.674.674,0,0,0-.851.34c-.34.567-.4,1.929-.851,2.326a11.175,11.175,0,0,0,.4,3.858,5.49,5.49,0,0,0,2.326,2.894c1.078.738,2.326,1.475,2.667,2.78s.454,1.589.738,1.645.681-.851,1.816-.113.964,1.135.964,1.135-.681,2.043-.908,3.064a2.865,2.865,0,0,0,1.021,3.063c1.078.738,2.893,1.362,3.574,2.043a3.941,3.941,0,0,1,1.418,2.383c.17,1.135-.162,2.864,1.521,3.431.022.007.038.018.059.026a11.538,11.538,0,0,1,.518-1.037c.266-.426.231-.55,1.19-.71s1.722.515,2.361.781.728-.071.71-.3-.55-1.544-.071-2.343,1.19-.639,1.882-.586a1.71,1.71,0,0,1-.053-1.651,10.956,10.956,0,0,0,.391-1.279c.018-.284-.044-2.492-.044-2.492-.063-.568.063-.695.758-1.39A5.942,5.942,0,0,0,1106.012-757.578Z" transform="translate(-1081.427 789.476)" fill="none" stroke="#fff" stroke-miterlimit="10" stroke-width="1"/>
        </g>
      </g>
      <g id="Wisconsin" transform="translate(483.094 -1030.787)">
        <g id="Сгруппировать_33" data-name="Сгруппировать 33" transform="translate(0 0)">
          <path id="Wisconsin-2" data-name="Wisconsin" d="M1075.256-913.108s-1.906,2.77-2.353,3.4a31.29,31.29,0,0,1-2,2.71c-.64.685-.76-.581-.6-.953s1.579-2.949,1.832-3.589c-.748-.485-.721-1.686-.7-1.965a1.073,1.073,0,0,1-.472.1c-.626.06-.268-2.621-.253-3.142a2.409,2.409,0,0,0-1.3-.387c-.015-.774-.819-1.1-1.757-1.191a17.8,17.8,0,0,1-5.555-1.325,9.427,9.427,0,0,0-4.632-.879,13.233,13.233,0,0,0-1.385-1.668,1.668,1.668,0,0,1-.551.149c-.4.06-1.266-.581-1.445-.67a1.265,1.265,0,0,1-.923.253c-.7-.015-.462-.864-.283-1.132s1.072-1.325,1.072-1.325-.312-.477-2.04.4c-1.837.935-2.664,1.434-3.649,1.534a2.764,2.764,0,0,1-1.951-.238,4.727,4.727,0,0,1,1.6-1.818l-.111.065a8.842,8.842,0,0,0-1.706,1.727,5.718,5.718,0,0,0-.842,2.484c-.084.716.211,2.021.147,2.358a6.19,6.19,0,0,1-1.537,1.937c-.737.674-1.411,1.495-1.39,2.084s1.2,1.074,1.39,2.19a7.693,7.693,0,0,0-.505,3.516c.105.8.063,1.811.505,2.316s.926.421,1.579.147a2.719,2.719,0,0,0,1.937,1.369c.505.632,1.074,2.084,1.874,2.611s2.99,1.453,3.221,2.4a14.891,14.891,0,0,1,.19,2.821s.128,1.2.979,1.422c-.511,1.589-.681,2.44-.4,3.348a3.134,3.134,0,0,0,2.5,1.929,4.757,4.757,0,0,1,.476.6c.956.037,2.605.055,4.384.01,1.979-.049,9.379-.486,12.5-.674a11.575,11.575,0,0,0-.738-3.532,6.508,6.508,0,0,1-.268-3.813,6.558,6.558,0,0,1,1.072-2.323,13.548,13.548,0,0,1-.506-2.308c-.045-.8.506-1.415.67-1.891s-.045-2.815.1-3.693a20.4,20.4,0,0,1,1.862-3.8A1.8,1.8,0,0,0,1075.256-913.108Z" transform="translate(-1042.479 924.854)" fill="#1e3c5c" stroke="#fff" stroke-miterlimit="10" stroke-width="1"/>
        </g>
      </g>
      <g id="Minessota" transform="translate(458.556 -1049.199)">
        <g id="Сгруппировать_34" data-name="Сгруппировать 34">
          <path id="Minnesotta" d="M987.377-988.344a6.59,6.59,0,0,0-2.551.283c-.316.105-.337-.105-.653-.547s-2.632-.126-3.659.117c-.48-1.062-1.12-1.148-1.478-.959-.14.074-.41.3-.737.549a2.874,2.874,0,0,1-1.017.678l-.076.013a1.557,1.557,0,0,1-.57.15,3.711,3.711,0,0,1-1.895-.863,2.745,2.745,0,0,1-.821-.168c-.493-.143-.517-.813-.5-1.133a.881.881,0,0,1,.013-.158c-.018.061-.16.293-1.261.239a2.153,2.153,0,0,1-.226-.025l-.09,0c-.821.021-2.919-1.922-4.169-2.084a3.854,3.854,0,0,0-1.893.631,6.249,6.249,0,0,1-2.129.338c-.15-.017-.168-.57-.169-.8l-.673.045a2.8,2.8,0,0,1-.9-.063,4.484,4.484,0,0,1-.572,0c-.232-.042-.042-.568-.042-.568a3.39,3.39,0,0,1-1.138-.012l-.294-.009a1.245,1.245,0,0,1-1.116-.926c-.19-.547-.8-4.106-.8-4.106H956.7l-.253,2.716h-.565c-1.191,0-3.916,0-4.7-.021-1.011-.021-5.821-.069-5.821-.069a11.9,11.9,0,0,1,.348,2.89,32.014,32.014,0,0,0-.041,4.013c.124.91,1.076,3.062,1.241,3.889a29.091,29.091,0,0,1,.455,3.972c0,.993.207,3.1.331,4.386a7.879,7.879,0,0,0,1.117,3.062,4.755,4.755,0,0,1,.039,2.57,2.424,2.424,0,0,1-.489,1.067c-.356.356-.934.978-.845,1.556s.978,1.334,1.29,1.779.534.267.578,1.957-.311,13.252-.311,13.252,2.066.038,4.151.038,18.4-.337,18.4-.337c2.674-.021,8.464-.274,8.464-.274a14.9,14.9,0,0,0-.19-2.821c-.231-.947-2.421-1.874-3.221-2.4s-1.368-1.979-1.874-2.611a2.719,2.719,0,0,1-1.937-1.369c-.653.274-1.137.358-1.579-.147s-.4-1.516-.505-2.316a7.694,7.694,0,0,1,.505-3.516c-.19-1.116-1.369-1.6-1.39-2.19s.653-1.411,1.39-2.084a6.188,6.188,0,0,0,1.537-1.937c.063-.337-.231-1.642-.147-2.358a5.715,5.715,0,0,1,.842-2.484,8.846,8.846,0,0,1,1.706-1.727l.111-.065c.765-.622,1.565-1.167,1.812-1.369a10.623,10.623,0,0,0,1.37-2.145,1.279,1.279,0,0,1,.092-.173,3.11,3.11,0,0,1,.447-.649,8.034,8.034,0,0,1,1.556-1.3,4.717,4.717,0,0,1,.407-.25l.115-.06a10.705,10.705,0,0,1,1.48-.668l.223-.084c.225-.091.441-.177.638-.255a32.835,32.835,0,0,0,4.038-2.031A.962.962,0,0,0,987.377-988.344Z" transform="translate(-945.359 997.726)" fill="none" stroke="#fff" stroke-miterlimit="10" stroke-width="1"/>
        </g>
      </g>
      <g id="Iowa" transform="translate(461.646 -1002.752)">
        <g id="Сгруппировать_35" data-name="Сгруппировать 35" transform="translate(0 0)">
          <path id="Iowa-2" data-name="Iowa" d="M995.256-803.337a3.794,3.794,0,0,1-.964-1.7c-.227-.511-.567-.454-.851-.567s-.34-.737-1.135-1.589a3.134,3.134,0,0,1-2.5-1.929c-.284-.908-.113-1.759.4-3.348-.851-.227-.979-1.422-.979-1.422s-5.79.253-8.464.274c0,0-16.318.337-18.4.337s-4.151-.038-4.151-.038h-.623a4.147,4.147,0,0,0,.845,2.49,9.054,9.054,0,0,1-.8,4.091,9.42,9.42,0,0,1,.975,1.816c.485,2.1.889,3.154,1.7,3.881a5.823,5.823,0,0,0,.526,2.945,16.009,16.009,0,0,1,1.112,3.787c.23,1.358.022,3.041.513,4.74,4.334-.129,11.274-.441,15.1-.548,4.028-.113,9.7-.057,9.7-.057s.965,1.191,1.645,1.929c.454-.4.511-1.759.851-2.326a.674.674,0,0,1,.851-.34,2.167,2.167,0,0,1-.057-.794c.057-.4.681-.908.908-1.362a2.41,2.41,0,0,0-.113-1.872,2.335,2.335,0,0,1-.454-1.418c.057-.511,1.078-1.078,2.44-1.418s1.815-1.135,2.383-2.383A2.7,2.7,0,0,0,995.256-803.337Z" transform="translate(-957.589 813.893)" fill="#1e3c5c" stroke="#fff" stroke-miterlimit="10" stroke-width="1"/>
        </g>
      </g>
      <g id="Mossouri" transform="translate(466.209 -980.168)">
        <g id="Сгруппировать_36" data-name="Сгруппировать 36" transform="translate(0 0)">
          <path id="Missouri" d="M1017.934-695.262c-1.683-.566-1.351-2.3-1.521-3.431a3.941,3.941,0,0,0-1.418-2.383c-.681-.681-2.5-1.3-3.574-2.042a2.865,2.865,0,0,1-1.021-3.064c.227-1.021.908-3.064.908-3.064s.17-.4-.964-1.135-1.532.17-1.816.113-.4-.34-.738-1.645-1.588-2.042-2.667-2.78a5.489,5.489,0,0,1-2.326-2.893,11.173,11.173,0,0,1-.4-3.858c-.681-.738-1.645-1.929-1.645-1.929s-5.673-.057-9.7.057c-3.824.108-10.763.42-15.1.548a9.047,9.047,0,0,1-.3-1.739h0a7.145,7.145,0,0,0,1.143,3.541,19.471,19.471,0,0,0,2.1,2.783,9.662,9.662,0,0,0,1.011.433c.433.144,1.66.578,1.516,1.732s-.938,1.011-.938,1.011a5.2,5.2,0,0,0,.866,2.382,6.65,6.65,0,0,0,2.455,1.877s-.289,5.053-.361,7.436-.262,9.737-.262,9.737-.08,1.749,0,2.943a10.973,10.973,0,0,0,.148,1.1c4.943-.083,17.908-.31,20.331-.447,3.007-.17,7.168-.22,9.084-.278.6,1.916-.731,2.106-1.321,3.31a5.892,5.892,0,0,1,3.574.057,7.926,7.926,0,0,0,1.521-3.118,13.3,13.3,0,0,1,1.506-2.165C1018.528-693.062,1019.236-694.824,1017.934-695.262Z" transform="translate(-975.649 724.507)" fill="#1e3c5c" stroke="#fff" stroke-miterlimit="10" stroke-width="1"/>
        </g>
      </g>
      <g id="Missispi" transform="translate(495.687 -935.313)">
        <g id="Сгруппировать_37" data-name="Сгруппировать 37" transform="translate(0 0)">
          <path id="Missisppi" d="M1114.214-509.14s-.695-9.222-1.011-13.2a164.724,164.724,0,0,1,.126-16.865c.253-3.1.568-7.769.568-7.769s-7.025.487-9.13.655c-1.177.094-3.3.2-4.947.272a.362.362,0,0,0-.11.267,1.722,1.722,0,0,1-.732,1.313c-.519.289-1.153.4-1.211,1.1s.231,1.672-.115,2.191a27.556,27.556,0,0,0-1.845,2.133c-.519.865-.692,1.672-1.384,1.788-.058,2.364-.173,6.054-.058,7.092l.115,1.038s.342,3.34,1.739,5.063c-.7,2.1-.652,2.607-1.49,3.679s-2.1,2.421-2.328,3.957a12.9,12.9,0,0,0,.093,3.446s4.144-.233,5.774-.233h6.8a14.741,14.741,0,0,0-.279,2.607,7.093,7.093,0,0,0,1.024,2.189c.291.42.626,1,.8,1.31a21.583,21.583,0,0,0,1.425-1.854,5.435,5.435,0,0,0,1.026.158c.569.032,1.784-.474,2.574-.505s.711.158,1.563.269a3.985,3.985,0,0,0,1.022-.034Z" transform="translate(-1092.317 546.976)" fill="#1e3c5c" stroke="#fff" stroke-miterlimit="10" stroke-width="1"/>
        </g>
      </g>
      <g id="Alabama" transform="translate(516.407 -936.654)">
        <path id="alabama-2" data-name="alabama" d="M1182.656-513.17l-.018.005c.018-.971.035-2.345-.02-2.785-.084-.674-.927-.674-1.263-1.179s-.253-1.769.337-1.769,6.906-.926,9.264-1.011,8.253-.505,8.253-.505a11.005,11.005,0,0,1-.66-1.1,3.845,3.845,0,0,1-.669-2.593c.251-1.087.084-1-.167-1.84a3.282,3.282,0,0,1-.167-2.342c.335-.753,1.087-2.174,1.087-2.174a8.423,8.423,0,0,0-1.171-2.091c-1.171-1.84-2.76-8.029-3.512-10.537s-1.422-5.854-2.258-9.2c-3.763.418-16.506,1.341-16.506,1.341s-.316,4.674-.568,7.769a164.76,164.76,0,0,0-.126,16.865c.316,3.979,1.011,13.2,1.011,13.2l.011.061a17.136,17.136,0,0,0,1.852-.409c.742-.189.537-1.042.742-1.563s.332-.774.853-.663,1.453,1.532,1.705,2.069-.347,1.311-.347,1.311A10.012,10.012,0,0,1,1182.656-513.17Z" transform="translate(-1174.326 552.284)" fill="#1e3c5c" stroke="#fff" stroke-miterlimit="10" stroke-width="1"/>
      </g>
      <g id="Tennessee" transform="translate(503.189 -952.793)">
        <g id="Сгруппировать_38" data-name="Сгруппировать 38" transform="translate(0 0)">
          <path id="Контур_48" data-name="Контур 48" d="M1175.59-616.163s-6.859.9-9.325,1.264-19.313,2.106-23.163,2.346-7.881.481-7.881.481l-.06,1.2s-1.444.12-2.406.12c-.675,0-3.857.1-5.807.154a5.792,5.792,0,0,0-1.048,1.553,7.922,7.922,0,0,1-1.521,3.118s.6.292.138,1.272a11.637,11.637,0,0,1-1.1,2.364,2.165,2.165,0,0,0-.807,1.5,5.672,5.672,0,0,1-.14,2.406,2.751,2.751,0,0,1-.46.627c1.646-.074,3.771-.178,4.947-.272,2.106-.169,9.13-.655,9.13-.655s12.743-.923,16.506-1.341c0,0,4.3-.556,7.838-.952a7.434,7.434,0,0,1,.054-2.192s.421.06,1.564-.662c.12-1.985,1.685-2.226,2.587-2.346s1.444-1.023,2.166-1.625a2.521,2.521,0,0,1,1.625-.542,6.551,6.551,0,0,1,.541-1.985,1.711,1.711,0,0,1,2.046-.421,4.239,4.239,0,0,1,3.068-1.143c.181-1.444,1.264-2.226,1.5-2.708A3.257,3.257,0,0,0,1175.59-616.163Z" transform="translate(-1122.013 616.163)" fill="#1e3c5c" stroke="#fff" stroke-miterlimit="10" stroke-width="1"/>
        </g>
      </g>
      <g id="Arkansas" transform="translate(473.886 -945.92)">
        <g id="Сгруппировать_39" data-name="Сгруппировать 39" transform="translate(0 0)">
          <path id="Arkansas-2" data-name="Arkansas" d="M1037.7-585.592a5.893,5.893,0,0,0-3.574-.057c.589-1.2,1.921-1.394,1.321-3.31-1.916.058-6.077.108-9.084.278-2.423.137-15.388.364-20.331.447.22,1.256.607,2.879.726,3.833a87,87,0,0,1,.636,10.736c-.125,2.56-.053,7.081-.017,8.9a10.472,10.472,0,0,0,2.609.25c.055.886.105,2.649.146,4.507,3.16-.133,9.636-.4,11.446-.444,2.422-.058,8.419-.058,8.419-.058l-.115-1.038c-.115-1.038,0-4.728.058-7.092.692-.115.865-.922,1.384-1.788a27.554,27.554,0,0,1,1.845-2.133c.346-.519.058-1.5.115-2.191s.692-.807,1.211-1.1a1.722,1.722,0,0,0,.732-1.313c0-.288.225-.26.571-.894a5.672,5.672,0,0,0,.139-2.406,2.166,2.166,0,0,1,.807-1.5,11.63,11.63,0,0,0,1.1-2.364C1038.3-585.3,1037.7-585.592,1037.7-585.592Z" transform="translate(-1006.031 588.959)" fill="#1e3c5c" stroke="#fff" stroke-miterlimit="10" stroke-width="1"/>
        </g>
      </g>
      <g id="Louisiana" transform="translate(477.985 -917.467)">
        <g id="Сгруппировать_41" data-name="Сгруппировать 41" transform="translate(15.178 27.563)">
          <g id="Сгруппировать_40" data-name="Сгруппировать 40">
            <path id="Контур_49" data-name="Контур 49" d="M1082.329-366.936s.7-.559,1.118-.186a.991.991,0,0,1,.372.792S1082.515-366.424,1082.329-366.936Z" transform="translate(-1082.329 367.251)" fill="#1e3c5c" stroke="#fff" stroke-miterlimit="10" stroke-width="1"/>
          </g>
        </g>
        <path id="Контур_50" data-name="Контур 50" d="M1058.413-446.942c-.537-.821-1.706-.948-2.748-1.042s-1.358-.726-2.021-1.548a2.541,2.541,0,0,0,.727-1.548c.947.158,1.358-.316,1.389-.884a2.024,2.024,0,0,0-.663-1.674c-.474-.316-.695.853-.948,1.642-.474.189-1.768-.711-1.768-.711a10.2,10.2,0,0,1,1.342-1.121,3.126,3.126,0,0,0,.534-.5c-.178-.314-.513-.89-.8-1.31a7.089,7.089,0,0,1-1.024-2.189,14.741,14.741,0,0,1,.279-2.607h-6.8c-1.63,0-5.774.233-5.774.233a12.9,12.9,0,0,1-.093-3.446c.233-1.536,1.49-2.887,2.328-3.957s.791-1.583,1.49-3.678c-1.4-1.723-1.739-5.063-1.739-5.063s-6,0-8.419.058c-1.809.043-8.286.312-11.446.444.062,2.866.1,5.959.1,6.407,0,.739-.07,1.3.211,1.69s1.092.845,1.268,1.373a11.192,11.192,0,0,0,.634,2.218,25.015,25.015,0,0,1,1.514,2.746,3.376,3.376,0,0,1,.176,2.359c-.317,1.232-1.021,2.746-1.021,3.31a2.646,2.646,0,0,0,.282,1.091,1.007,1.007,0,0,0-.176.88,2.431,2.431,0,0,1,0,1.584,4.952,4.952,0,0,0-.657,3.093,19.777,19.777,0,0,1,5.811-.442c1.611.126,2.937,1.042,4.264,1.169s1.737-.284,2.021-.663c-.379-.284-.758-1.2.095-1.484s1.769.695,1.769.695a3.052,3.052,0,0,1,1.39-.032c.79.158,1.011,1.516,1.011,1.516s.095.032,1.295.253.853.979.569,1.611c3.316,2.306,3.916,1.642,4.548,1.453s.411-1.074.411-1.074a2.611,2.611,0,0,0,.884,0c.284-.095.537-.663,1.2-.695.726.6.158,1.674.158,1.674l.316.284c.726-.284.884-2.653.979-2.969s1.548-1.074,1.548-1.074l.221,1.516a9.287,9.287,0,0,1,1.895.442c.663.284,1.169.947,1.958.916a1.471,1.471,0,0,1,1.074.253l.695-1.105Zm-8.869-6.761c-.549-.1-.678-.323-.71-.807s.129-1,1.259-1.227,2.712.968,2.712.968c.355.226-.032.678-.614,1.13S1050.093-453.606,1049.544-453.7Z" transform="translate(-1022.258 476.344)" fill="#1e3c5c" stroke="#fff" stroke-miterlimit="10" stroke-width="1"/>
      </g>
      <g id="Nebraska" transform="translate(416.139 -1000.099)">
        <g id="Сгруппировать_42" data-name="Сгруппировать 42" transform="translate(0 0)">
          <path id="Nebraska-2" data-name="Nebraska" d="M828.689-779.922c-1.536-2.264-1.039-4.7-1.351-6.542a16.017,16.017,0,0,0-1.112-3.787,5.823,5.823,0,0,1-.526-2.945c-.809-.728-1.213-1.779-1.7-3.881a1.656,1.656,0,0,1-1.941-1.7c-.081-.323-3.315-1.051-4.2-1.294s-2.2.553-3.31.311a13.128,13.128,0,0,1-3.734-2.119s-6.7-.077-9.931-.239-9.385-.3-13.59-.622c-3.133-.241-6.67-.527-8.269-.657-.052.532-.1.987-.14,1.34-.288,2.524-.93,10.25-1.289,14.655l-.117-.01c1.028.089,1.92.167,2.591.228,3.474.316,9.727.695,9.727.695s-.311,5.281-.486,8.143l5.024.267s16.387.65,20.285.794,16.17.145,16.17.145A19.47,19.47,0,0,1,828.689-779.922Z" transform="translate(-777.475 803.395)" fill="#d8374f" stroke="#fff" stroke-miterlimit="10" stroke-width="1"/>
        </g>
      </g>
      <g id="South_Dakota" data-name="South Dakota" transform="translate(417.685 -1023.885)">
        <g id="Сгруппировать_43" data-name="Сгруппировать 43" transform="translate(0 0)">
          <path id="South_Dakota-2" data-name="South Dakota" d="M783.6-873.752c1.6.13,5.136.416,8.269.657,4.2.323,10.355.46,13.59.622s9.932.238,9.932.238a13.127,13.127,0,0,0,3.734,2.119c1.109.242,2.42-.554,3.31-.311s4.124.97,4.2,1.294a1.656,1.656,0,0,0,1.941,1.7,9.406,9.406,0,0,0-.975-1.816,9.054,9.054,0,0,0,.8-4.091,4.147,4.147,0,0,1-.845-2.49h.623s.356-11.562.311-13.252-.267-1.512-.578-1.957-1.2-1.2-1.29-1.779.489-1.2.845-1.556a2.424,2.424,0,0,0,.489-1.067s-6.537-.267-8.449-.356-12.941-.667-14.987-.756-11.7-.534-14.409-.712c-1.82-.119-3.58-.219-4.541-.271-.228,2.808-.44,5.531-.573,7.427,0,0-.92,11.472-1.4,16.363Z" transform="translate(-783.595 897.538)" fill="#d8374f" stroke="#fff" stroke-miterlimit="10" stroke-width="1"/>
        </g>
      </g>
      <g id="North_Dakota" data-name="North Dakota" transform="translate(419.661 -1048.065)">
        <g id="Сгруппировать_44" data-name="Сгруппировать 44">
          <path id="North_Dakota-2" data-name="North Dakota" d="M811.393-992.225c-4.927-.126-12.317-.568-17.749-1.011l-.037,0c-.369,4.009-1.013,10.982-1.248,13.331-.2,2.039-.593,6.544-.943,10.849.961.053,2.72.152,4.541.271,2.713.178,12.363.623,14.409.712s13.074.667,14.987.756,8.449.356,8.449.356a4.756,4.756,0,0,0-.039-2.57,7.876,7.876,0,0,1-1.117-3.062c-.124-1.283-.331-3.393-.331-4.386a29.093,29.093,0,0,0-.455-3.972c-.166-.827-1.117-2.979-1.241-3.889a32.012,32.012,0,0,1,.042-4.013,11.9,11.9,0,0,0-.348-2.89c-2.518-.02-4.741-.036-5.654-.036C822.068-991.783,816.319-992.1,811.393-992.225Z" transform="translate(-791.416 993.239)" fill="#1e3c5c" stroke="#fff" stroke-miterlimit="10" stroke-width="1"/>
        </g>
      </g>
      <g id="Kansas" transform="translate(426.534 -975.049)">
        <g id="Сгруппировать_45" data-name="Сгруппировать 45">
          <path id="Kansas-2" data-name="Kansas" d="M863.99-697.483a5.2,5.2,0,0,1-.866-2.382s.794.144.938-1.011-1.083-1.588-1.516-1.732a9.678,9.678,0,0,1-1.011-.433s-12.272,0-16.17-.145-20.285-.794-20.285-.794l-5.024-.267c-.034.552-.062,1.015-.083,1.332-.126,1.958-1.326,19.328-1.326,20.592,0,.592-.014,1.587-.029,2.476,6.4.339,15.359.807,17.063.857,2.7.08,23.937.4,25.687.477s4.453.08,4.453.08.19-7.355.262-9.738.361-7.435.361-7.435A6.649,6.649,0,0,1,863.99-697.483Z" transform="translate(-818.618 704.247)" fill="#1e3c5c" stroke="#fff" stroke-miterlimit="10" stroke-width="1"/>
        </g>
      </g>
      <g id="Texas" transform="translate(389.024 -946.716)">
        <g id="Сгруппировать_46" data-name="Сгруппировать 46" transform="translate(0 0)">
          <path id="Контур_51" data-name="Контур 51" d="M737.036-505.666s-1.421-4.737-1.674-6.285a5.983,5.983,0,0,1,.347-3.253c.253-.726.948-4.011.948-4.011a22.941,22.941,0,0,0,1.763-1.548c-.221-.568-.324-.571-.324-.571s-1.223-.5.019-.933a5.384,5.384,0,0,0,2.588-1.96c.133-.228,1.142-.095,1.142-.095s.552-.59-.1-2.17a6.068,6.068,0,0,0,2.55-.457c1.275.514.391,1.68.8,1.466,1.327-.695,2.011-1.122,2.9-1.533a19.228,19.228,0,0,0,3.1-2.4c.411-.379,2.148-1.611,2.432-2.021.726-.221,1.958-2.021,1.958-2.021a61.472,61.472,0,0,1,5.969-2.148,4.953,4.953,0,0,1,.657-3.093,2.431,2.431,0,0,0,0-1.584,1.007,1.007,0,0,1,.176-.88,2.646,2.646,0,0,1-.282-1.091c0-.563.7-2.077,1.021-3.31a3.378,3.378,0,0,0-.176-2.359,25.021,25.021,0,0,0-1.514-2.746,11.185,11.185,0,0,1-.634-2.218c-.176-.528-.986-.986-1.268-1.373s-.211-.951-.211-1.69-.106-8.661-.246-10.914a7.39,7.39,0,0,1-4.506-1.056c-.669-.387-1.655-1.408-2.57-1.514a3.2,3.2,0,0,0-1.831.493c-.563.035-.528-.211-.951-.422s-1.3.739-2.077.528a2,2,0,0,0-2.394.634,25.607,25.607,0,0,0-2.922-.739c-2.148-.458-2.218.141-2.781.669a4.816,4.816,0,0,1-2.641-1.021,2.926,2.926,0,0,0-2.64.07,3.877,3.877,0,0,0-1.549-1.972c-.6-.352-1.2-.246-2.676.071a13.932,13.932,0,0,0-4.471-1.2c.211-1.62-.387-1.725-1.021-2.007-.211.352-.422.282-.845.07s-.6.035-.986.141-.81-.317-1.267-.74a2.437,2.437,0,0,0-.944-.546s0-2.288.2-4.676.3-11.142.3-11.142-12.037-.5-14.624-.6c-1.586-.061-3.694-.2-5.088-.293l-.032.35c-.193,2.125-2.641,35.615-2.641,35.615s-6.827-.257-10.111-.773-10.176-.966-14.233-1.352c0,.524-.05,1.1-.09,1.561-.835-.087-2.084-.22-3.421-.364l.034,0,.045,0,.386.041.215.023.126.013.281.03.247.027.21.022.157.017.253.027.208.022.178.019.235.025.128.013.2.021.18.019.089.009.238.025.031,0,.231.024.148.015.087.009.129.013.081.008.083.008.077.008.114.011a5.4,5.4,0,0,1,1.238,2.056,2.39,2.39,0,0,0,1.175,1.678c.923.441,1.133.839,1.825,1.8a28.174,28.174,0,0,0,2.637,2.769c.347.474,1.863.6,2.053,1.326s.316.6.758.789a5.183,5.183,0,0,0,1.642,3.316l-.063,3.253s1.769,4.137,3.79,4.706,2.337,1.516,2.337,1.516l3.158,1.547s2.211-2.59,2.495-2.937a10.011,10.011,0,0,1,1.674-3.127,4.046,4.046,0,0,0,2.621-.916,8.742,8.742,0,0,0,1.105.884c.316.158,1.642,0,4.422.379s2.021,1.863,2.021,1.863,2.148,2.084,2.748,2.59.284.663.79,1.295a3.666,3.666,0,0,1,.726,1.9c.063.537,1.421,3.442,1.705,4.169-.189,1.137-.031,1.326.221,1.579s1.137.6,1.895,1.232,1.453,2.748,2.242,3.158a4.482,4.482,0,0,1,1.611,1.169,9.182,9.182,0,0,1-.411,1.958s-.095,0,.569.379a3.532,3.532,0,0,1-.158,2.242l1.484,1.2c.284,3.948,3.663,4.579,5.906,4.864,1.548,1.516,2.653,1.105,3.632,1.137s1.548.632,2.653,1.39A1.518,1.518,0,0,0,737.036-505.666Z" transform="translate(-670.158 592.11)" fill="#1e3c5c" stroke="#fff" stroke-miterlimit="10" stroke-width="1"/>
          <path id="Контур_52" data-name="Контур 52" d="M944.2-320.666c.382.09.343,1.408-1.465,2.874s-1.96,1.636-1.9,1.237a7.88,7.88,0,0,1,1.484-2.74C942.984-319.962,943.878-320.742,944.2-320.666Z" transform="translate(-872.437 389.253)" fill="#1e3c5c" stroke="#fff" stroke-miterlimit="10" stroke-width="1"/>
        </g>
      </g>
      <g id="Colorado" transform="translate(381.974 -987.171)">
        <g id="Сгруппировать_47" data-name="Сгруппировать 47" transform="translate(0)">
          <path id="Colorado-2" data-name="Colorado" d="M686.816-715.7c.015-.89.029-1.884.029-2.476,0-1.263,1.2-18.634,1.326-20.592s.568-9.475.568-9.475-6.253-.379-9.727-.695-12.759-1.074-17.181-1.516-15.412-1.769-15.412-1.769-2.527,17.623-2.779,19.265-1.146,10.18-1.146,10.5-.238,2.238-.238,2.238,2.962.5,5.925.82,13.718,1.61,17.453,2,14.555,1.353,14.555,1.353S683.061-715.9,686.816-715.7Z" transform="translate(-642.256 752.226)" fill="none" stroke="#fff" stroke-miterlimit="10" stroke-width="1"/>
        </g>
      </g>
      <g id="Oklahoma" transform="translate(419.552 -951.003)">
        <g id="Сгруппировать_48" data-name="Сгруппировать 48" transform="translate(0 0)">
          <path id="Oklahoma-2" data-name="Oklahoma" d="M846.046-599.435c-.159-1.272-.8-3.738-.875-4.93s0-2.942,0-2.942-2.7,0-4.453-.08-22.983-.4-25.687-.477-23.69-1.211-23.69-1.211-.172,2.245-.355,4.287c1.395.1,3.5.232,5.088.293,2.587.1,14.624.6,14.624.6s-.1,8.754-.3,11.142-.2,4.676-.2,4.676a2.437,2.437,0,0,1,.944.546c.458.422.88.845,1.267.74s.563-.352.986-.141.634.282.845-.07c.634.282,1.232.387,1.021,2.007a13.937,13.937,0,0,1,4.471,1.2c1.479-.317,2.078-.422,2.676-.07a3.877,3.877,0,0,1,1.549,1.972,2.926,2.926,0,0,1,2.64-.07,4.817,4.817,0,0,0,2.641,1.021c.563-.528.634-1.127,2.781-.669a25.6,25.6,0,0,1,2.922.739,2,2,0,0,1,2.394-.634c.775.211,1.655-.739,2.077-.528s.387.458.95.422a3.2,3.2,0,0,1,1.831-.493c.915.106,1.9,1.127,2.57,1.514a6.328,6.328,0,0,0,1.9.806c-.036-1.824-.107-6.344.017-8.9A87,87,0,0,0,846.046-599.435Z" transform="translate(-790.986 609.076)" fill="#167a91" stroke="#fff" stroke-miterlimit="10" stroke-width="1"/>
        </g>
      </g>
      <g id="Washington" transform="translate(310.212 -1066.601)">
        <path id="Контур_53" data-name="Контур 53" d="M358.231-1049.01a5.232,5.232,0,0,0,.284,1.453c.19.253,1.484.221,1.484.789a4.108,4.108,0,0,0,1.634.825,2.344,2.344,0,0,1,1.884,1.821c.063.817,0,2.763.44,3.391s.44.754,1.507,1,2.135.44,2.135.44a2.456,2.456,0,0,1,2.638-.377,13.037,13.037,0,0,0,5.294,1.394c3.014.314,7.667-.072,11.058.493a53.482,53.482,0,0,1,9.333,2.509s.523-4.01,1.157-7.866c.616-3.751,2.882-13.247,3.734-15.707-6.086-1.46-13.98-3.452-15.484-3.939-2.242-.727-14.37-3.822-14.37-3.822a6.907,6.907,0,0,0-.284.695c-.158.442.726,1.863.726,2.211a4.067,4.067,0,0,1-.379,1.263,3.827,3.827,0,0,0,.126,1.832,3.591,3.591,0,0,1-.095,1.168c-.063.379.461,1.086.347,1.232a2.067,2.067,0,0,1-2.2.848c-.469.052-.563-.205-.939-.09.352-.762.574-.129,1.033-1.609a3.052,3.052,0,0,0,.167-1.012,2.54,2.54,0,0,1,.615-1.295l-.126-.474c-.6.032-.979.948-1.042,1.548a11.058,11.058,0,0,1-6.474-2.211,29.2,29.2,0,0,0-3.285-2.495,28.035,28.035,0,0,1-.537,3.316,23.243,23.243,0,0,1,.537,2.748c.126.853-.126,2.937-.095,3.885s1.548,2.053,1.548,2.053l-1.548.284a2.022,2.022,0,0,0-.316.916,1.24,1.24,0,0,0,.4.891,1.9,1.9,0,0,1,.132,1C359.178-1049.389,358.231-1049.01,358.231-1049.01Z" transform="translate(-358.231 1066.601)" fill="#1e3c5c" stroke="#fff" stroke-miterlimit="10" stroke-width="1"/>
        <path id="Контур_54" data-name="Контур 54" d="M396.937-1059.382a.709.709,0,0,0-.789-.305c-.471.178-.522.534-.725.534a3.642,3.642,0,0,1-.5-.051s.267,1.3.624,1.12.14-.585.458-.636a1.181,1.181,0,0,1,.534.025S397.2-1058.962,396.937-1059.382Z" transform="translate(-385.655 1061.464)" fill="#1e3c5c" stroke="#fff" stroke-miterlimit="10" stroke-width="1"/>
        <path id="Контур_55" data-name="Контур 55" d="M400.471-1054.787a1.263,1.263,0,0,1,.115.789c-.1.369-.433.458-.509.407S400.051-1054.583,400.471-1054.787Z" transform="translate(-389.482 1057.772)" fill="#1e3c5c" stroke="#fff" stroke-miterlimit="10" stroke-width="1"/>
      </g>
      <g id="Montana" transform="translate(356.419 -1057.652)">
        <g id="Сгруппировать_49" data-name="Сгруппировать 49" transform="translate(0 0)">
          <path id="Montana-2" data-name="Montana" d="M582.83-1024.183c-4.422-.632-18.97-2.779-18.97-2.779-4.969-.843-19.687-3.885-19.687-3.885-.384-.073-.929-.189-1.593-.337l.06.013c-.521,2.423-1.291,6.018-1.466,6.893a2.072,2.072,0,0,0,.405,1.957s1.147,1.62.54,2.9a1.4,1.4,0,0,0,.405,1.89,20.2,20.2,0,0,1,2.632,4.117,4.68,4.68,0,0,0,2.7,2.565,7.829,7.829,0,0,1-.2,1.08c-.135.472-1.62,4.522-2.025,5.2s-.945.607-.2,1.822,2.092.608,3.172-.2c1.148,1.89.675,3.847,1.148,5.2a6.705,6.705,0,0,0,1.822,2.7c.607.607.607,1.08.54,2.227s.338,1.417.338,1.417a1.535,1.535,0,0,1,1.89-.743,4.079,4.079,0,0,0,2.7,0c1.012-.2,1.417.473,2.632.54s1.417-1.215,1.822-1.283.337.338.945,1.283c.368.573.587.7.7.709l.107-.034.7-3.855s8,1.348,14.991,2.274,19.455,2.358,24.845,2.527c.337-4.8,1.179-14.907,1.516-18.276.235-2.349.879-9.322,1.248-13.331C601.086-1022.042,587.242-1023.552,582.83-1024.183Z" transform="translate(-541.111 1031.183)" fill="#1e3c5c" stroke="#fff" stroke-miterlimit="10" stroke-width="1"/>
        </g>
      </g>
      <g id="Wyoming" transform="translate(374.325 -1021.259)">
        <g id="Сгруппировать_50" data-name="Сгруппировать 50" transform="translate(0 0)">
          <path id="Wyoming-2" data-name="Wyoming" d="M639.205-851.286c3.6.36,10.419.929,14.707,1.3.359-4.4,1-12.131,1.289-14.655.412-3.6,1.543-17.7,1.543-17.7-5.39-.169-17.855-1.6-24.845-2.527s-14.991-2.274-14.991-2.274l-.7,3.855-3.028,20.127s-.948,7.074-1.2,8.59c2.148.379,5.685.821,7.264.948s4.548.568,4.548.568S634.784-851.729,639.205-851.286Z" transform="translate(-611.981 887.143)" fill="#167a91" stroke="#fff" stroke-miterlimit="10" stroke-width="1"/>
        </g>
      </g>
      <g id="Idaho" transform="translate(335.752 -1058.84)">
        <g id="Сгруппировать_51" data-name="Сгруппировать 51" transform="translate(0 0)">
          <path id="Idaho-2" data-name="Idaho" d="M481.337-977.354s7.074,1.516,9.854,1.958,7.9,1.074,7.9,1.074l3.028-20.127s-.2.27-.81-.675-.54-1.35-.945-1.282-.607,1.35-1.822,1.282-1.62-.743-2.632-.54a4.079,4.079,0,0,1-2.7,0,1.535,1.535,0,0,0-1.89.742s-.405-.27-.338-1.417.067-1.62-.54-2.227a6.7,6.7,0,0,1-1.822-2.7c-.472-1.35,0-3.307-1.148-5.2-1.08.81-2.43,1.417-3.172.2s-.2-1.147.2-1.822,1.89-4.724,2.025-5.2a7.832,7.832,0,0,0,.2-1.08,4.68,4.68,0,0,1-2.7-2.565,20.2,20.2,0,0,0-2.632-4.117,1.4,1.4,0,0,1-.405-1.89c.607-1.282-.54-2.9-.54-2.9a2.072,2.072,0,0,1-.405-1.957c.175-.875.945-4.471,1.466-6.893-1.321-.292-3.138-.717-5.154-1.2-.852,2.46-3.118,11.956-3.734,15.707-.634,3.856-1.157,7.866-1.157,7.866.753,1.444.753,1.57,1.382,2.135a19.149,19.149,0,0,1,.377,2.2,12.283,12.283,0,0,0-2.826,3.328c-.942,1.821-1.382,1.884-1.382,1.884a9.6,9.6,0,0,0-1.884,2.826c-.251,1.068,0,1.13.5,1.13a2.7,2.7,0,0,0,.816,1.319,54.546,54.546,0,0,0-2.009,5.149c-.754,2.386-2.2,8.54-2.512,9.922-.109.481-.2,1.03-.279,1.541-1.262-.3-2.759-.671-4.335-1.059h0c3.746.922,7.041,1.721,7.812,1.868C469.778-979.565,481.337-977.354,481.337-977.354Z" transform="translate(-459.313 1035.885)" fill="#167a91" stroke="#fff" stroke-miterlimit="10" stroke-width="1"/>
        </g>
      </g>
      <g id="New_Mexico" data-name="New Mexico" transform="translate(375.397 -955.172)">
        <g id="Сгруппировать_52" data-name="Сгруппировать 52" transform="translate(0 0)">
          <path id="New_Mexico-2" data-name="New Mexico" d="M646.178-622.76c-3.736-.387-14.491-1.675-17.453-2s-5.925-.82-5.925-.82-1.369,7.737-1.643,9.825-1.472,9.757-1.917,12.8-1.609,11.229-1.917,13.934-1.062,9.038-1.062,9.038l-.008.053-.03,0c1.652.238,5.2.685,5.614.823a23.117,23.117,0,0,1,.357-3.84,6.592,6.592,0,0,0,1.049.147c.816.089,7.428.806,10.029,1.078.041-.463.09-1.037.09-1.561,4.057.386,10.949.837,14.233,1.352s10.111.773,10.111.773,2.447-33.49,2.641-35.615.386-4.637.386-4.637S649.914-622.374,646.178-622.76Z" transform="translate(-616.223 625.577)" fill="#d8374f" stroke="#fff" stroke-miterlimit="10" stroke-width="1"/>
        </g>
      </g>
      <g id="Utah" transform="translate(349.93 -1000.309)">
        <path id="Utah-2" data-name="Utah" d="M551.635-791.088s-2.969-.442-4.548-.569-5.116-.568-7.264-.947c.253-1.516,1.2-8.59,1.2-8.59s-5.116-.632-7.9-1.074-9.854-1.958-9.854-1.958-.568,3.1-.947,4.864-3.474,16.928-4.043,20.339-2.856,15.073-2.856,15.073c1.4.205,6.471,1.061,8.456,1.369s12.564,1.986,14.892,2.294,8.7,1.2,8.7,1.2.238-1.922.238-2.238.893-8.854,1.146-10.5S551.635-791.088,551.635-791.088Z" transform="translate(-515.428 804.226)" fill="#167a91" stroke="#fff" stroke-miterlimit="10" stroke-width="1"/>
      </g>
      <g id="Arizona" transform="translate(338.035 -960.033)">
        <path id="Arizona-2" data-name="Arizona" d="M503.594-641.155c-2.328-.308-12.907-1.986-14.892-2.294s-7.052-1.164-8.456-1.369c-.24.445-.787,5.341-.924,5.991s-.856,1.027-1.541,1.232-.548-.308-1.609-1.164-1.712.548-1.917,1.267.137,4.588.034,5.82a4.145,4.145,0,0,1-1.014,2.2,5.025,5.025,0,0,0-.139.867c-.035.486.9,1.457,1.076,1.8s-.173,1.006.555,2.047.659,1.215-.069,2.082c-2.117.416-2.325,2.707-2.429,3.227s.278,1.318-.833,1.631-1.388.694-1.6,1.978.347,1.978.694,2.082,0,0,.729.1a1.574,1.574,0,0,1-1.11,1.909c-.937.208-1.006-.139-1.006-.139l-.256.289c-.108.178-.25.415-.387.647-.273.462-.294.4.923,1.112s11.876,6.735,13.47,7.742l8.77,5.539a26.328,26.328,0,0,1,2.979.335c1.112.231,9.61,1.637,10.3,1.784.129.027.414.072.795.126l.008-.053s.753-6.333,1.061-9.038,1.472-10.887,1.917-13.934,1.643-10.716,1.917-12.8,1.643-9.825,1.643-9.825S505.922-640.847,503.594-641.155Z" transform="translate(-468.35 644.818)" fill="#167a91" stroke="#fff" stroke-miterlimit="10" stroke-width="1"/>
      </g>
      <g id="California" transform="translate(293.978 -1015.064)">
        <g id="Сгруппировать_53" data-name="Сгруппировать 53" transform="translate(0 0)">
          <path id="Контур_56" data-name="Контур 56" d="M338.66-774.5l-.085.141.256-.288s.069.347,1.006.139a1.574,1.574,0,0,0,1.11-1.909c-.729-.1-.382,0-.729-.1s-.9-.8-.694-2.082.486-1.666,1.6-1.978.729-1.11.833-1.631.312-2.811,2.429-3.227c.729-.867.8-1.041.069-2.082s-.382-1.7-.555-2.047-1.11-1.319-1.076-1.8a5.025,5.025,0,0,1,.139-.867s-1.527-2.221-2.429-3.748-7.773-11.9-9.2-14.053-8.64-13.359-9.473-14.747-4.442-7.044-5.1-7.461c.243-1.319,2.811-9.646,3.331-11.694s2.707-11.728,2.707-11.728-9.681-2.672-11.173-3.123c-1.345-.406-10.973-3.264-12.863-3.825h0c-.032.209-.544,3.557-.82,5.438a9.575,9.575,0,0,1-2.637,4.785,4.227,4.227,0,0,0-1.326,3.143c-.032,1.263,1.121,2.89,1.358,3.9a6.113,6.113,0,0,1,.189,2.053,44.67,44.67,0,0,1-1.184,5.716,33.709,33.709,0,0,1,2.669,5.116,5.813,5.813,0,0,1,.047,3.143,26.894,26.894,0,0,0,2.035,2.268c.275-1.717,1.235-1.473,1.373-1.282a2.541,2.541,0,0,1,.252,2.22c-.135.345.916,1.923-.069,2.06-.339.047-.867-2.1-1.6-1.854-.068.226-.247.564-.331.788a10.215,10.215,0,0,0-.095,3.616c.142.9,1.137,1.579,1.595,2.069a2.226,2.226,0,0,1,.805,1.626c.016.758-1.358,1.769-1.358,1.769a8.774,8.774,0,0,0,.237,2.811c.347.6.884.505,1.042,1.753a13.429,13.429,0,0,0,1.437,4.185,9.351,9.351,0,0,1,1.642,2.858,3.374,3.374,0,0,0,.79,1.611,1.559,1.559,0,0,0-.063.553c0,.411-.774,4.169-.774,4.169l.79,1.058a5.974,5.974,0,0,1,2.053.095,22.085,22.085,0,0,0,2.779,1.595,1.582,1.582,0,0,0,1.184-.158c.568.347,1.263,3.4,2.953,4.343a6.768,6.768,0,0,0,2.511.474,3.011,3.011,0,0,1,.442,1.942,1.535,1.535,0,0,0,.095,1.011s1.263.269,1.611.411a20.646,20.646,0,0,1,2.89,3.443,8.359,8.359,0,0,1,1.295,3.221,37.244,37.244,0,0,1,.063,4.074s4.322.349,6.127.411,8.351,1.154,8.351,1.154l1.637.378Z" transform="translate(-293.978 862.623)" fill="none" stroke="#fff" stroke-miterlimit="10" stroke-width="1"/>
          <path id="Контур_57" data-name="Контур 57" d="M338.168-587.226a1.343,1.343,0,0,0,1.484,1.263C339.226-587.052,339.273-587.147,338.168-587.226Z" transform="translate(-327.003 656.808)" fill="#1e3c5c" stroke="#fff" stroke-miterlimit="10" stroke-width="1"/>
          <path id="Контур_58" data-name="Контур 58" d="M347-588.039s-.253,1.437,1.437,1.311C348.014-587.486,347.982-587.739,347-588.039Z" transform="translate(-333.596 657.415)" fill="#1e3c5c" stroke="#fff" stroke-miterlimit="10" stroke-width="1"/>
          <path id="Контур_59" data-name="Контур 59" d="M376.15-561.01c-.181.188.309,2.541,1.319,2.115C377.833-559.1,376.475-561.348,376.15-561.01Z" transform="translate(-355.361 637.241)" fill="#1e3c5c" stroke="#fff" stroke-miterlimit="10" stroke-width="1"/>
          <path id="Контур_60" data-name="Контур 60" d="M372.719-545.651c.364-.228,1.437,1.911.995,2.148S372.34-545.414,372.719-545.651Z" transform="translate(-352.758 625.75)" fill="#1e3c5c" stroke="#fff" stroke-miterlimit="10" stroke-width="1"/>
        </g>
      </g>
      <g id="Nevada" transform="translate(316.761 -1008.115)">
        <g id="Сгруппировать_54" data-name="Сгруппировать 54" transform="translate(0 0)">
          <path id="Nevada-2" data-name="Nevada" d="M410.347-771.691a4.145,4.145,0,0,0,1.014-2.2c.1-1.233-.24-5.1-.034-5.82s.856-2.123,1.917-1.267.924,1.369,1.609,1.164,1.4-.582,1.541-1.233.685-5.546.924-5.991c0,0,2.287-11.662,2.856-15.073s3.664-18.57,4.043-20.339.947-4.864.947-4.864-11.559-2.211-14.212-2.716c-1.987-.378-20.765-5.09-20.765-5.09s-2.186,9.681-2.707,11.728-3.088,10.375-3.331,11.694c.659.416,4.268,6.072,5.1,7.461s8.05,12.6,9.473,14.747,8.293,12.527,9.2,14.053S410.347-771.691,410.347-771.691Z" transform="translate(-384.149 835.122)" fill="#d8374f" stroke="#fff" stroke-miterlimit="10" stroke-width="1"/>
        </g>
      </g>
      <g id="Oregon" transform="translate(298.159 -1046.767)">
        <g id="Сгруппировать_55" data-name="Сгруппировать 55" transform="translate(0 0)">
          <path id="Oregon-2" data-name="Oregon" d="M361.65-974.466c-.628-.565-.628-.691-1.382-2.135a53.459,53.459,0,0,0-9.333-2.509c-3.391-.565-8.044-.18-11.058-.493A13.041,13.041,0,0,1,334.584-981a2.456,2.456,0,0,0-2.638.377s-1.068-.188-2.135-.44-1.068-.377-1.507-1-.377-2.575-.44-3.391a2.344,2.344,0,0,0-1.884-1.821,4.109,4.109,0,0,1-1.634-.825c0,.568-1.958.821-1.958.821l-.121.351-.037.106-.111.319-.035.1-.025.072-.051.146-.116.334-.018.051-.041.118-.037.105-.131.376-.047.135-.258.741-.032.09-.052.15-.042.12-.175.5-.036.1-.081.233-.067.193-.019.055-.071.2-.064.182-.01.03-.092.262-.044.127-.186.529-.045.129-.071.2-.057.16-.056.16-.23.651,0,.008-.225.636a124.231,124.231,0,0,1-5.464,11.686c-.726,1.326-2.874,4.074-3.032,4.864a26.422,26.422,0,0,1-.537,4.169c-.505,1.8.458,2.479.458,2.479l0,.01c1.89.561,11.518,3.419,12.863,3.825,1.492.451,11.173,3.123,11.173,3.123s11.291,2.833,17.288,4.282c.076-.512.17-1.06.279-1.542.314-1.382,1.758-7.536,2.512-9.922a54.57,54.57,0,0,1,2.009-5.149,2.7,2.7,0,0,1-.816-1.319c-.5,0-.753-.063-.5-1.13a9.6,9.6,0,0,1,1.884-2.826s.44-.063,1.382-1.884a12.283,12.283,0,0,1,2.826-3.328A19.146,19.146,0,0,0,361.65-974.466Z" transform="translate(-310.526 988.101)" fill="#d8374f" stroke="#fff" stroke-miterlimit="10" stroke-width="1"/>
        </g>
      </g>
      <g id="Сгруппировать_56" data-name="Сгруппировать 56" transform="translate(581.94 -977.853)">
        <path id="Washington_DC" data-name="Washington DC" d="M1434.59-713.818a1.5,1.5,0,0,1,.088.518,1.323,1.323,0,0,0,.829-.757s-.789-1.031-.982-1.292a2.6,2.6,0,0,0-.746.581,1.062,1.062,0,0,0-.078.084A1.82,1.82,0,0,1,1434.59-713.818Z" transform="translate(-1433.701 715.348)" fill="#1e3c5c" stroke="#fff" stroke-miterlimit="10" stroke-width="1"/>
      </g>
    </g>
    <g id="Прямоугольник_3143" data-name="Прямоугольник 3143" transform="translate(23 1672)" fill="#1e3c5c" stroke="#fff" stroke-width="1">
      <rect width="18" height="18" stroke="none"/>
      <rect x="0.5" y="0.5" width="17" height="17" fill="none"/>
    </g>
    <text id="No" transform="translate(51 1686)" fill="#fff" font-size="13" font-family="Poppins-Medium, Poppins" font-weight="500"><tspan x="0" y="0">No</tspan></text>
    <g id="Прямоугольник_3144" data-name="Прямоугольник 3144" transform="translate(183 1672)" fill="#d8374f" stroke="#fff" stroke-width="1">
      <rect width="18" height="18" stroke="none"/>
      <rect x="0.5" y="0.5" width="17" height="17" fill="none"/>
    </g>
    <text id="Yes_With_Restrictions" data-name="Yes, With Restrictions" transform="translate(211 1686)" fill="#fff" font-size="13" font-family="Poppins-Medium, Poppins" font-weight="500"><tspan x="0" y="0">Yes, With Restrictions</tspan></text>
    <g id="Прямоугольник_3145" data-name="Прямоугольник 3145" transform="translate(103 1672)" fill="#167a91" stroke="#fff" stroke-width="1">
      <rect width="18" height="18" stroke="none"/>
      <rect x="0.5" y="0.5" width="17" height="17" fill="none"/>
    </g>
    <text id="Yes" transform="translate(131 1686)" fill="#fff" font-size="13" font-family="Poppins-Medium, Poppins" font-weight="500"><tspan x="0" y="0">Yes</tspan></text>
  </g>
</svg>
