<svg id="Group_11166" data-name="Group 11166" xmlns="http://www.w3.org/2000/svg" width="57.259" height="49.624" viewBox="0 0 57.259 49.624">
  <g id="noun_GPS_1748051">
    <path id="Path_12262" data-name="Path 12262" d="M50.593,35.253a.954.954,0,0,0-.877-.578H36.289c3.185-5.068,6.746-11.563,6.746-15.269a12.406,12.406,0,1,0-24.812,0c0,3.706,3.561,10.2,6.746,15.269H11.543a.954.954,0,0,0-.877.578L2.077,55.294a.954.954,0,0,0,.877,1.33H58.3a.954.954,0,0,0,.877-1.33Zm-7.823,1.33h6.318L50.1,38.949l-1.265.422-1.556-.778a.948.948,0,0,0-.658-.072l-3.292.824-1.11-1.111ZM20.132,19.406a10.5,10.5,0,1,1,20.995,0c0,4.566-6.978,15.352-10.5,20.315C27.11,34.758,20.132,23.972,20.132,19.406Zm12.849,20.28c2.118.439,3.374,1.394,3.374,2.146,0,1-2.179,2.386-5.726,2.386S24.9,42.829,24.9,41.832c0-.752,1.257-1.707,3.374-2.146.878,1.269,1.479,2.093,1.581,2.233a.954.954,0,0,0,1.54,0C31.5,41.779,32.1,40.955,32.981,39.686Zm-20.809-3.1h6.177l-.716,1.073-3.227.806-2.746-.686ZM30.678,52.505l-.737,2.21H4.4l6.5-15.162,3.274.819a.954.954,0,0,0,.464,0l3.817-.954a.954.954,0,0,0,.562-.4l1.625-2.438h5.55c.324.5.638.971.937,1.416-2.548.7-4.135,2.126-4.135,3.833,0,2.448,3.282,4.294,7.635,4.294s7.635-1.847,7.635-4.294c0-1.706-1.587-3.129-4.135-3.833.3-.446.613-.919.937-1.416h5.691l-.535,1.607a.954.954,0,0,0,.231.976l1.909,1.909a.954.954,0,0,0,.907.251l3.475-.868,1.593.8a.938.938,0,0,0,.728.051l1.791-.6,1.408,3.284-4.294-.716a.977.977,0,0,0-.584.087l-5.63,2.817-3.716.929a.954.954,0,0,0-.622.5l-1.7,3.4-4.313.864A.954.954,0,0,0,30.678,52.505Zm1.276,2.21.36-1.081,4.232-.846a.954.954,0,0,0,.668-.509l1.712-3.425,3.392-.847a1.013,1.013,0,0,0,.191-.072l5.448-2.725,5.2.867,3.7,8.638Z" transform="translate(-2 -7)" fill="#d8374f"/>
    <path id="Path_12263" data-name="Path 12263" d="M39.269,19.635a7.635,7.635,0,1,0-7.635,7.635A7.635,7.635,0,0,0,39.269,19.635Zm-13.36,0a5.726,5.726,0,1,1,5.726,5.726A5.726,5.726,0,0,1,25.909,19.635Z" transform="translate(-3.005 -7.228)" fill="#d8374f"/>
    <path id="Path_12264" data-name="Path 12264" d="M26.128,49.3a.964.964,0,0,0-.324-.367l-2.7-1.8-1.8-2.7A.954.954,0,0,0,20.5,44H17.634a.954.954,0,0,0-.675.279l-1.527,1.527-3.292-.824a.954.954,0,0,0-1.158.695l-.954,3.817a.954.954,0,0,0,.132.763l1.909,2.863a.954.954,0,0,0,.562.4l3.817.954a.955.955,0,0,0,.232.026h2.863a.954.954,0,0,0,.427-.1l1.556-.778,2.488.828a.942.942,0,0,0,.3.045.954.954,0,0,0,.675-.279L26.9,52.309a.954.954,0,0,0,.179-1.1Zm-2.066,3.149-2.3-.763a.943.943,0,0,0-.728.051l-1.707.859H16.8l-3.345-.836-1.47-2.205.62-2.481,2.891.722a.954.954,0,0,0,.907-.251l1.629-1.635h1.957l1.622,2.438a.954.954,0,0,0,.264.264l2.652,1.768.533,1.067Z" transform="translate(-2.366 -8.69)" fill="#d8374f"/>
  </g>
</svg>
