<svg id="noun_live_1178704" xmlns="http://www.w3.org/2000/svg" width="50.139" height="50.112" viewBox="0 0 50.139 50.112">
  <path id="Path_12259" data-name="Path 12259" d="M22.713,37.337A14.624,14.624,0,1,0,8.089,22.713,14.624,14.624,0,0,0,22.713,37.337Zm0,2.089A16.713,16.713,0,1,1,39.426,22.713,16.713,16.713,0,0,1,22.713,39.426Z" transform="translate(2.356 2.356)" fill="#d8374f"/>
  <path id="Path_12260" data-name="Path 12260" d="M18.356,22.535a4.178,4.178,0,1,0-4.178-4.178A4.178,4.178,0,0,0,18.356,22.535Zm0,4.178a8.356,8.356,0,1,1,8.356-8.356A8.356,8.356,0,0,1,18.356,26.713Z" transform="translate(6.713 6.713)" fill="#d8374f"/>
  <path id="Path_12261" data-name="Path 12261" d="M30.629,51.848a1.064,1.064,0,1,1,1.064-1.064A1.064,1.064,0,0,1,30.629,51.848Zm-3.835.251a1.064,1.064,0,1,1,1.217-.884A1.064,1.064,0,0,1,26.794,52.1Zm-3.828-.338a1.064,1.064,0,1,1,1.34-.683A1.064,1.064,0,0,1,22.966,51.761Zm-3.715-.91a1.064,1.064,0,1,1,1.422-.49A1.064,1.064,0,0,1,19.251,50.851ZM15.7,49.375a1.064,1.064,0,1,1,1.481-.261A1.064,1.064,0,0,1,15.7,49.375Zm-3.281-2a1.064,1.064,0,1,1,1.5-.026A1.064,1.064,0,0,1,12.421,47.375ZM9.484,44.9a1.064,1.064,0,1,1,1.49.209A1.064,1.064,0,0,1,9.484,44.9ZM6.969,42.014a1.064,1.064,0,1,1,1.446.415A1.064,1.064,0,0,1,6.969,42.014ZM4.916,38.766a1.064,1.064,0,1,1,1.363.636A1.064,1.064,0,0,1,4.916,38.766ZM3.382,35.242a1.064,1.064,0,1,1,1.247.841A1.064,1.064,0,0,1,3.382,35.242Zm-.977-3.717a1.064,1.064,0,1,1,1.1,1.026A1.064,1.064,0,0,1,2.405,31.525Zm-.4-3.822a1.064,1.064,0,1,1,.926,1.185A1.064,1.064,0,0,1,2.008,27.7Zm.186-3.82a1.064,1.064,0,1,1,.752,1.3A1.064,1.064,0,0,1,2.194,23.883Zm.773-3.765a1.064,1.064,0,1,1,.539,1.4A1.064,1.064,0,0,1,2.967,20.118Zm1.339-3.6a1.064,1.064,0,1,1,.313,1.471A1.064,1.064,0,0,1,4.307,16.516ZM6.18,13.16a1.064,1.064,0,1,1,.079,1.5A1.064,1.064,0,0,1,6.18,13.16Zm2.35-3.018a1.064,1.064,0,1,1-.131,1.5A1.064,1.064,0,0,1,8.53,10.143Zm2.8-2.635a1.064,1.064,0,1,1-.364,1.46A1.064,1.064,0,0,1,11.328,7.508ZM14.5,5.332a1.064,1.064,0,1,1-.588,1.385A1.064,1.064,0,0,1,14.5,5.332Zm3.463-1.667a1.064,1.064,0,1,1-.8,1.276A1.064,1.064,0,0,1,17.959,3.665Zm3.677-1.118a1.064,1.064,0,1,1-.987,1.135A1.064,1.064,0,0,1,21.636,2.547ZM25.421,2a1.064,1.064,0,1,1-1.135.987A1.064,1.064,0,0,1,25.421,2Zm3.843.042a1.064,1.064,0,1,1-1.276.8A1.064,1.064,0,0,1,29.264,2.045Zm3.791.629a1.064,1.064,0,1,1-1.385.588A1.064,1.064,0,0,1,33.056,2.673Zm3.651,1.2a1.064,1.064,0,1,1-1.46.364A1.064,1.064,0,0,1,36.706,3.874Zm3.424,1.744a1.064,1.064,0,1,1-1.5.131A1.064,1.064,0,0,1,40.131,5.618Zm3.105,2.233a1.064,1.064,0,1,1-1.5-.079A1.064,1.064,0,0,1,43.236,7.851Zm2.74,2.7a1.064,1.064,0,1,1-1.471-.313A1.064,1.064,0,0,1,45.975,10.547Zm2.3,3.082a1.064,1.064,0,1,1-1.4-.539A1.064,1.064,0,0,1,48.271,13.629Zm1.8,3.4a1.064,1.064,0,1,1-1.3-.752A1.064,1.064,0,0,1,50.068,17.026Zm1.255,3.613a1.064,1.064,0,1,1-1.185-.926A1.064,1.064,0,0,1,51.324,20.639Zm.691,3.781a1.064,1.064,0,1,1-1.026-1.1A1.064,1.064,0,0,1,52.014,24.419Zm.1,3.842a1.064,1.064,0,1,1-.841-1.247A1.064,1.064,0,0,1,52.119,28.261Zm-.484,3.812A1.064,1.064,0,1,1,51,30.71,1.064,1.064,0,0,1,51.635,32.073Zm-1.06,3.694a1.064,1.064,0,1,1-.415-1.446A1.064,1.064,0,0,1,50.575,35.767Zm-1.6,3.474a1.064,1.064,0,1,1-.209-1.49A1.064,1.064,0,0,1,48.974,39.241Zm-2.124,3.2a1.064,1.064,0,1,1,.026-1.5A1.064,1.064,0,0,1,46.85,42.443Zm-2.589,2.84a1.064,1.064,0,1,1,.261-1.481A1.064,1.064,0,0,1,44.261,45.284ZM41.269,47.7a1.064,1.064,0,1,1,.49-1.422A1.064,1.064,0,0,1,41.269,47.7Zm-3.308,1.92a1.064,1.064,0,1,1,.683-1.34A1.064,1.064,0,0,1,37.961,49.615Zm-3.58,1.4a1.064,1.064,0,1,1,.884-1.217A1.064,1.064,0,0,1,34.381,51.013Z" transform="translate(-2 -2)" fill="#d8374f" fill-rule="evenodd"/>
</svg>
