<svg xmlns="http://www.w3.org/2000/svg" width="41" height="46.649" viewBox="0 0 41 46.649">
  <g id="_686308" data-name="686308" transform="translate(-31)">
    <g id="Сгруппировать_67" data-name="Сгруппировать 67" transform="translate(31 8.291)">
      <g id="Сгруппировать_66" data-name="Сгруппировать 66">
        <path id="Контур_74" data-name="Контур 74" d="M70.953,111.591a4.1,4.1,0,0,0-3.053-6.833H59.942a26.5,26.5,0,0,0,1.124-6.925V96.467A5.473,5.473,0,0,0,55.6,91H54.233a1.366,1.366,0,0,0-1.326,1.035l-.744,2.978c-1.043,4.171-4.355,8.773-7.783,9.609a4.106,4.106,0,0,0-3.814-2.6h-8.2A1.367,1.367,0,0,0,31,103.391v24.6a1.367,1.367,0,0,0,1.367,1.367h8.2a4.1,4.1,0,0,0,3.7-2.337l4.7,1.565a15,15,0,0,0,4.754.772H65.167a4.1,4.1,0,0,0,3.812-5.611,4.1,4.1,0,0,0,1.974-6.689,4.092,4.092,0,0,0,0-5.467Zm-29.02,13.667a1.368,1.368,0,0,1-1.367,1.367H33.733V104.758h6.833a1.368,1.368,0,0,1,1.367,1.367Zm23.233-12.3H67.9a1.367,1.367,0,1,1,0,2.733H65.167a1.367,1.367,0,1,0,0,2.733H67.9a1.367,1.367,0,1,1,0,2.733H65.167a1.367,1.367,0,1,0,0,2.733,1.367,1.367,0,0,1,0,2.733H53.718a12.274,12.274,0,0,1-3.89-.631l-5.161-1.72V107.362a11.013,11.013,0,0,0,6.136-3.987,19.941,19.941,0,0,0,4.012-7.7l.486-1.943h.3a2.737,2.737,0,0,1,2.733,2.733v1.366a21.626,21.626,0,0,1-1.308,6.925H54.233a1.367,1.367,0,0,0,0,2.733H67.9a1.367,1.367,0,1,1,0,2.733H65.167a1.367,1.367,0,1,0,0,2.733Z" transform="translate(-31 -91)"/>
      </g>
    </g>
    <g id="Сгруппировать_69" data-name="Сгруппировать 69" transform="translate(36.616 38.294)">
      <g id="Сгруппировать_68" data-name="Сгруппировать 68" transform="translate(0 0)">
        <ellipse id="Эллипс_13" data-name="Эллипс 13" cx="1" cy="1.5" rx="1" ry="1.5" transform="translate(0.384 -0.009)"/>
      </g>
    </g>
    <g id="Сгруппировать_71" data-name="Сгруппировать 71" transform="translate(55.6)">
      <g id="Сгруппировать_70" data-name="Сгруппировать 70">
        <path id="Контур_75" data-name="Контур 75" d="M302.367,0A1.367,1.367,0,0,0,301,1.367V4.191a1.367,1.367,0,0,0,2.733,0V1.367A1.367,1.367,0,0,0,302.367,0Z" transform="translate(-301)"/>
      </g>
    </g>
    <g id="Сгруппировать_73" data-name="Сгруппировать 73" transform="translate(46.903 3.694)">
      <g id="Сгруппировать_72" data-name="Сгруппировать 72">
        <path id="Контур_76" data-name="Контур 76" d="M209.806,42.875l-1.933-1.933a1.367,1.367,0,0,0-1.933,1.933l1.933,1.933a1.367,1.367,0,0,0,1.933-1.933Z" transform="translate(-205.54 -40.541)"/>
      </g>
    </g>
    <g id="Сгруппировать_75" data-name="Сгруппировать 75" transform="translate(62.365 3.694)">
      <g id="Сгруппировать_74" data-name="Сгруппировать 74">
        <path id="Контур_77" data-name="Контур 77" d="M379.512,40.942a1.367,1.367,0,0,0-1.933,0l-1.933,1.933a1.367,1.367,0,0,0,1.933,1.933l1.933-1.933A1.367,1.367,0,0,0,379.512,40.942Z" transform="translate(-375.247 -40.541)"/>
      </g>
    </g>
  </g>
</svg>
