<svg xmlns="http://www.w3.org/2000/svg" width="16.817" height="13.995" viewBox="0 0 16.817 13.995">
  <path id="Контур_18" data-name="Контур 18" d="M19.367,35.25a10.228,10.228,0,0,0-4.009,1.85,7.52,7.52,0,0,0-2.467,3.273,14.4,14.4,0,0,0-.735,4.981v3.89h7.211V40.8h-1.8a3.508,3.508,0,0,1,1.8-2.467V35.25M5.752,37.1a6.861,6.861,0,0,0-2.467,3.273,14.4,14.4,0,0,0-.735,4.981v3.89H9.761V40.8h-1.8a3.266,3.266,0,0,1,1.8-2.467V35.25A10.228,10.228,0,0,0,5.752,37.1" transform="translate(-2.55 -35.25)" fill="#d8374f"/>
</svg>
