<svg xmlns="http://www.w3.org/2000/svg" xmlns:xlink="http://www.w3.org/1999/xlink" width="86" height="86" viewBox="0 0 86 86">
  <defs>
    <filter id="Эллипс_11" x="0" y="0" width="86" height="86" filterUnits="userSpaceOnUse">
      <feOffset dy="3" input="SourceAlpha"/>
      <feGaussianBlur stdDeviation="10" result="blur"/>
      <feFlood flood-opacity="0.063"/>
      <feComposite operator="in" in2="blur"/>
      <feComposite in="SourceGraphic"/>
    </filter>
  </defs>
  <g id="Сгруппировать_1020" data-name="Сгруппировать 1020" transform="translate(-47 -133)">
    <g transform="matrix(1, 0, 0, 1, 47, 133)" filter="url(#Эллипс_11)">
      <circle id="Эллипс_11-2" data-name="Эллипс 11" cx="13" cy="13" r="13" transform="translate(30 27)" fill="#fff"/>
    </g>
    <g id="check" transform="translate(80 163)">
      <g id="Сгруппировать_59" data-name="Сгруппировать 59">
        <path id="Контур_62" data-name="Контур 62" d="M9.833,0a9.833,9.833,0,1,0,9.833,9.833A9.833,9.833,0,0,0,9.833,0Zm5.413,6.818L8.223,13.842a.7.7,0,0,1-.993,0l-2.81-2.81a.7.7,0,0,1,.976-1.01l.017.017,2.313,2.313,6.527-6.527a.7.7,0,0,1,.993.993Z" fill="#d8374f"/>
      </g>
    </g>
  </g>
</svg>
