<svg xmlns="http://www.w3.org/2000/svg" width="32" height="32" viewBox="0 0 32 32">
  <path id="Контур_15" data-name="Контур 15" d="M20.231,34.769A1.231,1.231,0,0,0,21.462,36H48.538a1.231,1.231,0,0,0,1.231-1.231V21.193A6.1,6.1,0,0,0,51,17.538V10.154a1.231,1.231,0,0,0-1.231-1.231H41.154V5.231A1.231,1.231,0,0,0,39.923,4H30.077a1.231,1.231,0,0,0-1.231,1.231V8.923H20.231A1.231,1.231,0,0,0,19,10.154v7.385a6.1,6.1,0,0,0,1.231,3.654Zm2.462-1.231V23.171a6.106,6.106,0,0,0,2.462.522h6.154v1.231a1.231,1.231,0,0,0,1.231,1.231h4.923a1.231,1.231,0,0,0,1.231-1.231V23.692h6.154a6.106,6.106,0,0,0,2.462-.522V33.538Zm13.538-9.846H33.769V21.231h2.462ZM31.308,6.462h7.385V8.923H31.308Zm-9.846,4.923H48.538v6.154a3.7,3.7,0,0,1-3.692,3.692H38.692V20a1.231,1.231,0,0,0-1.231-1.231H32.538A1.231,1.231,0,0,0,31.308,20v1.231H25.154a3.7,3.7,0,0,1-3.692-3.692Z" transform="translate(-19 -4)" fill="#ff8698"/>
</svg>
