<svg xmlns="http://www.w3.org/2000/svg" width="29.589" height="36" viewBox="0 0 29.589 36">
  <g id="Сгруппировать_4" data-name="Сгруппировать 4" transform="translate(-481.9 -1278)">
    <g id="noun_Security_1207176" transform="translate(481.9 1278)">
      <path id="Контур_7" data-name="Контур 7" d="M38.482,6.933a.544.544,0,0,0-.36-.6Q31.072,3.224,24.058.085a.756.756,0,0,0-.684,0Q16.321,3.242,9.264,6.346a.49.49,0,0,0-.36.533c.032,3.2,0,6.413.032,9.621a20.973,20.973,0,0,0,.256,3.136,20.649,20.649,0,0,0,3.845,9.106A19.015,19.015,0,0,0,23,35.9a2.268,2.268,0,0,0,1.375,0,18.784,18.784,0,0,0,9.6-6.654,20.667,20.667,0,0,0,4.5-12.962c0-1.386,0-2.769,0-4.155Q38.453,9.533,38.482,6.933Zm-2.52,6.193v3.449a17.157,17.157,0,0,1-3.73,10.759,15.594,15.594,0,0,1-7.968,5.531,1.883,1.883,0,0,1-1.141,0,15.8,15.8,0,0,1-8.281-5.941,17.146,17.146,0,0,1-3.2-7.561,17.416,17.416,0,0,1-.187-2.607c-.025-2.661,0-5.325,0-7.986a.407.407,0,0,1,.292-.443q5.829-2.592,11.673-5.2a.626.626,0,0,1,.565,0q5.833,2.607,11.68,5.192a.45.45,0,0,1,.31.5c-.014,1.437-.007,2.873-.007,4.314Z" transform="translate(-8.9 -0.003)" fill="#ff8698"/>
      <path id="Контур_8" data-name="Контур 8" d="M60.237,20q-5-2.224-10.007-4.447A.608.608,0,0,0,50,15.5V28.286H60.448q.048-.6.052-1.223V20.392A.371.371,0,0,0,60.237,20Z" transform="translate(-35.43 -10.006)" fill="#ff8698"/>
      <path id="Контур_9" data-name="Контур 9" d="M21.957,51.156a14.665,14.665,0,0,0,2.735,6.467A13.513,13.513,0,0,0,31.771,62.7a1.709,1.709,0,0,0,.493.082V50H21.82A11.543,11.543,0,0,0,21.957,51.156ZM32.264,50Z" transform="translate(-17.239 -32.276)" fill="#ff8698"/>
    </g>
  </g>
</svg>
