<svg xmlns="http://www.w3.org/2000/svg" width="33.111" height="32.231" viewBox="0 0 33.111 32.231">
  <g id="noun_Star_2335573" transform="translate(273.999 -32.958)">
    <g id="Сгруппировать_3" data-name="Сгруппировать 3" transform="translate(-273.999 32.958)">
      <path id="Контур_6" data-name="Контур 6" d="M21.05,999.537a1.358,1.358,0,0,1-.93-.493,1.412,1.412,0,0,1-.313-1.02l.883-9.776-6.339-7.363a1.414,1.414,0,0,1-.284-1.357,1.377,1.377,0,0,1,1.006-.934l9.388-2.148L29.374,968a1.353,1.353,0,0,1,2.347,0l4.915,8.427,9.388,2.168a1.376,1.376,0,0,1,1.019.927,1.414,1.414,0,0,1-.277,1.364l-6.359,7.383.883,9.756a1.4,1.4,0,0,1-.557,1.261,1.344,1.344,0,0,1-1.349.15l-8.826-3.886-8.846,3.886a1.344,1.344,0,0,1-.662.1Zm17.311-3.579-.722-8.038a1.412,1.412,0,0,1,.321-1.063L43.2,980.8l-7.723-1.779a1.367,1.367,0,0,1-.883-.634l-4.032-6.933-4.032,6.933a1.367,1.367,0,0,1-.883.634L17.921,980.8l5.215,6.054a1.411,1.411,0,0,1,.341,1.063l-.722,8.017,7.261-3.191a1.342,1.342,0,0,1,1.083,0Z" transform="translate(-14.001 -967.32)" fill="#ff8698"/>
    </g>
  </g>
</svg>
