<svg id="protection" xmlns="http://www.w3.org/2000/svg" width="32" height="32" viewBox="0 0 32 32">
  <path id="Контур_3" data-name="Контур 3" d="M289.013,82a2.816,2.816,0,0,0-2.812,2.813v6.013a2.814,2.814,0,0,0-3.4.445l-4.281,4.281a4.657,4.657,0,0,0-1.373,3.314v9.072a.938.938,0,0,0,.938.938h7.8a.938.938,0,0,0,.938-.937v-4.091l4.213-6.319a4.673,4.673,0,0,0,.787-2.6V84.812A2.816,2.816,0,0,0,289.013,82Zm.938,12.927a2.8,2.8,0,0,1-.472,1.56l-4.37,6.555a.937.937,0,0,0-.157.52V107h-5.928V98.866a2.794,2.794,0,0,1,.824-1.989l4.281-4.281a.938.938,0,0,1,1.326,1.326L282.1,97.275a.937.937,0,0,0,1.326,1.326l3.643-3.643a3.415,3.415,0,0,0,1.007-2.431V84.812a.938.938,0,0,1,1.875,0Z" transform="translate(-259.825 -76.875)" fill="#ff8698"/>
  <path id="Контур_4" data-name="Контур 4" d="M9.025,91.27a2.814,2.814,0,0,0-3.4-.445V84.812a2.812,2.812,0,1,0-5.625,0V94.927a4.673,4.673,0,0,0,.787,2.6L5,103.846v4.091a.938.938,0,0,0,.938.938h7.8a.938.938,0,0,0,.938-.937V98.866a4.657,4.657,0,0,0-1.373-3.314ZM6.718,103.042l-4.37-6.555a2.8,2.8,0,0,1-.472-1.56V84.812a.938.938,0,0,1,1.875,0v7.715a3.415,3.415,0,0,0,1.007,2.431L8.4,98.6a.937.937,0,0,0,1.326-1.326L6.373,93.922A.937.937,0,0,1,7.7,92.6l4.281,4.281a2.794,2.794,0,0,1,.824,1.989V107H6.875v-3.437a.937.937,0,0,0-.157-.52Z" transform="translate(0 -76.875)" fill="#ff8698"/>
  <path id="Контур_5" data-name="Контур 5" d="M129.125,5.12a5.12,5.12,0,0,0-8.74-3.62l-.323.323L119.74,1.5a5.12,5.12,0,1,0-7.24,7.24l6.9,6.9a.937.937,0,0,0,1.326,0l6.9-6.9a5.086,5.086,0,0,0,1.5-3.62ZM126.3,7.414l-6.237,6.237-6.237-6.237a3.245,3.245,0,1,1,4.589-4.589l.986.986a.937.937,0,0,0,1.326,0l.986-.986A3.245,3.245,0,1,1,126.3,7.414Z" transform="translate(-104.063 0)" fill="#ff8698"/>
</svg>
