<svg xmlns="http://www.w3.org/2000/svg" width="17.848" height="22" viewBox="0 0 17.848 22">
  <g id="apple-pay" transform="translate(0.026)">
    <path id="Контур_63" data-name="Контур 63" d="M12.162,3.524A4.918,4.918,0,0,0,13.283,0a5.075,5.075,0,0,0-3.257,1.655A4.642,4.642,0,0,0,8.851,5.019a3.835,3.835,0,0,0,3.31-1.5m1.121,1.815c-1.815-.107-3.364,1.014-4.218,1.014s-2.189-.961-3.631-.961A5.357,5.357,0,0,0,.9,8.169C-1.027,11.533.362,16.5,2.284,19.222c.908,1.335,2.029,2.83,3.471,2.777,1.388-.053,1.922-.908,3.577-.908s2.136.908,3.631.854,2.456-1.335,3.364-2.723a10.754,10.754,0,0,0,1.5-3.1,4.837,4.837,0,0,1-.587-8.6,4.971,4.971,0,0,0-3.951-2.189" transform="translate(0)"/>
  </g>
</svg>
