<svg xmlns="http://www.w3.org/2000/svg" width="27.447" height="20" viewBox="0 0 27.447 20">
  <g id="credit-card" transform="translate(0 -63)">
    <path id="Контур_68" data-name="Контур 68" d="M27.448,64.893V81.1a1.891,1.891,0,0,1-1.893,1.893H1.893A1.891,1.891,0,0,1,0,81.1V64.893A1.891,1.891,0,0,1,1.893,63H25.555A1.891,1.891,0,0,1,27.448,64.893Z" transform="translate(0)" fill="#fe4f60"/>
    <path id="Контур_69" data-name="Контур 69" d="M27.447,64.893V66.36a.949.949,0,0,1-.9.946A23.073,23.073,0,0,0,5.6,82.385.948.948,0,0,1,4.715,83H1.893A1.891,1.891,0,0,1,0,81.107V64.893A1.891,1.891,0,0,1,1.893,63H25.555a1.891,1.891,0,0,1,1.893,1.893Z" fill="#ff6d7a"/>
    <path id="Контур_70" data-name="Контур 70" d="M0,135H27.448v4.022H0Z" transform="translate(0 -67.741)" fill="#42434d"/>
    <path id="Контур_71" data-name="Контур 71" d="M26.8,135a24.662,24.662,0,0,0-12.5,4.011c-.024.018.645.012-14.3.012V135Z" transform="translate(0 -67.741)" fill="#4d4e59"/>
    <g id="Сгруппировать_61" data-name="Сгруппировать 61" transform="translate(3.372 75.245)">
      <path id="Контур_72" data-name="Контур 72" d="M61.437,270.946H57.473a.473.473,0,1,1,0-.946h3.963a.473.473,0,1,1,0,.946Z" transform="translate(-57 -270)" fill="#fff"/>
      <path id="Контур_73" data-name="Контур 73" d="M61.437,320.946H57.473a.473.473,0,1,1,0-.946h3.963a.473.473,0,1,1,0,.946Z" transform="translate(-57 -317.042)" fill="#fff"/>
    </g>
  </g>
</svg>
