<svg id="google-icon" xmlns="http://www.w3.org/2000/svg" width="23.52" height="24" viewBox="0 0 23.52 24">
  <path id="Контур_64" data-name="Контур 64" d="M142.07,109.214a10.283,10.283,0,0,0-.253-2.453H130.55v4.453h6.613a5.864,5.864,0,0,1-2.453,3.893l-.022.149,3.562,2.76.247.025a11.733,11.733,0,0,0,3.573-8.827" transform="translate(-118.55 -96.948)" fill="#4285f4"/>
  <path id="Контур_65" data-name="Контур 65" d="M24.645,166a11.438,11.438,0,0,0,7.947-2.907l-3.787-2.933a7.1,7.1,0,0,1-4.16,1.2,7.224,7.224,0,0,1-6.827-4.987l-.141.012-3.7,2.867-.048.135A11.991,11.991,0,0,0,24.645,166" transform="translate(-12.645 -141.997)" fill="#34a853"/>
  <path id="Контур_66" data-name="Контур 66" d="M5.173,79.13a7.388,7.388,0,0,1-.4-2.373,7.763,7.763,0,0,1,.387-2.373l-.007-.159L1.4,71.312l-.123.058a11.975,11.975,0,0,0,0,10.773L5.173,79.13" transform="translate(0 -64.757)" fill="#fbbc05"/>
  <path id="Контур_67" data-name="Контур 67" d="M24.645,4.64a6.651,6.651,0,0,1,4.64,1.787L32.672,3.12A11.529,11.529,0,0,0,24.645,0a11.991,11.991,0,0,0-10.72,6.613L17.8,9.627a7.254,7.254,0,0,1,6.84-4.987" transform="translate(-12.645 0)" fill="#eb4335"/>
</svg>
