<svg xmlns="http://www.w3.org/2000/svg" width="176" height="31" viewBox="0 0 176 31">
  <g id="Group_1020" data-name="Group 1020" transform="translate(-309 750)">
    <g id="Group_1019" data-name="Group 1019">
      <circle id="Ellipse_1" data-name="Ellipse 1" cx="3.5" cy="3.5" r="3.5" transform="translate(321 -738)" fill="#fa311f"/>
      <g id="crosshair" transform="translate(312 -747)">
        <circle id="Ellipse_4" data-name="Ellipse 4" cx="12.5" cy="12.5" r="12.5" fill="none" stroke="#79899f" stroke-linecap="round" stroke-linejoin="round" stroke-width="2"/>
        <line id="Line_12" data-name="Line 12" x1="5" transform="translate(20 13)" fill="none" stroke="#79899f" stroke-linecap="round" stroke-linejoin="round" stroke-width="2"/>
        <line id="Line_13" data-name="Line 13" x1="5" transform="translate(0 13)" fill="none" stroke="#79899f" stroke-linecap="round" stroke-linejoin="round" stroke-width="2"/>
        <line id="Line_14" data-name="Line 14" y1="5" transform="translate(13)" fill="none" stroke="#79899f" stroke-linecap="round" stroke-linejoin="round" stroke-width="2"/>
        <line id="Line_15" data-name="Line 15" y1="5" transform="translate(13 20)" fill="none" stroke="#79899f" stroke-linecap="round" stroke-linejoin="round" stroke-width="2"/>
      </g>
      <path id="Path_84" data-name="Path 84" d="M9.475-2.748A2.365,2.365,0,0,1,8.49-.718,4.566,4.566,0,0,1,5.756,0H.937V-9.632H5.346a4.783,4.783,0,0,1,2.669.612,2.041,2.041,0,0,1,.906,1.808,2.135,2.135,0,0,1-.455,1.384,2.329,2.329,0,0,1-1.384.762,2.962,2.962,0,0,1,1.781.735A2.113,2.113,0,0,1,9.475-2.748ZM6.891-6.938a1.023,1.023,0,0,0-.414-.923A2.24,2.24,0,0,0,5.25-8.135h-2.3v2.386H5.264a2.049,2.049,0,0,0,1.241-.3A1.056,1.056,0,0,0,6.891-6.938Zm.561,4.033q0-1.354-1.941-1.354H2.953V-1.5H5.585A2.3,2.3,0,0,0,7-1.849,1.261,1.261,0,0,0,7.451-2.905Zm13.1-1.955a5.646,5.646,0,0,1-.595,2.646,4.1,4.1,0,0,1-1.7,1.747,5.306,5.306,0,0,1-2.584.6A4.711,4.711,0,0,1,12.113-1.2,5.053,5.053,0,0,1,10.825-4.86,4.918,4.918,0,0,1,12.11-8.477a4.8,4.8,0,0,1,3.575-1.3,4.786,4.786,0,0,1,3.579,1.313A4.92,4.92,0,0,1,20.552-4.86Zm-2.058,0A3.7,3.7,0,0,0,17.756-7.3a2.548,2.548,0,0,0-2.071-.885,2.581,2.581,0,0,0-2.092.878,3.7,3.7,0,0,0-.738,2.451,3.8,3.8,0,0,0,.755,2.5,2.533,2.533,0,0,0,2.061.913,2.557,2.557,0,0,0,2.088-.889A3.857,3.857,0,0,0,18.494-4.86ZM30.071-2.775A2.494,2.494,0,0,1,29.022-.612a5.281,5.281,0,0,1-3.08.749A5.476,5.476,0,0,1,23.037-.52a3.011,3.011,0,0,1-1.354-1.989l1.948-.321A1.733,1.733,0,0,0,24.4-1.719,3.1,3.1,0,0,0,26-1.374q2.112,0,2.112-1.285a.967.967,0,0,0-.243-.677,1.834,1.834,0,0,0-.684-.444,11.386,11.386,0,0,0-1.692-.431,15.335,15.335,0,0,1-1.5-.407,4.251,4.251,0,0,1-.766-.362,2.256,2.256,0,0,1-.581-.5,2.184,2.184,0,0,1-.373-.69,2.849,2.849,0,0,1-.133-.909,2.3,2.3,0,0,1,.981-2,4.918,4.918,0,0,1,2.854-.694,5.162,5.162,0,0,1,2.69.561,2.674,2.674,0,0,1,1.159,1.853L27.863-7.1a1.511,1.511,0,0,0-.612-.937,2.34,2.34,0,0,0-1.323-.314Q24.1-8.347,24.1-7.2a.943.943,0,0,0,.195.615,1.507,1.507,0,0,0,.578.407,9.9,9.9,0,0,0,1.552.42,12.373,12.373,0,0,1,1.986.543,3.086,3.086,0,0,1,.947.581,2.214,2.214,0,0,1,.533.793A2.847,2.847,0,0,1,30.071-2.775Zm5.971-5.3V0H34.025V-8.073h-3.11V-9.632h8.244v1.559ZM49.5-4.86A5.646,5.646,0,0,1,48.9-2.215,4.1,4.1,0,0,1,47.2-.468a5.306,5.306,0,0,1-2.584.6A4.711,4.711,0,0,1,41.06-1.2,5.053,5.053,0,0,1,39.771-4.86a4.918,4.918,0,0,1,1.285-3.616,4.8,4.8,0,0,1,3.575-1.3A4.786,4.786,0,0,1,48.21-8.463,4.92,4.92,0,0,1,49.5-4.86Zm-2.058,0A3.7,3.7,0,0,0,46.7-7.3a2.548,2.548,0,0,0-2.071-.885,2.581,2.581,0,0,0-2.092.878A3.7,3.7,0,0,0,41.8-4.86a3.8,3.8,0,0,0,.755,2.5,2.533,2.533,0,0,0,2.061.913,2.557,2.557,0,0,0,2.088-.889A3.857,3.857,0,0,0,47.441-4.86ZM57.028,0l-4.2-7.417a16.09,16.09,0,0,1,.123,1.736V0H51.163V-9.632h2.3l4.259,7.479a16,16,0,0,1-.123-1.88v-5.6h1.791V0ZM67.459-8.073v2.98h4.929v1.559H67.459V0H65.443V-9.632h7.1v1.559ZM74.135,0V-9.632h2.017V0ZM84.781,0,82.546-3.657H80.181V0H78.164V-9.632h4.813a4.193,4.193,0,0,1,2.659.742,2.557,2.557,0,0,1,.937,2.129A2.752,2.752,0,0,1,86-5.014a2.692,2.692,0,0,1-1.552.967L87.051,0Zm-.239-6.679q0-1.388-1.777-1.388H80.181v2.844H82.82A1.9,1.9,0,0,0,84.1-5.605,1.351,1.351,0,0,0,84.542-6.679ZM88.415,0V-9.632h7.574v1.559H90.431v2.42h5.141v1.559H90.431v2.536h5.838V0ZM104.7,0l-.854-2.461h-3.671L99.321,0H97.3l3.514-9.632H103.2L106.7,0Zm-2.693-8.148-.041.15q-.068.246-.164.561t-1.176,3.459H103.4l-.95-2.769-.294-.93ZM114.76,0l-2.235-3.657h-2.365V0h-2.017V-9.632h4.813a4.193,4.193,0,0,1,2.659.742,2.557,2.557,0,0,1,.937,2.129,2.752,2.752,0,0,1-.574,1.747,2.692,2.692,0,0,1-1.552.967L117.03,0Zm-.239-6.679q0-1.388-1.777-1.388h-2.584v2.844H112.8a1.9,1.9,0,0,0,1.285-.383A1.351,1.351,0,0,0,114.521-6.679ZM126.391,0V-5.838q0-.2,0-.4t.065-1.7q-.485,1.839-.718,2.563L124.006,0H122.57l-1.736-5.373L120.1-7.937q.082,1.586.082,2.1V0h-1.791V-9.632h2.7l1.723,5.387.15.52.328,1.292.431-1.545L125.5-9.632h2.687V0ZM138.05-2.775A2.494,2.494,0,0,1,137-.612a5.281,5.281,0,0,1-3.08.749,5.476,5.476,0,0,1-2.905-.656,3.011,3.011,0,0,1-1.354-1.989l1.948-.321a1.733,1.733,0,0,0,.772,1.111,3.1,3.1,0,0,0,1.593.345q2.112,0,2.112-1.285a.967.967,0,0,0-.243-.677,1.834,1.834,0,0,0-.684-.444,11.386,11.386,0,0,0-1.692-.431,15.335,15.335,0,0,1-1.5-.407,4.251,4.251,0,0,1-.766-.362,2.256,2.256,0,0,1-.581-.5,2.185,2.185,0,0,1-.373-.69,2.849,2.849,0,0,1-.133-.909,2.3,2.3,0,0,1,.981-2,4.918,4.918,0,0,1,2.854-.694,5.162,5.162,0,0,1,2.69.561A2.674,2.674,0,0,1,137.8-7.362l-1.955.267a1.511,1.511,0,0,0-.612-.937,2.34,2.34,0,0,0-1.323-.314q-1.832,0-1.832,1.148a.943.943,0,0,0,.195.615,1.507,1.507,0,0,0,.578.407,9.9,9.9,0,0,0,1.552.42,12.373,12.373,0,0,1,1.986.543,3.086,3.086,0,0,1,.947.581,2.214,2.214,0,0,1,.533.793A2.847,2.847,0,0,1,138.05-2.775Z" transform="translate(345 -729)" fill="#79899f"/>
    </g>
    <rect id="Rectangle_91" data-name="Rectangle 91" width="176" height="31" transform="translate(309 -750)" fill="none"/>
  </g>
</svg>
